<?xml version="1.0" encoding="UTF-8"?>
<svg id="Warstwa_1" data-name="Warstwa 1" xmlns="http://www.w3.org/2000/svg" viewBox="0 0 462.49 450">
  <defs>
    <style>
      .cls-1 {
        fill: #010101;
        fill-rule: evenodd;
      }
    </style>
  </defs>
  <path class="cls-1" d="M209.36,1.9c-1.96,1.58-2.31,2.72-2.13,6.75.4,9.02.34,12.83-.29,18.1-.35,2.89-.76,5.25-.91,5.25s-2.19-.67-4.53-1.5c-5.51-1.94-8.4-1.94-5,0,1.38.79,4.08,1.95,6,2.59,1.92.64,4.29,1.85,5.25,2.69,1.93,1.68,2,1.51,1.79-4.28-.08-2.2.55-5.96,1.4-8.35,1.22-3.45,1.32-5.22.47-8.6-1.65-6.57-.93-9.99,2.18-10.35,1.42-.16,3.03.29,3.57,1,2.19,2.89,3.59,9.7,2.91,14.18-.7,4.68,1.05,20.31,2.47,22.12.43.55,3.83,2.56,7.55,4.47l6.76,3.47,34.58-.23c19.02-.13,35.39-.49,36.38-.8,2.98-.94,3.7-4.8,4.28-22.75.3-9.42.74-17.31.98-17.55.97-.97,1.26.96,1.85,12.63.49,9.71,1.04,12.94,2.65,15.66,2.14,3.63,4.48,5.16,5.46,3.57.33-.53,0-.96-.73-.96-3.92,0-4.7-6.97-3.25-28.75.66-9.89.61-10.25-1.37-10.25-1.48,0-2.14.75-2.37,2.67-.46,3.89-2.82,4.24-2.82.41,0-2.42-.43-3.08-2-3.08-1.94,0-2,.67-2,21.84s-.11,21.95-2.01,23.66c-1.74,1.57-4.45,1.88-20.25,2.3-18.09.47-46.93-1.05-53.83-2.85-5.97-1.56-6.67-3.1-8-17.69-.97-10.58-.96-13.51.06-14.73.88-1.07,1.06-3.18.58-7.03-.55-4.44-1.05-5.51-2.53-5.51-1.01,0-2.02.51-2.22,1.14-.29.86-.92.86-2.52,0-3.08-1.65-5.72-1.41-8.4.76M398.64,8.27c-.63,4.53-1.15,14.39-1.15,21.92,0,9.86-.35,13.92-1.25,14.5-.69.44-18.37.84-39.29.87-20.92.03-38.63.43-39.36.88-3.52,2.17,3.23,2.59,33.39,2.08,76.16-1.3,93.54-1.72,102.5-2.44,8.47-.69,7.33-.79-10.5-.97-26.52-.27-39.68-1-41.23-2.29-1.76-1.46-1.62-13.91.23-20.81.81-3.02,1.48-8,1.49-11.05,0-3.05.52-6.06,1.15-6.68,1.68-1.68.45-3.78-2.37-4.02-2.36-.19-2.52.16-3.62,8.02M93.8,13.39c-9.26,1.16-13.39,2.61-7.43,2.61,1.77,0,4.59.71,6.26,1.57,3.41,1.76,4.79,1.26,2.88-1.05-1.12-1.35.04-1.54,10.11-1.68,6.25-.09,12.72-.26,14.37-.38,5.55-.41,28.5,4.08,35.5,6.95,1.92.79,6.88,2.68,11,4.19,4.12,1.52,8.41,3.55,9.51,4.53,1.11.97,4.48,2.42,7.5,3.22,3.02.8,10.66,3.94,16.99,6.98,6.33,3.04,16.14,7.58,21.81,10.09,5.67,2.51,13.44,6.59,17.27,9.07,3.83,2.48,9.09,5.59,11.69,6.91,3.61,1.84,14.97,10.09,18.11,13.17.21.21.44,1.4.5,2.66.1,1.91,2.83,3.66,16.78,10.78,25.2,12.85,29.64,15.28,32.51,17.74,1.45,1.24,3.03,2.26,3.52,2.26,1.07,0,25.8,24.96,25.8,26.04,0,.42,1.51,3.43,3.35,6.69,1.84,3.26,3.65,7.13,4.02,8.6.37,1.47,1.16,2.67,1.76,2.67,2.76,0-3.35-16.75-9.41-25.79-3.65-5.45-15.33-17.16-20.93-20.99-5.42-3.71-16.83-10.11-32.62-18.32-8.63-4.49-15.06-8.74-21.46-14.21-11.73-10.01-30.36-21.65-48.72-30.44-17.56-8.41-21.61-10.26-22.42-10.26-.34,0-3.42-1.32-6.85-2.94-18.51-8.72-37.68-15.75-53.12-19.47-9.19-2.22-12.85-2.58-24.94-2.47-7.79.07-18.3.64-23.36,1.27M.48,80.69c0,1.21.53,2.51,1.15,2.9.82.51,1-.78.63-4.6-.44-4.59-.21-5.59,1.74-7.4,1.23-1.15,3.71-5.83,5.51-10.41,3.32-8.46,12.95-24.02,17.16-27.71,4.18-3.67,8.25-5.84,12.32-6.58,2.2-.4,8.23-2.37,13.4-4.38,7.82-3.05,10.51-3.63,16-3.47,14.28.4,18.43-.04,16.69-1.79-1.02-1.03-23.37-1.31-27.09-.34M.09,175.92c.75-.63,3.04-.8,5.59-.42,7.07,1.06,10.18-1.85,14.92-13.94,2.14-5.47,3.89-10.93,3.89-12.13s-1.59-3.65-3.75-5.61c-2.06-1.88-5.53-5.6-7.7-8.28-2.17-2.67-4.11-4.36-4.32-3.75-.4,1.21,3.5,7.22,5.53,8.51.69.44,2.4,2.02,3.78,3.5,2.14,2.29,2.42,3.3,1.88,6.69-1,6.27-6.55,19.49-8.65,20.62-1.05.56-5,.84-8.79.62M57.99,16.91c-1.65.43-6.52,2.2-10.83,3.94-4.3,1.74-8.49,3.16-9.3,3.16-3,0-10.57,4.2-14.3,7.93-4.73,4.73-10.29,14.32-15.57,26.85-2.2,5.22-4.77,9.99-5.71,10.58M243.93,52.9c.3.49,5.62,3.89,11.81,7.55,10.3,6.08,15.45,9.34,26.37,16.66,2.14,1.43,6.21,4.58,9.05,7,2.84,2.42,10.46,7.09,16.94,10.39,20.95,10.67,29.4,17.14,43.17,33,4.12,4.75,4.99,5.4,4.19,3.1-1.93-5.47-13.18-18.21-23.06-26.1-2.94-2.35-4.61-3.29-20.12-11.34-6.8-3.53-17.05-10.12-24.42-15.71-6.98-5.29-16.24-11.68-20.57-14.2-4.33-2.51-8.1-4.95-8.39-5.42-.29-.46,9.74-.9,22.29-.96,24.8-.13,36.99-.96,34.01-2.31-.99-.45-15.69-.62-32.67-.37-24.04.35-31.39.17-33.2-.84-2.68-1.49-6.21-1.79-5.39-.46M388.49,53.07c-45.31.75-65.89,1.49-66.82,2.42-1.05,1.05,54.36,1.18,94.32.22,13.75-.33,29.84-.62,35.75-.65,8.87-.04,10.75-.31,10.75-1.55,0-1.7,1.81-1.69-74-.43M116.07,93.75c-1.61.84-7.24,2.35-12.5,3.35-13.08,2.49-16.52,3.72-19.71,7.05-3.2,3.34-2.67,3.56,2.43.98,2.04-1.03,7.67-2.85,12.52-4.03,9.6-2.35,21.69-6.96,21.69-8.27,0-1.1-.94-.9-4.43.92M69.6,98.65c-1.08,2.36-.84,3.18,2.2,7.76,3.07,4.62,11.42,21.21,13.09,26.01.49,1.41.96,1.62,1.79.8.82-.82.16-3.09-2.53-8.61-2.01-4.12-3.65-8.13-3.65-8.91s-1.21-3.17-2.68-5.31c-1.47-2.14-3.65-6.25-4.84-9.13l-2.16-5.24-1.2,2.64M87.61,136.05c-.06,1.4.31,2.98.83,3.5,2.75,2.77,4.8,44.57,2.31,47.06-1.53,1.53-1.65,6.03-.18,6.94.59.36,1.48,1.63,1.99,2.81.64,1.49.73.67.3-2.68-.58-4.59-.43-5.02,3.2-8.73,3.58-3.67,4.31-6.74.94-3.94-.85.71-1.86.98-2.23.6-.38-.38-.99-8.2-1.36-17.39-.65-16.18-1.64-22.94-3.7-25.49-.55-.67-1.21-2.12-1.48-3.22-.4-1.63-.51-1.52-.61.55M1.13,216.58c24.19,1.22,36.64.29,38.86-2.89,1.05-1.5,1.15-2.41.36-3.36-.6-.72-.86-1.89-.59-2.6.27-.71.11-3.75-.35-6.76-.47-3.01-1.76-13.28-2.89-22.82-1.91-16.28-3.63-24.57-6.49-31.38-1.02-2.42-1.4-2.65-2.41-1.44M15.99,209.96c11,.69,20.67,1.09,21.5.9.83-.19,1.5.32,1.5,1.15,0,1.3-3.35,1.46-25.53,1.16M27.63,145.33c-.94,1.14-.78,2.49.76,6.4,1.08,2.73,2.45,8.51,3.05,12.86,3.42,24.75,5.06,37.84,5.06,40.57v3.08l-14.75-.87M135.49,150c0,.55-1.69,1-3.75,1.01-2.06,0-6,1.12-8.75,2.47s-5.54,2.47-6.19,2.49-1.51.55-1.9,1.18c-.52.84.47.96,3.69.43,2.42-.4,6.8-.91,9.73-1.14,2.93-.23,6.79-1.11,8.57-1.96,3.43-1.63,4.4-1.42,14.29,3.09,2.38,1.09,6.94,1.41,18.14,1.31,8.23-.08,15.37.11,15.86.42.5.31,6.85.68,14.11.82l13.2.26,8.39,6.75c6.06,4.88,10.29,9.42,15.25,16.4,10.1,14.2,9.95,13.91,8.8,17.15-1.17,3.3-2.19,3.38-17.99,1.54-5.53-.65-12.34-.9-15.12-.57l-5.06.6-1.28,5.63c-.7,3.09-1.33,7.84-1.4,10.55-.07,2.92-.62,5.09-1.35,5.33-.74.25-1.23,2.24-1.23,4.95,0,4.93-2.55,19.99-4.2,24.8-1.64,4.78-2.11,8.5-1.07,8.5,1.26,0,4.83-7.95,4.48-9.99-.15-.88.47-3.6,1.36-6.05.9-2.45,1.78-8.06,1.95-12.46.23-5.8.69-8,1.65-8,.73,0,1.48,1.12,1.67,2.5s.8,2.78,1.35,3.12c.66.41.59,2.57-.19,6.32-.65,3.13-1.31,7.61-1.47,9.95-.29,4.36-7.68,19.79-11.72,24.5-1.13,1.31-2.95,4.69-4.04,7.5-5.51,14.13-8.85,21.06-15.69,32.56-4.11,6.91-8.99,16.16-10.85,20.56-3.8,8.98-4.48,10.56-9.63,22.39-2.01,4.62-3.46,8.59-3.22,8.82,1.01,1.01,12.62-8.59,12.62-10.44s-.77-1.61-3.84.82c-2.21,1.75-2.71,1.84-2.97.57-.39-1.89,2.18-7.02,5.88-11.72,1.54-1.96,3.59-5.56,4.56-8,2.48-6.26,10.65-21.98,14.64-28.2,1.85-2.88,4.67-7.27,6.27-9.74,7.84-12.15,11.63-19.86,15.95-32.5,2.07-6.05,4.6-12.65,5.62-14.67,1.23-2.43,1.48-3.8.75-4.04-.81-.27-.8-1.79.02-5.63.62-2.89,1.13-6.92,1.14-8.96,0-2.04.29-4.75.64-6.03.59-2.22.92-2.3,6.74-1.65,7.11.79,18.49,3.03,19.25,3.78.29.29-.35,3.82-1.43,7.86-6.53,24.63-9.83,47.16-11.86,81.05l-.64,10.71-19.11-.54c-22.41-.63-30.9.18-31.44,3.01-.29,1.52,0,1.73,1.49,1.07,2.48-1.11,30.09-1.42,38.85-.43,5.72.64,7.32.5,8.75-.78,1.65-1.47,1.75-1.11,1.77,6.34,0,4.35.4,8.5.86,9.24.99,1.57,1.79-6.16,3.08-29.83,1.75-32.16,5.5-57.68,11.71-79.73.81-2.88,1.33-6.7,1.16-8.5-.31-3.18-.49-3.3-6.82-4.45-11.23-2.05-24.78-2.75-26.44-1.37-2.35,1.95-3.13-3.33-1.46-9.9l1.41-5.56,6.35-.3c3.49-.16,11.01.39,16.71,1.24,14.38,2.14,16.46,1.15,16.42-7.77-.01-2.98-.89-5.45-3.07-8.67-1.68-2.48-3.3-5.74-3.61-7.25-.3-1.51-.97-2.75-1.49-2.75s-.66.45-.32,1,.25,1-.19.99-2.57-2.74-4.72-6.08c-2.15-3.34-5.08-6.81-6.5-7.7-1.42-.89-5.14-3.72-8.26-6.28-5.58-4.58-5.82-4.67-14.81-5.37-5.02-.39-12.28-1.58-16.12-2.65-6.51-1.8-7.39-1.83-12.87-.41-10.07,2.61-19.32,2.15-28.34-1.41-7.91-3.12-12.69-3.91-12.69-2.08M143.99,162.43c-.55.22-3.7,1.19-7,2.15-5.26,1.53-13.1,4.84-14.47,6.1-.26.24.12.79.83,1.24.77.48,4.22-.32,8.47-1.97,14.89-5.77,31.25-6.07,45.27-.82,10.91,4.08,22.22,17.66,24.01,28.8.89,5.57,2.4,5.14,2.39-.67-.01-6.61-3.78-14.13-10.72-21.4-9.27-9.72-17.42-12.77-35.77-13.4-6.6-.23-12.45-.24-13-.01M187.99,165.62c6.47,2.74,17.03,10.09,20.13,14.01,1.58,2,3.67,4.59,4.64,5.75,1.68,2.01,1.73,2.02,1.08.12-3.13-9.18-15.89-19.75-25.34-20.99l-4.5-.59,4,1.69M195.85,175.54c5.2,5.07,10.64,15.15,10.64,19.74,0,3.05,1.5,4.04,5.33,3.54l2.5-.32-3.66-7.24c-4.66-9.21-10.13-15.7-15.47-18.36l-4.19-2.09,4.86,4.73M357.04,191.25c-.21.69-.66,3.18-.98,5.53-.33,2.35-2.84,8.86-5.58,14.45-2.74,5.6-4.98,10.95-4.98,11.89s-.42,1.86-.93,2.05c-1.15.41-4.73,13.53-6.65,24.33-1.68,9.51-1.74,10.82-.42,10,.55-.34,1-1.88,1-3.43,0-3.74,4.71-22.18,5.99-23.46,1.45-1.45,1.29,2.27-.43,9.69-.79,3.41-2.16,10.48-3.05,15.71-2.28,13.38-3.47,18.35-4.67,19.5-.72.69-.87-1.31-.47-6.5l.57-7.5-1.35,6.5c-.74,3.58-1.68,9.42-2.08,13s-2.51,12.73-4.69,20.35c-3.85,13.47-4.34,18.77-1.45,15.58.71-.79,2.27-4.58,3.47-8.43,1.19-3.85,3.52-11.23,5.16-16.39s4.12-15.29,5.52-22.5c1.39-7.21,3.17-16.26,3.94-20.11.77-3.85,1.69-9.48,2.04-12.5.88-7.65,3.94-18.53,6.94-24.71,1.39-2.86,2.64-6.61,2.77-8.33.24-3.08,1.74-5.31,1.87-2.78.1,1.81,1.77-2.26,1.86-4.51.06-1.68-.06-1.7-1.55-.2-2.25,2.25-2.92,1.14-.98-1.63,1.8-2.56,2.15-6.84.57-6.84-.57,0-1.21.56-1.42,1.25M386.51,206.75c-19.22.49-17.44,2.25,2.28,2.25,9.18,0,16.7-.4,16.7-.88,0-.93-3.79-2.23-5.5-1.89-.55.11-6.62.35-13.48.52M411.49,208.45c0,1.23,3.78,1.46,24.61,1.51,13.54.03,25.01.3,25.5.61.49.3.89-.08.89-.86,0-1.13-3.47-1.54-17.75-2.07-9.76-.36-20.13-.27-23.03.2-2.92.48-5.52.48-5.81,0-.89-1.43-4.41-.95-4.41.6M96.97,223.5c.33,6.6,1.08,15.5,1.68,19.77.96,6.86.84,8.68-.97,15.5-1.13,4.25-3.47,13.8-5.2,21.23-4.54,19.52-8.26,30.94-12.55,38.5-2.69,4.74-6.62,15.19-12.41,33-2.32,7.15-4.72,13.6-5.32,14.33-.6.73-1.42,6.6-1.82,13.05-.49,7.83-1.47,13.86-2.94,18.17-1.22,3.55-2.37,7.71-2.57,9.25-.35,2.71-8.41,13.11-10.9,14.07-.67.26-3.32.79-5.88,1.17-3.31.5-6.29,1.97-10.3,5.08-4.7,3.65-6.37,4.38-10.03,4.38-2.67,0-4.14.39-3.77,1,1.51,2.44,11.06.58,15-2.9,2.18-1.93,5.78-3.44,12.03-5.03,2.79-.71,6.14-3.02,10.87-7.51,5.96-5.65,6.78-6.85,6.32-9.26-.29-1.53-.05-3.67.54-4.77,2.08-3.89,4.7-16.15,5.36-25.03.36-4.95,1.08-9.81,1.58-10.79,1.6-3.11,9.8-27.14,9.8-28.75,0-1.54,6.47-17.76,7.47-18.76,1.15-1.15.42,3.06-1.82,10.5-3.54,11.74-8.71,36.08-10.74,50.55-2.36,16.8,1.72,34.9,9.32,41.29,1.72,1.45,3.19,3.6,3.27,4.8.12,1.78,1.12,2.38,5.58,3.32,2.98.63,8.57,1.2,12.42,1.26,3.85.06,10.8.54,15.45,1.08,4.65.54,31.88,1,60.51,1.04,45.02.06,52.57-.14,55.8-1.49,2.05-.86,3.73-2.23,3.73-3.05,0-1.1,1.18-1.49,4.5-1.49,2.52,0,4.5-.47,4.5-1.07,0-.68-2.05-.91-5.63-.65-4.08.3-6.49,1.11-8.78,2.93l-3.15,2.51-8.97-1.36c-14.4-2.18-39.97-3.38-48.66-2.29-25.89,3.25-35.09,3.81-46.11,2.85-6.16-.54-16.24-1.4-22.39-1.9-6.15-.5-12.45-1.57-14-2.37-3.21-1.67-7.61-6.89-11.47-13.62-3.94-6.88-4.68-20.44-1.99-36.54,2.59-15.45,7.74-39.69,9.69-45.61.84-2.54,1.44-6.36,1.35-8.5-.11-2.36,1.45-8.59,3.96-15.84,2.28-6.58,4.82-15.58,5.65-20,.83-4.43,2.18-10.3,3.01-13.05.83-2.75,2.6-10.71,3.94-17.68,2.47-12.84,5.23-19.92,9.98-25.57,2.93-3.48,3.13-4.25,1.13-4.25-1.89,0-7.57,6.96-7.57,9.28s-2.94,8.12-3.68,7.37c-.29-.29-.66-2.47-.81-4.84-.97-15.08-1.89-21.93-3.18-23.52-1.27-1.57-1.37-.34-.85,10.22M3.24,257.49c2.03.47,3.25.38,3.25-.25M191.07,261.92c-.5.78-1.26,3.03-1.68,5-1.08,5.08-7.32,22.37-9.88,27.37-1.18,2.31-3.27,6.4-4.64,9.08-1.37,2.68-2.34,5.61-2.16,6.5.37,1.81,7.16-9.58,10.05-16.87,6.5-16.39,11.93-36.75,8.29-31.08M10.31,366.59c1.47-.76,5.6-4.6,9.18-8.53,3.58-3.93,7.62-7.69,8.98-8.35s3.54-3.12,4.82-5.45c1.29-2.33,2.96-4.24,3.73-4.24s1.84-1.69,2.38-3.75c3.5-13.17,4.08-16.44,4.08-23.24,0-6.33-.33-7.85-2-9.28-1.1-.94-2-2.62-2-3.72,0-3.03-1.82-2.41-2.18.74M3.34,376.62c7.89.95,14.91,2.28,15.59,2.96.99.99,1.6.62,3.03-1.78,2.38-4.04,1.02-4.8-7.4-4.12M3.94,308.01l14.03.63c11.72.52,14.66.36,17.9-1.01,2.13-.9,4.01-1.63,4.18-1.63s.07,4.16-.24,9.25c-.97,16.34-5.03,24.55-17.62,35.62-3.36,2.95-6.95,6.44-7.98,7.76-2.86,3.64-5.2,4.57-8.12,3.24-2.01-.92-3.21-.81-6.1.56M37.31,300.75c-.49,4.3-4.94,5.37-18.82,4.53M454.99,303.56c-10.11,2.79-44.03,5.46-74,5.83-25.44.31-29.92.61-36.5,2.41-12.65,3.46-17.61,6.09-14.78,7.84,1.6.99,4.78,1.23,4.78.37,0-.37,1.91-1.16,4.25-1.77,2.34-.61,6.72-1.89,9.75-2.83,4.45-1.39,9.89-1.76,28.5-1.89,34.33-.26,59.94-2.27,78.25-6.16,5.91-1.26,7.25-1.89,7.25-3.44,0-2.19-.69-2.22-7.5-.34M326.76,326.25c-1.12,1.43-7.82,22.68-8.63,27.38-.3,1.72-.85,4.42-1.24,6-.66,2.72-.6,2.79,1.2,1.3,1.05-.86,3.93-2.36,6.4-3.33,2.47-.97,5.77-2.41,7.33-3.19,4.93-2.47,16.86-6.12,26.01-7.95,9.36-1.87,21.12-1.67,34,.57,8.13,1.42,47.9.72,60.91-1.07,8.37-1.15,9.75-1.6,9.75-3.21,0-1.69-.58-1.81-6.25-1.22-3.44.36-10.02,1.28-14.63,2.05-10.8,1.81-35.27,1.77-50.62-.09-23.35-2.82-35.68-1.35-57.82,6.9l-11.82,4.4.69-4.16c.38-2.29,1.74-7.08,3.02-10.66,2.33-6.5,4.13-15,3.18-15-.28,0-.95.56-1.48,1.25M358.49,349.99c-12.74,2.69-22.98,5.43-22.99,6.15,0,.35,1.18.94,2.64,1.31,3.88.97,14.43,12.02,18.88,19.77,3.41,5.94,5.2,7.69,15.41,15.09,6.36,4.61,13.7,9.39,16.31,10.63,2.61,1.24,6.04,3.81,7.61,5.71l2.86,3.46,9.33-2.62c5.13-1.44,12.51-3.66,16.39-4.93,9.74-3.18,21.01-6.28,27.56-7.58,3.03-.6,6.51-1.3,7.75-1.55,2.44-.5,3.15-3.42.84-3.42-5.32,0-47.44,11.08-57.48,15.12-1.88.76-2.84.55-4.5-.99-1.16-1.08-6.97-4.92-12.92-8.55-12.17-7.43-20.2-13.2-23.26-16.7-1.14-1.3-4-5.62-6.35-9.59-2.35-3.97-6.07-8.85-8.27-10.83s-3.84-3.74-3.65-3.9c.32-.28,8.46-1.82,18.84-3.58,4.76-.8,20.79.2,32.5,2.03,10.27,1.61,27.56,1.38,48.25-.64,16.21-1.58,18.25-1.98,18.25-3.57,0-2.26-3.8-2.33-17-.29-12.26,1.89-41.15,1.93-54.37.08-17.34-2.43-23.43-2.54-32.63-.6M312.17,354.78c-.45.7-.68,2.93-.5,4.95.29,3.22-.09,3.95-3.08,5.98-4.53,3.07-9.76,4.39-20.6,5.19l-9,.67,7.63.75c8.68.86,14.57.15,20.43-2.44,6.22-2.75,7.23-4.43,6.53-10.87-.37-3.43-.91-5.02-1.42-4.22M163.99,365.06c-3.85.52-8.35,1.1-10,1.27-3.51.38-5.51,1.19-19.3,7.85-10.28,4.96-14.1,8.36-17.47,15.57-1.78,3.79.32,3.96,3.1.25,9.22-12.32,22.35-18.92,43.67-21.96,9.24-1.32,37.95-1.28,53,.07,6.6.59,15.9,1.22,20.66,1.39,4.77.17,9.49.57,10.5.88,1.01.32,2.51.14,3.34-.39,1.16-.74.82-1-1.5-1.13-4.2-.23-4.86-.34-6-.96-.55-.3-3.7-.48-7-.39s-8.03-.45-10.5-1.21c-5.62-1.71-52.26-2.63-62.5-1.24M175.49,370.83c-5.24,1.61,1.35,2.17,25.28,2.17,17.88,0,23.83-.29,22.99-1.13-1.33-1.33-44.33-2.26-48.27-1.05M270.15,380.7c-2.82,1.48-2.82,1.5-.75,2.95,1.15.8,2.09,2.08,2.09,2.85,0,1.97,1.97,2.93,3.29,1.62.61-.61,2.15-1.11,3.41-1.11,1.63,0,2.3-.58,2.3-2,0-1.96,1.96-2.7,3.38-1.29.39.39,2.67,1.21,5.07,1.82,3.53.9,4.26.86,3.85-.21-.28-.73-1.04-1.32-1.69-1.32s-2.83-.84-4.85-1.87c-2.02-1.03-4.76-1.66-6.09-1.41-1.33.26-2.73-.03-3.1-.63-.89-1.45-3.41-1.22-6.89.61M.98,409.6c7.05-.51,9.76-1.16,12.56-3.02,1.97-1.3,4.39-2.53,5.38-2.73,1.01-.2,2.3-1.87,2.94-3.78,1.44-4.36,3.36-5.04,3.91-1.38l.42,2.81.15-2.92c.08-1.61.9-3.75,1.81-4.76,2.2-2.43.88-3.62-1.56-1.41-1.82,1.65-1.97,1.64-2.98-.09-.82-1.41-1.08-1.48-1.16-.32M22.45,392c-.13,2.07-5.94,9.9-9.1,12.25-1.73,1.29-5.4,2.26-10.96,2.88M2.77,430.33c3.18-.89,6.02-2,6.31-2.47.29-.47,1.74-.88,3.22-.89,1.48-.02,3.48-.63,4.44-1.36,1.85-1.41,7.06-8.65,6.55-9.12-.16-.15-1.42.44-2.8,1.3M20.49,417.8c-1.38.87-3.62,2.53-5,3.68-1.38,1.16-6.24,3.6-10.82,5.42M210.49,419.12c-7.42,1.49-15.33,2.75-17.56,2.8-2.23.04-4.93.74-6,1.55-1.82,1.38-1.72,1.47,1.65,1.5,5.14.05,19.39-1.84,26.41-3.5,3.3-.78,10.14-1.88,15.21-2.45,7.88-.88,9.7-.8,12.6.58,2.91,1.39,4.09,1.44,8.29.37,2.7-.68,9.93-1.52,16.07-1.86,19.97-1.11,13.08-1.92-15.36-1.82-26.06.1-28.67.27-41.32,2.82M305.95,420.94c.76,1.23,7.14,3.05,10.72,3.05,1.47,0,3.35.68,4.18,1.51,1.73,1.73,4.43,1.91,8.08.52,3.79-1.44,3.12-3.03-1.21-2.86-2.07.08-6.01-.34-8.75-.94-8.39-1.84-13.68-2.36-13.02-1.28M332.74,425.67c-1.91.75-.43,2.33,2.18,2.33,1.27,0,3.38.82,4.69,1.81,7.75,5.9,25.73,9.93,47.79,10.73,6.85.25,13.54,1.05,16.04,1.94,4.82,1.7,8.86,1.92,10.95.6.94-.6-.54-1.04-4.5-1.34-3.25-.25-7.93-1.25-10.4-2.22-2.92-1.15-8.14-1.91-14.85-2.16-14.25-.54-34.98-4.69-41.52-8.31-5.77-3.19-8.55-4.09-10.39-3.37M191.49,437.87l-7.5.66,10.5.7c5.78.38,28.04,1.2,49.47,1.81,21.43.61,45.06,1.76,52.5,2.54,7.44.79,18.7,1.92,25.03,2.5s15.55,1.48,20.5,1.98c4.95.5,16.2,1.12,25,1.38l16,.46-13.5-1.88c-7.42-1.04-18.87-2.39-25.44-3.01-6.57-.62-12.31-1.35-12.76-1.63-.45-.28-8.35-1.14-17.56-1.91-9.21-.77-20.34-1.87-24.74-2.44-9.37-1.21-86.54-2.13-97.5-1.17M219.97,442.97c.33.53,2.77,1.26,5.43,1.61,5.53.73,7.62,1.74,6.7,3.23-.4.65-3.47.82-8.28.46-5.65-.43-7.46-.28-6.93.58.45.74,3.97,1.16,9.66,1.16,8.16,0,8.94-.17,8.94-1.93,0-3.42-4.67-6.07-10.69-6.07-3.25,0-5.18.39-4.82.97"/>
</svg>