<?xml version="1.0" encoding="UTF-8"?>
<svg id="Warstwa_1" data-name="Warstwa 1" xmlns="http://www.w3.org/2000/svg" viewBox="0 0 517.95 493.73">
  <defs>
    <style>
      .cls-1 {
        fill: #010101;
        fill-rule: evenodd;
      }
    </style>
  </defs>
  <path class="cls-1" d="M28.04,210.46c.47-.02,1.56.63,2.42,1.45,2.28,2.17,9.19,3.27,10.46,1.66.61-.77.63-1.51.05-1.92-.52-.36-.69-.83-.38-1.05s.83-1.15,1.16-2.1c.55-1.61.43-1.61-1.81-.13-1.88,1.25-2.19,1.74-1.42,2.28,1.53,1.07.29,1.4-2.75.73-3.55-.77-6.7-2.89-5.51-3.7.46-.31,1.46-.38,2.23-.16,1.91.56,4.56-1.38,6.77-4.95,3.12-5.03,9.08-11.98,11.73-13.66,1.39-.88,9.74-6.32,18.58-12.08,8.83-5.76,16.39-10.41,16.81-10.33.41.08,1.13-.11,1.59-.42.67-.45.46-.73-1.09-1.38l-1.93-.81-16.37,10.73c-20.5,13.43-23.5,15.59-25.08,18.01-.7,1.07-4.22,4.17-7.83,6.89-6.38,4.81-9.26,8.15-8.71,10.08.14.48.63.86,1.1.84M41.52,227.3c3.75,2.04,8.58,1.43,13.51-1.69,2.27-1.43,4.11-3.1,4.59-4.16.44-.97,1.87-3.31,3.17-5.2s3.19-4.78,4.2-6.42c1.01-1.64,3.1-4.29,4.65-5.89,1.55-1.6,2.98-3.41,3.17-4.04.41-1.32,3.79-2.73,4.39-1.84.22.33.96.23,1.64-.22,3.71-2.5,7.95-3.05,14.75-1.91,5.02.84,7.96.86,10.44.07,1.89-.6,3.69-.74,3.98-.3.33.49,1.84.16,3.92-.86,1.86-.91,3.64-1.54,3.97-1.4.32.15,1.05,1.74,1.62,3.54,1.06,3.37,2.37,5.02,2.95,3.73.18-.4,0-1.23-.42-1.84s-.74-2.64-.74-4.5c.01-3.18-.1-3.41-1.78-3.83-.99-.24-3.72-.22-6.08.06-4.87.57-10.33.2-17.39-1.18-6.05-1.18-7.72-.78-16.82,4.02-4.02,2.12-8.5,4.1-9.96,4.41-3.38.72-6.6,2.92-12.26,8.39-5.03,4.86-6.36,6.86-5.46,8.2.73,1.08.79,1.04,2.41-1.24.69-.98,3.24-3.33,5.66-5.23,2.42-1.89,4.75-4.28,5.19-5.31.53-1.25,1.06-1.74,1.63-1.48.47.21.47.91,0,1.55-.46.64-.86,1.45-.87,1.79-.07,1.43-3.14,7.48-4.15,8.17-.6.41-1.63,1.75-2.28,2.99-1.93,3.67-4.39,5.88-9.06,8.15-3.25,1.58-4.97,1.99-6.5,1.54-2.98-.86-3.05-1.31-.44-3.07,2.54-1.71,6.66-7.1,6.39-8.35-.09-.43-1.39-.18-2.87.56-1.48.74-3.15,1.36-3.7,1.38-1.79.07-5.89,7.93-4.79,9.2.3.36,1.81,1.33,3.34,2.16M2.84,167.27c4.81-2.2,19.51-10.1,19.6-10.53.26-1.23-5.54,1.29-13.4,5.81-9.02,5.2-11.69,7.23-6.21,4.72M45.19,211.42c3.11-1.07,5.24-2.95,6.49-5.71.92-2.04,1.54-2.69,2.41-2.52,1.36.26,5.04-2.01,4.01-2.47-1.12-.51-7.1,2.78-8.64,4.75-.78,1-2.39,2.65-3.59,3.68-2.67,2.3-2.89,3.03-.69,2.28M61.44,197.96c1.61-1.48,3.61-2.54,5.99-3.19,1.96-.54,4.06-1.56,4.67-2.28.81-.95.98-.98.64-.12-.33.85.64.57,3.4-.96,2.13-1.18,5.45-2.8,7.38-3.61,8.73-3.66,10.98-3.98,16.26-2.31,3,.95,6.16.18,5.18-1.27-.24-.36-.59-.34-.76.05-.18.39-.84.25-1.47-.3-.69-.6-1.67-.66-2.44-.14s-1.56.48-1.94-.08c-1.13-1.67-5.73-2.84-7.23-1.83-1,.67-1.49.61-1.68-.22-.15-.64-.58-.96-.95-.71s-.5.74-.27,1.08.15.8-.18,1.02-.71-.1-.86-.71c-.2-.87-.92-.68-3.27.86-1.66,1.09-4.92,3.06-7.24,4.39-2.32,1.33-5.39,3.08-6.82,3.9-3.1,1.77-4.56,1.92-5.48.55-.53-.79-.74-.74-.93.23-.13.68-.7,1.55-1.26,1.93-1.13.76-3.74,5.07-3.39,5.6.12.18,1.31-.66,2.65-1.88M256.96,474.86c-4.66-13.78-5.37-15.95-7.15-21.87-.95-3.17-1.94-6.07-2.21-6.46s-.69-1.84-.95-3.22c-.47-2.49-4.03-14.53-7.47-25.2-1.87-5.8-6.4-22.66-7.85-29.19-.47-2.1-1-4.05-1.2-4.33s-.68-2.43-1.08-4.77c-.4-2.34-1.37-6.85-2.14-10.04s-2.16-9.12-3.08-13.2c-.92-4.07-2.31-10.01-3.08-13.19-.78-3.18-1.64-6.96-1.91-8.4-.28-1.44-.67-2.86-.88-3.17s-.58-1.56-.83-2.78c-.56-2.71-1.6-7.24-3.53-15.42-.81-3.41-1.68-7.17-1.95-8.35-.26-1.18-.61-2.06-.76-1.96-.36.24.67,6.18,1.75,10.05.46,1.66.78,3.71.7,4.54-.08.83.08,1.84.35,2.25s.56,1.39.64,2.2c.29,3.01,1.88,10.88,2.33,11.55.47.7,2.62,10.29,3.37,15.05.22,1.41.64,2.91.93,3.34s.96,3.15,1.48,6.05c.53,2.9,1.59,7.87,2.37,11.05.78,3.18,1.86,8.11,2.42,10.95.55,2.84,1.4,6.92,1.88,9.06,1.63,7.29,14.1,49.62,20.09,68.21,1.18,3.65,2.45,7.65,2.83,8.87.88,2.84,5.95,14.17,6.91,15.45.4.53-.5-2.66-2-7.08M74.52,205.12c2.1-.49,6.06-3.44,6.02-4.49-.06-1.61-2.37-1.09-4.74,1.07-2.57,2.34-3.14,3.85-1.28,3.42M269.54,490.18c3.05,2.31,5.69,3.48,8.01,3.53,1.45.04,2.82-.06,3.05-.21s3.81-.72,7.97-1.26c14.42-1.87,29.98-8.55,34.89-14.97,2.77-3.62.83-3.39-3.97.48-4.52,3.63-12.51,7.45-13.27,6.33-.22-.33-.71-.17-1.08.36-.37.53-1.02.81-1.44.62-.42-.19-1.52.17-2.45.8-2.65,1.79-10.13,4.21-12.12,3.92-1-.14-4.02.19-6.72.75-4.27.87-5.34.76-8.15-.85-3.89-2.23-5.52-4.4-6.08-8.12-.23-1.53-.91-3.21-1.52-3.75-.71-.62-.8-1.31-.27-1.92,1.47-1.67-.76-7.9-4.55-12.76-1.86-2.39-3.96-5.87-4.66-7.75-.7-1.88-1.47-3.84-1.7-4.36-.23-.52-.63-1.71-.89-2.64-.26-.93-1.01-1.97-1.68-2.3-1.73-.87-.41,4.39,3.42,13.56,4.77,11.45,4.98,11.99,6.25,16.36.66,2.27,1.53,5.15,1.93,6.4.77,2.42,3.48,6.59,5.04,7.77M46.31,155.31c4.72,3,9.95,4.34,18.99,4.83,5.16.29,9.52.43,9.69.31s2.66.3,5.55.91c2.88.61,5.31.81,5.38.43.24-1.21-6.82-3.44-11.31-3.58-2.4-.07-4.52-.36-4.71-.64s-1.7-.45-3.35-.39c-1.66.07-3.51-.43-4.12-1.11-.64-.71-1.7-.97-2.5-.61-1.78.79-6.76-.01-7.57-1.22-.35-.51-1.77-1.2-3.16-1.52-2.49-.58-6.97-4.33-5.97-5.01.28-.19,1.31-.34,2.29-.33.98,0,3.14-.38,4.8-.86,1.65-.48,4.67-.65,6.7-.37,2.03.28,4.57.14,5.65-.3,2.18-.89,10.98-2.01,13.41-1.7,4.5.57,12.27.97,12.74.66.29-.2,2.15-.08,4.13.25,3.57.6,12.78.93,13.45.47.19-.13,2.01-.1,4.04.07,3.63.3,5.6,1.24,8.81,4.22,1.37,1.27,1.43,1.56.35,1.81-1.97.46-.96,1.21,2.42,1.79,1.68.29,3.18.71,3.33.93s2.47,1.41,5.15,2.64c7.16,3.27,10.48,4.86,13.18,6.31,2.37,1.28,3.99,1.04,3.93-.57-.03-.82-4.09-3.09-15.7-8.79-3.39-1.67-6.33-3.26-6.53-3.55-.2-.29-1.33-1.14-2.52-1.89-1.19-.75-3.52-2.36-5.17-3.57-2.75-2.02-9-3.63-10.4-2.69-1,.67-10.24.37-28.54-.95-5.23-.37-15.31.86-17.16,2.11-.75.51-2.67.67-4.27.38-4.11-.76-7.67-.68-12.54.28-3.32.66-4.31,1.12-4.62,2.16-.51,1.72,3.19,7.16,6.16,9.04M89.35,201.73c3.93-.07,8.32.14,9.77.47,1.44.33,3.42.42,4.4.2.98-.22,2.28-.03,2.9.42,1.71,1.26,4.35,1.82,4.73.99.7-1.54,3.78-1.9,6.61-.77,1.62.64,3.19,1,3.5.8s-.24-.57-1.22-.81c-.98-.24-2.28-1.18-2.89-2.08-.92-1.37-2.24-1.61-7.96-1.47-3.77.09-9.5-.2-12.72-.65-6.63-.93-9.96-.51-12.5,1.59-1.65,1.37-1.37,1.44,5.4,1.31M264.72,453.79c.28-.99.96-1.91,1.51-2.05.75-.19.58-.61-.67-1.68-.92-.79-2.31-2.52-3.1-3.84-.79-1.32-1.71-2.22-2.05-1.99-.86.58-.39,2.23,1.55,5.45.9,1.5,1.78,3.44,1.95,4.32.29,1.5.33,1.49.82-.21M250.03,428.77l2.31,2.49-1.82-2.91c-1-1.6-2.89-4.77-4.19-7.06l-2.37-4.15.8,3.06c.87,3.33,1.76,4.78,5.28,8.57M110.52,220.86c1.45,1.46,11.79,3.47,14.71,2.85,4.45-.94,5.84-7.44,2.62-12.22-2.11-3.13-3.5-4.05-8.53-5.68-2.53-.82-3.83-.78-5.19.13-2.44,1.65-5.59,7.06-5.8,9.98-.18,2.41-.08,2.63,2.2,4.93M121.09,228.43c6.19,2.82,18.3,6.61,23.24,7.29,2.52.34,4.01-.27,2.84-1.17-.3-.23.25-.76,1.23-1.18,2.04-.87,2.05-.76-.14-2.3-2.06-1.45-3.09-.89-2.13,1.15.58,1.25.06,1.13-2.77-.6-4-2.45-8.57-3.66-10.06-2.65-.56.38-3.12-.14-5.68-1.14-2.56-1.01-5.81-1.95-7.21-2.1-1.4-.15-3.49-.64-4.65-1.08-4.59-1.76-.52,1.13,5.33,3.79M112.79,212.81c2.59-3.68,2.93-3.85,5.19-2.65,1.06.56,2.62.94,3.47.86,1.05-.11,1.69.32,1.98,1.33.24.82,1.03,1.66,1.74,1.87,1.78.52,2.33,2.84,1.19,5.01-.89,1.67-1.33,1.73-6.67.76-3.15-.57-5.95-1.36-6.21-1.76-.92-1.37,1.17-1.84,3.14-.7,1.53.89,1.87.88,1.5-.07-.83-2.17-3.54-3.05-4.98-1.62-2.21,2.2-2.47-.01-.35-3.02M267.68,442.93c1.93,1.52,1.87,1.22-.7-3.09-2.26-3.81-3.83-5.09-3.3-2.69.43,1.92,2.02,4.24,3.99,5.78M254.22,416.19c.11-1.23-.42-3.09-1.18-4.14-.76-1.05-2.29-3.91-3.42-6.36-1.12-2.45-2.6-4.95-3.28-5.56-.71-.64-1.03-1.57-.76-2.19.78-1.78-.36-6.76-1.89-8.3-.86-.87-1.45-2.37-1.46-3.77-.02-1.68-.34-2.38-1.16-2.54-1.51-.29-1.98-1.09-1.02-1.73.76-.51-.35-5.52-1.65-7.44-.36-.53-.66-1.95-.67-3.16-.02-1.26-.58-2.68-1.31-3.32-.7-.62-1.21-1.79-1.13-2.6.15-1.48-2.54-9.76-5.46-16.86-1.91-4.63-4.61-8.73-5.41-8.19s.85,5.22,3.72,10.87c2.94,5.79,5.19,12.93,4.63,14.75-.36,1.18-.16,1.57,1.12,2.14,1.2.53,1.64,1.18,1.9,2.74.4,2.39-.19,3.03-1.65,1.81-.58-.48-.26.22.7,1.55,1.62,2.24,2.9,5.11,3.56,7.93.15.64.42,1.47.6,1.84.18.37.49,1.58.69,2.68.2,1.1,1.32,4.19,2.5,6.85,1.18,2.67,2.19,5.62,2.24,6.57.06.95,1.34,3.72,2.85,6.16s2.66,4.7,2.55,5.02c-.11.32.79,2.14,2,4.04l2.19,3.46.2-2.24M95.54,166.83c3.94.85,5.91.91,6.05.21.23-1.15-10.02-3.32-11.41-2.42-1.18.76-.94.86,5.37,2.21M108.4,186.98c.47-.59,1.45-1.08,2.18-1.1.73-.02,1.09.14.8.34-.29.21.1.56.88.79,2.02.59,6.75-.25,7.22-1.28.22-.48,1.03-.81,1.8-.74,1.15.11,1.26-.08.59-1.07-.71-1.05-1.69-1.14-5.98-.53-.34.05-.15.41.42.81,1.51,1.05.75,1.26-2.96.78-4.13-.53-7.5.53-6.49,2.03.47.7.97.69,1.55-.03M125.56,205.1c1.46.51,4.77,1.36,7.34,1.88,6.74,1.36,9.86,2.49,17.14,6.2,8.13,4.15,14.55,5.76,18.53,4.67,1.67-.46,4.05-.83,5.3-.82,1.24,0,4.23-.86,6.63-1.93,2.4-1.07,4.94-2.12,5.63-2.32.77-.23.2-.54-1.47-.79-1.76-.27-3.9.15-5.96,1.17-5.19,2.57-9.91,3.68-12.82,3.02-2.77-.63-16.64-6.31-17.12-7.02-1.11-1.65-24.54-7.32-26.05-6.3-.82.55.1,1.28,2.85,2.25M98.07,159.65c9.79,1.92,11.49,2.15,11.61,1.52.22-1.11-2.82-3.26-4.08-2.89-.68.2-3.88-.08-7.11-.63-5.52-.94-7.52-.84-6.73.33.19.28,3.02,1.03,6.31,1.68M104.07,169.58c.65.29,3.08,2.09,5.4,3.99,2.32,1.91,6.18,4.57,8.57,5.93,2.39,1.35,4.81,3.17,5.38,4.03,1.42,2.17,1.23,5.43-.38,6.55-1.25.87-1.23.94.31,1.03,1,.06,1.77.6,1.95,1.38.17.74,2.21,2.4,4.75,3.88,2.45,1.42,5.44,3.37,6.65,4.33,1.21.96,3.52,2.21,5.13,2.78,1.61.57,3.17,1.4,3.47,1.85s.82.62,1.16.39c1.21-.81-.98-2.72-6.54-5.7-6.4-3.43-7.31-4.49-8.15-9.48-.81-4.83-2.56-5.08-2.3-.34.15,2.79-.04,3.43-.88,2.85-2.61-1.82-2.64-3.01-.18-6.44,1.34-1.87,2.23-3.89,1.97-4.5-.25-.61-2.55-1.83-5.11-2.72-5.04-1.76-8.98-3.76-9.87-5.02-.31-.43-2.18-1.72-4.16-2.85s-3.82-2.37-4.08-2.76c-.63-.91-3.17-1.14-3.78-.34-.3.39-.03.83.7,1.16M127.36,200.59c3.77,1.07,3.88.34.22-1.58-1.58-.83-3.11-1.87-3.4-2.3s-.81-.59-1.15-.36c-1.21.82,1.45,3.42,4.32,4.24M150.93,236.39c.48-.02,1.23.49,1.67,1.14s2.19,1.56,3.9,2.03c3.54.97,7.86,3.42,9.01,5.1.66.96.78.93.75-.2-.01-.73-.44-1.96-.95-2.73-.51-.77-.58-1.63-.16-1.93.42-.29-1.79-.97-4.92-1.51-6.59-1.13-8.05-1.9-7.14-3.77.59-1.22.56-1.27-.4-.65-.57.37-1.6.81-2.28.96-1.34.31-.91,1.6.52,1.54M110.67,167.79c.87-.55,2.01-.41,3.18.38,2.58,1.75,6.93,3.72,9.62,4.35,1.26.3,2.53.85,2.83,1.24.77,1.01,2.94,2.33,5.39,3.29,1.17.46,2.88,1.73,3.79,2.84,1.62,1.95,1.61,2.04-.57,3.51-1.91,1.29-2.04,1.59-.91,2.09,1.93.86,5.81-2.28,6.37-5.15l.44-2.27-1.81,1.22c-1.35.91-1.75.92-1.58.05.17-.87-.73-1.67-3.51-3.13-2.06-1.08-4.18-1.86-4.71-1.74-.54.12-1.35-.33-1.81-1.01-.62-.92-.49-1.32.53-1.55.75-.18-.36-.7-2.46-1.16-2.1-.46-5.91-1.97-8.46-3.34-4.49-2.42-4.63-2.56-4.35-4.48.28-1.91.24-1.95-.98-1.13-.74.5-1.05,1.45-.75,2.3.28.8.03,2.15-.55,3.01-1.02,1.51-1.01,1.53.3.7M10.76,15.81c2.14.69,7.85,3.1,12.7,5.36,12.17,5.68,14.75,6.35,30.02,7.78,12.64,1.18,18.11.78,19.84-1.47.56-.73-.16-.78-10.01-.71-7.24.05-21.71-1.41-26.57-2.68-1.89-.5-4.82-1.67-6.52-2.62-1.69-.94-4.08-2.1-5.3-2.56-1.22-.46-4.26-1.89-6.75-3.17-5.56-2.86-10.16-4.2-11.45-3.34-1.48,1-.25,2.03,4.03,3.4M228.44,340.9c1.39-.94-1.24-7.46-2.97-7.39-1.33.05-.86,1.86.6,2.28,1.07.31,1.19.61.6,1.45-.75,1.07.82,4.31,1.77,3.66M177.51,255.05c5.86,2.35,8.99,2.77,13.72,1.82,3.89-.78,2.95-1.5-1.78-1.36-2.16.06-4-.11-4.09-.39-.09-.28-2.03-.86-4.31-1.3-2.28-.44-5.55-1.27-7.27-1.84-5.19-1.72-2.31.65,3.73,3.07M226.85,331.65c.5-.02.42-.71-.18-1.6-1.1-1.64-2.11-7.9-1.58-9.8.17-.61,0-1.91-.39-2.88-1.98-4.98-2.92-8.67-2.93-11.49,0-1.72-.51-3.87-1.12-4.78s-.87-1.98-.57-2.37c.7-.91-1.83-5.76-2.7-5.18-.35.24-.5.64-.33.89s.36,1.84.43,3.53c.07,1.92.72,3.84,1.73,5.15,1.47,1.9,1.47,2.31-.02,4.46-1.19,1.72-1.35,2.56-.59,3.06.58.38,1.21.98,1.42,1.34,1,1.76,3.01,8.19,2.92,9.35-.33,4.46,1.91,10.39,3.89,10.31M172.97,248.09c2.28.65,4.5,1.19,4.94,1.2.43.01.96.26,1.18.55.76,1.03,5.57,2,7.59,1.52,3.11-.73,3.13-1,.13-1.47-1.51-.23-2.94-.7-3.16-1.03s-1.31-.4-2.4-.14-2.01.06-2.02-.44c-.02-.5-1.79-1.34-3.94-1.87-2.15-.53-3.92-1.34-3.94-1.79-.02-.46-.35-.37-.74.18-.39.56-.92.71-1.17.33s-.74-.5-1.08-.27c-1.23.83.56,2.07,4.63,3.23M327.23,472.86c.26-.17,1.97-2.29,3.8-4.71,1.83-2.42,5.23-6.39,7.54-8.84,2.31-2.44,4.35-4.83,4.53-5.3.18-.47,2.09-2.74,4.25-5.05,5.69-6.07,9.27-10.85,8.09-10.8-.56.02-2.13,1.22-3.48,2.67-1.36,1.44-4.01,4.28-5.9,6.3-1.89,2.02-3.89,3.98-4.44,4.35s-.97,1.23-.92,1.89c.06.71-2.15,3.45-5.39,6.67-3.51,3.5-5.77,6.34-6.27,7.89-.43,1.34-1.3,2.78-1.94,3.21s-.97,1.06-.74,1.4.63.48.88.31M15.06,8.33c.94-.04,2.48.66,3.41,1.56.94.89,2.53,1.77,3.52,1.93,1,.17,4.12,1.79,6.93,3.6,2.81,1.81,6.53,3.55,8.26,3.87l3.14.58-2.9-1.44c-5.1-2.54-12.47-8.55-14.76-12.03-1.18-1.8-2.4-3.1-2.72-2.88s-.12,1.06.44,1.88c1.36,2.02,1.74,3.94.79,3.98-.43.02-1.22-.61-1.75-1.4-1.2-1.77-3.38-2.06-4.91-.63-1.14,1.05-1.12,1.07.55,1M187.57,260.07c2.17.31,4.85.22,5.95-.19,1.1-.41,2.47-.72,3.05-.67.58.04,2.36-.62,3.97-1.46l2.91-1.53-3.27.48c-1.8.27-3.78.8-4.4,1.18-1.27.78-7.39,1.15-10.79.65-1.24-.18-2.05-.03-1.81.33s2.22.91,4.4,1.21M210.34,291.57c-.2-3.42-9.64-18.63-12.1-19.48-1.31-.46-.6.88,4.59,8.58,3.38,5.02,6.49,10.11,6.9,11.31l.75,2.19-.15-2.6M200.43,269.95c5.02,2.14,6.82,2.49,9.98,1.97l3.85-.63-6.95-1.31c-3.83-.72-8.35-1.89-10.06-2.59-1.71-.7-3.21-1.2-3.34-1.12-.63.42.94,1.3,6.53,3.68M215.88,292.77c.36-.24.17-1.23-.43-2.18-1.04-1.67-.98-1.67,1.5-.12,1.42.89,2.91,1.4,3.32,1.13,1.23-.82-1.13-3.08-4.57-4.36l-3.25-1.21.96,2.3c.53,1.27,1.15,2.88,1.38,3.59s.72,1.09,1.08.84M163.76,213.19c1.33.26,1.76-.54.94-1.75-.44-.66-.64-1.58-.43-2.04.26-.57-.03-.96-.93-1.22-1.03-.3-1.17-.84-.66-2.59.35-1.21.94-2.42,1.31-2.68.73-.52,1.51-4.64.79-4.16-.25.17-.81.99-1.26,1.84-.61,1.16-.82,1.28-.85.5-.02-.6-.85-1.05-1.96-1.07-1.06-.02-2.28-.57-2.73-1.23s-.93-1.12-1.07-1.03-.81.3-1.49.46c-1.6.37-.3,2.33,2.07,3.14,2.1.72,3.56,2.75,3.22,4.49-.14.71.23,2.06.82,3,.59.94,1.17,2.27,1.29,2.95.12.69.54,1.31.94,1.39M213.86,284.57c1,.14,1.88-.04,1.95-.41.07-.37.8-.6,1.62-.52,2.23.22,1.98-.75-.33-1.28-1.1-.25-3.05-1.03-4.33-1.73-1.28-.7-2.6-1.09-2.93-.86-1.08.73,2.09,4.53,4.01,4.8M209.24,276.58c1.85.97,4.53,2.02,5.95,2.33,1.42.31,2.88.95,3.24,1.42.36.47.4-.15.09-1.38-.47-1.87-.83-2.25-2.23-2.3-.92-.03-1.62-.36-1.55-.73.17-.88,5.69-1.74,8.52-1.33,1.3.19,2.03.01,1.74-.42-.84-1.24-5.61-2.63-6.65-1.93-2.35,1.57-6.66,2.42-9.5,1.87-4-.78-3.84.25.38,2.47M203.09,266.55c.84.28,3.22.39,5.3.23,2.08-.16,3.37.01,2.87.37-1.21.87,2.32,1.11,3.6.25.72-.48.62-.67-.51-1-.77-.22-1.21-.53-.99-.68s-.27-.63-1.09-1.06-1.86-.55-2.3-.25-1.71.05-2.81-.55c-1.11-.6-2.85-1.26-3.87-1.46-1.02-.21-1.88-.76-1.89-1.22-.02-.46-.46-.56-.98-.2-.78.52-.63.87.83,1.89.98.69,2.27,1.27,2.87,1.28.66.02.35.37-.8.9-1.04.48-1.86.9-1.82.93.04.03.75.29,1.58.57M29.29,7.99c2.83,3.08,8.85,6.44,15.06,8.39,2.59.81,6.01,1.92,7.61,2.46,2.94.99,13.05,3.11,16.04,3.37,3.64.31.41-1.34-4.66-2.38-2.93-.6-6.54-1.77-8.03-2.58-1.49-.82-3.11-1.47-3.6-1.45-.5.02-.92-.34-.94-.8-.02-.46-1.55-1.24-3.4-1.72-1.85-.48-3.53-1.13-3.73-1.42s-2.33-1.36-4.73-2.36c-2.4-1-5.71-2.85-7.34-4.11-1.64-1.26-3.31-2.08-3.71-1.82-.47.31-.56.09-.25-.62.5-1.14-1.67-3.47-2.62-2.82-.45.31.86,4.26,1.67,5.05.19.18,1.37,1.45,2.63,2.83M168.09,211.79c.51-.34.9-1.41.86-2.38-.05-1.43.62-2.22,3.65-4.28,4.15-2.83,3.11-3.3-1.95-.89-2.55,1.22-3.21,1.89-3.87,3.94-.86,2.68-.16,4.61,1.32,3.61M121.17,129.26c3.4-2.25,6.01-4.38,5.99-4.87-.04-1.09-9.87,5.53-11.14,7.51-.58.89,1.2-.02,5.15-2.63M60.07,48.87c1.32,1.04,3.53,2.94,4.92,4.23l2.53,2.34-2.54-3.23c-4.22-5.37-7.25-8.59-7.76-8.24-.92.62.47,3.02,2.85,4.9M166.17,197.81c.26-.18.58-.86.71-1.52.18-.91.57-1.16,1.6-1.06.97.1,1.72-.36,2.58-1.57,1.75-2.48.74-3.37-1.07-.95-1.09,1.46-1.71,1.86-2.41,1.54-.51-.23-1.26.05-1.67.62-.77,1.1-.56,3.48.25,2.93M216.37,266.61c2.05.99,5.91.29,8.52-1.54,2.2-1.54,2.22-1.61.33-1.24-5.34,1.03-9.06,1.24-9.53.54-.29-.43-.8-.59-1.14-.36-.79.53.07,1.75,1.82,2.59M143.8,157.67c.54-.02.97-.99.96-2.15,0-1.16.55-4.94,1.24-8.4.69-3.46,1.08-7.28.88-8.51-.2-1.22.02-2.24.5-2.26.48-.02.59-.45.25-.96s-.19-2.05.33-3.44c.52-1.38.67-4.49.34-6.9-.33-2.41-.3-5.96.07-7.88,1.05-5.46,2.19-9.47,2.83-9.9.32-.22.38-1.98.14-3.92s-.33-3.8-.2-4.14c.13-.34.1-1.79-.07-3.22-.18-1.51.29-3.42,1.12-4.53.97-1.29,1.16-2.33.58-3.18-.47-.7-.54-1.48-.16-1.74.5-.33,1.52,1.02,3.54,4.65,2.14,3.86,3.53,5.64,5.63,7.21,1.54,1.15,3.22,2.72,3.75,3.49.89,1.3,3.23,1.52,3.46.33.06-.28-2-2.37-4.57-4.64-3.78-3.34-4.84-4.65-5.59-6.9-1.47-4.42-2.52-5.47-7.27-7.27-2.88-1.09-4.94-2.4-5.8-3.66-.93-1.37-1.73-1.83-2.64-1.51-1.66.58-3.55-.71-3.25-2.23.13-.64,1.29-1.85,2.59-2.67,1.3-.82,2.35-1.89,2.33-2.37-.04-1.1,3.51-1.32,4.22-.26.36.54-.45,1.24-2.83,2.47-4.55,2.34-3.28,4.11,2.17,3.01,1.73-.35,3.46-.12,4.31.56,2,1.62,4.58,2.16,5.94,1.25,1.52-1.02,3.28.26,3.36,2.44.06,1.87.86,2.45,1.48,1.08.21-.47.03-1.38-.4-2.01s-.62-1.52-.42-1.96c.64-1.41-.19-1.74-3.69-1.45-3.22.26-7.69-1.27-7.43-2.56.06-.32,1.04-.79,2.18-1.05,1.14-.26,3.8-1.07,5.92-1.8,2.12-.74,5.32-1.52,7.12-1.74,1.99-.24,4.48-1.22,6.4-2.51,2.28-1.54,4.09-2.14,6.64-2.22,2.73-.08,3.37-.31,2.88-1.04-.57-.84-3.48-.8-8.91.13-1.93.33-6.04.86-10.95,1.4-1.25.14-3.81.97-5.69,1.84-1.88.88-4.79,1.53-6.47,1.46-4.42-.19-6.61.44-9.9,2.85-2.28,1.67-3.06,2.78-3.56,5.07-.68,3.11-.33,4.14,1.76,5.26.71.38,2.28,1.4,3.49,2.26,1.21.86,3.31,1.83,4.67,2.15,3.33.78,4.7,2.76,2.4,3.46-2.02.61-.99.83-7.06-1.48-2.81-1.07-4.52-1.43-3.8-.81,3.39,2.93,4.12,3.41,6.41,4.22,1.34.48,2.71.48,3.04.02.33-.47.84-.48,1.15-.02.83,1.23-1.7,2.4-3.8,1.76-1.01-.31-1.42-.33-.91-.05,1.67.93,3.56,3.2,2.99,3.59-.31.21-.26,1.22.11,2.24.37,1.02-.23,6.99-1.32,13.25-1.91,10.9-4.03,35.62-3.64,42.6.12,2.26.49,3.3,1.16,3.28M327.5,427.47c.54-.62,1.16-.87,1.37-.56s.66.37,1,.14,0-1.35-.77-2.48c-.86-1.28-1.21-2.81-.91-4.02.27-1.07.33-2.19.13-2.47s-1.29-6.66-2.45-14.16c-1.15-7.5-2.72-15.25-3.47-17.22-1.59-4.15-4.36-8.84-5.32-9.03-1.25-.24-1.44,1.57-.34,3.25,3.24,4.95,5.48,15.08,6.91,31.21.38,4.31,1.18,9.77,1.78,12.14,1.07,4.24,1.11,4.29,2.08,3.19M190.72,215.91c3.07-.26,5.62-.68,5.67-.93.19-.94-7.13-1.01-9.33-.08-1.25.53-2.2,1.08-2.1,1.22s2.69.05,5.76-.21M228.58,270.47c2.31-.06,5.11-.21,6.23-.34,2.4-.28,7.2.97,9.07,2.35.89.66.79.39-.3-.82-3.12-3.46-7.82-4.8-13.45-3.85-2.84.48-5.46,1.07-5.8,1.3-1.38.93.26,1.45,4.26,1.35M158.44,166.1c3.55,1.03,7.79,1.5,11.58,1.28,9.01-.52,12.83,2.36,13.58,10.23.36,3.73.79,4.69,4.42,9.84,3.18,4.51,4.86,6.25,7.98,8.29,2.18,1.42,4.15,2.87,4.38,3.21s2.13,1.4,4.22,2.35c2.31,1.05,4.87,2.94,6.52,4.82,2.99,3.41,4.58,4.49,7.66,5.25,1.21.3,2.74,1.47,3.74,2.87.93,1.3,2.32,2.55,3.08,2.78.76.23,2.14,1.12,3.05,1.98.92.86,2.69,2.5,3.95,3.63,1.25,1.13,3.1,3.01,4.1,4.18,1,1.17,3.31,2.74,5.14,3.49,2.58,1.07,3.53,1.88,4.29,3.65.69,1.62.97,1.89.95.94,0-.74.1-1.22.25-1.07,4.38,4.39,12.76,16.11,14.74,20.61,1.09,2.48,2.19,4.97,2.44,5.54,1.13,2.55,1.98,5.49,1.9,6.53-.05.62.45,1.56,1.11,2.08.69.55,1.36,2.39,1.58,4.39.21,1.89.92,3.91,1.57,4.48,1.21,1.07,2.22,3.87,3.01,8.36.25,1.39.7,2.91,1.02,3.38s.55,1.86.53,3.1c-.02,1.24.08,2.27.22,2.3.79.16,2.55,7.61,2.8,11.81.2,3.34,1.34,7.47,3.76,13.56,1.45,3.64,2.58,7.14,2.51,7.77-.28,2.78,13,28.03,20.85,39.65,3.55,5.25,4.81,6.69,6.14,6.94,1.53.3,1.46,0-.91-3.63-10.41-15.99-19.78-33.62-22.79-42.88-2.49-7.67-5.74-19.96-7.15-27.07-1.88-9.5-4.64-19.44-7.45-26.87-7.51-19.87-7.6-20.06-14.05-29.61-6.38-9.43-8.55-11.82-17.21-18.94-2.64-2.17-7.19-6.18-10.1-8.91-2.91-2.73-6.17-5.35-7.24-5.83-1.83-.81-1.89-1-1.11-3.14.46-1.25.47-2.81.03-3.47-1.1-1.63-1.56-1.12-2.35,2.63l-.68,3.22-2.55-.96c-1.85-.69-3.18-1.88-4.81-4.3-2.2-3.26-2.21-3.42-.71-6.4,1.77-3.51,2.23-3.29,2.24,1.1,0,3.8.75,6.06,2.22,6.7.9.39.99.31.48-.45-1.05-1.59-.47-9.29,1.12-14.83,1.39-4.87,1.38-5.33-.17-5.98-2.21-.92-4.46.22-5.55,2.8-.48,1.14-1.35,2.18-1.94,2.32-1.26.29-2.7,4.4-1.61,4.61.41.08,1.13-.78,1.61-1.91.98-2.32,2.82-3.88,2.87-2.43.02.52-.89,2.37-2.01,4.1-1.13,1.73-2.12,4.09-2.2,5.23-.14,1.88-.23,1.97-.94.94-.43-.62-4.57-3.69-9.2-6.82-4.63-3.13-8.86-6-9.39-6.38-.57-.41.06-.54,1.56-.32,1.4.2,4.77.03,7.5-.39,3.9-.6,5.3-.45,6.55.69,2.35,2.16,2.53,2.16,3.71,0,.6-1.09,1.83-2.26,2.74-2.59.91-.33,1.47-.87,1.25-1.21-.68-1-3.14-.95-4.17.09-.54.55-1.89.68-3.07.32-1.16-.36-4.4-.36-7.19.01-5.56.73-10.3.27-11.23-1.1-.33-.48-.47-2.46-.32-4.4.29-3.78-1.62-7.8-5.59-11.74-1.98-1.97-1.98-1.98.1-2.69,2.44-.83,5.95-4.32,7.11-7.07,2.14-5.05-2.6-14.86-9.17-18.97-3.14-1.97-3.32-1.99-2.74-.28.34,1,1.52,2.43,2.61,3.18,2.66,1.81,5.82,7.25,6.38,10.99.5,3.31-.97,7.36-3.21,8.88-1.77,1.2-5.62,1.69-10.49,1.34-3.06-.22-4.28.1-6.69,1.78-1.84,1.28-3.03,1.75-3.17,1.24-.24-.86-9.4-3.17-10.27-2.58-1.25.85,1.11,2.26,6.28,3.76M56.1,13.28c1.17.45,3.94,1.21,6.16,1.69,2.22.48,5.27,1.55,6.79,2.38,3.54,1.94,5.3,1.03,2.82-1.45-1.82-1.83-5.7-3.06-13.24-4.2-5.9-.9-7.08-.16-2.53,1.58M168.59,173.04c.75.36,3.28,2.7,5.63,5.19,4.78,5.08,7.72,7.15,8.96,6.32,1.08-.73-.09-2.4-3.43-4.87-1.48-1.1-3.48-3.14-4.43-4.54-2.1-3.09-7.3-6.42-8.62-5.53-1.09.73-.13,2.46,1.89,3.44M313.31,368.86c1.75.34,2.55-.38,1.36-1.22-.6-.42-.66-.85-.15-1.07,1.44-.62,3.25-3.35,3.61-5.45.24-1.38.87-2.18,2.1-2.62,1.42-.51,1.58-.83.83-1.61-.73-.77-.46-1.35,1.27-2.74,2.39-1.92,1.68-3.1-.84-1.4-1.58,1.06-10.17,14.8-9.7,15.5.14.21.82.5,1.5.63M82.18,20.64c1.86,1.08,4.41.38,6.31-1.73,1.52-1.69.39-2.58-1.58-1.25-.76.52-2.87.51-4.9,0-3.37-.86-3.5-.83-2.5.57.58.81,1.78,1.9,2.68,2.42M126.61,68.16c.34-.23.89-.01,1.23.49s1.39.82,2.35.73c1.27-.13,1.7.14,1.61,1.04-.09.87.37,1.38,1.57,1.8,1.6.54,1.62.46.36-1.45-1.4-2.13-3.98-3.77-5.85-3.72-.61.01-1.39-.39-1.73-.9s-.28-.95.15-.96c1.43-.06,1.07-2.8-.66-5.07-2.65-3.46-3.08-4.47-2.15-5.1.47-.32.6-1.62.3-2.9-.31-1.28-.81-3.38-1.12-4.67-.66-2.76-1.79-3.36-1.53-.81.23,2.29-.64,2.82-2.07,1.25-.89-.98-1.08-.98-.88,0,.14.69,1.3,1.85,2.56,2.59,1.73,1.01,2.24,1.63,2.07,2.52-.17.9-.46.84-1.17-.21-.52-.77-1.08-1.08-1.26-.69-.37.83.92,4.15,3.15,8.09.87,1.53,1.47,3.59,1.33,4.57-.28,1.97.79,4.07,1.75,3.42M367.58,423.17c.99-.64,12.25-15.14,13.21-17.01.37-.72,1.5-1.87,2.51-2.55s1.8-1.76,1.76-2.41c-.04-.64.24-1.61.62-2.15.56-.8.49-.86-.39-.32-.59.36-1.06,1.05-1.05,1.53s-.89,1.5-2.02,2.26-2.77,2.47-3.65,3.81c-.88,1.33-2.23,2.86-2.99,3.4-1.48,1.03-9.42,14.35-8.01,13.44M292.4,298.06c4.07-2.41,9.46-5.83,11.98-7.6,4.5-3.17,4.46-3.16-2.25.67-3.75,2.14-8.31,4.7-10.12,5.68-1.82.98-4.13,2.64-5.15,3.7-1.41,1.47-.09.88,5.55-2.45M100.5,19.75c1.87-.35,3.68-.67,4.02-.71.35-.03.36-.47.02-.97-.57-.85-2.68-.64-6.55.64-2.87.95-1.04,1.71,2.5,1.04M117.7,45.79c1.11-.04,1.08-1.69-.04-2.2-.47-.21-.76-1.13-.64-2.04.11-.92-.53-2.66-1.45-3.91-1.03-1.4-1.38-2.44-.92-2.75.43-.29.26-.92-.41-1.51-.73-.64-.88-1.4-.41-2.07.93-1.33.3-2.36-.93-1.53-.51.34-1.12.35-1.34,0s-.11-.83.27-1.08c.41-.28.15-.95-.66-1.67-1.07-.96-1.11-1.6-.19-3.14.67-1.12.75-1.83.19-1.69-.53.13-1.41-.43-1.97-1.25-2.48-3.68-1.89,1.56.9,8,4.43,10.22,6.17,14.43,6.43,15.56.16.71.69,1.27,1.17,1.25M231.1,211.09c6.11,7.75,9.36,10.69,14.36,13,4.91,2.28,11.45,2.46,17,.48,3.36-1.2,4.55-2.05,9.71-6.95,3.23-3.07,9.78-10.01,14.55-15.42,18.7-21.2,25.25-25.63,36.92-24.95l3.48.2-1.4-1.8c-1.27-1.62-2.95-2.09-1.89-.52.72,1.07-1.3.82-2.98-.37-.92-.65-2.07-.77-2.78-.28-.67.45-1.58.66-2.02.46s-1.93.41-3.32,1.34c-1.64,1.1-3.03,1.52-3.96,1.18-.79-.28-2.12-.13-2.96.35-1.51.86-3.63.19-2.27-.73.39-.26.37-.63-.04-.81-.41-.18-2.16,2.01-3.9,4.88-1.74,2.87-3.46,5.41-3.82,5.66s-.47.72-.24,1.06-.01.91-.54,1.26-1.46,1.55-2.06,2.66c-.61,1.11-2.09,2.94-3.29,4.07-1.96,1.85-2.13,1.89-1.68.42.43-1.41.34-1.6-.69-1.36-2.35.54-3.22,3.5-.9,3.04.55-.11-.18.46-1.62,1.26-1.44.8-2.77,1.95-2.95,2.55-.18.6-2.33,2.67-4.77,4.6-2.44,1.93-4.28,3.74-4.08,4.03s.06.73-.31.98-.81,1.2-.99,2.12c-.25,1.29-1.13,2.11-3.85,3.56-2.45,1.31-3.26,2-2.65,2.27,1.8.81-5.57,3.56-9.76,3.63-8.6.16-14.6-3.78-23.5-15.46-4.05-5.32-6.36-7.15-7.07-5.6-.18.39.13,1.29.68,2,.55.71,3.09,3.93,5.63,7.16M166.18,113.18c2.12.2,8.44-4.15,10.37-7.14.88-1.36,1.95-3.72,2.39-5.24.43-1.52,2.17-4.57,3.86-6.79,3-3.94,3.95-5.79,3.07-5.94-1.03-.18-9.36,8.2-14.75,14.84-.83,1.02-2.97,2.84-4.75,4.04-2,1.35-2.94,2.32-2.44,2.54.44.2,2.51-.79,4.6-2.2,3.04-2.05,3.75-2.3,3.55-1.27-.14.71-1.86,2.58-3.83,4.15-3.05,2.44-3.35,2.88-2.05,3M325.64,349.04c.25-.17,1-1.31,1.65-2.51,1.07-1.97,1.33-2.15,2.52-1.72,1.01.36,1.38.19,1.56-.73.13-.66,0-1.57-.31-2.01s.15-1.27,1.01-1.85,1.38-1.29,1.18-1.58.62-2.08,1.83-3.96c1.21-1.88,2.09-3.58,1.95-3.78-.54-.79-3.7,3.22-5.29,6.7-.92,2.02-2.37,4.43-3.23,5.37-2.18,2.39-4.03,5.37-3.65,5.93.17.26.52.32.78.15M119.62,30.57c1.04.1,1.29-.1,1.1-.86-.18-.7.51-.87,2.39-.59,1.45.22,2.45.12,2.22-.23s-1.76-.8-3.39-1.02c-1.63-.22-3.25-.81-3.59-1.32-.96-1.42-1.78-.38-1.15,1.46.79,2.29.9,2.41,2.42,2.56M164.21,92.23c.26-.17,1.66,1.35,3.11,3.38,1.46,2.03,2.92,3.74,3.25,3.81,1.38.27.66-3.69-1.16-6.43-1.89-2.84-1.89-2.99-.14-4.17,1.88-1.27,2.48-3.25.8-2.65-.53.18-2.16.65-3.64,1.03-5.48,1.42-5.39,1.35-3.99,3.42.71,1.06,1.51,1.78,1.76,1.61M341.88,322.82c2.09-1.41,4.69-7.09,3.36-7.35-.39-.07-1.11.6-1.62,1.51-.5.91-1.49,2.44-2.2,3.41-1.36,1.86-1.06,3.45.45,2.43M149.68,33.7c.77.08,1.56-.2,1.74-.61.19-.41,1.29-.35,2.46.14,1.17.49,2.16.66,2.22.38.18-.95-4.45-3-5.37-2.38-.5.34-1.19.2-1.54-.31-.82-1.22-1.81-.51-1.45,1.05.37,1.62.32,1.57,1.93,1.73M163.54,35.74c3.23.63,6.01,1.34,6.17,1.58.53.78,5.73,1.51,6.6.93,1.57-1.06.02-1.8-6.5-3.12-3.58-.72-7.65-1.71-9.05-2.21-2.02-.72-2.6-.64-2.82.39-.23,1.04.88,1.51,5.6,2.43M348,310.87c1.04-.25,4.47-6.44,4.45-8.04,0-.49.86-1.48,1.93-2.2,1.17-.79,1.5-1.29.84-1.26-.77.03-.76-.44.03-1.57.62-.89,1.64-3.82,2.27-6.51.62-2.69,1.36-4.85,1.65-4.8.78.15,1.65-4.42,1.01-5.36-.31-.45-1.25,1.47-2.11,4.27-.85,2.8-1.78,5.25-2.06,5.44s-1.01,1.93-1.63,3.87c-.62,1.94-1.69,4.49-2.39,5.65-1.49,2.49-4.7,9.12-4.89,10.08-.07.37.33.56.89.42M180.72,38.29c.65-.15,1.26-.01,1.36.3.27.86,5.6,1.83,12.73,2.32,3.48.24,7.5.77,8.94,1.18,1.44.41,3.25.69,4.03.63,1.8-.15,11.37.96,17.21,2,2.46.44,4.65.68,4.87.55.21-.14,2.26-.11,4.56.07,2.29.18,4.36.19,4.6.03s1.22.19,2.18.78c.96.59,2.15.8,2.64.47s2.19-.47,3.77-.3,3.1.16,3.37-.03c.48-.33,11.1-.71,18.52-.67,2.07.01,4.05-.18,4.41-.42s1.56-.23,2.67.03c1.11.26,3.69.3,5.73.11,2.04-.2,4.95-.48,6.46-.62,1.51-.15,2.97.07,3.24.47s2.58.48,5.12.16c2.54-.32,5.95-.24,7.57.17,1.62.41,4.46.83,6.31.93,1.85.09,6.41,1.16,10.12,2.37,3.71,1.21,7.49,1.95,8.4,1.65s1.82-.3,2.02,0,.93.17,1.62-.29c1.24-.84,7.46-1.35,8.84-.73.4.18.51,1.19.25,2.26-.33,1.32.06,2.73,1.22,4.46,3.14,4.68,1.47,12.72-4.85,23.49-2.68,4.57-3.78,5.78-7.47,8.27-2.38,1.61-5.23,3.22-6.34,3.59-4.06,1.35-11.98-.72-13.95-3.65-.43-.64-1.77-1.28-2.96-1.42s-1.59-.03-.87.22c.72.26,2.29,1.59,3.49,2.96,2.97,3.38,8.14,5.22,13.08,4.63,5.15-.61,15.04-6.19,14.86-8.37-.06-.73.58-2.04,1.41-2.92.84-.88,1.64-2.39,1.78-3.36.14-.97,1.21-3.35,2.37-5.29,2.07-3.45,2.15-3.52,4.18-3.23,1.59.23,2.9-.3,5.71-2.31,8.06-5.76,6.39-7.2-1.9-1.63-2.81,1.89-5.2,3.31-5.3,3.15s-.01-1.37.21-2.7c1.43-8.71,1.43-8.65-1.2-12.47-2.47-3.59-2.48-3.65-.74-4.82,1.2-.81,2.9-.95,5.32-.44,1.96.41,3.99.45,4.51.1,1.83-1.23,2.96.63,1.73,2.86-1.5,2.74-1.43,3.88.25,4.37,1.15.34,1.46,0,2.14-2.38,1.01-3.54,1.58-3.88,5.5-3.3,4.22.62,5.12,1.96,2.55,3.81-5.73,4.12-7.08,5.34-7.28,6.56-.18,1.1,1.13.32,7.59-4.52,6.34-4.75,8.36-5.96,10.73-6.44,3.27-.66,3.3-.82.42-2.4-1.33-.73-3.13-.81-5.19-.22-1.74.49-4.01.53-5.05.1-1.04-.44-2.28-.53-2.75-.22s-1.04.31-1.26-.01-2.05-.49-4.07-.36c-2.1.13-5.44-.52-7.81-1.51-3.22-1.36-4.49-1.5-5.75-.66-1.38.93-9.13.78-13.52-.27-.59-.14-2.26-.21-3.71-.17s-3.76-.07-5.13-.26c-8.44-1.19-12.73-1.64-15.5-1.63-1.73,0-5.55-.25-8.49-.58-2.94-.33-7.13-.57-9.32-.53-2.18.03-5.07-.11-6.42-.31s-2.88-.08-3.4.27-3.02.16-5.55-.42c-2.53-.58-4.39-.75-4.13-.36s-2.16.66-5.39.61c-3.22-.05-6.12.08-6.44.3s-1.21.21-1.97-.02-1.81-.13-2.31.21-2.46.52-4.35.39c-1.89-.13-4.04-.08-4.78.11-.74.19-1.54.05-1.78-.3s-.71-.45-1.05-.22c-.58.39-5.89.45-13.4.13-1.78-.07-6.81-.76-11.18-1.53-4.36-.77-8.77-1.23-9.8-1.03-1.03.2-3.43.07-5.34-.28-1.91-.35-5.29-.7-7.51-.78s-6.56-.56-9.64-1.08c-3.08-.52-5.98-.69-6.43-.38-1.11.74-.79,1.11.67.78M291.13,188.14c.32-.22.57-.79.55-1.27s.61-1.31,1.4-1.84c1.77-1.2,4.98-5.96,4.13-6.13-.34-.07-1.89,1.46-3.43,3.39-1.54,1.93-3.09,3.84-3.44,4.24-.74.84-.06,2.19.8,1.6M321.47,171.11c3.47.01,5.43,1.43,7,5.07.77,1.78,1.19,2.24,1.49,1.59.23-.5.58-.65.8-.34s1.85.95,3.64,1.42c1.79.47,4.16,1.53,5.25,2.37,1.24.95,2.22,1.2,2.6.66.36-.52,1.16-.36,2,.39.77.69,1.97,1.05,2.68.8.7-.25,1.6-.57,1.98-.71.39-.14.61-.59.5-1-.11-.4-.68-.36-1.26.11-.65.52-1.45.41-2.08-.29-.56-.62-1.8-1-2.75-.84-1.85.31-2.03.23-7.52-3.2-1.99-1.24-4-2.01-4.47-1.7-.56.37-1.04.03-1.4-1.01-1.12-3.19-8.77-6.19-10.69-4.19-.6.62.04.87,2.23.88M375.02,237.2c2.17-.79,4.23-5.01,2.42-4.96-.74.02-.38-.5,1.01-1.44,1.24-.84,2.68-2.72,3.35-4.37,1.53-3.75,3.3-5.76,4.07-4.62.32.47.9,2.17,1.28,3.77,1.01,4.18,6.06,14.91,10.5,22.31,4.15,6.92,4.67,9.37,1.41,6.64l-2.01-1.69,1.49,2.32c.82,1.28,2.65,3.48,4.06,4.9,3.82,3.82,9.07,10.9,9.08,12.26.01,1.48-2.82.78-8.73-2.16-2.23-1.11-4.1-1.8-4.15-1.54-.14.71,4.52,3.42,10.84,6.3l5.58,2.54,2.21,4.56c2.76,5.67,4.5,10.09,5.13,13.03.27,1.24.92,3.38,1.45,4.76.53,1.37,1.39,3.72,1.93,5.22,2.17,6.11,2.07.22-.14-8.21-2.52-9.61-5.69-16.2-13.94-28.98-4.39-6.81-9.28-14.95-10.86-18.09s-4.7-9.06-6.94-13.17c-2.91-5.33-4.66-9.6-6.12-14.97-1.94-7.13-2.82-8.65-3.15-5.41-.08.8-.58,1.74-1.11,2.09s-2.94,4.06-5.37,8.23c-3.56,6.12-4.11,7.51-2.85,7.22,1.47-.34,1.49-.27.41,1.28-.63.9-1.58,1.75-2.11,1.87-.53.12-.86.39-.73.59s1.03.08,1.98-.27M255.03,58.08c1.57.74,3.56,1.32,4.41,1.29,1.37-.05,1.21-.24-1.4-1.66-1.62-.88-3.2-1.43-3.51-1.23s-.83-.03-1.16-.52-.99-.87-1.48-.85c-1.46.06.1,1.54,3.13,2.96M458.88,355.8c1.62,1.78,11.49,11.51,17.87,17.61,2.12,2.03,6.17,5.57,8.99,7.86,2.82,2.29,5.94,4.84,6.92,5.66,5.25,4.39,11.95,8.56,12.8,7.99.35-.23.26-.68-.18-1-4.28-3.03-26.65-22.16-31.28-26.75-3.26-3.23-6.92-6.76-8.12-7.83-3.13-2.78-11.7-12.2-13.47-14.82-1.13-1.65-1.5-1.87-1.48-.88.02,1.31,4.99,8.89,7.96,12.15M440.15,327.1c1.63,1.37,3.69,3.01,4.59,3.64,1.05.74,2.24,2.54,3.35,5.07,1.53,3.48,2.56,4.7,9.23,10.85,4.13,3.81,9.9,8.95,12.81,11.43,2.92,2.48,6.29,5.46,7.5,6.62,1.99,1.92,7.17,6.46,16.8,14.73,6.31,5.42,12.37,11.06,13.19,12.28.47.69,1.23.91,1.81.52.86-.58.57-1.19-1.99-4.27-1.65-1.98-5.87-7.52-9.39-12.31-5.5-7.49-6.91-9.02-10.05-10.92-2.01-1.21-3.93-2.62-4.28-3.14-.92-1.37-5.01-4.09-14.48-9.65-11.02-6.47-21.93-17.19-20.45-20.1.48-.94-.04-1.47-3.33-3.4-3.36-1.97-4.43-3.09-7.85-8.17-2.17-3.24-4.16-6.86-4.41-8.05-.64-3.05-1.7-1.98-1.32,1.33.42,3.6,4.58,10.41,8.27,13.53M443.92,324.11c3.19,3.23,2.04.33-3.99-10.14-5.21-9.03-5.96-10.77-7.21-16.62-.76-3.59-2.58-10.18-4.03-14.63-1.45-4.46-2.76-8.83-2.91-9.72-.47-2.78-2.95-7.45-3.69-6.95-.37.25-.39.87-.05,1.38s.19,1.22-.34,1.58c-.67.45-1.1.22-1.39-.78-.23-.79-.77-1.42-1.21-1.41-.43.02.5,2.29,2.06,5.05,3.64,6.42,6.98,15.32,9.1,24.26.92,3.88,2.34,8.05,3.16,9.26s1.82,3.32,2.23,4.68c.99,3.28,5.93,11.65,8.27,14.03M356.28,186.25c1.43.11,2.03.36,1.34.55-1,.28-1,.59-.03,1.45.87.76,1.3.76,1.45,0,.15-.76.73-1.02,1.92-.85,1.01.14,1.69-.1,1.67-.61-.05-1.27-1.99-2.39-2.97-1.73-.47.32-1.23.03-1.68-.64-.53-.79-1.05-.89-1.46-.3-.35.5-1.03.74-1.5.53-.47-.21-1.11-.21-1.44,0-1.07.72.06,1.38,2.69,1.58M479.75,361.05c.67.29,1.51.94,1.86,1.45.35.51,1.98,1.64,3.62,2.5,1.86.98,4.09,3.02,5.94,5.41q2.96,3.84.63,2.43c-1.28-.78-3.85-2.99-5.7-4.92-1.85-1.93-3.72-3.49-4.15-3.47-.43.02-1.38-.86-2.1-1.95-1-1.5-1.03-1.85-.09-1.46M396.87,234.54c.33-.22-.24-2.33-1.26-4.69-1.02-2.36-1.66-4.74-1.41-5.28.25-.54-.23-2.16-1.06-3.59-.83-1.43-1.74-3.7-2.02-5.05l-.51-2.46,2.4.48c10.25,2.03,18.21,7.44,26.3,17.9,4.37,5.65,4.53,5.98,4.37,9-.09,1.73.22,5.1.7,7.5.48,2.4,1.03,5.9,1.24,7.77.27,2.47.79,3.71,1.86,4.48.83.6,1.44,1.53,1.4,2.13-.05.59.69,2.57,1.63,4.4.94,1.84,2.38,4.91,3.19,6.83,1.95,4.58,8.39,14.3,8.62,13.01.1-.53-1.47-3.75-3.49-7.15-2.02-3.4-3.87-7.04-4.11-8.1-.25-1.05-1.82-4.39-3.51-7.4-1.68-3.02-3.02-5.96-2.98-6.55.05-.59-.59-4.09-1.41-7.79-.82-3.7-1.35-8.08-1.17-9.72.29-2.7-.01-3.48-3.11-8.02-1.89-2.77-5.76-7.39-8.6-10.28-4.94-5.02-7.33-6.45-12.64-7.6-.74-.16-4.43-1.57-8.19-3.12l-6.85-2.83,1.31,3.42c.72,1.88,2.06,6.14,2.97,9.47,1.79,6.52,5.32,13.95,6.31,13.28M408.57,249.8c.81-1.04-2.35-8.67-4.54-10.98-2.57-2.7-2.38-.82.52,5.19,3.18,6.59,3.29,6.74,4.02,5.79M378.2,193.59c.8-.18,1.44.24,1.76,1.15.28.79.87,1.43,1.31,1.41.45-.02.82.31.84.72s.4.74.86.72c.97-.04.43-2.23-.91-3.67-.52-.56-1.37-.99-1.9-.97s-1.72-.64-2.65-1.48c-1.5-1.34-1.65-1.34-1.35.02.5,2.25.67,2.41,2.05,2.1M514.26,388.99c.54-.36.39-1.65-.37-3.34-1.5-3.32,0-3.83,1.68-.57.85,1.64,1.41,2.09,2.05,1.65.71-.48.38-1.2-1.58-3.47-1.81-2.1-3.13-4.74-4.93-9.85-3.11-8.82-4.97-15.45-5.28-18.81-.14-1.45-.56-5.33-.94-8.63-.38-3.3-.69-7.09-.68-8.42,0-1.33-.17-3.35-.39-4.49s-.18-4.47.09-7.4c.27-2.93.32-7.47.11-10.1-.21-2.62-.17-5.21.08-5.74.61-1.3-.39-3.95-1.72-4.55-.78-.35-.94.03-.6,1.47.25,1.07.2,3.12-.12,4.54-.32,1.43-.35,2.94-.07,3.36.28.42.32,2.01.1,3.53-.22,1.52-.33,5.94-.23,9.83.09,3.89.17,8.69.17,10.67,0,1.98.39,5.55.87,7.95.95,4.7.94,6.83-.03,5.39-.71-1.05-6.79-17.31-8.45-22.58-4.2-13.35-5.15-16.6-6.91-23.64-.37-1.48-1.53-5.75-2.57-9.5-3.89-14-4.68-18.06-4.27-22.08.15-1.48-.22-3.83-.83-5.24-1.42-3.3-2.7-11-1.91-11.53.33-.23,1.73-2.38,3.1-4.78,1.37-2.41,3.67-5.27,5.11-6.36,1.61-1.23,2.42-2.29,2.1-2.76-.28-.43-.8-.59-1.14-.36s-.96-.06-1.37-.65c-.68-.98-.76-.94-.84.45-.05.86-1.4,2.69-3.12,4.23-1.67,1.49-3.54,3.81-4.16,5.16-1.95,4.23-2.61,3.77-3.21-2.21-1.06-10.66-1.46-19.01-.93-19.36.29-.2.3-.7.02-1.11-.69-1.02-.66-14.82.04-21.39.31-2.93.41-6.64.22-8.24-.19-1.6-.24-3.18-.11-3.52s.09-1.86-.09-3.38c-.19-1.6.09-2.87.68-3,.63-.15.75-1.72.34-4.18-.37-2.17-.21-5.62.36-7.66.75-2.71.71-4.19-.16-5.48l-1.19-1.76-.9,4.16c-1.07,4.98-2.04,15.57-1.75,19.11.12,1.4.09,5.05-.05,8.12-.39,8.23-.3,27.02.17,34.93.65,10.86,1.38,15.48,3.9,24.36,1.29,4.55,2.59,10.12,2.9,12.39.3,2.27,1.14,6.55,1.86,9.53.72,2.97,1.32,6.2,1.35,7.18.02.97.46,2.7.97,3.84.51,1.14,1.5,4.52,2.19,7.51,3.44,14.79,9.79,33.99,16.56,50.1,3.56,8.46,8.68,23.13,11.13,31.86,1.51,5.38,1.65,5.63,2.78,4.86M504.43,374.95c-.02-.73-.93-2.66-2.03-4.3-1.1-1.64-1.64-2.99-1.22-3.01,1.09-.04-1.15-5.83-2.94-7.61-.91-.9-1.22-1.65-.79-1.94.39-.26,0-1.5-.89-2.81s-1.54-2.76-1.49-3.27c.27-2.57-3.93-12.81-4.62-11.28-.22.49-.14,1.28.19,1.76s.18,1.02-.31,1.2c-.5.18-.61.31-.26.28,1.02-.09,2.05,1.88,2.02,3.83-.03,2.11,1.09,5.11,3.14,8.41.81,1.31,1.27,2.51,1.02,2.68-.63.42,2.74,8.18,5.74,13.2,1.67,2.8,2.47,3.73,2.45,2.84M391.93,206.1c.49-.7.97-.57,1.67.47.54.8,1.63,1.51,2.42,1.59s1.79.65,2.2,1.27,1.15,1.11,1.63,1.09c1.28-.05.09-1.48-2.34-2.79-2.53-1.37-4.27-3.49-2.19-2.69,1.04.41,1.08.3.22-.6-.65-.69-1.4-.76-1.99-.19-.52.5-1.42.57-2.01.16-.85-.6-1.06-.51-1.03.43.05,1.81.65,2.35,1.42,1.27M454.02,294.84c.93.39,1.23.25,1.22-.56-.03-1.65-2.62-5.04-3.63-4.76-.5.14-.54.74-.1,1.34.44.6.91,1.62,1.04,2.28.13.65.8,1.42,1.48,1.7M306.56,71.72c1.03-.7,1.43-1.58,1.15-2.55-.24-.82-.25-3.27-.02-5.46.23-2.19.06-4.61-.38-5.38-2.26-3.97-6.78-10.39-7.15-10.14-.23.16-.56,1.01-.74,1.91-.23,1.17.51,2.85,2.63,6,2.91,4.31,2.94,4.43,2.01,8.32-.55,2.33-.56,4.85-.01,6.16.84,2.02,1.06,2.12,2.51,1.15M315.05,80.71c2.47.73,4.81,1.79,5.2,2.37.8,1.19,4.03,2.54,4.18,1.75.05-.28-.89-1.52-2.1-2.76-3.42-3.5-14.4-6.59-12.29-3.47.29.43,2.55,1.38,5.02,2.1M450.92,282.95c.06-1-.36-2.51-.92-3.37-1.19-1.82-1.4-6.66-.32-7.5,1.86-1.46,3.08-4.35,2.96-7.01-.27-6.02-4.26-16.73-5.84-15.67-.44.3-.33.92.25,1.43.57.5.9,1.45.75,2.12-.15.67.23,2.4.86,3.85.73,1.69.86,3.89.35,6.13-.63,2.8-.55,3.43.44,3.2,1.69-.39,2.22.65.81,1.6-.64.43-1.23,1.43-1.31,2.22-.22,2.15-1.19,1.79-3.41-1.25-1.58-2.16-1.79-2.87-.99-3.41.73-.49.65-1.03-.31-2-.81-.82-1.07-1.66-.67-2.23.35-.5.13-1.49-.48-2.19-1.26-1.43-3.49-8.22-2.85-8.65s3.32,2.2,3.37,3.3c.02.59.2.61.45.05.62-1.37-1.74-4.47-3.14-4.15-.86.2-1.26-.14-1.39-1.18-.26-2.03-11.31-17.66-13.57-19.22-1.02-.7-2.4-2.08-3.06-3.05s-1.55-1.76-1.99-1.74c-.45.02,1.41,3.25,4.36,7.56,2.83,4.14,5.58,8.86,6.11,10.48s2.36,5.14,4.07,7.81c1.71,2.68,2.93,4.99,2.71,5.14-.41.27,1.78,5.94,4.32,11.24.76,1.59,1.13,3.05.82,3.26s-.36.69-.1,1.06.75.27,1.1-.23c.96-1.37,3.79,2.02,3.39,4.06-.53,2.7.08,5.61,1.64,7.94,1.4,2.08,1.5,2.1,1.59.4M311.98,68.96c1.15-.78,2.94-2.78,3.97-4.45,1.34-2.18,3.23-3.96,6.66-6.29,4.8-3.25,5.78-4.98,2.06-3.62-1.09.4-3.84.8-6.11.9-2.27.1-4.1.54-4.09.98.02.44.9.72,1.96.62q1.93-.18.37,1.51c-3.73,4.05-7.84,10.4-7.27,11.24.19.29,1.3-.12,2.45-.89M478.69,301.56c.99-.67.73-2.4-.69-4.5-.54-.8-.83-1.79-.65-2.2s-.04-2-.5-3.53c-.46-1.54-1.1-4.33-1.42-6.21-.32-1.88-.86-3.83-1.2-4.33s-1.01-2.68-1.48-4.85c-.87-3.93-1.79-4.65-2.1-1.63-.09.88-.06,1.56.07,1.53.28-.08,1.56,5.64,1.73,7.74.07.85.59,1.92,1.17,2.37.62.49.87,1.93.62,3.53-.47,2.97-.11,4.34.55,2.11.72-2.46,1.5-1.33,1.17,1.72-.17,1.61.17,3.65.77,4.53s.81,1.8.47,2.03-.34.83,0,1.34,1.01.66,1.49.35M498.7,331.2c.41-.28-.36-5.3-.95-6.17-.29-.43-.41-1.41-.26-2.16.15-.76-.05-2.26-.44-3.34-.57-1.57-.85-1.76-1.4-.97-.38.54-.25,1.65.3,2.47s.72,1.67.38,1.9-.11,1.19.51,2.13c.62.94,1.08,2.53,1.03,3.52-.1,1.76.3,3,.84,2.63M436.26,234.94c5.24,5.17,7.62,7.91,7.38,8.5-.32.8,2.97,4.4,3.32,3.63.55-1.21-5.58-9.54-10.02-13.61-2.51-2.31-4.82-4.24-5.13-4.3-.81-.16,1.6,2.98,4.45,5.79M455.25,256.28c.51-.34.69-1.31.39-2.15-.34-.97-.15-1.54.54-1.57.7-.03.74-.19.11-.47-1.05-.47-1.07-3.2-.03-3.24.72-.03.45-2.83-.51-5.25-.39-.97-.78-1.28-1-.79-.24.52-.71-.03-1.35-1.56-1.62-3.9-1.86-4.92-1.25-5.33.32-.21.35-.72.08-1.13-.37-.55-.56-.44-.73.42-.12.64-.71,1.27-1.31,1.41-.74.17-.75.48-.03.99,1.09.76.3,1.85-.94,1.3-1.23-.55-5.88-6.22-6.94-8.46-.38-.8-.92-1.08-1.32-.68-.42.43-1.17-.06-2.03-1.33-.97-1.42-1.35-1.64-1.33-.75.02.74.68,1.71,1.64,2.38.88.62,2.04,2.15,2.58,3.4.54,1.25,1.35,2.25,1.81,2.24s1.45,1.08,2.21,2.43c1.58,2.83,6.68,13.87,7.76,16.8.55,1.49.96,1.82,1.66,1.35M436.22,224.86c.46.31,1.2.31,1.66,0s1.18-.29,1.62.03c.44.32.88.25.97-.16.1-.41-.58-.9-1.5-1.07-.92-.18-2.13-1-2.69-1.82-.62-.92-1.37-1.26-1.94-.87-.91.61.09,2.7,1.88,3.9M495.05,310.05c.33-.46.29-1.12-.09-1.47-.38-.35-.63-1.2-.56-1.89.07-.69-.51-1.83-1.3-2.53-.79-.71-1.25-1.66-1.03-2.14.22-.47.2-1.14-.03-1.48s-.57-.28-.76.13c-1.07,2.36,2.46,11.17,3.76,9.38M488.14,298.79c.97-.65,1.35-4.72.56-5.89-.4-.6-.45-1.65-.11-2.33.93-1.85-1.13-1.51-2.11.35-.45.86-.38,2.14.18,2.96s.79,2.07.57,2.84c-.46,1.58.02,2.68.92,2.08M466.66,258.9c1.39-.06,2.15-3.5,1.49-6.83-.3-1.53-.43-3.06-.29-3.4.14-.34.07-2.51-.17-4.83-1.01-9.82-1.4-27.58-.92-41.6.09-2.53.22-8.29.29-12.8.08-4.51.77-11.53,1.55-15.61,1.4-7.36,1.33-9.22-.31-8.11-1.12.75-3.8,14.59-3.69,19.03.05,1.9-.19,4.69-.54,6.2-.34,1.51-.28,3.66.14,4.78.42,1.12.33,4.28-.21,7.02-.96,4.93-.94,6.7.14,9.23.64,1.51.23,8.49-.52,9-.28.19.01.8.65,1.36,1.26,1.11.43,2.21-1.01,1.36-.49-.29-.39-.02.21.61.6.62,1.2,2.44,1.33,4.04.13,1.6.05,2.33-.17,1.61-.63-2.06-1.32-.93-.93,1.53.23,1.44.62,2.14,1.13,2,.43-.12.79.15.81.59.02.46-.53.7-1.27.55-1.76-.35-4.9-5.41-4.37-7.06.64-1.99.63-7.35-.01-7.47-1.21-.23-2.03,2.14-1.51,4.35.58,2.46,0,3.6-1.04,2.05-.34-.51-.9-.74-1.24-.51s-.42.71-.18,1.07.09.67-.34.69c-.84.03-.55,2.51.32,2.68.28.05.73-.61,1-1.47.45-1.48.5-1.42.76.93.41,3.59,1.6,7.15,3.86,11.56,1.09,2.12,1.77,4.28,1.52,4.82-.25.53.22,2.32,1.04,3.98.83,1.66,1.28,3.31.99,3.67-.28.36-.19,1.14.2,1.72s.62,1.57.5,2.19c-.16.81.06,1.11.79,1.08M501.6,301.86c.18-.93.79-1.79,1.35-1.92.89-.21,2.31-6.49,1.68-7.43-.13-.19-.75,1.29-1.38,3.29-.64,1.99-1.29,3.42-1.46,3.17s-.53.42-.79,1.5-.31,2.21-.1,2.52.53-.19.71-1.12M463.7,239.78c.04-1.52-.29-2.58-.79-2.56-1.06.04-4.68-5.41-3.93-5.92.3-.2,1.28.73,2.18,2.07s1.98,2.42,2.4,2.4c1.36-.06,2.26,3.38,1.41,5.39-1.01,2.4-1.36,2.02-1.27-1.39M358.66,79.98c.56-.64,1.6-1.1,2.31-1.03.71.07,1.35-.18,1.42-.55.23-1.17-1.23-2.79-2.65-2.93-1.07-.1-1.48.41-1.96,2.44-.73,3.09-.5,3.63.87,2.08M389.65,123.79c4.04,2.91,10.86,6.54,14.99,7.98,1.53.54,1.48.36-.57-1.86-2.47-2.66-5.5-4.31-6.59-3.58-.99.67-10.91-6.27-12.63-8.83-.41-.62-.91-.76-1.11-.32-.57,1.26,1.17,3.2,5.92,6.62M376.31,100.61c1.25,1.14,3.37,3.95,4.72,6.25,1.39,2.37,4.84,6.67,7.94,9.92,6.61,6.91,7.98,8.09,8.77,7.57.63-.42-4.16-6.68-9.74-12.75-1.68-1.83-6.82-8.88-11.41-15.67-8.53-12.63-10.95-14.68-5.22-4.44,1.68,3,2.8,5.63,2.49,5.84-.65.44-.59.52,2.45,3.29M478.75,240.42c.6-.4,1.39-1.33,1.76-2.07.36-.74,1.24-2.13,1.95-3.09.71-.96,1.1-2.04.86-2.4s-.83.28-1.3,1.41c-.99,2.34-1.63,1.9-1.57-1.09.02-1.13-.33-2.29-.78-2.6-.47-.31-.53-.07-.14.56.37.61.42,1.29.1,1.5s-.39,1.04-.15,1.84c.23.8-.08,2.62-.7,4.05-.79,1.81-.79,2.38-.03,1.88M391.5,110.59c2.41,2.57,5.23,5.32,6.27,6.11,1.61,1.23,1.52.97-.66-1.8-1.4-1.77-4.55-5.31-6.99-7.86-2.55-2.66-5.89-7-7.83-10.17-1.99-3.25-3.74-5.52-4.25-5.5-1.29.05,8.23,13.64,13.47,19.22M376.84,89.77c.59.26,1.24.34,1.44.17,1.02-.83,2.94-.72,5.19.3,2.19.99,2.72,1.62,4.17,4.96,2.85,6.59,12.35,17.06,13.79,15.19.33-.43,1.66-.25,2.96.39,2.39,1.18,3.68,1.12,2.83-.14-.26-.38-2.14-1.56-4.2-2.62-2.45-1.27-3.6-2.23-3.35-2.8.27-.61-.58-1.89-2.86-4.31-2.7-2.88-3.2-3.73-3.01-5.16.15-1.13-.79-3.4-2.76-6.64-3.16-5.21-3.59-5.44-6.44-3.55-1.48.98-6.63,2.48-7.76,2.26-1.94-.38-1.95,1.1-.02,1.94M407.08,129.95c1.85,1.16,5.01,1.71,6.07,1.05.29-.18-.77-.7-2.35-1.15-1.59-.45-3.11-1.14-3.39-1.53-.28-.39-1.28-.98-2.22-1.3-1.7-.58-1.71-.58-.86.58.47.64,1.71,1.7,2.75,2.35M371.69,76.46c1.11.8,2.35.94,3.58.41,3.76-1.65,7.51-2.4,11.57-2.32,1.9.04,2.65-.29,3.39-1.51.92-1.52.89-1.54-1.23-.78-2.56.91-7.02.75-7.8-.29-.7-.94-3.71-.63-4.91.52-.52.49-1.95.87-3.19.85-2.33-.04-4.1.7-3.47,1.46.2.24,1.13.98,2.06,1.66M404.04,122.8c3.6,2.62,11.68,5.79,10.57,4.14-.13-.2-3.27-1.85-6.97-3.67-6.79-3.34-7.7-3.46-3.6-.47M376.89,82.01c2,.26,9.37-2.91,10-4.3.49-1.09-1.24-.72-4.51.97-1.23.63-3.39.81-5.24.43-2.52-.52-3.1-.41-2.88.54.42,1.8.76,2.11,2.63,2.35M368.44,67.47c2.42.13,7.58-1.81,7.8-2.92.15-.75-.38-.87-1.71-.38-3.74,1.35-1.97-1.67,3.68-6.28,6.62-5.41,7.82-6.08,10.8-6.09h2.38s-4.9,3.94-4.9,3.94c-6.82,5.48-7.07,7.63-.28,2.39,2.77-2.14,5.51-4.22,6.1-4.64,1.51-1.07-1.09-4.8-3.59-5.16-2.72-.39-7.19,1.24-7.65,2.79-.2.68-2.27,2.85-4.59,4.83-2.33,1.98-4.8,4.64-5.5,5.92-.7,1.28-1.98,2.81-2.85,3.39-1.7,1.14-1.56,2.11.32,2.21M405.54,117.67c.42-.02,1.47.66,2.32,1.51,1.86,1.84,9.07,5.37,12.16,5.96,1.21.23,4.24,1.45,6.73,2.72,4.21,2.13,12.38,4.76,11.71,3.77s-8.51-5.7-14.22-8.5c-5.7-2.8-8.08-4.71-7.78-6.24.27-1.38,2.42-1.01,4.48.78,1.21,1.05,3.66,2.48,5.45,3.19,3.53,1.4,11.67,6.19,12.43,7.31.65.96,5.32,2.64,6.02,2.16,1.19-.8-1.39-3.34-2.87-2.82-.92.32-1.56.09-1.72-.64-.28-1.23-10.27-7.18-11.11-6.62-.27.18-2.64-1.46-5.27-3.65-2.63-2.19-5.11-3.98-5.51-3.96-.4.02-1.28,1.02-1.94,2.22-1.52,2.78-4.11,4.55-5.36,3.67-1.57-1.1-.79-6.15,1.06-6.86,2.85-1.09,2.38-2.01-3.37-6.6-3.09-2.47-6.14-5.25-6.76-6.18s-1.52-1.68-1.99-1.66c-1.46.06.46,3.88,3.01,5.99,5.28,4.35,6.47,5.57,6.02,6.18-.25.33-.13,1.08.25,1.65s.11,1.89-.69,3.01c-1.3,1.83-1.53,1.88-3.54.79-1.18-.65-2.28-1.08-2.44-.98-.53.36,2.14,3.83,2.92,3.8M386.25,88.97c.7-.47,1.87.47,5.12,4.07,1.97,2.19,2.25,2.78,1.41,3.02-.61.17-2.05-.87-3.46-2.5-1.33-1.54-2.69-3.11-3.03-3.5-.34-.39-.36-.88-.04-1.1M482.08,224.8c1.76-3.63,2.23-6.85,1.14-7.82-.62-.54-1.21-1.91-1.3-3.03-.23-2.63-.56-3.13-1.61-2.42-.98.66-.35,2.93,1.62,5.87.83,1.24,1.03,2.22.53,2.56-.45.3-.87,1.83-.94,3.4-.1,2.37,0,2.61.57,1.43M427.4,136.57c3.94.7,7.45,1.71,7.81,2.23,1.01,1.5,3.28,1.38,5.77-.3,1.26-.85,2.94-1.42,3.74-1.26.8.15,1.89-.02,2.43-.38.86-.58.76-.72-.88-1.12-1.02-.25-2.99-.22-4.36.08-1.37.3-4.16.21-6.18-.18-6.7-1.31-15.2-2.39-15.78-2-1.35.91.76,1.74,7.46,2.94M391.48,84.57c.94-.1,2.27-.68,2.96-1.29,1.21-1.08,1.35-.95,5.43,5.05,4.64,6.81,7.48,9.78,8.62,9.01.41-.28,1.7.18,2.85,1.02,1.2.88,3.3,1.45,4.91,1.34,1.55-.1,3.09-.08,3.44.06.35.14,1.54-.08,2.67-.49,1.91-.69,1.95-.84.64-2.38-1.2-1.41-1.62-1.46-2.97-.33-1.07.9-2.08,1.08-3.2.58-.9-.4-1.98-.49-2.41-.2s-.97.25-1.2-.09-1.45-.82-2.7-1.06c-2.73-.53-6.86-5.02-9.87-10.74-1.89-3.6-1.88-6.17.03-4.75,3.5,2.59,4.57,3.26,4.65,2.88.05-.24-1.01-1.42-2.36-2.62-3.04-2.71-5.81-2.53-10.58.68-3.55,2.39-3.89,3.64-.91,3.33M386.84,69.12c2.63-.44,5.54-1.07,6.46-1.4,1.99-.72,6.82-4.99,6.38-5.63-.48-.71-16.1,5.85-17.13,7.2-.27.35,1.66.28,4.29-.16M499.08,239.04c1.14-.04,2.14-.63,3.08-1.8.76-.96,2.84-3.19,4.62-4.96,1.78-1.77,3.51-3.56,3.85-3.96.94-1.13-.09-2.12-1.3-1.25-1.14.82-7.48,7.12-10.25,10.18-1.56,1.72-1.56,1.86,0,1.8M425.95,112.88c1.78,1.22,4.36,2.56,5.74,2.97,1.37.41,3.18,1.05,4.02,1.42,1.47.64,1.49.62.7-.62-.45-.71-1.32-1.39-1.94-1.51-.81-.16-1.01-.47-.72-1.11.26-.58-.43-.96-1.97-1.07-1.31-.1-2.66-.67-3-1.28-1.31-2.33-2.16-2.81-4.64-2.62-3.01.23-2.81.66,1.81,3.82"/>
</svg>