<?xml version="1.0" encoding="UTF-8"?>
<svg id="Warstwa_1" data-name="Warstwa 1" xmlns="http://www.w3.org/2000/svg" viewBox="0 0 388.57 496.6">
  <defs>
    <style>
      .cls-1 {
        fill: #010101;
        fill-rule: evenodd;
      }
    </style>
  </defs>
  <path class="cls-1" d="M141.18,53.8c.36,29.59.97,63.23,1.35,74.77l.69,20.97h5.29l-.22-41.38c-.12-22.76-.53-56.41-.91-74.77l-.7-33.38h-6.16l.66,53.8M159,2.48c1.1,3.93,2.55,41.83,3.37,87.73.41,23.22,1.1,42.21,1.53,42.21,1.92,0,2.53-5.12,2.68-22.62.09-10.32.69-20.75,1.33-23.17.65-2.43,1.17-5.66,1.17-7.17v-2.76s-2.17,2.76-2.17,2.76l-2.18,2.76.57-6.64c.61-7.09-.96-58.65-2.1-69.23-.58-5.36-1.02-6.35-2.79-6.35-1.68,0-1.96.5-1.41,2.48M201.54,6.62c-2.24,3.63-5.48,10.45-7.2,15.16-1.72,4.71-4.29,10.97-5.71,13.91-1.42,2.94-2.59,6.46-2.59,7.83s-.99,5.42-2.19,9c-4.18,12.45-9.59,45.41-9.94,60.59-.35,15.2-.19,14.65-6.17,21.33-3.09,3.45-7.18,8.38-9.09,10.97-3.52,4.76-11.58,9.62-20.84,12.56l-4.35,1.38-.6,21.57c-.48,17.33-1.04,23.2-2.85,29.85-1.24,4.55-2.49,10.51-2.79,13.24-.95,8.86-1.41,10.25-2.93,8.94-1.09-.95-1.62.66-2.57,7.9-.66,5-1.43,12.32-1.72,16.27s-1.92,11.66-3.63,17.13c-3.52,11.25-3.35,14.75,1.38,28.11,2.96,8.36,7.05,26.15,10.14,44.14,4.87,28.3,6.62,33.41,12.07,35.29,4.18,1.44,6.58.56,11.51-4.25,2.59-2.52,3.97-2.92,10.58-3.09,4.18-.1,10.45-.88,13.94-1.73l6.35-1.54,1.2-5.99c3.55-17.64,4.86-27.11,5.39-38.81l.59-12.95-4.65-4.3-4.65-4.3,1.79-5.92c2.66-8.82,2.96-11.04,1.79-13.32-1.75-3.4.02-11.73,3.11-14.73l2.74-2.65-2.34-5.02c-2.5-5.37-3.05-11.5-1.22-13.42.73-.76,6.24-1,15.86-.67,9.3.32,14.74.1,14.74-.58,0-1.61-3.23-2.2-19.57-3.56-18.29-1.52-20.08-2.48-20.12-10.8-.01-3.08-.31-5.89-.66-6.26-.35-.37-1.92.91-3.47,2.85-2.81,3.49-2.87,3.5-7.27,2.02-9.57-3.23-13.11-11.97-6.83-16.84,2.33-1.81,5.31-2.41,15.34-3.08,6.84-.46,13.87-.94,15.62-1.06,1.75-.12,5.43.15,8.19.61l5.02.84,2.09-4.82c1.17-2.69,2.11-7.25,2.12-10.33.03-6.77,2.61-11.53,8.41-15.53,3.57-2.47,4.08-3.26,3.18-5.01-.59-1.14-1.42-2.08-1.85-2.08s-1.32-2.36-1.98-5.24c-1.18-5.15-1.13-5.36,3.18-12.34,3.86-6.24,4.38-7.86,4.38-13.52,0-6.24,1.28-8.59,2.35-4.31.77,3.08,5.03,3.74,11.48,1.78,6.92-2.1,8.36-3.9,3.13-3.9-2.28,0-3.56-.45-3.17-1.1.36-.61,1.6-1.1,2.76-1.1,2.78,0,9.25-3.53,7.56-4.13-.72-.25-5.4.38-10.4,1.42-11.26,2.33-17.01,1.63-23.24-2.85-8.11-5.82-11.04-15.21-10.87-34.78.16-18.05,1.04-22.11,7.87-36.23,6.54-13.52,8.72-17.16,13.48-22.48,3.7-4.14,5.92-4.49,8.62-1.38,1.06,1.22,3.15,2.17,4.66,2.11,5.87-.21,11.23,1.52,13.49,4.38,2.83,3.57,3.95,2.66,2.73-2.23-.58-2.33-1.68-3.86-2.97-4.11-3.01-.6-7.87-4.47-7.87-6.28,0-.86-1.69-2.3-3.75-3.2-3.67-1.6-3.72-1.7-2.22-4.71.84-1.69,2.53-4.02,3.76-5.18,1.97-1.86,2.55-1.93,4.9-.62,1.47.82,3.62,3.1,4.79,5.07,2.04,3.45,6.94,8.36,11.13,11.14,1.85,1.23,1.87,1.46.28,2.79-1.59,1.33-4.49,9.6-3.67,10.45.19.2,1.11.06,2.04-.31,1.86-.75,3.54-5.32,4.42-12.07.55-4.21.26-4.76-6.05-11.73-3.64-4.02-7.93-8.18-9.53-9.23-3.6-2.37-3.65-3.86-.26-7.18,3.27-3.21,3.37-4.68.28-4.22-1.31.2-3.31,1.98-4.49,4.01-1.17,2.01-3.91,5.89-6.09,8.61-5.19,6.5-6.3,8.79-6.3,13.07,0,3.16-.28,3.5-2.54,3.05-1.4-.28-3.71.3-5.15,1.28-1.44.98-3.24,1.78-4.02,1.78s-2.01,1.74-2.75,3.86c-.74,2.12-2.02,3.86-2.86,3.86-.91,0-1.52,1.09-1.52,2.7,0,1.49-.62,3.1-1.37,3.59-.76.49-2.65,4-4.21,7.8-1.56,3.81-3.35,7.53-3.98,8.28-2.56,3.04-5.59,9.25-5.77,11.84-.11,1.52-.76,8.07-1.45,14.57-1.22,11.44-1.18,12.01,1.26,18.28,1.39,3.56,2.87,8.41,3.29,10.78,1.56,8.68,8.31,18.69,13.38,19.86,4.33.99,4.76,2.83,2.51,10.59-1.4,4.82-2.36,6.49-3.58,6.22-.95-.21-1.56-1.29-1.42-2.53.42-3.66-.74-7.13-2.39-7.13-1.12,0-1.57,1.24-1.57,4.34,0,4.65,2.45,8.33,4.9,7.35,2.12-.85,1.77.91-.64,3.19-3.22,3.04-3.5,5.58-1.14,10.4,1.19,2.44,2.17,5.22,2.17,6.18,0,1.54-.32,1.51-2.59-.23-1.43-1.09-2.8-2.73-3.05-3.64-.28-1-.51-.7-.58.75-.07,1.39,1.05,3.37,2.66,4.69,1.53,1.26,2.24,2.29,1.57,2.29s-2.5,2.74-4.08,6.09c-1.92,4.08-3.35,5.9-4.34,5.5-1.07-.43-1.25-.06-.65,1.36,1.5,3.56,1.75,9.95.48,12.42-.93,1.81-1.94,2.3-3.91,1.91-4.09-.82-35.23,1.24-39.13,2.59-7.05,2.43-9.82,11.67-5.83,19.48,2.43,4.76,8.34,9.14,12.32,9.15,2.27,0,4.65,1.31,7.99,4.42,2.62,2.43,5.47,4.66,6.35,4.95,1.21.41,1.59,2.36,1.59,8.21,0,4.53.52,8.23,1.28,9.01,1,1.04.8,2.02-.87,4.48-1.21,1.78-2.41,5.76-2.74,9.16-.47,4.79-1.21,6.59-3.62,8.83-3.44,3.19-4.09,8.64-1.48,12.25.85,1.18,1.57,3.02,1.59,4.1.02,1.08,2.18,4.2,4.79,6.93l4.76,4.97v8.21c0,4.51-.95,13.32-2.11,19.56-1.16,6.24-2.12,12.34-2.12,13.56,0,1.21-.49,4.01-1.08,6.22-1.23,4.64-2.46,5.09-16.9,6.28-7.81.64-9.67,1.22-14.18,4.4-6.62,4.68-9.23,4.16-11.53-2.27-1.85-5.16-5.16-19.7-6.87-30.09-1.18-7.24-2.7-13.77-5.04-21.67-.83-2.81-1.51-7.39-1.51-10.18,0-3.03-1.08-7.62-2.7-11.42-1.48-3.5-2.76-8.6-2.84-11.34-.15-5.22,3.25-15.16,4.16-12.15,1.91,6.29,5.93,13.24,9.12,15.78,2.06,1.64,4.02,2.98,4.34,2.98,1.57,0,.29-3.6-2.43-6.86-1.67-1.99-4.58-6.27-6.48-9.5-2.95-5.02-3.28-6.26-2.28-8.55,1.58-3.62,2.91-3.37,4.89.9.91,1.97,2.59,4.83,3.73,6.35l2.07,2.76.02-3.17c.03-4.47-5.26-12.89-7.63-12.16-3.2.99-3.59-.32-2.74-9.42.86-9.23,4.58-19.89,6.96-19.93.73-.01,1.32-1.1,1.32-2.42s.73-3.24,1.62-4.27c.89-1.03,1.82-3.8,2.05-6.16.24-2.35.46-4.51.49-4.78.03-.27.63.1,1.33.83,1.37,1.43,4.94,1.73,7.63.65,3.15-1.26,1.49-9.26-1.91-9.26-.58,0-.23.62.76,1.38,1.66,1.27,1.67,1.59.14,3.86-1.63,2.43-4.72,3.42-4.72,1.51,0-.53.71-2.75,1.59-4.93.87-2.18,1.59-5.01,1.59-6.3,0-3.45-2.58-2-2.99,1.69-.36,3.25-2.39,6.09-4.33,6.09-1.39,0-1.5-3.59-.14-5.02.54-.58,1.24-10.94,1.55-23.03l.56-21.98,3.75-1.35c2.06-.74,4.47-1.96,5.34-2.72.87-.76,3.08-1.56,4.9-1.78,4.08-.5,5.19-1.44,10.09-8.55,2.14-3.11,6.42-8.47,9.51-11.91l5.62-6.26v-9.68c0-26.76,7.52-63.2,18.96-91.89,1.79-4.48,3.25-9.02,3.25-10.08s2.14-5.19,4.76-9.18c2.62-3.99,4.76-7.52,4.76-7.85s-.83-.6-1.85-.59c-1.1,0-3.51,2.7-5.92,6.61M323.67,2.48c1.85,3.65,5.29,7.32,8.6,9.18,2.42,1.36,2.91,2.37,2.91,6.02,0,2.41-.48,4.39-1.06,4.39s-1.06,1.74-1.06,3.86.48,3.86,1.06,3.86,1.06-1.49,1.06-3.31c0-2.21.53-3.31,1.59-3.31,2.19,0,1.98,3.18-.51,7.43-1.4,2.4-1.89,4.62-1.48,6.76.68,3.53-1.22,8.32-2.88,7.25-1.81-1.17-5.82,4.15-9.21,12.21-1.79,4.25-5.66,12.34-8.6,17.99-2.95,5.65-5.36,10.56-5.36,10.91s-2.67,4.09-5.93,8.31c-4.85,6.27-6.02,8.6-6.43,12.81-.28,2.92-1.37,6.13-2.51,7.41-2.19,2.47-6.26,14.07-6.17,17.6.07,2.55,5.14-7.83,5.17-10.55,0-.95,1.42-3.13,3.13-4.84,1.71-1.71,3.26-4.17,3.44-5.45.19-1.42,1.22-2.46,2.62-2.67,3.45-.51,4.96-2.9,3.56-5.63-.96-1.87-.59-3.06,2.13-6.97,1.81-2.59,3.99-6.45,4.85-8.58,1.43-3.51,1.69-3.69,2.94-1.93.75,1.06,1.61,1.93,1.9,1.93s1.12-3.1,1.83-6.9c.71-3.79,2.48-9.88,3.92-13.52,1.44-3.64,3.01-7.61,3.49-8.83.47-1.21,1.27-4.16,1.78-6.54.5-2.38,1.45-4.51,2.1-4.74,1.46-.5-.15,7.53-2.43,12.1-1.47,2.94-1.17,5.24.69,5.24.49,0,1.94-2.23,3.2-4.96,1.27-2.73,2.74-5.25,3.28-5.59,2.91-1.88,5.41-10.09,5.81-19.14.58-12.84-1.67-22.56-6.52-28.25-2-2.35-3.64-4.67-3.64-5.17s-1.92-.9-4.27-.9c-4.09,0-4.22.1-3.01,2.48M343.64.53c0,.29.66,2.4,1.47,4.69,4.09,11.55,7.55,32.38,5.12,30.81-1.39-.89-2.31,61.4-1.22,82.47.58,11.28.48,18.92-.32,23.56-.88,5.12-.87,9.89.06,18.71,1.69,16.2,3.55,17.68,3.21,2.56-.14-6.37-.26-18.79-.27-27.59,0-8.8-.01-22.21-.02-29.8,0-7.59.4-22.73.9-33.66,1.41-30.56,1.3-53.38-.29-58.49-3.72-11.94-4.61-13.79-6.62-13.79-1.11,0-2.03.24-2.03.53M358.23,8.55c-.33,13.21.02,15.92,2.4,18.56,1.7,1.89,2.85,2.27,5.03,1.66l2.83-.79.3-13.99c.25-11.96.06-13.99-1.32-13.99s-1.62,2.1-1.62,13.32c0,13.18-.02,13.32-2.38,12.97-2.29-.34-2.39-.82-2.68-13.32-.33-14.56-2.22-17.82-2.56-4.41M384.42,3.88c-.38,2.13-.43,4.33-.1,4.89.33.55.62,18.66.65,40.24.05,35.6.57,43.74,2.45,38.63,1.49-4.06.04-87.64-1.53-87.64-.43,0-1.09,1.75-1.47,3.88M360.31,43.04c1.2,11.01.87,26.28-.6,27.81-.99,1.03-1.27.56-1.27-2.14,0-1.91-.47-3.77-1.06-4.15-1.11-.72-.88,16.21.27,19.31.34.91.89,5.26,1.24,9.66.54,6.96.4,8-1.12,8s-1.66,1.2-1.05,10.62c.38,5.84.91,10.99,1.18,11.45.27.45.72,3.96.99,7.79.54,7.37,3.26,12.12,5.96,10.38.98-.63.71-1.11-.95-1.75-2.53-.98-2.4.75-3.03-39.03-.15-9.1-.36-17.79-.47-19.31-.11-1.52.64-6.89,1.67-11.93,2.21-10.85,1.87-24.22-.78-30l-1.77-3.86.78,7.17M279.19,47.9c-2,2.16-3.26,4.31-2.82,4.78.45.46,1.68-.27,2.74-1.64,1.99-2.55,4.71-3.25,5.76-1.48.33.55,4.69,2.36,9.68,4.03,9.69,3.22,13.61,6.34,14.75,11.75.8,3.82,2.6,2.96,2.6-1.24,0-5.38-5.24-11.38-13.32-15.26-4.01-1.93-9.2-3.81-11.53-4.19-3.86-.63-4.55-.34-7.86,3.24M367.63,63.15c-.46,5.3-.75,23.99-.65,41.54.1,17.55-.14,32.46-.54,33.13-.41.7-.02,1.22.92,1.22s1.67-.62,1.69-1.38c.52-19.59.56-58.95.07-69.8l-.65-14.35-.84,9.63M275.95,59.06c0,.92,1.22,2.26,2.71,2.97,3.19,1.52,9.98,7.99,9.98,9.51,0,1.41,2.65,2.4,6.43,2.4,5.57,0,3.47-6.27-3.36-10.06-12.54-6.96-15.76-7.94-15.76-4.82M233.29,68.05c-1.25,1.3-.78,2.35,3.26,7.32,2.18,2.68,4.44,5.71,5.02,6.73.58,1.02,3.68,2.61,6.87,3.54,3.2.93,6.65,1.96,7.67,2.3,2.69.88,2.34-2.1-.6-4.98-1.35-1.32-3.02-2.4-3.73-2.4s-3.29-1.86-5.75-4.14c-4.34-4.02-10.85-9.1-11.66-9.1-.22,0-.71.33-1.1.74M215.66,86.25c0,.85,1.31,3.04,2.91,4.87,1.6,1.83,3.75,4.67,4.78,6.31,1.03,1.65,2.5,2.99,3.27,2.99s2.26.99,3.31,2.21,3,2.21,4.33,2.21c2.48,0,4.34,1.81,3.14,3.06-.37.39-2.17.11-4-.61-4.28-1.69-4.83-1.07-1.24,1.39,2.48,1.69,3.33,1.76,6.96.5,3.6-1.24,4.84-1.16,9.45.57,3.41,1.28,5.67,1.61,6.33.93,1.45-1.51-9.41-12.27-19.45-19.25-6.8-4.73-9.23-5.81-14.01-6.23-4.49-.39-5.79-.15-5.79,1.05M226.38,90.79c6.93,3.88,16.78,11.53,16.78,13.04,0,1.69-4.25,1.13-4.91-.64-.34-.91-1.72-1.66-3.08-1.66-1.51,0-4.54-2.07-7.82-5.35-6.68-6.69-7.06-8.79-.98-5.39M216.72,105.86c0,4.01,4.83,9.33,10.16,11.16,4.29,1.48,10.72.74,15.34-1.75,3.8-2.05,4.08-4.31.42-3.35-7.27,1.9-11.72,1.98-13.13.22-.78-.98-1.97-1.77-2.66-1.77s-2.86-1.74-4.84-3.86c-4.37-4.7-5.29-4.81-5.29-.64M282.82,114.44c-7.12,7.62-10.15,9.93-19.12,14.61-12,6.25-15.12,8.93-12.77,10.96,1.13.98,1.78.89,2.8-.39.73-.92,1.75-1.67,2.28-1.67,2.6,0,18.81-9.09,21.96-12.32l3.6-3.68-.59,4.69c-.98,7.78,1.05,6.39,3.76-2.57,1.5-4.96,3.75-9.76,5.48-11.67,2.16-2.39,2.69-3.74,2-5.12-.78-1.58-2.28-.44-9.39,7.18M385.98,205.21c-.04,49.44-.36,91.75-.71,94.03-.82,5.33.34,10.56,1.95,8.87,1.74-1.81,1.84-187.55.1-190.58-.99-1.72-1.28,17.46-1.34,87.68M303.36,130.59c-.92.71-2.26,4.47-2.99,8.35-1.3,6.92-1.27,7.11,1.33,9.83,2.55,2.66,2.76,2.7,5.33.94,2.6-1.78,3.86-5.13,5.35-14.23.55-3.37.39-4.01-.9-3.49-1.36.54-2.65,5.11-4.02,14.22-.42,2.79-3.79,3.54-4.71,1.04-.38-1.04.11-5.37,1.08-9.62.98-4.25,1.65-7.87,1.49-8.03-.16-.17-1.04.28-1.96.99M239.73,146.36c-5.34,2.9-5.39,3-7.13,14.76-1.85,12.51-1.54,14.98,2.09,16.55,3.74,1.61,9.39,9.5,12.01,16.76,1.14,3.16,1.95,8.74,2.07,14.35l.2,9.17,6.35,1.52c12.3,2.94,18.31,7.03,20.09,13.65.37,1.37,3.12,8.41,6.13,15.65,4.86,11.72,5.98,13.54,10.15,16.55,2.58,1.86,7.08,5.5,10.01,8.08,6.1,5.38,7.5,5.84,5.79,1.93-.66-1.52-1.86-2.76-2.65-2.76-4.33,0-1.98-8.12,5.9-20.34,2.77-4.29,6.86-10.78,9.1-14.43,2.24-3.64,6-9.35,8.37-12.69s4.16-6.54,3.99-7.11c-.17-.57.14-2.06.7-3.31.56-1.25,2.34-5.23,3.96-8.85,1.62-3.62,3.14-5.98,3.37-5.24,2.62,8.19,8.11-18,6.9-32.95-.34-4.2-.96-7.64-1.38-7.64s-1.09,3.47-1.49,7.7c-.4,4.23-1.11,7.95-1.58,8.25-.47.3-1.19,3.66-1.61,7.46-.41,3.8-1.16,7.43-1.66,8.06-.5.63-1.13,2.38-1.39,3.88-.26,1.5-1.43,4.46-2.6,6.59-1.17,2.12-2.47,5.1-2.89,6.62s-2.73,5.35-5.13,8.51c-2.4,3.16-5.6,7.88-7.11,10.48-6.82,11.77-13.4,22.47-16.56,26.94-1.89,2.67-3.44,5.57-3.44,6.44,0,2.33-2.03,3.23-2.76,1.23-.35-.95-1.09-1.42-1.65-1.06-1.81,1.17-5.29-3.26-8.94-11.38-1.97-4.37-3.59-8.59-3.61-9.38-.02-.79-.73-2.39-1.59-3.57-.85-1.18-1.55-2.82-1.55-3.64s-1.67-4.23-3.72-7.56c-2.96-4.82-3.5-6.49-2.64-8.16.67-1.31.7-2.34.07-2.74-.55-.36-1.57.48-2.26,1.86-.69,1.38-1.35,2.64-1.47,2.79-.65.86-6.95-3.5-8.41-5.82-1.16-1.84-2.69-2.73-4.71-2.73-2.91,0-3.01-.19-3.64-7.14-.35-3.93-1.39-8.65-2.3-10.49-1.31-2.64-1.4-3.85-.45-5.71,1.77-3.46-.41-10.43-3.53-11.26-1.3-.35-2.96-1.63-3.69-2.86-1.18-2-1.02-2.3,1.59-2.89,1.6-.37,3.49-.85,4.2-1.08,2.06-.66,2.81-5.9,1.31-9.14l-1.37-2.95-.68,3.9c-.37,2.15-1.03,4.5-1.47,5.24-1.33,2.24-5.31,1.44-7.35-1.47-2.42-3.47-1.54-6.64,2.6-9.26,2.52-1.6,2.8-2.12,1.43-2.67-1.47-.59-1.34-1.19,1-4.38,4.44-6.08,3.17-6.66-4.95-2.25M369.02,180.49c0,1.79.71,7.48,1.59,12.64s1.58,15.05,1.59,21.98c0,6.93.25,12.33.57,12.01.83-.87,2.89-17.19,2.89-22.95,0-6.4-3.61-23.77-5.32-25.55-1.05-1.09-1.32-.71-1.31,1.88M211.45,202.78c.02,2.62.64,3.43,7.66,10.01,5.99,5.62,10.3,7.32,10.3,4.06,0-.91-.47-1.66-1.04-1.66s-4.32-3.23-8.33-7.17-7.59-7.17-7.95-7.17-.66.87-.65,1.93M27.38,211.06c-.01.76-.5,4.61-1.09,8.55-.63,4.26-1.26,49.47-1.54,111.46l-.47,104.29-2.41,1.34c-3.78,2.11-16.35,6.94-18.05,6.94s-4.53,3.04-3.66,3.95c.57.59,14.21-3.63,16.14-4.99,1.37-.97,14.35-5.96,21.15-8.14,12.36-3.95,23.66-6.54,29.17-6.67,5.17-.13,6.64.36,11.89,4,7.02,4.86,26.96,14.32,28.33,13.44.52-.33.94-1.53.94-2.66,0-2.03-.47-2.27-14.39-7.33-2.39-.87-7.15-3.35-10.58-5.51-10.55-6.66-13.64-8.07-15.29-6.98-.84.55-3.14,1.01-5.13,1.02-3.68.02-9.14,1.46-23.49,6.19-4.43,1.46-8.48,2.66-8.99,2.66s-1.08-15.27-1.27-33.93c-.34-33.53,1.07-64.95,3.08-68.88.79-1.54.66-2.02-.54-2.02-1.89,0-2.44-20.25-2.18-80.28.09-20.79-.23-37.8-.72-37.8s-.89.62-.9,1.38M50.81,260.82c-2.12,2.67-11.72,34.32-12.26,40.45-.13,1.52-.58,4.99-.98,7.72-.7,4.67-.64,4.83.94,2.76.92-1.21,1.85-3.2,2.06-4.41,3.14-18.29,9.24-39.82,12.13-42.84,1.37-1.43,1.53-5.17.22-5.17-.51,0-1.46.67-2.11,1.49M108.54,292.78c-.32.87-.9,4.01-1.29,6.97-.83,6.3-3.69,18.14-4.78,19.73-.87,1.27-7.92,22.92-8.81,27.05-.33,1.52-.19,3.46.31,4.3.69,1.17,1.31.72,2.6-1.89.93-1.88,1.7-4.06,1.7-4.85,0-.79.76-2.92,1.68-4.75.92-1.82,2.07-5.55,2.56-8.28.49-2.73,2.1-8.42,3.58-12.64,3.23-9.19,5.63-24.53,4.08-26.14-.7-.73-1.25-.56-1.64.49M188.16,293.46c0,2.82,2.71,4.06,13.58,6.25,9.07,1.83,15.38,2.06,12.78.48-.92-.56-6.39-2.47-12.16-4.25-5.77-1.78-11.33-3.59-12.35-4.03-1.42-.62-1.85-.26-1.85,1.55M349.1,315.34c-.53,1.06-1.29,4.41-1.68,7.45-1.17,8.97-3.84,22.02-4.63,22.67-.4.33-2.5,1.23-4.66,1.99-4.35,1.53-13.44,7.02-18.31,11.05-4.16,3.44-34.04,18.61-40.75,20.69-2.9.9-5.71,1.36-6.24,1.01-.53-.34-1.92-3.28-3.08-6.52-1.79-5-2.07-8.05-1.79-19.99l.32-14.09,4.1-1.49c6.33-2.3,9.75-1.76,21.82,3.43,1.02.44,1.85.33,1.85-.25,0-1.4-8.92-6.36-14.55-8.09-4.22-1.3-4.89-1.18-10.58,1.83-5.62,2.97-6.86,3.19-16.52,2.99-9.15-.2-10.92-.56-14.28-2.94-6.6-4.67-11.99-7.26-21.28-10.2-4.94-1.57-12.25-4.29-16.24-6.06-8.45-3.74-8.09-3.66-8.09-1.58,0,.89,2.56,3.59,5.69,6.01,4.96,3.82,5.77,4.99,6.37,9.17.38,2.63,1.39,6.2,2.25,7.93.86,1.73,1.98,6.99,2.48,11.68,1.18,11.04,3.63,16.06,2.69,5.52-.35-3.95-1.07-8.91-1.59-11.04-.53-2.12-.96-5.45-.96-7.39,0-1.94-.98-5.25-2.17-7.35-1.19-2.11-1.73-4.11-1.2-4.45,1.69-1.09,16.31,3.56,24.7,7.86,7.53,3.86,8.16,4.45,8.81,8.26.78,4.55.08,13.81-2.22,29.41-1.43,9.68-1.41,10.44.35,11.86,3.02,2.43,6.11,2.89,10.48,1.54,2.25-.69,10.51-1.68,18.37-2.19,14.84-.96,19.97-2.39,33.57-9.34,3.05-1.56,5.97-2.83,6.48-2.83s7.46-4.51,15.43-10.02c7.97-5.51,15.81-10.5,17.42-11.08,1.61-.58,3.96-2.53,5.23-4.32,1.52-2.14,3.88-3.67,6.91-4.46,6.38-1.68,7.54-4.26,6.2-13.89l-1.05-7.54-.14,7.31c-.16,8.04-.97,9.36-6.48,10.51-3.94.82-3.9,1.34-.82-10.65,2.32-9.03.7-18.23-2.19-12.42M203.62,350.93c.28,5.16.93,12.11,1.46,15.45s1.21,8.76,1.51,12.05c.3,3.29,1.08,6.52,1.72,7.17,2.78,2.82-.56-33.1-3.8-40.75-1.26-2.99-1.35-2.4-.9,6.07M259.55,343.54l4.23.26.53,15.54c.35,10.39.98,16.11,1.9,17.26,1.77,2.22.24,3.27-4.31,2.95-1.88-.13-4.75.33-6.39,1.02-1.64.69-4.87,1.26-7.17,1.26-4.48,0-6.04-1.76-4.63-5.24.43-1.06.68-4.06.56-6.66-.21-4.57-.13-4.71,2.51-4.02,3.31.87,3.44.15.48-2.72-1.96-1.9-2.09-2.62-1.07-5.7.65-1.94.88-5.42.53-7.75-.97-6.31-.17-7.52,4.56-6.95,2.22.27,5.94.61,8.27.75M98.82,357.51c-.93,1.56,1.28,5.43,5.43,9.51,2.31,2.27,6.25,4.36,11.22,5.94,4.21,1.34,8.79,2.91,10.17,3.49,2.89,1.21,3.82.67,2.96-1.69-.33-.9-2.51-2.18-4.84-2.84-2.33-.66-4.51-1.65-4.84-2.2-.33-.56-2.71-1.34-5.3-1.75-2.59-.41-5.25-1.43-5.92-2.27-.67-.84-1.82-1.54-2.55-1.54s-1.92-1.5-2.65-3.33c-1.51-3.81-2.73-4.91-3.67-3.33M35.87,390.63c0,3.71,24.69,27.68,28.38,27.56,1.14-.04.09-1.49-3-4.13-2.62-2.24-8.57-8.08-13.22-12.99-9.92-10.47-12.16-12.39-12.16-10.44M248.73,394.15c-.14,2.52-.97,5.73-1.85,7.13-.88,1.4-1.6,4.98-1.6,7.97,0,3.47-.57,5.92-1.59,6.8-.87.76-1.59,1.9-1.59,2.55s-.97,3.25-2.15,5.8c-1.56,3.36-3.85,5.72-8.36,8.63-3.65,2.35-6.91,3.73-7.9,3.33-1.86-.75-2.08.54-1.02,6.05.78,4.06,2.22,4.49,3.08.9.34-1.41,3.89-5.15,7.98-8.41,9.4-7.48,14.86-15.79,15.53-23.63.27-3.13,1.4-8.6,2.52-12.15,1.58-4.98,1.76-6.8.81-8-2.19-2.76-3.61-1.64-3.87,3.05M143.41,424.04c2.31,2.03,3.94,4.36,3.75,5.37-.43,2.28,8.26,9.92,16.36,14.39,3.38,1.86,7.57,4.27,9.32,5.35,1.75,1.08,7.75,3.59,13.34,5.58,7.65,2.72,10.09,4.04,9.85,5.36-1.24,6.77-1.99,8.51-4.89,11.33-1.79,1.75-3,3.44-2.69,3.77s2.88-.39,5.7-1.6c2.82-1.21,8.42-3.26,12.45-4.57,10.82-3.5,17.94-7.66,16.22-9.47-.26-.27-3.75.8-7.77,2.37-9.28,3.62-10.41,3.73-10.79.99-.27-1.99.17-2.19,3.97-1.82,2.41.24,4.27-.06,4.27-.68,0-1.72-2.81-2.44-9.48-2.44-4.16,0-6.55-.53-7.45-1.66-.72-.91-1.91-1.66-2.63-1.66-2.23,0-14.39-6.17-23.81-12.09-4.94-3.11-13.13-9.35-18.2-13.88-5.06-4.53-9.75-8.24-10.41-8.24s.64,1.61,2.89,3.59M122.59,446.49c0,.19,1.21,2.21,2.68,4.47,5.91,9.09,16.19,16.05,33.36,22.58,5.85,2.23,7.89,5.04,2.66,3.67-1.82-.48-2.86.08-4.25,2.31-2.26,3.6-8.78,6.64-16.32,7.62-5.36.69-6.01.5-12.16-3.7-10.59-7.22-19.34-16.48-20.17-21.33-.39-2.28-1.04-4.14-1.45-4.13-4.85.05-15.05,2.87-18.54,5.12-5.79,3.73-14.46,12.54-14.47,14.69,0,.93-.92,3.26-2.03,5.17-2.46,4.2-4.06,13.63-2.31,13.63.66,0,1.18-1.87,1.18-4.28s.68-4.86,1.59-5.65c.87-.76,1.59-1.97,1.59-2.71,0-2.3,11.41-14.6,16.33-17.62,2.59-1.58,6.78-3.18,9.32-3.54l4.61-.66,1.26,4.38c1.51,5.27,8.42,12.33,18.62,19.06l7.17,4.72-3.01,1.32c-1.66.73-3.66,2.14-4.46,3.15-1.28,1.61-1.15,1.82,1.11,1.82,1.41,0,3.01-.41,3.57-.91.55-.5,3.86-1.79,7.35-2.87,3.49-1.08,9.94-3.4,14.34-5.15,10.31-4.12,25.07-8.72,27.95-8.72,1.24,0,3.18-.73,4.31-1.62,1.89-1.49,1.6-1.62-3.64-1.66-4.25-.03-8.28-1.18-15.86-4.55-5.59-2.48-12.08-5.31-14.4-6.29-6.44-2.7-12.41-7.25-16.69-12.7-2.14-2.73-5.06-5.16-6.54-5.45-1.47-.29-2.68-.38-2.68-.19"/>
</svg>