<?xml version="1.0" encoding="UTF-8"?>
<svg id="Warstwa_1" data-name="Warstwa 1" xmlns="http://www.w3.org/2000/svg" viewBox="0 0 412.24 499.11">
  <defs>
    <style>
      .cls-1 {
        fill: #010101;
      }
    </style>
  </defs>
  <path class="cls-1" d="M310.06,130.75c0-.54-.77-.98-1.7-.98-1.11,0-.36,1.34,2.18,3.88,2.14,2.14,4.34,3.88,4.89,3.88s2.87,2.27,5.15,5.05c3.85,4.69,4.01,5.19,2.35,7.02-.98,1.08-1.78,2.81-1.78,3.83s-.7,1.85-1.55,1.85c-1.6,0-3.39,3.2-2.36,4.23.32.32.58.03.58-.65s2.25-1.56,5-1.98c2.75-.41,5.29-1.21,5.64-1.78.37-.59-.58-.72-2.23-.31-2.12.53-2.87.29-2.87-.93,0-2.27,2.95-4.52,4.94-3.76.9.35,1.94.15,2.3-.43.36-.58,0-1.06-.8-1.07-.8,0-3.95-3.03-6.99-6.73-3.05-3.7-7.16-7.5-9.15-8.44-1.99-.94-3.61-2.16-3.61-2.7Z"/>
  <path class="cls-1" d="M321.88,162.59c-5.66,3.85-4.65,4.34,2.01.98,6.53-3.31,7.14-3.85,4.37-3.85-1.18,0-4.05,1.29-6.37,2.87Z"/>
  <path class="cls-1" d="M316.21,187.79c1,3.97,2.73,3.81,2.73-.26,0-1.88-1.22-4.7-2.91-6.7-1.6-1.9-2.72-3.62-2.5-3.83.23-.2,2.16-1.24,4.3-2.3s5.13-3.07,6.65-4.47c1.53-1.4,3.77-2.72,4.99-2.95,1.22-.23,1.72-.73,1.1-1.11-.61-.39-2.52.03-4.23.93-1.72.9-4.08,2.6-5.26,3.78-1.18,1.18-3.08,2.14-4.23,2.14s-2.92,1.26-3.93,2.81c-1.74,2.65-1.72,2.98.35,5.89,1.21,1.69,2.53,4.42,2.94,6.06Z"/>
  <path class="cls-1" d="M327.89,173.5c-1.39,1.48-2.27,3.11-1.96,3.62.72,1.17-1.48,4.22-3.67,5.07-1.14.44-.88.67.79.73,1.39.05,2.97-.88,3.64-2.13.65-1.22,2.04-2.26,3.09-2.31,1.16-.05,1.36-.31.52-.65-1.9-.77-1.74-2.59.45-5,2.77-3.06.04-2.43-2.87.66Z"/>
  <path class="cls-1" d="M303.41,140.78c0,.57.62,1.69,1.39,2.5,3.27,3.45,4.37,7.68,4.55,17.39.19,10.27,1.5,13.4,3.1,7.41.53-1.99.2-7.46-.84-13.86-.94-5.82-1.71-11.45-1.7-12.52.01-1.07-.45-1.94-1.02-1.94s-1.04.5-1.04,1.11c0,2.23-2.07,1.04-2.42-1.39-.25-1.73-1.22-2.6-3.17-2.82-1.55-.18-3.17.03-3.6.46-1.56,1.56-.74,2.64,1.98,2.64,1.53,0,2.77.46,2.77,1.03Z"/>
  <path class="cls-1" d="M319.27,200.46c.73-.24,1.48-2.24,1.67-4.45.25-2.95,1.36-4.91,4.2-7.4,2.12-1.86,3.19-3.39,2.37-3.39s-3.02,1.62-4.89,3.6c-3.51,3.72-6.05,12.52-3.35,11.63Z"/>
  <path class="cls-1" d="M312.34,105.33c-2.39,1.48,1.43,2.92,6.04,2.28l4.44-.61-4.61-1.23c-2.53-.68-5.18-.87-5.88-.44Z"/>
  <path class="cls-1" d="M286.22,156.22l2.62-2.13c2.51-2.04,2.66-6.45.17-4.91-.61.38-1.12-.34-1.12-1.59,0-2.49-1.71-3.13-2.42-.9-.24.76-.17,3.22.16,5.46l.6,4.07Z"/>
  <path class="cls-1" d="M318.99,128.73c3.83,4.84,8.47,8.4,9.54,7.33.72-.72-10.7-11.82-12.19-11.83-.51,0,.68,2.02,2.65,4.5Z"/>
  <path class="cls-1" d="M234.52,7.45c1.09,2.11,1.68,2.3,4.2,1.35,4.32-1.64,5.56.42,1.95,3.26-2.81,2.21-2.85,2.36-.63,2.36,1.3,0,2.37.68,2.37,1.5,0,1.8,5.13,7.55,6.35,7.12.47-.17,1.02,1.35,1.21,3.36.19,2.02,1.07,3.94,1.94,4.28.87.34,1.59,1.27,1.59,2.08s1.53,2.56,3.4,3.89c2.05,1.46,3.15,3.05,2.79,4.01-.34.88,1.36,4.08,3.81,7.18,2.43,3.08,4.43,6.17,4.44,6.88.01.71,1.38,2.86,3.05,4.79,6.2,7.16,6.97,8.27,6.38,9.21-.92,1.49,2.83,4.68,4.67,3.97,1.32-.5,1.56.25,1.21,3.82-.35,3.71-.09,4.45,1.58,4.45,1.1,0,2.3.77,2.66,1.71.89,2.31-.6,3.62-1.84,1.62-.54-.88-1.28-1.31-1.63-.95-1.1,1.1,1.26,5.82,4.37,8.71,2.64,2.45,3.09,2.56,3.99.95.56-.99,2.23-2.12,3.71-2.49,1.49-.37,4.2-2.17,6.03-4.01,3.03-3.03,9.04-4.68,9.04-2.49,0,1.78,4.66,3.82,5.9,2.58.86-.86.55-1.2-1.1-1.2-3.18,0-5.14-2.68-4.22-5.77.73-2.43.69-2.45-.85-.43-1.11,1.45-2.4,1.91-4.13,1.45-3.03-.79-8.9,3.13-8.9,5.94,0,1.74-4.24,3.82-5.4,2.65-.28-.28-.51-2.88-.51-5.78s-.21-4.64-.46-3.88c-.84,2.52-2.24,1.44-2.88-2.22-.35-1.98-1.05-5.85-1.57-8.6l-.94-4.99-.86,3.6c-.47,1.98-1.15,3.6-1.52,3.6-1.6,0-4.51-3.68-3.99-5.04.32-.83-.48-2.63-1.77-4.02-1.29-1.38-2.88-4.53-3.55-6.99-1.53-5.69-3.3-9.47-4.44-9.47-.49,0-.62.7-.29,1.55.33.85.06,1.88-.6,2.29-.72.44-1.47-.6-1.86-2.59-.37-1.83-1.32-3.58-2.12-3.89-.8-.31-1.24-1.46-.99-2.57.52-2.23-2.36-6.15-5.35-7.3-1.07-.41-1.94-1.76-1.94-3s-.66-2.25-1.47-2.25c-.99,0-1.32-1.04-1.01-3.17.46-3.14-1.08-5.01-7-8.53-1.16-.69-2.05-2.71-2.2-4.99-.4-6.32-1.82-11.04-3.33-11.04-.84,0-1.2.84-.88,2.07.92,3.51-3.11,4.08-5.52.77-1.14-1.56-3.11-2.83-4.38-2.83h-2.32l2.27,2.5c1.25,1.37,2.84,3.6,3.54,4.96Z"/>
  <path class="cls-1" d="M268.46,18.67c.2-.21-.16-3.12-.8-6.47-1.52-7.98-3.53-10.24-2.47-2.77.74,5.22,2.46,10.07,3.27,9.25Z"/>
  <path class="cls-1" d="M218.62,8.43c1.19-.19,1.54-.14.77.13-2,.69-1.81,1.1,2.5,5.53,2.14,2.2,3.88,4.49,3.88,5.09,0,1.56,3.53,4.04,5.82,4.08,2.29.04,2.46,1.45.56,4.49-1.1,1.76-1.09,2.6.03,4.14.78,1.07,1.68,2.74,2.02,3.72.33.98,2.19,2.48,4.13,3.33,2.64,1.16,3.61,2.38,3.89,4.88.2,1.83,1.01,4.08,1.8,4.99,2.29,2.66,4.28,10.07,4.16,15.51-.09,4.38.05,4.7,1.11,2.52,1.58-3.24,2.15-3.16,6.48.88,2.52,2.35,3.26,3.73,2.45,4.54-.81.81-1.85.79-3.43-.05-3.14-1.68-4.04-1.51-2.41.45.76.92,2.69,1.67,4.29,1.68,3.59.02,4.23.48,8.74,6.3,2.26,2.91,3.6,5.91,3.6,8.02,0,2.65.58,3.52,2.71,4.05,1.49.37,3.27.34,3.95-.08,2.09-1.29.05-7.04-4.06-11.41-2.13-2.26-4.63-5.24-5.57-6.61-.94-1.37-2.4-2.5-3.25-2.5s-1.58-.62-1.63-1.39c-.33-4.94.07-14.32.64-15.25.38-.61-.09-1.11-1.04-1.11s-1.73-.92-1.73-2.05-1-2.95-2.22-4.05c-1.84-1.67-2.22-1.72-2.22-.32,0,.93.92,2.88,2.05,4.33,2.3,2.96,1.99,5.42-.68,5.42-1.43,0-1.3.49.65,2.57,3.17,3.38,3.05,5.01-.31,4.37-3.93-.75-5.61-4.34-5.6-11.99,0-6.28-.15-6.69-2.38-6.27-2.79.53-4.64-3.41-2.7-5.75,1.35-1.63-.26-3.4-6.25-6.82-4.28-2.46-5.18-4.3-2.98-6.13,1.33-1.1,2.06-.91,3.86,1.03,3.33,3.57,4.78,2.87,1.96-.94-1.35-1.83-2.83-3.33-3.28-3.33s-.98-1.12-1.18-2.5c-.25-1.79-1.22-2.6-3.41-2.85-2.16-.25-3.05-.98-3.05-2.5,0-1.18-.75-2.15-1.66-2.15s-1.66-.76-1.66-1.69-1.24-2.16-2.75-2.74c-1.75-.67-2.53-1.63-2.13-2.66.36-.95-.33-2.13-1.68-2.85-1.27-.68-2.3-1.97-2.3-2.86,0-.99-1.08-1.62-2.77-1.62-2.31,0-2.77.53-2.77,3.19,0,3.7,1.97,5.74,5.05,5.24Z"/>
  <path class="cls-1" d="M272.2,25.51c1.83,0,2.81-5.35,1.47-8.11-1.16-2.4-1.17-2.4-1.26.35-.05,1.53-.39,3.9-.76,5.27-.4,1.48-.17,2.5.55,2.5Z"/>
  <path class="cls-1" d="M322.26,76.11c0,.84.85,1.53,1.89,1.53,1.42,0,1.57-.31.61-1.28-.96-.96-.59-2.46,1.55-6.1,1.55-2.65,2.28-4.82,1.61-4.82s-1.21.53-1.21,1.19c0,2.17-3.12,4.36-6.3,4.42l-3.13.06,2.5,1.74c1.37.96,2.5,2.43,2.5,3.27Z"/>
  <path class="cls-1" d="M295.56,46.93c-1.12.29-2.93-.15-4.03-.98-2.3-1.75-3.66-1.98-3.66-.64,0,1.66,4.26,4.85,5.48,4.1.65-.4,1.18-.2,1.18.45s-.62,1.18-1.39,1.19c-.92.01-.83.38.28,1.09,2.36,1.52,3.33,1.36,3.33-.55,0-2.32.96-2.08,3.39.83,1.15,1.37,2.1,4.24,2.13,6.38.02,2.14.86,5.38,1.85,7.21.99,1.83,2.54,4.73,3.44,6.45,2.2,4.21,2.93,3.04,2-3.17-.42-2.83-1.06-4.85-1.42-4.49-1.28,1.28-4.48-5.66-3.94-8.52.68-3.58-5.42-10.17-8.64-9.33Z"/>
  <path class="cls-1" d="M279.52,40.91c1.31,4.12,3.37,2.67,3.37-2.37,0-4.37.21-4.69,2.77-4.43,1.53.16,3.65,1.34,4.71,2.62,1.53,1.84,1.94,1.96,1.94.57,0-.97-1.25-2.58-2.77-3.58-1.53-1-2.77-2.42-2.77-3.16s-1.12-2.38-2.5-3.66c-2.1-1.95-2.72-2.07-3.89-.79-1.13,1.24-.98,1.75.83,2.71,2.81,1.5,2.79,2.65-.11,6.57-1.55,2.09-2.08,3.95-1.59,5.5Z"/>
  <path class="cls-1" d="M296.03,13.77c.6,1.6,1.11,1.81,2.06.86s.11-2.64-3.36-6.76c-2.55-3.02-4.63-6.03-4.63-6.68s-.5-1.19-1.11-1.19-1.11.95-1.11,2.11,1.65,3.78,3.68,5.82c2.02,2.04,4.04,4.67,4.47,5.84Z"/>
  <path class="cls-1" d="M321.15,114.7c-2.75-.42-4.74-.49-4.44-.16.8.87,13.77,5.16,14.23,4.7.96-.96-5.28-3.85-9.79-4.54Z"/>
  <path class="cls-1" d="M390.52,77c3.1.56,3.12.54,1-1.48-2.47-2.35-8.25-4.02-8.25-2.38,0,1.41,3.24,3.13,7.25,3.85Z"/>
  <path class="cls-1" d="M289.05,188.55c-.57,0-1.66,1.76-2.44,3.91-.8,2.21-1.99,3.69-2.74,3.4-.92-.35-1.27.9-1.15,4.04.23,5.95,2.6,6.76,3.53,1.2.39-2.33,1.41-6.1,2.27-8.39.86-2.29,1.1-4.16.54-4.16Z"/>
  <path class="cls-1" d="M302.44,150.99c-.38-1.75-2.31-4.54-4.3-6.2-1.98-1.66-3.6-3.96-3.6-5.1,0-2.09-3.01-4.38-5.76-4.38-.81,0-2.13,1.06-2.94,2.35-1.08,1.73-1.14,2.68-.23,3.59s1.41.58,1.88-1.24c.36-1.36,1.33-2.48,2.16-2.48,1.56,0,3.43,5.15,2.28,6.3-.36.36.08,1.69.98,2.97,1.8,2.58,2.24,11.81.55,11.81-.59,0-1.63-1.04-2.31-2.31-1.18-2.2-1.34-2.12-3.43,1.78-1.2,2.25-2.02,5.16-1.82,6.47.33,2.13.58,2.01,2.31-1.22,2.27-4.22,3.54-4.51,5.32-1.18,1.1,2.05.93,2.72-1.07,4.34-1.3,1.05-2.37,2.46-2.37,3.12,0,1.59-1.45,1.54-3.09-.1-2.16-2.16-2.97.01-.87,2.33,1.24,1.37,1.68,2.97,1.21,4.44-.81,2.55,1.05,3.22,2.01.72.33-.87,2-3.74,3.69-6.38,1.81-2.82,3.19-6.63,3.34-9.23.14-2.44.5-5.93.79-7.76.29-1.83.57-4.08.63-4.99.06-.92.9-.04,1.88,1.94,2.2,4.46,3.67,4.68,2.75.42Z"/>
  <path class="cls-1" d="M329.55,38.89c.96.8,2.77,3.48,4.01,5.96,3.18,6.33,7.97,13.85,8.84,13.9,2.33.13-8.64-19.69-12.83-23.16-1.49-1.24-1.77-1.21-1.77.19,0,.92.79,2.32,1.74,3.11Z"/>
  <path class="cls-1" d="M331.12,205.19c1.26,0,1.35-.47,1.67-8.6.13-3.2-.07-5.81-.44-5.79-.37.02-2.12,1.51-3.9,3.33-1.78,1.81-2.89,3.64-2.48,4.05.42.42,1.35.17,2.07-.55,2.45-2.45,3.38-1.36,2.66,3.12-.43,2.72-.28,4.44.41,4.44Z"/>
  <path class="cls-1" d="M299.23,175.24c-.76,1.22-2.13,2.22-3.04,2.22-1.22,0-1.65,1.3-1.65,4.93,0,2.71.5,5.23,1.11,5.61.68.42,1.11-1.29,1.11-4.41,0-3.84.48-5.27,1.94-5.81,1.99-.73,3.56-2.45,3.59-3.93.03-1.59-1.68-.82-3.05,1.39Z"/>
  <path class="cls-1" d="M367.18,48.6c1.53,1.2,2.77,2.66,2.77,3.24,0,1.53,3.93,4.86,4.76,4.03,1.53-1.53-6.82-13.73-9.4-13.73-.5,0-.9.96-.9,2.14s1.25,3.12,2.77,4.32Z"/>
  <path class="cls-1" d="M409.81,114.89c-1.71-1.25-3.47-2.52-5.21-3.76-7.95-5.67-15.33-11.29-16.4-12.48-1.07-1.19-2.57-2.16-3.33-2.16s-2.84-1.66-4.62-3.69c-4.64-5.29-6.39-6.2-5.5-2.86.39,1.47.72,3.29.73,4.05,0,.76.69,1.39,1.51,1.39s2.65,1,4.05,2.22c1.41,1.22,2.99,2.22,3.52,2.22s1.51,1.21,2.19,2.69c.68,1.48,1.87,2.44,2.66,2.13.79-.3,1.94.39,2.56,1.54.62,1.15,4.27,3.64,8.13,5.53,3.34,1.64,7.26,4.18,9.41,6.06.09-.96.19-1.91.3-2.87Z"/>
  <path class="cls-1" d="M359.35,80c1.49,1.17,3.01,3.09,3.38,4.26.37,1.17,1.68,2.45,2.9,2.84,1.22.39,2.68,1.91,3.24,3.39,1.41,3.72,3.5,3.43,2.67-.37-1.18-5.36-1.48-5.82-3.83-5.82-1.55,0-2.68-1.05-3.43-3.21-.82-2.35-1.99-3.34-4.38-3.69-1.79-.26-3.26-.26-3.26,0s1.22,1.44,2.71,2.61Z"/>
  <path class="cls-1" d="M411.12,392.4c-1.19-1.48-4.55-3.29-8.45-4.33-2.44-.65-5.23-1.89-6.19-2.75-.96-.86-2.06-1.26-2.43-.89-1.34,1.34,4.29,5.65,9.17,7.02,2.75.77,5.57,1.88,6.28,2.46.67.55,1.28.62,1.71.25-.03-.59-.07-1.17-.1-1.76Z"/>
  <path class="cls-1" d="M412.07,268.68c-1.53.56-4.11,1.81-6.62,3.23-5.73,3.25-9.41,5.12-18.93,9.67-7.11,3.39-26.6,18.26-35.09,26.76-12.42,12.44-12.21,14.14.33,2.72,10.88-9.91,23.8-20.46,29.44-24.03,6.84-4.33,26.2-14.31,31.05-16.11-.07-.74-.11-1.49-.17-2.23Z"/>
  <path class="cls-1" d="M396.52,267.34c-.95-.02-2.19.4-2.77.94-.58.54-4.4,2.73-8.5,4.88-10.3,5.4-31.6,20.59-42.15,30.06-15.03,13.49-11.78,12.6-27.01,7.4-7.28-2.48-14.23-4.98-15.45-5.55-1.22-.57-8.71-3.37-16.64-6.23-7.93-2.86-16.35-5.9-18.72-6.76-4.28-1.56-6.47-1.24-4.5.66,1.32,1.28,22.77,10.05,24.57,10.05.75,0,3.74,1.07,6.65,2.38,2.91,1.31,6.3,2.75,7.52,3.19s3.7,1.41,5.51,2.14c5.4,2.19,22.72,7.82,24.04,7.82.68,0,5.29-3.62,10.26-8.04,18.37-16.37,36.03-29.71,47.26-35.68,9.06-4.82,12.33-7.21,9.93-7.26Z"/>
  <path class="cls-1" d="M364.85,303.78c-5.45,4.04-20.41,18.64-20.41,19.93,0,.53,1.26.72,2.79.43,1.54-.29,2.66-1.19,2.5-2-.36-1.79,13.85-16.71,16.8-17.65,1.16-.37,2.39-1.4,2.73-2.29.85-2.2.56-2.1-4.41,1.58Z"/>
  <path class="cls-1" d="M195.46,285.49c-.33.85-3.12,2.39-6.22,3.42-6.34,2.11-7.48,3.36-2.02,2.22,3.46-.72,13.03-5.63,13.03-6.68,0-1.27-4.26-.34-4.79,1.04Z"/>
  <path class="cls-1" d="M215.02,470c-2.92,4.58-5.26,10.26-4.23,10.26.58,0,4.99-7.82,6.64-11.78.86-2.06,1.43-3.75,1.26-3.75s-1.82,2.37-3.67,5.27Z"/>
  <path class="cls-1" d="M235.58,268.18c-1.73-.61-3.15-1.55-3.15-2.1,0-1.35-1.92-1.27-2.77.11-.38.61-2.28,1.18-4.22,1.28l-3.54.17,3.33.45c1.83.25,5.44,1.42,8.03,2.61,2.59,1.19,5.17,2.16,5.74,2.16s2.57,1.29,4.45,2.87,3.41,2.38,3.41,1.78c0-1.69-7.73-8.08-11.26-9.31Z"/>
  <path class="cls-1" d="M210.6,278.14c-3.16,1.07-6.15,2.36-6.65,2.87-1.29,1.31,12.1-.43,13.81-1.8,1.33-1.06,7.59-.74,18.55.96l4.44.69-2.73-2.01c-3.96-2.92-19.69-3.32-27.42-.71Z"/>
  <path class="cls-1" d="M391.69,230.6c-4.82-.62-10.16-1.85-11.87-2.73-1.71-.88-4.15-1.6-5.44-1.6s-2.03-.5-1.64-1.14c.45-.73,4.7-.89,11.99-.43,8.75.55,14.43.16,22.42-2.16-.14-1.12-.26-2.23-.37-3.35-2.21.58-4.41,1.04-6.55,1.38-6.95,1.09-40.43-.4-43.41-1.94-4.89-2.52-9.81-2.39-15.95.42-5.89,2.69-16.6,4.05-18.33,2.31-.41-.41-.15-1.72.59-2.9,1.4-2.25,1.84-11.81.67-14.85-1.42-3.71-2.73-1.5-2.35,3.97l.4,5.72-11.1,10.64c-6.1,5.85-19.18,18.55-29.05,28.22-9.87,9.67-19.18,18.4-20.68,19.41-1.5,1.01-4.89,3.7-7.53,5.98-4.7,4.06-4.76,4.19-2.78,6.38,4.12,4.56,6.66,3.13,22.19-12.46,13.96-14.02,29.74-29.06,39.29-37.43,2.43-2.14,4.45-4.51,4.48-5.27.06-1.68-.44-1.6,11.26-1.94,5.25-.15,11.4-.89,13.67-1.64,4.23-1.4,12.71-.77,16.43,1.22,2.19,1.17,10.86,3.15,15.82,3.61,1.83.17,6.07.89,9.43,1.61,3.36.72,7.6,1.31,9.43,1.31,1.83,0,6.57.22,10.54.47,6.82.44,6.94.4,2.22-.61-2.75-.59-8.94-1.58-13.76-2.2Z"/>
  <path class="cls-1" d="M277.27,215.14c.78-1.51,2.26-4.37,3.3-6.35,3.14-6-.16-4.05-3.75,2.22-1.84,3.2-3.34,6.24-3.35,6.75-.02,1.77,2.39.11,3.8-2.62Z"/>
  <path class="cls-1" d="M265.33,187.88c7.93-5.01,7.33-4.49,6.85-5.95-.26-.77-.81-.83-1.5-.18-.6.57-3.34,2.29-6.09,3.81-2.75,1.52-5.16,3.59-5.36,4.59-.27,1.33,1.37.72,6.1-2.27Z"/>
  <path class="cls-1" d="M166.37,299.76c-1.25,1.36-4,4.05-6.1,5.98-2.11,1.93-4.33,4.04-4.94,4.71-.61.66-2.86,2.89-4.99,4.95-5.93,5.73-15.53,16.15-15.53,16.85,0,.35-1.25,1.97-2.77,3.61-4.23,4.55-14.83,17.93-21.63,27.31-3.36,4.62-7.65,10.52-9.54,13.11-1.89,2.59-3.8,5.83-4.23,7.2-.44,1.37-1.26,2.5-1.83,2.5s-1.03.58-1.03,1.3-.83,2.22-1.84,3.34c-1.92,2.12-3.75,5.06-6.11,9.78-.76,1.53-2.71,4.52-4.34,6.65s-4.08,6.38-5.46,9.43-3.94,7.63-5.69,10.18c-1.75,2.55-3.18,5.35-3.18,6.23s-1.05,2.93-2.34,4.57c-1.29,1.64-2.09,3.23-1.78,3.54,1.08,1.09,6.15-5.05,6.87-8.32.4-1.81,1.44-3.89,2.32-4.62.88-.73,1.59-2.24,1.59-3.37s1.04-2.6,2.32-3.29c1.53-.82,2.13-1.97,1.77-3.37-.3-1.17-.13-2.12.39-2.12,1.21,0,7.8-9.93,11.5-17.32,1.56-3.12,3.6-6.3,4.52-7.07.92-.77,1.68-1.83,1.68-2.35,0-1.41,6.67-12.36,8.75-14.35.98-.94,2.29-2.52,2.9-3.49,4.46-7.13,8.84-13.09,9.61-13.09.51,0,.92-.65.92-1.45s1.43-2.92,3.18-4.71c1.75-1.79,5.07-5.76,7.39-8.81,2.31-3.05,4.62-5.71,5.13-5.92.51-.2.93-.95.94-1.66,0-1.33,22.67-24.74,30.9-31.91,2.52-2.2,4.59-4.57,4.59-5.27,0-1.94-1.43-1.49-3.94,1.25Z"/>
  <path class="cls-1" d="M123.17,115.99c-12,1.45-32.29,5.17-38.82,7.11-1.83.54-9.41,2.39-16.84,4.09s-13.27,3.34-12.98,3.64,3.38.87,6.86,1.29c3.48.41,7.57,1.09,9.09,1.52l2.77.77-2.55-2.08-2.55-2.08,8.65-1.44c4.76-.79,10.86-2.14,13.56-3,2.7-.86,6.35-1.57,8.11-1.57s4.28-.57,5.59-1.28c4.98-2.67,39.42-6.32,60.69-6.45,7.84-.05,12.16-.45,11.21-1.05-2.37-1.5-39.04-1.12-52.8.54Z"/>
  <path class="cls-1" d="M57.99,451.07c-4.62,8.08-7.47,13.85-7.47,15.13,0,.87-.75,2.21-1.66,2.97s-1.66,2.26-1.66,3.33-.75,2.57-1.66,3.33c-.92.76-1.66,2.74-1.66,4.41s-1.14,5.22-2.53,7.9c-4.83,9.33-5.37,10.98-3.55,10.98.9,0,1.66-.62,1.67-1.39.02-.76,1.52-4.37,3.33-8.01,1.81-3.64,3.29-8.01,3.29-9.7s1-4.08,2.22-5.3,2.22-2.97,2.22-3.88.5-1.66,1.11-1.66,1.11-.77,1.11-1.71,1.53-4.98,3.4-8.98c1.87-4,3.17-7.51,2.88-7.79-.29-.28-.75-.11-1.04.39Z"/>
  <path class="cls-1" d="M113.19,151.96c-4.95-4.48-16.08-8.41-16.08-5.68,0,.54,1.16,1.28,2.57,1.63,1.41.35,3.71,1.64,5.12,2.85,3.73,3.23,24.54,13.71,23.89,12.03-.3-.79-3.16-2.87-6.36-4.63-3.19-1.76-7.31-4.55-9.14-6.21Z"/>
  <path class="cls-1" d="M.79,46.55c.22-2.01.33-3.29.28-3.29-.08,0-.54.47-1.06,1.09.28.72.54,1.46.79,2.2Z"/>
  <path class="cls-1" d="M164.41,186.01c-1.25.32-1.78,1.16-1.39,2.18.35.91.64,2.19.64,2.84s1.25-.17,2.77-1.81c3.83-4.13,3.51-4.64-2.02-3.21Z"/>
  <path class="cls-1" d="M170.91,191.41c1.19-.86,3.17-2.34,4.39-3.28l2.22-1.72-2.22-.04c-1.24-.02-3.6,1.7-5.34,3.88-3.98,4.99-3.62,7.87.93,7.36,1.82-.2,4.55-1.18,6.08-2.18,2.28-1.49,2.44-1.88.89-2.2-1.03-.21-2.96.19-4.28.9-3.43,1.83-5.73-.52-2.67-2.73Z"/>
  <path class="cls-1" d="M14.48,126.14c-2.06-.17-5.7-.2-9.71-.12-.05.99-.1,1.99-.15,2.99,19.65.5,37.71,3.69,59.63,10.41,4.8,1.47,9.03,2.37,9.4,2,1.4-1.4-1.58-2.52-23.66-8.93-7.35-2.13-27.16-5.67-35.49-6.35Z"/>
  <path class="cls-1" d="M240.46,212.62c-1.07.39-3.13,1.62-4.59,2.74-2.59,1.99-2.59,2.03-.28,2.03,1.3,0,3.32-.95,4.48-2.11,1.39-1.39,2.48-1.73,3.2-1.01,1.81,1.81,2.38-.62.69-2.93-.86-1.18-1.56-1.53-1.56-.79s-.87,1.67-1.94,2.07Z"/>
  <path class="cls-1" d="M249.82,190.49c-3.99-3.6-3.2-3.4-5.82-1.44-2.11,1.57-2.11,1.6.14,1.03,1.34-.34,2.9.15,3.74,1.16.8.96,1.13,1.74.75,1.74s.18.89,1.25,1.98c1.7,1.73,2.03,1.77,2.63.28.43-1.08-.56-2.83-2.7-4.76Z"/>
  <path class="cls-1" d="M249.87,214.06c.95,0,6.15-15.6,5.43-16.31-.16-.17-1.34,1.57-2.62,3.85-2.67,4.76-4.4,12.47-2.81,12.47Z"/>
  <path class="cls-1" d="M234.92,231.64c.76-.94,3.13-2.38,5.27-3.22,2.14-.83,4.47-2.08,5.18-2.78,2.35-2.3-4.8-1.63-7.49.7-1.36,1.18-2.89,2.14-3.41,2.14s-.94,1.09-.94,2.43c0,2.11.18,2.21,1.39.73Z"/>
  <path class="cls-1" d="M274.29,189.15c1.37-.41,2.5-1.4,2.5-2.2s.75-2.07,1.66-2.83c1.72-1.43,2.3-4.46.83-4.4-.46.02-1.7,1.23-2.77,2.7-1.07,1.47-4.9,4.74-8.51,7.28-7.27,5.1-9.66,9.5-14.65,27.03-2.25,7.9-6.39,15.09-8.69,15.09-.48,0-2.68.75-4.89,1.68-2.21.92-4.27,1.66-4.58,1.64-1.23-.08-8.11,3.83-15.24,8.65l-7.48,5.06-2.78-2.61c-1.53-1.43-2.77-3.02-2.77-3.52,0-1.3,3.77-1.14,5.13.23.78.78,2.09.39,4.16-1.24,3.64-2.87,3.2-3.82-.91-1.95-2.4,1.09-3.17,1.08-3.88-.06-.72-1.16-1.32-1.15-3.2.03-2,1.25-2.75,1.13-5.44-.85-1.71-1.27-4.23-2.66-5.58-3.09-1.36-.43-4.55-3.25-7.09-6.26-2.54-3.01-4.86-5.24-5.16-4.94-1.44,1.45,6.16,9.96,12.82,14.35,4.12,2.72,8.95,6.47,10.74,8.34,1.81,1.89,4.4,3.41,5.84,3.41,2.34,0,14.31-6.94,16.01-9.29.39-.54,1.96-1.11,3.48-1.28s5.63-2.13,9.12-4.36c3.49-2.23,6.61-3.79,6.94-3.46s-1.66,2.85-4.41,5.61c-3.4,3.4-5.95,5.01-7.93,5.01-1.61,0-2.92.55-2.92,1.23,0,.82,1.36.98,4,.48,3.09-.58,3.85-.42,3.33.71-.37.8-.98,2.32-1.35,3.37-.37,1.05-3.37,3.7-6.65,5.88-3.29,2.18-5.98,4.71-5.98,5.61,0,4.4,12.05-6.08,18.55-16.14,5.68-8.79,9.63-16.72,9.3-18.68-.13-.8.25-3.05.86-4.99.6-1.95,1.67-6.41,2.36-9.92.69-3.51,1.72-6.38,2.29-6.38,1.02,0,4.65,7.19,6.01,11.92,1,3.48,2.6,3.13,1.92-.42-.38-1.98.03-3.24,1.26-3.94,1.88-1.05,2.58-6.45.83-6.45-.54,0-1.3,1.25-1.68,2.77-.8,3.19-2.87,3.75-2.87.77,0-1.1-.73-2.97-1.63-4.16-.9-1.18-1.64-3.17-1.66-4.42-.04-2.62,7.09-9.88,10.78-10.99Z"/>
  <path class="cls-1" d="M199.7,219.59c6.66.49,7.82.88,8.15,2.79.21,1.22.9,2.84,1.52,3.6.79.96.72,1.89-.24,3.05-1.14,1.37-1.04,1.66.54,1.66,1.05,0,2.9,1.25,4.1,2.77,2.71,3.44,4.17,3.55,3.89.28-.26-3.01-7.95-14.79-10.23-15.67-3.39-1.3-2.42-2.18,7.8-7.15,2.44-1.18,5.65-3.46,7.13-5.06,1.48-1.6,3.19-2.91,3.81-2.91,1.86,0-5.11,6.7-9.27,8.92-3.22,1.71-3.46,2.08-1.45,2.12,2.7.05,10.32-4.06,10.32-5.57,0-.53,1.37-2.6,3.05-4.61,1.68-2.01,3.55-4.44,4.16-5.42,6.41-10.23,9.09-13.1,17.05-18.28l4.85-3.15,2.59,3.25c1.42,1.78,2.84,2.99,3.15,2.68.31-.31-.69-1.92-2.23-3.57-3.23-3.48-2.95-4.36,2.01-6.41,2-.83,5.22-3.23,7.16-5.35,3.21-3.5,3.79-3.73,6.38-2.55,1.57.71,2.85,2.21,2.85,3.32s.6,2.62,1.32,3.34c1.03,1.03.59,2.12-1.94,4.86l-3.26,3.53,3.88-2.36c4.31-2.62,5.44-5.81,2.83-7.97-.94-.78-1.72-2.08-1.72-2.87s-1.25-2.43-2.77-3.63c-3.02-2.38-3.65-4.64-1.28-4.64,2.02,0,5.38,3.84,4.33,4.96-.46.49-.12.67.76.39,2.77-.87,2.53-2.93-.52-4.53l-2.94-1.54,3.43-3.24c1.89-1.78,3.43-4.36,3.43-5.74,0-3.28-1.8-3.22-2.63.09-.36,1.42-2.4,3.52-4.53,4.67-2.14,1.15-4.33,3.36-4.87,4.92-1.58,4.53-6.55,9.71-11.86,12.36-4.77,2.38-4.98,2.39-7.15.43-2.17-1.97-2.24-1.96-2.24.25,0,2.82-3.4,3.8-10.71,3.08l-5.38-.53,4.33,1.24c3.22.92,5.76.91,9.87-.04,3.05-.7,5.71-1.11,5.92-.9.44.44-8.31,6.31-9.41,6.31-.4,0-2.48,2.05-4.61,4.55-9.27,10.84-20.8,21.13-27.38,24.42-3.77,1.89-7.14,4.16-7.48,5.05-.46,1.2-2.27,1.55-7.01,1.38-3.51-.13-7.82.35-9.57,1.06-3.27,1.34-5.51.49-7.68-2.91-.49-.76-1.65-1.39-2.59-1.39s-1.5-.62-1.25-1.39c.76-2.31,10.76-9.34,15.19-10.66,2.28-.68,5.08-2.28,6.23-3.54,1.79-1.97,1.85-2.45.46-3.41-1.25-.86-1.08-.96.72-.46,1.88.52,3.28-.57,7.07-5.47,2.6-3.37,5.04-6.14,5.42-6.15.38-.01,3.66-2.76,7.28-6.1,3.62-3.34,6.94-6.07,7.38-6.07s1.72-1.4,2.85-3.1c1.13-1.7,5.59-6.39,9.92-10.42,6.31-5.87,8.41-7.21,10.61-6.79,2.16.41,3.39-.32,5.78-3.45,1.67-2.18,3.63-3.97,4.37-3.97s1.96-1,2.73-2.22c.76-1.22,2.13-2.22,3.04-2.22s1.65-.67,1.65-1.49,1-2.4,2.22-3.5c1.22-1.1,2.22-1.6,2.22-1.11s1,0,2.22-1.11,2.22-2.67,2.22-3.47,1.48-2.23,3.29-3.17c1.81-.94,3.81-2.66,4.44-3.84.63-1.17,2.14-2.45,3.36-2.84,1.26-.4,2.22-1.68,2.22-2.96s1.47-3.63,3.26-5.3c6.7-6.26,5.37-12.2-2.86-12.78-4.34-.31-12.61,1.42-12.61,2.63,0,.97-13.71.06-14.8-.98-.51-.49-.08-2.2.96-3.79,1.82-2.78,1.81-2.89-.27-2.89-1.19,0-2.49.33-2.9.74-.41.41-.74,2.39-.74,4.4,0,4.36,2.7,6.25,7.54,5.28,1.81-.36,4.31-.11,5.57.57,2.2,1.17,2.22,1.42.59,6.21-1.91,5.6-10.79,14.36-13.65,13.47-23.58-7.36-36.23-10.44-62.15-15.13-12.72-2.3-52.89-2.67-70.43-.64-24.85,2.87-30.04,3.64-32.28,4.79-1.16.6-4.6,1.4-7.65,1.79-3.05.39-7.79,1.45-10.54,2.34-9.43,3.08-26.74,7.51-29.17,7.47-1.34-.02-8.93-1.07-16.86-2.32-8.99-1.42-17.2-2.36-24.86-2.85-.05,1.35-.11,2.7-.16,4.05,6.47.2,12.36.66,16.7,1.42,23.27,4.06,27.76,4.37,34.94,2.37,41.24-11.48,62.69-15.1,94.19-15.93,23.45-.62,39.61.95,66.08,6.41,15.44,3.19,38.69,9.54,40.26,11.01.49.46-.51,1.73-2.22,2.82-6.34,4.06-12.53,10.07-12.53,12.15,0,3.1,2.25,1.81,11.02-6.33,4.77-4.42,11.6-10.45,15.18-13.4,6.57-5.4,17.05-17.03,17.05-18.92,0-.56-.91-.2-2.03.81-2.17,1.96-4.63,2.44-4.63.9s4.31-4.97,6.41-5.13c1.07-.08,2.56-.52,3.31-.99,1.55-.96,3.58-.03,3.58,1.63,0,.61-1.94,3.95-4.32,7.42-3.98,5.82-10.06,11.93-25.42,25.51-3.24,2.86-7.45,6.83-9.35,8.81-2.09,2.17-4.6,3.63-6.31,3.66-2.08.04-6.28,3.36-15.6,12.32-13.19,12.69-40.6,36.74-45.47,39.91-1.53.99-5.39,4.33-8.6,7.42-5.35,5.16-5.82,5.39-5.82,2.94,0-1.47-1.49-4.32-3.3-6.32-1.82-2-6.06-6.62-9.43-10.26-3.37-3.64-6.13-6.93-6.13-7.31s-1.37-1.3-3.05-2.05c-2.92-1.3-2.89-1.21.68,2.1,2.05,1.9,3.44,3.75,3.08,4.11-.82.82-6.68-3.62-15.52-11.77-7.81-7.2-16.94-13.01-31.23-19.87-5.49-2.64-10.73-5.25-11.65-5.8-4.13-2.49-9.39-4.36-12.06-4.29-2.57.07-2.42.26,1.33,1.63,5.06,1.86,22.93,10.66,28.67,14.13,15.49,9.36,20.22,12.76,28.09,20.23,4.88,4.63,11.49,10.16,14.7,12.3,3.2,2.14,5.82,4.48,5.82,5.22s1.03,1.98,2.3,2.77c1.26.79,3.02,3.16,3.9,5.26s2.4,3.82,3.37,3.82,3.59,1.94,5.81,4.32c3.91,4.19,4.19,4.3,9.58,3.59,3.05-.4,9.04-.47,13.31-.16Z"/>
  <path class="cls-1" d="M217.52,218.15c-4.19-2.34-5.16-2.53-6.25-1.21-1.04,1.25-.85,1.56.97,1.56,1.36,0,3.16,1.45,4.53,3.66,2.95,4.78,9.87,11.04,11.25,10.19,1.68-1.04,1.28-2.76-.49-2.08-1.58.61-4.71-3.63-3.54-4.8,1.28-1.28-1.71-4.66-6.46-7.31Z"/>
  <path class="cls-1" d="M194.76,226.54c-.8,2-.44,3,1.76,4.99,1.52,1.37,3.35,2.48,4.08,2.46.73-.02-.1-1.21-1.85-2.63-2.39-1.96-2.98-3.17-2.42-4.95,1-3.15-.31-3.03-1.57.14Z"/>
</svg>