<?xml version="1.0" encoding="UTF-8"?>
<svg id="Warstwa_1" data-name="Warstwa 1" xmlns="http://www.w3.org/2000/svg" viewBox="0 0 515.29 493.65">
  <defs>
    <style>
      .cls-1 {
        fill: #010101;
      }
    </style>
  </defs>
  <path class="cls-1" d="M439.18,155.31c5.04.94,15.85.04,16.78-1.4.4-.62,2.33-1.94,4.29-2.95,4.31-2.21,8.15-8.07,10.12-15.48,2.57-9.65,3.94-11.52,8.46-11.52s4.53-.55-.21-1.31c-1.81-.29-4.37,0-5.69.62-1.85.88-2.67,2.72-3.6,8.08-1.5,8.59-3.71,12.31-10.39,17.52-4.49,3.5-6.18,4.12-12.09,4.5-3.94.25-7.88-.1-9.22-.82-1.91-1.02-2.34-.95-2.34.38,0,1,1.5,1.92,3.89,2.36Z"/>
  <path class="cls-1" d="M479.69,95.46c.92-.76,1.67-2.32,1.67-3.45s1.85-5.03,4.11-8.65c4.82-7.72,8.36-9.43,17.13-8.27,4.14.54,5.32.42,4.43-.48-.66-.67-4.28-1.24-8.04-1.25-5.43-.03-6.71-.35-6.23-1.59.75-1.95-.79-6.32-1.84-5.26-.43.43-.78,1.83-.78,3.12,0,3.56-1.99,4.87-6.33,4.16-2.93-.47-3.67-.29-3.04.73.46.75,1.77,1.12,2.91.82,2.57-.67,3.54.74,2.29,3.32-3.66,7.54-6.74,14.34-7.3,16.11-.55,1.76-.39,1.86,1.02.69Z"/>
  <path class="cls-1" d="M475.95,412.98c1.42-.88,3.5-6.08,2.74-6.84-.3-.3-1.03.71-1.62,2.26-.59,1.54-1.96,3.31-3.05,3.93-1.58.9-1.74,1.52-.76,3.11.95,1.53,2.63,1.98,7.5,1.98,6.8,0,8.07-.64,5.5-2.77-1.17-.97-1.45-2.45-.96-5.06.55-2.95.34-3.69-1.08-3.69-1.55,0-2.41,2.67-1.88,5.82.27,1.58-2.97,4.05-5.3,4.05s-3.05-1.59-1.11-2.78Z"/>
  <path class="cls-1" d="M486.2,392.56c-1.77-.26-5.22.11-7.68.82-5.86,1.7-12.3,5.07-10.71,5.61.69.23,4.33-.61,8.1-1.88,3.77-1.27,7.47-2.07,8.24-1.77.77.29,2.26-.1,3.33-.88,1.77-1.29,1.65-1.46-1.27-1.89Z"/>
  <path class="cls-1" d="M513.72,351.04c-.91.75-1.65,2.62-1.65,4.16,0,3.41,1.17,2.43,2.73-2.29.11-.35.25-.66.39-.95-.09-.83-.17-1.65-.26-2.48-.27.56-.68,1.11-1.22,1.56Z"/>
  <path class="cls-1" d="M514.26,346.65c.17,0,.31.03.43.09-.08-.96-.15-1.92-.22-2.89-.7.4-1.6,1.11-2.71,2.13-2.7,2.51-5.09,9.89-3.66,11.32.37.37.68-.27.68-1.42,0-2.59,3.94-9.23,5.46-9.23Z"/>
  <path class="cls-1" d="M511.99,454.89c-.73-.68-1.22-1.55-1.88-2.82-2.64-5.17-4.3-13.34-5.66-27.72-1.04-11.02-3.17-19.1-6.04-22.85-.69-.91-2.55-4.36-4.14-7.68-4.24-8.88-11.48-18.08-14.35-18.22-1.32-.07-3.51-.19-4.87-.27-1.36-.09-4.45-1.95-6.88-4.14-2.43-2.19-4.1-3.17-3.72-2.18.38.99.07,2.55-.68,3.47-1.62,1.95-.48,3.66,1.27,1.9.87-.87,2.57-.47,6.18,1.44,2.74,1.46,6.1,2.65,7.48,2.65,2.58,0,7.05,4.61,7.05,7.28,0,.82.5,1.5,1.11,1.5s2.42,2.84,4.02,6.31c1.6,3.47,3.53,7.05,4.28,7.95,1.99,2.4,5.94,14.75,5.94,18.58,0,2.47-.41,3.13-1.65,2.66-.91-.35-1.65-1.26-1.65-2.03s-.75-2.02-1.68-2.79c-2.09-1.74-7.1.2-7.1,2.75,0,1.05-1.02,1.67-2.74,1.67-1.51,0-2.74-.49-2.74-1.1s-.74-1.1-1.65-1.1-1.65.49-1.65,1.1.53,1.1,1.17,1.1,1.9.72,2.77,1.6c1.89,1.89,4.68,1.14,7.15-1.93,1.09-1.35,2.47-1.94,3.57-1.52,2.74,1.05,2.12,2.95-.96,2.95-1.69,0-2.74.62-2.74,1.62,0,1.25.59,1.39,2.63.62,3.77-1.43,6.95-.26,7.53,2.79.65,3.39-.91,4.61-7.53,5.85-7.52,1.41-16.89-.44-16.89-3.34,0-3.12-3.57-4.4-13.42-4.83-7.96-.35-10.44-.85-11.52-2.32-1.12-1.54-1.05-2.24.43-3.87.99-1.1,2.59-2,3.56-2.01,1.53-.02,1.54-.15.1-1.08-2.35-1.52-3.98-1.35-5.96.63-5.68,5.68,2.29,11.79,15.55,11.92,7.35.07,7.95.25,7.95,2.41,0,4.43,2.78,5.35,16.13,5.33h12.49s1.68,6.03,1.68,6.03c.92,3.32,1.85,6.61,2.07,7.3.28.89-1.24.82-5.29-.25-3.12-.82-8.46-1.82-11.86-2.2-5.44-.62-6.47-.41-8.6,1.71-2.13,2.13-2.79,2.26-5.6,1.1-4.19-1.73-10.49-8.8-12.64-14.17-2.09-5.22-5.12-7.08-3.75-2.3,3.81,13.28,11.59,20.26,23.87,21.4,6.55.61,19.84,2.46,29.81,4.05-.02-1.65-.02-3.29,0-4.93ZM503.85,454.84c-2.41-.35-8.46-.97-13.44-1.37-8.53-.69-10.06-1.24-8.32-2.98,1.03-1.03,4.49-.91,14.31.49,4.7.67,9.29,1.96,10.19,2.86,1.46,1.44,1.15,1.56-2.74.99Z"/>
  <path class="cls-1" d="M357.95,335.08c-8.68-2.63-15.45-1.29-31.81,6.27-7.84,3.63-15.5,7.23-17,8.01-1.51.78-4.34,1.76-6.3,2.18-1.95.42-3.83,1.22-4.18,1.77-.34.56-1.66,1.01-2.92,1.01s-5.06.93-8.44,2.07c-3.38,1.14-9.29,2.65-13.12,3.36-9.22,1.7-30.54,3.4-32.61,2.61-2.21-.85-6.22-8.89-5.23-10.48.48-.77,1.3.21,2.11,2.51,1.42,4.06,2.02,3.41,3.15-3.43.82-4.96,3.54-8.61,16.2-21.76,5.61-5.83,15.33-16.22,21.61-23.09,17.74-19.43,35.13-34.06,40.49-34.06,2.18,0,17.08,13.62,20.37,18.62.98,1.49,1.79,3.98,1.79,5.54,0,4.25,7.96,15.65,13.93,19.96,7.63,5.5,13.46,7.44,22.33,7.44,11.03,0,17.4-3.35,20.62-10.84,5.38-12.5.53-28.8-9.85-33.1-2.3-.95-4.09-3.24-6.51-8.31-2.91-6.09-5.42-8.92-5.42-6.1,0,2.07,3.61,12.94,4.77,14.36.69.85,1.26,1.83,1.26,2.19s1.31.51,2.91.32c4.16-.47,9.09,5.2,11.26,12.94,2.31,8.22,2.22,9.58-1.07,16.18-2.38,4.77-3.59,5.94-7.95,7.62-3.29,1.27-7.72,1.94-12.28,1.85-12.1-.24-20.02-5.32-26.77-17.17-4.12-7.24-3.61-11.46,1.81-14.96,3.65-2.36,4.11-3.16,4.11-7.13,0-2.46-1.73-9.54-3.84-15.74-4.18-12.29-4.34-13.31-2.77-18.28.58-1.85,2.06-6.55,3.29-10.44,2.39-7.58,2.85-12.13,1.22-12.13-.56,0-1.35,1.54-1.76,3.41-.41,1.88-2.16,7.77-3.89,13.09-1.72,5.32-3.28,12.55-3.45,16.05-.3,6.08-.49,6.46-4.15,8.25-2.48,1.21-6.6,1.89-11.63,1.93-6.17.04-8.88.63-13.03,2.84-12.24,6.51-23.68,17.09-53.69,49.67-20.51,22.26-33.59,34.17-37.57,34.19-4.7.03-12.01-4.35-19.01-11.41-11.82-11.91-15.83-16.41-17.16-19.29-.7-1.51-2.87-4.45-4.83-6.55-1.96-2.09-4.29-5.54-5.18-7.67-.89-2.13-2.79-5.27-4.23-6.98-1.44-1.71-2.62-4.19-2.62-5.51s-1.23-4.22-2.74-6.44c-3.56-5.25-3.55-9.76.04-13.09,5.78-5.36,4.98-6.75-.97-1.68-5.01,4.27-6.34,4.96-6.89,3.54-.37-.97-.43-8.29-.14-16.27.47-12.63,1-15.86,4.08-24.93l3.54-10.42-.61-27.97c-.67-30.66-1.19-35.45-7.3-68.01-1.3-6.94-2.64-19.16-2.97-27.16l-.6-14.55,3.49-7.08c2.77-5.62,5.2-8.5,11.77-13.94l8.29-6.85-.7-4.42c-2.88-18.29-4.66-31.31-6.26-45.83-1.13-10.23-1.57-11.79-3.32-11.79-1.11,0-2.01.37-2,.82.04,3.28,4.32,38.79,4.76,39.5.31.49.89,4.83,1.3,9.63.41,4.8.91,9.01,1.12,9.36.21.34-3.18,3.84-7.52,7.78-5.46,4.95-8.99,9.28-11.46,14.07-3.19,6.19-3.57,7.88-3.57,16.13,0,12.28,1.74,28.1,4.54,41.36,1.43,6.75,2.07,12.76,1.7,15.91-.33,2.78-.35,4.45-.04,3.69,2.79-6.82,5.01,16.62,4.54,47.99-.37,24.77-.49,25.64-4.99,36.2-1.83,4.3-3.25,30.03-2.02,36.6.62,3.3,1.21,3.99,3.44,3.99,2.08,0,2.69.58,2.69,2.51,0,1.38.99,4.45,2.19,6.81,1.21,2.37,2.19,5.4,2.19,6.75s.52,2.77,1.16,3.16c.64.39.98,1.25.76,1.9-.22.65,1.05,2.57,2.81,4.26,1.83,1.75,2.95,3.75,2.6,4.65-.33.87.1,1.86.97,2.19.87.33,1.58,1.83,1.58,3.32s.49,3.02,1.1,3.39,1.1-.37,1.1-1.65.49-2.02,1.1-1.65,1.1,1.44,1.1,2.37,1.48,3.07,3.29,4.76c1.81,1.69,3.29,3.86,3.29,4.83,0,2.29-1.28,2.23-3.44-.17-3.29-3.64-6.54-5.82-7.66-5.13-.62.38-1.4-.37-1.74-1.67-.41-1.57-1.19-2.15-2.31-1.72-.93.36-2.14.01-2.7-.76-.73-1.01-.84-.86-.4.51.5,1.55-.06,1.94-2.91,2-2.97.06-3.18.23-1.34,1.02,1.21.52,3.5.98,5.09,1.02,4.08.11,4.93,3.17,1.75,6.34l-2.57,2.57-4.34-4.4c-2.38-2.42-5.17-4.41-6.19-4.42-1.02,0-2.16-.51-2.53-1.12-.37-.6-1.6-1.1-2.73-1.1s-2.79-.74-3.7-1.65c-2.1-2.1-2.9-2.08-2.9.06,0,.94,1.6,2.42,3.57,3.31,1.96.88,4.31,2.02,5.21,2.53.91.51,3.4,1.76,5.54,2.78,2.14,1.02,4.63,3.08,5.53,4.57,1.64,2.7,1.65,2.7,3.95.56,1.27-1.18,2.53-2.8,2.81-3.58.39-1.12,1.26-.99,3.95.55,3.72,2.14,4.88.58,1.25-1.69-1.21-.75-2.19-1.75-2.19-2.2,0-1.62,2.47-.8,5.68,1.91,1.79,1.51,4.42,2.74,5.83,2.74,1.75,0,3.32,1.22,4.94,3.84,1.31,2.11,2.77,3.84,3.26,3.84s3.82,2.94,7.41,6.54c6.22,6.24,14.45,11.01,19,11.01,1.14,0,3.8-.83,5.93-1.84,4.34-2.07,4.4-2.05,5.4,2.12.71,2.97.64,3.02-4.51,3.03-2.88,0-8.2.72-11.83,1.57-3.63.86-12.27,2.34-19.2,3.3-6.93.96-15.07,2.23-18.08,2.82-15.34,3.02-13.76,3.13-19.86-1.42-3.08-2.3-6.17-5.42-6.86-6.93-1.54-3.38-1.58-4.08-.16-3.2.6.37,1.1.41,1.1.08s-1.74-1.33-3.87-2.21c-2.95-1.23-4.49-2.96-6.48-7.24-1.43-3.09-3.6-6.32-4.82-7.17-1.22-.85-2.56-3.15-2.98-5.11-.42-1.96-1.3-4.23-1.96-5.05-.66-.82-1.28-4.65-1.38-8.51-.18-7-.17-7.03,3.61-8.83,2.09-.99,4.22-2.91,4.73-4.27.52-1.36,1.46-2.79,2.11-3.19.64-.4,2.08-2.79,3.2-5.32,2.99-6.77,3.48-8.43,2.49-8.43-1.39,0-4.02,3.49-5.55,7.34-.76,1.93-4.54,6.42-8.41,9.98-5.07,4.68-7.02,7.25-7.02,9.25,0,1.52-.82,3.45-1.82,4.28-.67.56-1.79,1.73-3.21,3.34-.09,1.58-.18,3.17-.27,4.75,3.61-4.32,6.18-7.13,6.63-7.13.55,0,.68,1.01.29,2.25-.4,1.27-.03,3.3.86,4.66.86,1.33,1.9,4.14,2.3,6.25s1.99,5.03,3.52,6.48c1.53,1.45,3.07,4.04,3.41,5.75.34,1.71,2.55,4.85,4.91,6.98,2.36,2.13,5.25,5.46,6.43,7.4,1.18,1.94,3.97,4.77,6.19,6.28,2.22,1.51,4.23,3.31,4.45,3.99.48,1.45-6.64,2.8-7.18,1.36-.2-.53-2.17.52-4.36,2.33-7.61,6.27-9.16,3.62-2.26-3.86,2.49-2.7,3.85-4.91,3.02-4.9-.83,0-4.03,3.1-7.12,6.86-3.08,3.77-7.03,7.53-8.78,8.36-7.12,3.4-8.13,3.75-8.79,3.1-.33-.33-3.5.92-7.34,2.86-.08,1.18-.16,2.36-.24,3.54.87-.37,1.52-.58,1.84-.59.39,0,1,1.18,1.37,2.63.67,2.69,15.53,17.1,17.63,17.09.63,0-.83-1.71-3.25-3.81-9.4-8.16-13.8-13.1-13.49-15.14.21-1.36,2.2-2.74,5.81-4.04,3.02-1.09,9.43-3.52,14.26-5.4,4.83-1.88,9.54-3.42,10.48-3.42.94,0,2.17-.44,2.74-.96,2.19-2.02,16.46-5.76,27.71-7.27,18.09-2.42,32.03-4.65,38.06-6.08,3.02-.72,12.89-1.44,21.94-1.62,9.05-.17,19.17-.87,22.49-1.55,3.32-.68,7.39-.93,9.05-.57,1.66.36,3.02.2,3.02-.37s2.13-1.33,4.73-1.68c2.6-.36,6.95-1.6,9.67-2.77,3.71-1.59,6.64-2,11.72-1.64,6.97.49,9.94-1.38,3.22-2.03l-3.57-.34,4.39-2.03c2.41-1.12,5.38-2.41,6.58-2.88,1.21-.47,3.61-1.42,5.35-2.12,2.91-1.18,3.11-1.1,2.57.96-.32,1.23-.14,2.23.41,2.23s.99-1.21.99-2.69c0-1.99.99-3.16,3.78-4.49,2.08-.99,4.25-1.51,4.81-1.16.56.35,1.28-.35,1.6-1.55,1.05-4.01,3.28-2.53,2.49,1.66-.43,2.28-.28,3.84.36,3.84.6,0,1.24-2.06,1.42-4.58.33-4.46,3.04-7.48,3.11-3.47.03,1.88.15,1.86,1.77-.18,1.27-1.6,1.88-1.81,2.27-.76.42,1.12.98,1.04,2.55-.38,2.43-2.2,5.14-1.14,3.16,1.24-1.02,1.22-.91,1.55.5,1.55.98,0,1.78-.74,1.78-1.65,0-1.66,1.29-2.19,2.47-1,.85.85-1.41,7.38-2.89,8.35-1.45.95-.12,2.45,1.36,1.53.6-.37,1.4-2.11,1.79-3.87.9-4.1,3.55-6.53,4.47-4.11.36.93.12,2.66-.52,3.85-.9,1.68-.79,2.31.46,2.79,1.21.46,1.63-.21,1.63-2.63,0-1.79.51-3.26,1.13-3.26,2.41,0,2.19,3.3-.58,8.77-1.59,3.14-2.61,5.99-2.27,6.33.73.73.46,1.14,3.91-5.78,1.51-3.02,3.24-5.87,3.84-6.33,1.73-1.34-4.85-6.12-10.97-7.98ZM332.17,272.29c4.5-.37,9.82-2.29,11.87-4.3,2.02-1.97,2.17-1.88,3.9,2.26.84,2.02,1.88,5.71,2.3,8.19.72,4.26.56,4.63-2.83,6.7l-3.59,2.19-3.9-4.07c-2.15-2.24-5.63-5.55-7.74-7.36l-3.84-3.29,3.84-.31Z"/>
  <path class="cls-1" d="M290.49,488.88c-1.96.39-3.96.1-4.95-.72-1.05-.87-4.84-1.33-10.38-1.26-4.8.06-8.96-.28-9.26-.75-.3-.48.7-2.2,2.2-3.82,1.51-1.63,2.46-3.4,2.13-3.95-.34-.54,0-1.24.77-1.55.76-.3.3-.59-1.03-.64-1.32-.05-2.69.37-3.03.93-.35.56-.1,1.35.56,1.76,1.77,1.1-5.28,6.94-9.87,8.18-2.14.58-7.5,1.38-11.91,1.79-5.11.47-7.63,1.12-6.96,1.8,1.29,1.29,8.21.54,17.71-1.91,5.49-1.42,7.59-1.55,9.14-.59,1.12.7,3.43.94,5.21.55,3.1-.68,4.46.75,2.1,2.21-1.29.8-1.47,2.74-.26,2.74.46,0,1.32-1.08,1.92-2.4.6-1.32,1.75-2.61,2.56-2.87,1.17-.37,1.22,0,.27,1.78-1.86,3.48-1.36,4.31.94,1.55,1.93-2.31,2.41-2.4,6.93-1.19,4.92,1.32,8.48.81,8.48-1.2,0-.64-1.38-.83-3.29-.45Z"/>
  <path class="cls-1" d="M263.64,446.45c-.92.76-1.67,2.46-1.67,3.78,0,3.34-2.04,5.02-6.08,5.02-3.07,0-7.08,2.69-7.08,4.75,0,1.39,3.02.73,4.43-.96.78-.94,2.44-1.62,3.7-1.52,5.15.4,8.86-.11,7.44-1.01-1.73-1.1-.78-5.74,2.16-10.58,2.2-3.61,2.63-7.72.92-8.78-.64-.4-1.1.72-1.1,2.68,0,4.48-1.96,4.31-2.4-.21-.32-3.36-.39-3.41-1.12-.86-.52,1.78-.23,3.32.85,4.51,1.44,1.6,1.44,1.96-.04,3.19Z"/>
  <path class="cls-1" d="M.43,233.03c.07-2.17.13-4.34.19-6.51-.03.03-.06.05-.1.08-.19,2.14-.36,4.27-.52,6.41.16,0,.3,0,.43.02Z"/>
  <path class="cls-1" d="M233.17,446.96c-8.62,9.1-9.91,10.96-6.75,9.74,3.03-1.16,15.8-15.75,15.8-18.05,0-1.31.43-1.7-9.05,8.31Z"/>
  <path class="cls-1" d="M235.9,455.25c2.11,0,5.59-3.98,8.45-9.68,3.84-7.65,2.12-7.37-3.78.62-6.53,8.84-6.65,9.06-4.67,9.06Z"/>
  <path class="cls-1" d="M299.94,472.49c.37-.38.79-3.88.93-7.79.21-5.92.86-8.05,3.89-12.77,2-3.12,4.66-6.08,5.92-6.59,2.07-.84,2.01-.93-.73-1-1.66-.04-3.02.34-3.02.83s-1.47,2.54-3.26,4.55-3,4.06-2.7,4.55c.31.5-.26,2.17-1.27,3.71-2.5,3.82-2.29,17.02.23,14.5Z"/>
  <path class="cls-1" d="M323.68,446.05c-2.88-3.08-6.5-7.15-8.06-9.04-1.55-1.89-3.77-3.76-4.93-4.15-2.12-.72-8.13-9.21-8.13-11.49,0-1.85-2.96-1.47-3.71.47-.51,1.33-1.77,1.57-5.81,1.09-2.84-.33-5.55-1.22-6.03-1.98-.58-.92-.87-.6-.89.98-.01,1.84.85,2.51,4.01,3.1,7.22,1.36,15.72,5.04,15.72,6.82,0,1.46-1.64,1.59-12.34.93-10.26-.63-13.5-1.29-19.2-3.9-9.43-4.33-9.08-6.1,1.09-5.64,5.92.27,7.64.04,6.74-.88-1.5-1.53-10.26-1.65-16.89-.23-2.72.58-5.68,1.04-6.58,1.01-5.26-.17-39.43,9.04-52.11,14.04-42.92,16.95-62.07,23.08-87.21,27.9-2.55.49-5.33,1.04-7.88,1.56-.02.26-.04.51-.05.77-.07.96-.14,1.91-.23,2.86,36.37-6.37,39.31-7.01,39.75-8.32.51-1.54,4.25-1.6,5.19-.08.39.63.11,1.86-.62,2.74-.76.91-.86,1.6-.23,1.6,1.61,0,3.68-2.83,3.32-4.55-.21-1.02.86-1.49,3.43-1.49,2.06,0,3.95-.62,4.2-1.37.29-.86,1.45-1.12,3.11-.7,1.61.4,2.65.19,2.65-.55,0-.67.95-1.22,2.12-1.22s2.97-.86,4.02-1.9c1.05-1.05,2.69-1.91,3.64-1.92.96,0,1.62-.63,1.47-1.39-.15-.75.61-1.37,1.7-1.37s2.44-.43,3.02-.95c.57-.52,2.6-1.46,4.5-2.1,3.3-1.1,3.48-1.01,3.92,2.04.4,2.73.11,3.2-2.02,3.2-1.37,0-2.81.52-3.2,1.15-.46.74.98,1.09,4.05.98,7.78-.27,19.96,2.09,21.51,4.16.77,1.02,2.99,2.01,4.94,2.18l3.55.32-2.94-1.65c-3.8-2.13-4.92-5.61-2.63-8.14,1.65-1.82,1.52-1.93-2.02-1.81-2.07.07-4.74,1.01-5.93,2.08-1.6,1.45-3.34,1.81-6.8,1.42-5.45-.63-6.88-1.75-6.38-5.03.28-1.81,2.39-3.28,8.59-6,4.53-1.98,10.39-3.93,13.03-4.35,2.64-.41,7.38-1.97,10.53-3.46,7.1-3.36,8.75-3.49,7.18-.57-.63,1.18-4.56,3.93-8.73,6.12-4.17,2.19-8.48,5-9.59,6.25-1.97,2.22-1.96,2.24.29,1.06,1.53-.8,2.67-.84,3.39-.11s1.57.51,2.52-.63c1.22-1.47,1.13-1.62-.65-1.05-1.92.61-1.91.54.12-1.03,1.21-.93,2.82-2.23,3.58-2.89.76-.65,1.88-.89,2.48-.52.6.37,3.19-1.5,5.74-4.17,3.16-3.29,5.94-5.08,8.66-5.58,2.2-.41,5.57-1.53,7.5-2.48,2.42-1.21,4.86-1.52,7.96-1.03,5.75.92,6.72,1.57,5.14,3.47-1.4,1.69-.93,1.88,3.72,1.57,2.37-.16,4.54,1.15,9.32,5.64,3.43,3.22,7.15,6.98,8.28,8.37,1.88,2.33,1.9,2.68.27,4.48-2.44,2.69-2.21,3.74.49,2.3,3.64-1.95,3.76-4.23.42-7.71-3.6-3.76-2.75-4.2,1.81-.96,3.53,2.51,4.01,5,1.58,8.22-.89,1.17-1.63,3.24-1.65,4.6-.05,3.23-.56,3.12-4.52-.93-2.73-2.79-3.84-3.25-6.27-2.6l-2.95.8,3.52.97c3.42.94,7.3,4.89,6.34,6.45-.73,1.19-9.57.24-14.89-1.59-6.71-2.31-6.88-1.08-.23,1.73l5.55,2.34-2.08,3.53c-2,3.38-2,3.62-.14,5.75,1.65,1.89,9.07,5.29,9.07,4.16,0-.21-1.73-1.4-3.84-2.65-4.1-2.42-4.97-5.52-2.19-7.82.91-.75,1.65-2.05,1.65-2.88,0-3.07,1.89-1.38,3.14,2.82,1.24,4.12,6.35,9.58,7.7,8.23.35-.35-.46-1.47-1.79-2.48-1.34-1.01-2.74-3.4-3.12-5.31-.55-2.79-.25-3.7,1.56-4.66,2.72-1.46,4.09.15,3.66,4.29-.16,1.51.39,3.67,1.22,4.8,1.35,1.85,1.52,1.48,1.63-3.54.07-3.08-.34-5.88-.91-6.24-2.57-1.59,2.05-11.67,6.57-14.35,1.77-1.05,3.51-3.05,3.87-4.45.35-1.4,1.34-2.55,2.2-2.55s1.86-.49,2.24-1.1c1.44-2.33-1.64-.93-6.03,2.74-5.47,4.57-6.5,4.69-9.87,1.1-1.42-1.51-3.11-2.76-3.76-2.77-1.67-.04-9.49-6.11-8.78-6.81.32-.32,2.41-.16,4.64.36,4.95,1.15,19.35,1.51,20.95.52,2.01-1.25,6.35,1.92,11.18,8.16,2.57,3.32,6.28,7.76,8.25,9.87,5.86,6.29,8.35,14.22,7.75,24.64-.28,4.85-.86,10.43-1.3,12.39-.76,3.43-.65,3.57,2.63,3.57s3.41-.3,3.41-3.62c0-1.99.47-4.09,1.05-4.67,1.82-1.82,2.11-8.88.55-13.41-3.21-9.31-9.49-20.54-14.49-25.89Z"/>
  <path class="cls-1" d="M322.69,471.02c-3.74.12-4.26-.18-4.53-2.61-.67-6-1.51-7.8-4.11-8.79-3.09-1.17-3.42-3.01-1.1-6.09,1.83-2.42,2.1-3.77.76-3.77-.51,0-1.8,1.62-2.87,3.61-2.43,4.51-1.9,7.8,1.33,8.26,1.64.23,2.66,1.32,3.07,3.29.34,1.62.8,3.87,1.03,5,.23,1.13-.35,3.23-1.29,4.66-2.07,3.16-.37,3.46,2.39.41,1.09-1.21,3.02-2.2,4.28-2.21,1.26,0,2.97-.44,3.78-.96.96-.61,0-.89-2.74-.81Z"/>
  <path class="cls-1" d="M201.62,488.44c0-.45-1.98-1.77-4.39-2.92-2.41-1.15-4.38-2.51-4.38-3.02s-2.59-.87-5.76-.8l-5.76.12,4.9,1.09c5.29,1.18,13.63,6.33,14.68,9.06.36.93,1.65,1.68,2.88,1.68h2.23l-2.19-2.19c-1.21-1.21-2.2-2.56-2.21-3.02Z"/>
  <path class="cls-1" d="M129.52,476.09c-3.17-2.49-3.51-2.56-5.78-1.09-1.35.87-1.23,1.07.65,1.08,2.36.02,5.93,3.13,5.93,5.18,0,.63-1.11,1.93-2.47,2.87-1.72,1.2-1.97,1.74-.82,1.8.91.04,2.37.53,3.26,1.1,1.36.86,1.2,1.46-1.01,3.82-2.12,2.26-2.28,2.8-.83,2.8,2.64,0,3.95-3.27,3.9-9.69-.04-4.74-.5-6.04-2.83-7.87Z"/>
  <path class="cls-1" d="M160.16,481.58c-1.09,0-2.44-.46-3.02-1.02-.57-.56-3.02-1.18-5.43-1.37l-4.39-.35,2.22-2.19c1.22-1.21,3.44-3.03,4.94-4.06,3.02-2.07,2.21-2.22-2.87-.55-2.16.71-3.82,2.25-4.56,4.23-.83,2.2-2.8,3.83-6.75,5.58-5.99,2.65-7.03,5.02-4.02,9.12,1.29,1.76,2.9,2.13,9.22,2.13,4.21,0,7.11-.34,6.43-.76-.74-.46-.03-1.21,1.78-1.9,3.08-1.17,4.93-3.95,3.55-5.34-.43-.42-1.41.09-2.18,1.15-1.84,2.52-2.81,2.43-2.81-.28,0-2.98-1.95-2.79-2.39.23-.26,1.79-1.56,2.77-4.93,3.75-4.03,1.16-4.79,1.09-6.34-.63-1.63-1.81-1.58-2.07.74-3.58,5.24-3.4,16.74-4.67,18.37-2.02.99,1.61,4.42.83,4.42-1,0-.62-.89-1.13-1.97-1.13Z"/>
  <path class="cls-1" d="M234.86,489.77c-1.59-1.16-1.65-1.64-.41-3.14.81-.97,3.01-2.22,4.89-2.76l3.43-.99-3.24-.1c-2.47-.08-2.93-.4-1.95-1.38,2.26-2.26,9.34-4.11,18.6-4.87,5.07-.41,8.75-1.18,8.4-1.75-.34-.56-3.17-.74-6.28-.4-7.66.83-16.47-2.15-16.98-5.75-.2-1.39.23-3.24.96-4.11,1.05-1.26.98-1.59-.33-1.59-.9,0-2.29.77-3.07,1.71-2.17,2.62-.01,7.3,4.31,9.34l3.65,1.73-4.81,1.84c-5.89,2.25-6.48,2.27-5.7.23.34-.88-.43-3.07-1.7-4.86-1.74-2.45-3.77-3.58-8.18-4.57-3.22-.72-6.55-1.04-7.38-.71-.84.33-.04.67,1.77.74,5.32.23,10.6,3.5,12.93,8.04l2.15,4.17-2.87,4.04-2.87,4.03,2.69,2.49c1.48,1.37,2.96,2.49,3.28,2.49,1.33,0,.47-2.59-1.28-3.87Z"/>
  <path class="cls-1" d="M230.36,478.07c-3.85-3.21-12.21-5.62-10.63-3.07.37.6,1.61,1.1,2.76,1.1,2.66,0,7.67,2.26,7.67,3.47,0,1.44-4.01,1.09-9.98-.87-3-.98-5.72-1.52-6.04-1.2-.32.32.96.92,2.86,1.34,5.14,1.13,9.03,3.44,10.56,6.26,1.31,2.43,1.38,2.44,2.06.32.39-1.21,1.14-3.01,1.66-4,.66-1.25.38-2.29-.9-3.35Z"/>
  <path class="cls-1" d="M239.21,377.37c.99,0,10.79,6.41,11.78,7.7.88,1.15,10.52,6.56,11.61,6.52,1.55-.06-3.99-4.35-5.61-4.35-.79,0-1.6-.38-1.8-.84-.44-1.02-11.06-8.03-15.94-10.53-4.33-2.21-5.99-2.27-3.14-.11,1.17.89,2.56,1.61,3.09,1.61Z"/>
  <path class="cls-1" d="M184.08,473.11c-9.03-.01-12.88.48-17.83,2.3-3.47,1.27-6.31,2.69-6.31,3.15,0,1.27,1.88,1,6.34-.94,2.34-1.02,8.05-1.93,13.4-2.14,14.95-.59,18.2-2.35,4.39-2.37Z"/>
  <path class="cls-1" d="M308.56,483.19c-4.85-1.58-7.39-3.33-8.29-5.7-.91-2.4-3.2-3.5-3.2-1.53,0,.53.74,1.58,1.65,2.33,2.32,1.92,2.07,2.75-1.3,4.28l-2.95,1.34,2.67,1.33c1.85.92,2.78,2.41,3.02,4.87.21,2.15.95,3.54,1.89,3.54,1.15,0,1.38-.91.88-3.57-.37-1.96-1.09-4.03-1.62-4.61-1.57-1.72-1.09-2.8,1.24-2.8,1.22,0,2.19.73,2.19,1.65,0,1.85,1.94,2.12,4.36.59,1.35-.85,1.26-1.14-.55-1.73Z"/>
  <path class="cls-1" d="M155.21,334.41c2.34-.96,2.64-1.38,1.23-1.72-1.02-.24-2.91.11-4.18.8-1.75.94-2.71.92-3.9-.06-1.26-1.05-1.58-.95-1.58.47,0,.98.45,1.78.99,1.78,1.23,0,5.59,7.27,5.59,9.32,0,1.65,2,3.31,2.9,2.41.31-.31-.16-1.96-1.03-3.67-3.35-6.58-3.35-7.95-.02-9.32Z"/>
  <path class="cls-1" d="M278.72,415.97c1.66-1.38,14.59-.03,18.19,1.9,3.27,1.75,2.95.12-.56-2.89-2.35-2.02-4.22-2.5-9.65-2.5-3.78,0-7.32.58-8.06,1.32-1.76,1.76-1.69,3.65.08,2.18Z"/>
  <path class="cls-1" d="M343.64,449.91c.38-1.18.17-2.47-.46-2.86-1.85-1.14-1.3-2.76.68-2,1.13.43.64-.62-1.28-2.78-1.7-1.91-3.58-3.47-4.18-3.47s-.26.92.76,2.03c1.01,1.12,1.55,2.8,1.19,3.73s-.15,2,.45,2.37c.6.37.82,2.4.48,4.5-.34,2.12-.15,3.82.43,3.82s.89,2.47.71,5.48c-.19,3.09.14,5.48.74,5.48s1.15-.86,1.24-1.92c.53-6.18.38-9.75-.48-10.92-.53-.73-.66-2.29-.28-3.47Z"/>
  <path class="cls-1" d="M439.07,470.64c-1.84-.02-4-.65-4.8-1.4-1.16-1.1-1.55-1.1-1.96,0-.28.75-1.73,1.37-3.22,1.37s-2.42.48-2.04,1.1c.37.6-.37,1.1-1.65,1.1s-2.04-.46-1.69-1.02c1.14-1.84-1.99-2.78-13.03-3.9-11.97-1.22-15.55-3.47-6.47-4.07,5.14-.34,5.21-.39,2.45-1.8-2.39-1.22-3.46-1.19-6.83.22-2.36.99-4.26,1.25-4.64.64-1.18-1.91.69-3.23,4.58-3.23,2.6,0,3.72-.45,3.42-1.37-.73-2.21-6.76-2.25-9.44-.05l-2.41,1.97,2.86,4.19c2.67,3.91,2.97,7.33.64,7.33-1.82,0-10.62-19.23-13.57-29.62-7.06-24.9-7.86-38.57-3.49-59.33,2.72-12.91,2.92-19.81.64-22.09-.57-.57-1.01,1.68-1.05,5.39-.04,3.5-1.09,10.56-2.32,15.69-1.23,5.13-2.36,10.93-2.5,12.89-.14,1.96-.59,3.57-1,3.57s-.48,2.29-.16,5.1c.35,3.1.16,4.85-.47,4.45-.63-.39-1.02,2.39-.98,6.92.05,6.24.45,7.86,2.26,9.22,1.98,1.49,2,1.66.25,1.69-1.56.03-1.8.63-1.22,3.05.95,3.96,1.41,4.37,2.73,2.44.8-1.18.93-.71.45,1.72-.48,2.45.23,5.07,2.66,9.87,1.82,3.59,3.32,7.28,3.33,8.18.01.91,1,3.13,2.2,4.94,1.2,1.81,2.18,4.19,2.19,5.29,0,1.1,2.48,5.68,5.49,10.17,3.02,4.49,5.48,8.63,5.48,9.2,0,1.56,4.55,3.71,5.35,2.53.38-.55,2.41-1.57,4.52-2.25,3.54-1.15,3.34-1.2-2.47-.63-4.14.41-6.31.22-6.31-.55,0-1.2,3.66-2.06,11.52-2.73,2.41-.21.59-.45-4.05-.56-10.63-.23-12.06-1.97-2.26-2.74,9.59-.76,12.01-.68,17.07.56,4.66,1.14,4.98,3.64.47,3.64-1.55,0-3.19.37-3.65.82-.46.45-.02.82.97.82,1.04,0,1.56.61,1.24,1.46-.35.91-4.4,1.98-10.83,2.87l-10.27,1.41-1.04,4.08c-1.01,4-.97,4.08,2.09,4.08,1.72,0,3.13-.41,3.13-.91s-.78-.91-1.74-.91-1.53-.61-1.29-1.35c.73-2.2,18.38-7.81,18.38-5.85,0,.26-.48,1.74-1.07,3.29-1.02,2.69-4.42,4.01-4.42,1.72,0-1.85-2.84-1.22-4.94,1.1-2.27,2.51-1.39,2.72,5.13,1.21,2.22-.51,4.44-.55,4.94-.09.5.47,4.12,1.14,8.04,1.49l7.13.64-6.86-1.79c-5.91-1.55-6.86-2.14-6.86-4.33,0-5.38,9.56-13.2,17.55-14.35,5.54-.8,8.04-2.44,3.78-2.48Z"/>
  <path class="cls-1" d="M515.01,485.82c-.26-1.07-.51-2.14-.73-3.22-2.22.91-3.61.89-5.84.18-1.92-.62-6.84-1.21-10.92-1.33-8.41-.24-11.29-1.65-10.23-5.01.96-3.04,13.81-5.75,25.27-5.44-.07-.72-.12-1.45-.18-2.17-3.9.52-5.55.23-5.13-.85.33-.85,2.04-2.15,3.81-2.88.37-.16.73-.33,1.06-.5-.03-.72-.05-1.44-.08-2.15-.64.25-1.45.58-2.5,1.02-2.14.9-4.23,2.17-4.64,2.82-.5.8-3.38.95-8.72.45l-7.98-.75.55,2.86c.75,3.94-1.43,3.61-2.84-.44-1.05-3.01-7.66-8.15-10.56-8.2-1.34-.02-9.4-5.47-13.84-9.34-2.48-2.17-3.36-4.17-4.19-9.55-.61-3.96-2.09-8.21-3.52-10.15-2.24-3.03-4.25-4.31-4.25-2.72,0,.34.46,1.47,1.01,2.51.67,1.25.3,4.95-1.11,10.99-2.11,9.04-2.1,9.13.07,14.04,1.27,2.88,3.11,5.18,4.4,5.52,2.96.77,2.79,1.84-.58,3.64-2.37,1.27-3.74,1.25-9.04-.09-5.05-1.28-6.54-2.19-7.76-4.76-1.57-3.29-1.53-3.52,2.37-14.38.87-2.41,1.89-5.72,2.28-7.36l.7-2.97-4.67,2.12c-2.57,1.17-5.8,2.13-7.17,2.14-1.38.01-2.81.89-3.2,1.94-.38,1.06-1.63,3.28-2.78,4.94-1.15,1.66-1.69,3.01-1.19,3,1.53-.03,3.04-1.51,4.59-4.54.88-1.71,2.69-3.12,4.39-3.41,1.59-.27,3.78-.88,4.86-1.34,1.72-.73,1.88-.44,1.23,2.31-.41,1.74-1.73,4.79-2.93,6.79-1.64,2.73-2.05,4.87-1.63,8.56.55,4.9.54,4.92-2.48,4.26-1.67-.37-5.57-.73-8.67-.8-9.69-.22-10.39-4.91-.95-6.35l4.68-.72-3.29-1.37c-4.24-1.76-10.22-.79-13.1,2.13l-2.26,2.3,2.74,2.07c1.51,1.14,3.49,2.72,4.4,3.51.91.79,2.59,1.26,3.73,1.04,1.52-.29,1.89.07,1.39,1.36-.84,2.18.02,2.25,2.1.17,2.81-2.81,18.7-.21,24.16,3.96,1.46,1.12,8.21-1.51,10.28-4,1.12-1.34,2.62-1.6,6.49-1.08,5.74.76,4.91-.39-2.76-3.84-2.77-1.24-5.49-3.61-7.05-6.14-2.43-3.92-2.48-4.47-1.21-11.88,1.87-10.91,3.44-11.73,3.44-1.8v8.08l7.95,7.43c5.47,5.11,9.41,7.83,12.61,8.73,2.56.72,5.87,2.53,7.37,4.02,2.32,2.32,2.62,3.39,2.07,7.43-.56,4.1-.33,4.88,1.79,6.01,2.41,1.29,2.41,1.32.3,3.29-1.23,1.14-3.78,1.99-6.01,1.99s-4.97.59-6.31,1.31c-1.77.95-2.78.98-3.64.11-1.77-1.77-7.42-1.45-11.18.64-1.81,1-5.76,2.16-8.78,2.58l-5.48.76,6.03.12c3.43.07,7.22-.56,8.78-1.45,3.61-2.06,6.52-2.04,8.86.08,1.73,1.57,2.21,1.57,5.24,0,4.09-2.12,7.52-2.14,11.12-.08,3.14,1.79,12.62,2.32,9.87.55-.91-.58-3.22-1.07-5.15-1.08-4.73-.02-5.32-1.51-1.96-4.88,2.24-2.24,3.89-2.81,8.1-2.81,7.73,0,15.5,1.24,14.81,2.37-1.07,1.72.77,7.51,2.39,7.51,1.87,0,1.93-.55.37-3.47-.89-1.66-.74-2.57.84-4.36Z"/>
  <path class="cls-1" d="M318.08,139.32c3,0,19.13-3.62,20.08-4.51,1.64-1.54-6.84-.99-14.48.93-3.77.95-6.86,2.14-6.86,2.65s.57.93,1.26.93Z"/>
  <path class="cls-1" d="M177.96,262.89c-.35,1.12,5.04-3.87,11.99-11.08l12.64-13.12-4.08-3.5c-5.07-4.34-9.63-12.59-10.56-19.09-.39-2.72-.15-8.39.52-12.62.67-4.22,1.88-13.6,2.7-20.84,1.48-13.18,5.8-30.65,8.66-35.02,1.64-2.5,1.22-13.79-.51-13.79-.51,0-.62,1.54-.25,3.42.65,3.23.55,3.35-1.67,2.16-1.5-.8-2.37-2.34-2.39-4.24-.03-2.76-1.94-8.78-5.55-17.51-1.48-3.58-3.19-4.76-3.18-2.19.02,3.72,2.44,15.76,3.35,16.67.57.57,1.03,2.85,1.03,5.06s.49,6.62,1.1,9.8c.88,4.66.67,7.91-1.1,16.72-1.21,6.02-2.2,13.73-2.22,17.13-.01,3.4-.73,10.14-1.61,14.97-3.12,17.27-1.66,28.3,4.97,37.54,4.28,5.96,3.9,7.86-3.03,15.29-6.4,6.87-9.97,11.56-10.82,14.25Z"/>
  <path class="cls-1" d="M265.63,162.69c2.65-5.13,3.13-10.36,1.42-15.7l-1.58-4.94-.11,5.71c-.06,3.14-.65,8.23-1.31,11.32-1.41,6.56-.74,8.08,1.58,3.61Z"/>
  <path class="cls-1" d="M287.28,52.66c1.26,0,5.1,2.69,8.6,6.03,3.48,3.32,6.66,6.03,7.08,6.03,1.37,0-2.75-6.82-5.71-9.44-1.6-1.42-4.52-3.19-6.48-3.92-3.93-1.48-4.3-2.21-2.06-4.07,1.78-1.47,4.8-16.57,3.32-16.57-.22,0-.7,1.36-1.06,3.02-.37,1.66-1.86,6.11-3.31,9.89-3.23,8.36-3.25,9.04-.37,9.04Z"/>
  <path class="cls-1" d="M331.83,242.65c-5.92,6.04-10.49,11.26-10.16,11.59.33.33,1.63-.71,2.89-2.31,1.26-1.6,2.87-2.91,3.58-2.91,2.96,0,16.41-15.44,14.81-17-.2-.19-5.2,4.6-11.11,10.64Z"/>
  <path class="cls-1" d="M510.58,239.23c.35.32.68.64.99.97.09-1.16.21-2.31.35-3.45-2.01-1.83-3.51-3.09-3.71-3.09-1.54,0-.15,3.25,2.37,5.57Z"/>
  <path class="cls-1" d="M510.66,332c-1.44-3.91-1.61-4.03-2.27-1.65-.41,1.5-1.05,2.11-1.53,1.47-.45-.61-2.26-1.6-4.02-2.19-1.76-.6-3.37-1.6-3.58-2.23-.52-1.58,6.03-3.79,11.22-3.79,1.49,0,2.58.12,3.69.61.01-1.15.03-2.31.05-3.46-.88-.7-.81-.96.02-1.15.02-1.26.05-2.51.08-3.77-11.38,5.42-15,5.43-22.99,2.11-5.88-2.44-5.86-4.16.04-4.2,1.58,0,4.12-1,5.66-2.21,1.53-1.21,3.2-2.21,3.71-2.23,1.87-.07,6.95-5.41,11.58-12.19.73-1.06,1.39-2.11,2.03-3.16-.11-2.63-.28-5.31-.5-8.03-.92,2.16-2.01,4.23-3.28,6.25-9.58,15.23-23.46,22.44-33.17,17.23-2.33-1.25-4.6-2.27-5.05-2.27-1.95,0-13.42-8.22-16.99-12.17-5.13-5.68-11.3-9.75-25.44-16.81-13.71-6.84-40.57-17.68-46.54-18.78-6.23-1.15-7.54-6.62-3.22-13.34.86-1.33,1.37-3.3,1.14-4.39-.33-1.53-.87-1.13-2.42,1.8-1.82,3.44-2.13,3.6-3.4,1.86-.77-1.05-1.73-3.74-2.13-5.97-.4-2.23-2.22-7.32-4.04-11.3-3.79-8.3-8.48-11.69-13.54-9.76-3.5,1.33-3.71-.68-.48-4.78,2.89-3.68,3.66-3.63,7.71.51,4.88,4.99,5.01,3.2.29-3.82-2.53-3.76-4.43-5.65-4.9-4.88-.43.69-.52,1.92-.21,2.72.31.81.06,1.47-.56,1.47s-1.91.3-2.86.67c-1.43.55-1.74-.23-1.74-4.39,0-5.24,1.39-6.43,4.31-3.68,1.2,1.13,1.31.79.65-1.92-.44-1.81-.93-5.51-1.09-8.23-.26-4.42-4.58-18.22-7.29-23.28-1.2-2.24-3.16-2.6-3.15-.58,0,.75,1.02,4.58,2.25,8.5,1.86,5.93,2.24,10.05,2.22,24.39-.02,16.84.05,17.33,2.69,20.18,1.49,1.6,2.71,3.34,2.71,3.86s.48.94,1.06.94.78-.74.43-1.65c-.35-.9-.34-2.41.02-3.34.9-2.34,4.54-.32,6.6,3.66,2.33,4.5,9.44,26.26,9.44,28.88,0,3.73,6.53,9.36,11.92,10.27,6.53,1.1,30.92,10.9,46.47,18.66,16.39,8.18,21.86,14.79,24.38,29.46,1.25,7.31,1.17,8.32-1.12,14.48-2.11,5.66-2.44,8.56-2.3,19.98.12,9.36-.24,13.76-1.19,14.71-1.53,1.53-1.88,4.66-.42,3.76.52-.32,1.81-3.66,2.86-7.42,1.76-6.29,2.04-6.67,3.41-4.69.82,1.18,2,2.74,2.62,3.47.8.94.57,1.68-.79,2.55-1.79,1.15-1.78,1.19.09.6,2.76-.87,5.19,1.72,3.86,4.1-.7,1.25-.63,1.84.22,1.84.69,0,3.21,1.68,5.6,3.72,4.73,4.05,8.85,5.35,12.39,3.91,2.02-.82,1.94-.92-.77-.99-1.67-.04-3.87-1.06-4.91-2.26-1.03-1.21-2.51-2.19-3.28-2.19s-1.4-.53-1.4-1.17-1.6-2.8-3.57-4.78c-3.7-3.75-4.19-4.34-8.3-10.19-5.16-7.32-4.02-22.37,2.25-29.5,1.8-2.05,3.99-3.72,4.86-3.72s1.34-.41,1.03-.91c-.31-.5-2-.7-3.75-.45-2.52.37-3.31,0-3.78-1.83-.42-1.62-.09-2.3,1.15-2.3,1.39,0,1.26-.46-.65-2.24-2.38-2.21-3.26-5.44-1.48-5.44.51,0,2.47,1.6,4.37,3.57,6.65,6.87,7.71,7.57,14.07,9.21,7.97,2.05,14.92,6,20.84,11.82,8.49,8.36,11.16,10.51,13.03,10.51,1.99,0,1.95-.36-.9-8.07Z"/>
  <path class="cls-1" d="M202.28,108.33c-.39,1.06-1.56,3.4-2.6,5.21-2.19,3.81-2.59,16.19-.59,18.19.95.95,1.11-.35.67-5.24-.5-5.49-.14-7.44,2.29-12.57,1.58-3.34,2.88-6.4,2.88-6.79,0-1.52-1.97-.62-2.64,1.2Z"/>
  <path class="cls-1" d="M184.65,60.3c-1.59,1.76-1.68,2.23-.42,2.23.88,0,2.15-.55,2.82-1.22,2.81-2.81,14.89-8.65,17.89-8.65,1.12,0,2.32-.45,2.66-1,.34-.55,2.65-1.34,5.14-1.76,3.96-.67,4.84-.42,7.12,2.05,3.37,3.64,3.33,8.44-.16,15.52-1.48,3.02-2.7,6.36-2.71,7.43s-1.98,5.87-4.4,10.67c-2.41,4.8-4.36,9.6-4.33,10.67.03,1.07,1.95-2.07,4.25-6.97,2.3-4.9,4.8-9.12,5.55-9.37,1.82-.61,7.63-18.01,7.66-22.95.02-3.23-.78-4.65-4.45-7.95q-5.14-4.62-12.73-1.89c-3.13,1.13-5.92,1.81-6.21,1.52-.69-.69-15.11,8.82-17.69,11.68Z"/>
  <path class="cls-1" d="M208.25,231.98c2.75-2.63,16.42-28.06,16.42-30.54,0-2.6,13.48-20.41,17.33-22.9l2.96-1.91h-3.4c-3-.01-4.24,1.11-10.54,9.59-4.09,5.5-9.64,14.98-12.99,22.21-3.22,6.94-7.49,14.96-9.48,17.83-4.77,6.85-4.94,10.17-.3,5.72Z"/>
  <path class="cls-1" d="M229.96,42.4c1.1-1,2.46-1.82,3.02-1.83,1.6-.02,10.98-11.24,11.69-13.97.77-2.99-.93-4.44-1.84-1.57-.35,1.11-3.84,5.39-7.76,9.5-3.91,4.11-7.12,7.97-7.12,8.58s.9.29,2.01-.71Z"/>
  <path class="cls-1" d="M407.59,428.85c3.47-.04,7.29-.5,8.5-1.02,2.8-1.2-11.73-1.2-16.45,0-1.81.46-2.69.9-1.96.97.73.07,1.87,1.13,2.53,2.36,1.1,2.05.95,2.17-1.88,1.48l-3.07-.75,2.74,2.26c1.97,1.62,3.13,1.94,4.11,1.13,1.64-1.36,1.82-4.16.27-4.16-.6,0-1.1-.49-1.1-1.1s2.84-1.13,6.31-1.17Z"/>
  <path class="cls-1" d="M438.58,456.86c0,3.13,3.26,6.08,6.67,6.04,2.54-.03,2.56-.09.46-1.28-1.21-.68-2.56-1.78-3-2.44-1.4-2.06-.91-7.52.85-9.46,2.7-2.98,4.29-13.93,2.81-19.36-1.22-4.46-1.47-4.66-8.95-7.02l-7.7-2.43,4.16-1.94c5.08-2.37,3.58-2.62-2.43-.4-2.41.89-9.94,2.19-16.73,2.88-6.79.69-12.34,1.6-12.34,2.01s7.05.51,15.67.22c14.39-.49,16.04-.34,20.22,1.79,5.68,2.9,5.83,3.16,6.02,10.3.11,4.25-.65,7.6-2.78,12.25-1.61,3.52-2.93,7.5-2.93,8.84Z"/>
  <path class="cls-1" d="M338.8,119.57c1.91,6.34,3.84,12.26,4.3,13.16.46.91,3.22,2,6.2,2.46,28.27,4.3,48.49,10.82,73.25,23.6,3.6,1.86,5.19,2.27,4.86,1.25-.46-1.43-5.74-4.85-11.86-7.68-1.51-.7-6.8-3.18-11.77-5.51-4.97-2.33-9.55-4.24-10.19-4.24s-2.28-.74-3.66-1.64c-1.38-.9-4.69-2.09-7.37-2.63-2.67-.54-11.15-2.27-18.83-3.84-7.68-1.57-14.96-2.86-16.18-2.86-1.46,0-2.21-.73-2.21-2.13,0-1.17-.44-2.4-.97-2.73-.53-.33-1.3-2.46-1.69-4.73-.75-4.33-2.26-9.06-4.2-13.14-.85-1.79-.78-2.88.25-4.11,1.42-1.71,1.07-1.84-2.54-.91-1.29.33-1.81,1.18-1.44,2.34.32,1,2.15,7,4.05,13.34Z"/>
  <path class="cls-1" d="M387.71,446.75c.78-1.81,2.6-1.76,2.6.07,0,2.37,4.3,6.24,6.9,6.21,2.39-.03,2.4-.05.23-1.59-4.78-3.4-6.03-5.39-6.03-9.6,0-2.35.52-5.25,1.17-6.45.64-1.2,1.01-2.99.82-3.98-.25-1.32-.7-1.03-1.66,1.09-1.16,2.55-1.78,2.82-5.21,2.26-2.54-.41-3.89-.2-3.89.61,0,.68,1.3,1.24,2.88,1.24,2.83,0,2.87.11,2.24,5.76-.35,3.17-.38,5.14-.05,4.39Z"/>
  <path class="cls-1" d="M348.47,17.55c.66,0,1.98-1.51,2.93-3.36l1.74-3.36,2.38,3.08c1.31,1.7,2.75,3.24,3.19,3.44.44.2,2.49,1.5,4.55,2.89,2.06,1.4,4.22,2.22,4.81,1.84,1.74-1.14,3.59-5.3,3.57-8.03-.02-1.94-.53-1.42-2.16,2.18l-2.14,4.72-3.05-2.09c-1.68-1.15-4.33-2.87-5.91-3.82-1.73-1.04-3.49-3.62-4.44-6.52l-1.58-4.79,6.34.46c5.18.37,6.47.12,7.04-1.36.93-2.43.28-2.9-2.13-1.55-1.19.66-4.72.81-8.77.36-5.55-.62-6.53-.5-5.41.67,1.94,2.02,1.7,9.34-.4,12.55-1.05,1.6-1.28,2.7-.58,2.7Z"/>
  <path class="cls-1" d="M361.79,283.15c0,1.81,3.42,2.92,10.88,3.51,7.66.61,8.03.54,6.28-1.21-1.25-1.25-4.38-2.05-9.51-2.43-4.21-.31-7.65-.25-7.65.13Z"/>
  <path class="cls-1" d="M398.05,417.44c.49.3,1.2.05,1.58-.57.38-.61,1.75-1.11,3.04-1.11,3.85,0,20.77-5.52,25.6-8.35,4.5-2.64,12.38-11.07,13.83-14.81,1.45-3.74-1.2-3.24-4.83.91-12.27,14.02-19.69,17.45-47.88,22.14-8.1,1.35-10.66,2.19-10.92,3.58-.32,1.68.42,1.66,9.18-.26,5.24-1.14,9.92-1.83,10.41-1.53Z"/>
  <path class="cls-1" d="M196.73,21.42c.84,6.05,1.83,13.95,2.2,17.55.38,3.6,1.08,6.97,1.56,7.47,1.91,1.99,2.21-1.7.71-8.81-.86-4.11-2.12-12.4-2.8-18.44-1.82-16.2-2.35-19.2-3.44-19.2-.54,0-.71,2.35-.37,5.21s1.29,10.16,2.13,16.21Z"/>
  <path class="cls-1" d="M124.55,294.8c3.28-.75,6.47-1.37,9.66-1.91,15.34-2.59,16.87-3.06,14.6-4.5-1.86-1.18-2.75-1.12-19.88,1.25-1.39.19-2.84.4-4.32.63-.01,1.51-.04,3.03-.07,4.54Z"/>
  <path class="cls-1" d="M186.25,17c1.25,10.68,2.77,20.95,4.4,29.62l1.03,5.48-.54-6.58c-1.01-12.23-2.83-27.4-3.85-32.02-.56-2.53-1.01-6.6-1.01-9.05s-.52-4.45-1.15-4.45c-.68,0-.92,1.46-.59,3.57.31,1.96,1.08,8.01,1.71,13.44Z"/>
  <path class="cls-1" d="M185.17,49.3c0,1.77.49,3.53,1.1,3.9,1.6.99,1.36-3.6-1-19.75-1.15-7.84-2.45-17.72-2.89-21.94-1-9.64-2.53-14.06-2.63-7.62-.04,2.44,1.17,12.93,2.67,23.31,1.51,10.38,2.74,20.32,2.74,22.09Z"/>
  <path class="cls-1" d="M128.76,440.51c.43,2.27,1.44,5.4,2.26,6.96.82,1.56,1.49,5.22,1.49,8.12,0,6.4,1.64,5.95,2.55-.71.49-3.6.12-5.88-1.49-9.04-1.18-2.32-2.15-5.15-2.15-6.29s-.99-3.32-2.19-4.85c-1.21-1.53-2.2-3.83-2.21-5.11-.01-1.86-.22-2-1.04-.71-.87,1.38-1.12,1.34-1.75-.27-.4-1.04-1.41-1.89-2.25-1.89s-1.53-.99-1.53-2.19-.49-2.19-1.1-2.19-1.1.62-1.11,1.37c-.01,1.08-.2,1.08-.9-.02-.16-.25-.5-.44-.94-.59-.11,1.13-.22,2.26-.34,3.38,5.3,2.36,11.78,9.11,12.7,14.02Z"/>
</svg>