<?xml version="1.0" encoding="UTF-8"?>
<svg id="Warstwa_1" data-name="Warstwa 1" xmlns="http://www.w3.org/2000/svg" viewBox="0 0 400 399.42">
  <defs>
    <style>
      .cls-1 {
        fill: #010101;
      }
    </style>
  </defs>
  <path class="cls-1" d="M172.1,305.21c-1.2.22-3.5,1.13-5.1,2.01-7.45,4.12-10.63,6.11-12.89,8.1-1.35,1.18-4.59,3.86-7.2,5.94-2.62,2.09-7.2,6.28-10.18,9.33-2.98,3.05-6.58,6.64-7.99,7.98-3.01,2.87-6.94,7.61-6.94,8.39,0,1.35,1.58-.01,9.33-8.06,4.55-4.73,9.9-9.97,11.87-11.65,1.97-1.68,4.77-4.09,6.21-5.37,6.84-6.06,9.1-7.8,12.16-9.33,1.81-.91,5.01-2.58,7.09-3.71,5.46-2.97,7.18-3.15,12.3-1.3,2.35.85,4.55,1.76,4.88,2.03,1.02.83,13.55,5.79,22.89,9.07,11.53,4.05,16.64,5.08,24.16,4.84,5.75-.18,5.97-.23,7.15-1.84.67-.91,1.91-2.02,2.76-2.46,2.4-1.24,15.48-13.29,20.45-18.83,4.78-5.33,10.01-14.01,10.7-17.77.34-1.83.09-2.85-1.42-5.83-1.34-2.64-1.98-4.96-2.4-8.59-.31-2.74-1.22-6.92-2.03-9.29-.81-2.37-1.47-5.45-1.47-6.83,0-2.36-.44-3.05-1.36-2.13-.77.77-.37,5.9.69,9,.6,1.73,1.27,4.73,1.5,6.65.56,4.71,1.93,9.95,3.29,12.63.62,1.21,1.12,2.88,1.12,3.7,0,3.37-7.12,14.4-13.37,20.7-6.28,6.33-17.06,16.34-17.61,16.34-.7,0,0-5.43,1.55-11.96,1.09-4.62,1.46-8.26,1.76-17.5.59-17.74.64-18.55,1.33-20.27.51-1.28.48-1.6-.15-1.6-.43,0-1.17.57-1.63,1.26-.79,1.18-1.01,1.22-3.42.54-1.42-.4-3.9-.99-5.5-1.31-1.6-.33-4.44-1.52-6.31-2.65l-3.39-2.06.39-2.41c.21-1.33.89-3.56,1.5-4.97,1.13-2.59,1.59-6.5.56-4.74-1.27,2.17-4.27,14.93-3.84,16.3.17.52.76.99,1.32,1.03,1.22.1,10.95,2.2,14.92,3.23l2.82.73-.48,2.33c-.26,1.28-.51,8.11-.54,15.17-.05,10.36-.25,13.39-1.03,15.71-.54,1.58-1.14,5.13-1.33,7.87-.53,7.4-.75,7.62-7.76,7.62-4.11,0-7.5-.41-11.8-1.44-15.24-3.63-39.43-13.78-48.02-20.16-2.57-1.9-5.19-3.45-5.83-3.43-1.16.03-1.16.03.02.6.65.32,1.7,1.37,2.33,2.33s2.27,2.42,3.63,3.23c1.36.81,2.48,1.68,2.48,1.94s-.98.64-2.19.86Z"/>
  <path class="cls-1" d="M58.22,331.93c-1.32-.34-4.08,1.23-4.08,2.32,0,.39-1.11,1.9-2.46,3.34-3.01,3.22-5.18,6.88-7.43,12.54-2.15,5.4-4.17,19.66-3.07,21.63.47.85.67.36.95-2.41,1.33-13.13,2.34-17.33,5.68-23.59,2.43-4.56,5.4-8.07,8.37-9.9,2.23-1.37,8.13-3.3,12.57-4.1,2.92-.53,3.67-.48,4.89.32,2.85,1.87,4.19,1.52,9.5-2.43,2.74-2.04,5.23-3.72,5.53-3.72,1.22,0,2.84,1.3,3.71,2.99.75,1.44,1.19,1.72,2.3,1.44.76-.19,2.05-.09,2.87.22,2.36.9,3.07.24,3.47-3.21.85-7.25,4.26-13.17,11.13-19.31,2.1-1.88,3.82-3.75,3.82-4.16,0-3.29,7.16-14.89,12.21-19.79,3.71-3.6,2.15-3.04-1.98.7-1.91,1.74-4.01,3.23-4.67,3.33-.65.09-1.19.56-1.19,1.05s-.74,1.34-1.64,1.91c-.95.6-1.57,1.46-1.48,2.04.2,1.24-2.91,11.08-3.64,11.54-.29.18-.53-.24-.53-.94,0-1.07-.14-1.15-.87-.55-.48.4-.87,1.17-.87,1.72s-.98,1.76-2.18,2.7c-3.33,2.6-7.15,6.94-7.15,8.1,0,.45-.41,1.23-.92,1.73-.63.63-.82,1.51-.59,2.81.18,1.04.18,1.56,0,1.16-.57-1.24-1.51-.8-1.09.51.27.84.18,1.11-.26.84-.96-.59-1.51,1.41-.73,2.66.74,1.19.94,3.89.24,3.19-.24-.24-.44-.74-.44-1.12,0-.37-.7-.68-1.55-.68s-2.16-.57-2.91-1.27c-.75-.7-2.13-1.67-3.06-2.15-1.44-.75-1.93-.76-3.21-.1-.83.43-2.01,1.33-2.62,2.01-.61.67-1.33,1.23-1.6,1.23s-1,.51-1.63,1.13c-.62.62-2.2,1.45-3.5,1.84-2.02.61-2.51.57-3.4-.23-1.29-1.17-4.56-1.31-9.47-.4-3.94.73-6.68,2.01-6.14,2.88.17.28-.21.37-.86.2Z"/>
  <path class="cls-1" d="M396.07,341.68c-1.23,0-2.62-.45-3.32-1.07-1.52-1.35-5.04-2.62-11.66-4.19-6.54-1.55-9.07-2.85-13.14-6.7-3.93-3.72-6.24-4.96-9.25-4.96-2.85,0-4.74,1.43-7.4,5.58-2.67,4.17-4.08,5.5-5.83,5.5-.95,0-1.46.33-1.46.94s-.32.82-.92.58c-.51-.19-1.16-.35-1.44-.35s-.37-.39-.18-.87c.24-.61-.04-.87-.93-.87-.99,0-1.19.25-.91,1.12.31.99-.03,1.17-2.88,1.53-1.78.22-3.23.65-3.23.94s-.59.47-1.31.4c-2.71-.29-9.39,1.63-8.83,2.54.41.66-2.48,1.24-4.11.83-.81-.2-1.6-.07-1.83.31-.28.46-1.84.56-4.99.31-2.81-.22-4.58-.13-4.58.21,0,.31-.93.57-2.08.57-1.24,0-1.93-.24-1.72-.58.23-.37-1.21-.58-3.9-.57-2.97,0-4,.18-3.39.57,1.08.7,1,.73-2.79.87-1.7.07-3.67.41-4.37.76-3.2,1.6-8.32,3.48-8.75,3.21-.26-.16-.18-.63.17-1.06.46-.56.45-.83-.06-1-1.2-.4-.04-3.29,1.68-4.2,1.64-.86,4.03-3.17,7.01-6.77,3.95-4.77,8.96-14.03,8.44-15.6-.32-.95,1.04-.93,2.49.04.88.59,2.65.66,7.57.33,12.65-.86,15.46-1.8,15.46-5.19,0-1.89-1.28-3.25-8.82-9.37-4.17-3.39-6.57-4.87-9.33-5.8-5.07-1.69-6.2-2.53-6.9-5.13-.36-1.32-1.92-3.68-3.84-5.8l-3.24-3.58,1.81-3.21c1-1.77,2.6-5.39,3.56-8.05,3-8.28,3.6-14.55,2.02-21.17-1.03-4.34-2.1-10.23-2.1-11.59s-4.02-9.82-6.71-14.08c-1.22-1.92-3.42-4.54-4.89-5.82-5.6-4.86-7.37-7.24-11.72-15.85l-4.37-8.65-.19-10.21c-.1-5.62-.22-10.74-.25-11.38-.03-.64.28-5.44.71-10.67.91-11.24.56-26-.71-29.87-.47-1.44-1.13-3.94-1.46-5.54-1.08-5.24-4.02-14.13-5.95-17.97-3.99-7.95-9.33-13.15-20.4-19.9-8.6-5.24-14.27-11.34-16.05-17.25-.53-1.76-1.33-4-1.78-4.96-2.18-4.66-3.14-8.56-3.52-14.29-.22-3.37-.64-6.74-.92-7.49-.96-2.57.15-2.42,2.88.38,4.31,4.41,6.39,8.28,8.27,15.42.99,3.77,1.59,5.1,2.28,5.08,1.34-.03,2.74-1.23,3.23-2.75.25-.79.88-1.31,1.59-1.31s1.07-.31.93-.73c-.41-1.24-2.24-1.19-3.43.09-.62.67-1.36,1.22-1.64,1.22-.6,0-1.78-3.2-1.78-4.84,0-1.98-4.08-9.77-6.49-12.38-1.26-1.37-3.08-2.81-4.05-3.21s-1.65-1.02-1.53-1.38c.12-.36-.41-1.41-1.19-2.35-.84-1.01-1.3-2.15-1.12-2.82.3-1.13-2.41-6.27-3.3-6.27-.62,0,.05,2.22,1.23,4.08,1.28,2.02,1.82,5.2,2.72,16.33.49,6.04,1.15,10.46,1.75,11.88.53,1.24.82,2.64.63,3.12-.18.48.17,1.82.79,2.99.62,1.17,1.79,3.64,2.6,5.5,1.55,3.54,7.39,11.14,10.13,13.19l1.61,1.2-1.91,1.53c-2.05,1.64-2.75,3.02-5.48,10.75-.96,2.73-2.2,5.74-2.75,6.71-1.4,2.45-2.28,6.97-3.02,15.46-.35,4.01-.88,8.57-1.17,10.14-.3,1.57-.54,3.76-.54,4.87s-.48,2.71-1.06,3.57c-1.65,2.4-8.57,18.02-9.87,22.25-2.57,8.39-3.07,10.4-3.07,12.45s-.1,2.14-1.94,2.14c-4.18,0-11.44-7.11-13.18-12.91-.64-2.14-.8-11.33-.24-13.72.16-.69.73-1.37,1.27-1.51,1.22-.32,4-8.67,4.51-13.56.79-7.51.37-11.27-2.12-19.07-1.35-4.21-1.46-9.45-.25-11.76.48-.92.87-2.03.87-2.47s.98-1.31,2.19-1.95c1.2-.63,3.07-2.23,4.15-3.55l1.96-2.4.81,1.56c1.1,2.12,1.04,2.62-.67,5.67-.81,1.45-1.87,4.44-2.36,6.64-2.22,10.07-3.77,20.48-2.67,17.99.93-2.1,2.37-7.53,2.72-10.21.19-1.44.56-3.15.83-3.79.27-.64.79-2.61,1.17-4.37.76-3.61,2.32-7.1,3.31-7.42.36-.12.83.45,1.03,1.27.4,1.61,1.52,2.04,1.52.59,0-1.03-1.97-5.07-3.6-7.39-1.11-1.57-1.11-1.59.35-3.79,2.24-3.38,5.72-11.81,5.31-12.86-.25-.65-1.09.5-2.72,3.69-4.88,9.56-8.31,14.33-11.95,16.61-2.59,1.62-3.97,1.42-6.23-.9-1.09-1.12-2.51-2.04-3.16-2.04s-1.48-.36-1.85-.81c-.54-.65-.35-.88.95-1.18,2.21-.51,5.98-2.29,5.99-2.82,0-.6-2.77-.55-3.15.06-.17.27-1.52.96-2.99,1.52-2.67,1.02-2.69,1.02-4.15-.35-1.11-1.04-2.14-1.38-4.18-1.38h-2.71l-.44-3.5c-.24-1.92-.75-4.29-1.12-5.25-.92-2.36-4.46-6.08-6.71-7.05-1.87-.81-7.2-6.53-7.2-7.74,0-.37.75-.67,1.66-.67,1.42,0,1.75-.32,2.33-2.25,1.48-4.93.01-6.63-1.65-1.91-1.07,3.04-2.53,3.06-4.57.08-1.32-1.93-1.38-2.4-1.09-8.46.34-7.34,1.28-10.5,5.45-18.42,3.35-6.36,7.15-10.72,12.32-14.15,5.74-3.81,8.68-4.61,15.65-4.25,8.69.45,11.89,1.03,11.89,2.15,0,.3.36.54.8.54s1.42.49,2.19,1.08c.77.59,1.69.98,2.05.85.73-.25,2.89,2.19,4.42,5,.55,1,1.24,1.82,1.55,1.82,1.63,0-2.39-6.33-4.75-7.47-.87-.42-1.83-1.25-2.15-1.84-.32-.6-1.5-1.65-2.63-2.35-1.79-1.11-2.05-1.56-2.05-3.62,0-3.67,3.08-8.91,6.67-11.32,3.11-2.09,5.26-2.44,8.38-1.35,2.97,1.03,10.55,11.29,9.28,12.56-.18.18-.64-.29-1.02-1.04-1.95-3.8-7.99-8-6.35-4.42.33.72,1.47,1.88,2.54,2.58,1.07.7,2.69,2.49,3.62,3.98,4.69,7.57,6.53,10.02,8.54,11.37,1.21.81,3.78,3.31,5.71,5.54,2.76,3.19,3.75,4.87,4.62,7.87,1.68,5.79,1.93,9.7.88,13.7-.88,3.36-4.35,9.45-5.93,10.41-1.05.64-.97,2.7.11,3.12,1.07.41,2.62-.77,2.62-1.99,0-.49.82-2.22,1.83-3.86,3.9-6.33,4.69-11.03,3.2-18.86-1.06-5.55-2.6-8.38-7.27-13.31-7.72-8.15-8.34-9.05-10.82-15.63-.83-2.2-2.96-5.82-5.02-8.52-3.21-4.21-3.89-4.78-6.56-5.58-3.67-1.09-4.21-1.07-7.2.26-4.93,2.2-8.9,7.8-9.51,13.43-.34,3.13-.39,3.2-2.1,3.08-6.02-.42-13.53-.08-16.39.75-8.73,2.54-17.56,10.45-22.11,19.81-3.64,7.49-4.64,11.51-4.65,18.64v6.42s2.58,4.96,2.58,4.96c2.71,5.19,6.85,10.19,8.99,10.85,4.05,1.26,6.1,4.33,6.85,10.3.62,4.96,1.96,6.45,5.29,5.93,1.69-.26,2.26-.11,2.72.73.32.59,2.07,1.85,3.89,2.81,1.83.96,4.11,2.47,5.07,3.35.96.88,2.38,1.6,3.14,1.6h1.39l-1.23,2.36c-2.01,3.86-2.01,6.58.01,13.33,2.45,8.19,2.85,12.55,1.56,17.14-1.01,3.6-1.31,4.39-5.15,13.82-3.18,7.78-4.14,11.14-4.11,14.35.03,3.48,1.52,7.77,3.81,10.97.9,1.25,1.63,2.66,1.63,3.12s-.76,2.46-1.69,4.43c-2.77,5.87-4.32,11.47-5.67,20.5-.3,2.02-2.32,14.09-3.22,19.25-.34,1.92-1.24,5.47-2.01,7.87-.77,2.41-1.4,4.83-1.4,5.4,0,.56-.24,1.02-.53,1.02-.74,0-1.23-1.53-1.23-3.86,0-2.92-3.85-13.89-6.43-18.3-1.22-2.09-4.01-5.78-6.2-8.22-2.2-2.43-5.48-6.5-7.3-9.04-1.82-2.54-4.67-6.45-6.33-8.7-2.53-3.42-4.98-7.28-10.67-16.9-.38-.64-1.36-2.21-2.19-3.5-.83-1.29-2.76-4.84-4.3-7.88-1.54-3.05-3.04-5.85-3.34-6.22-1.73-2.18-6.54-15.25-7.75-21.07-1.12-5.38-2.11-7.28-4.59-8.82-2.6-1.61-5.56-1.53-10.59.27-9.56,3.44-11.01,3.74-20.12,4.29-6.78.4-9.92.85-12.54,1.8-3.89,1.41-4.32,1.46-7.43.85-1.59-.31-2.57-.17-3.62.53-.8.52-1.99.95-2.66.95s-1.89.45-2.73,1c-.84.55-2.03,1.08-2.66,1.17-.62.1-1.69.56-2.38,1.04-.68.48-1.7.87-2.26.87-2.75,0-8.64,3.97-8.64,5.82,0,1.3-1.16,2.34-2.6,2.33-4.14-.03-13.42,2.91-17.95,5.68-1.34.82-3.13,1.34-4.67,1.35-3.28.03-4.36.72-8.18,5.23-3.5,4.15-5.14,6.96-5.41,9.28-.09.83-.36,2.48-.59,3.67-.37,1.92-.22,2.36,1.44,4.02l1.86,1.86,4.78-.44c2.63-.24,8.06-.49,12.07-.55,4.01-.06,12.15-.44,18.08-.85,22.07-1.5,23.36-.75,38.51,22.35,2.72,4.15,6.57,9.92,8.56,12.83,1.99,2.91,5.51,8.43,7.82,12.28,6.26,10.42,12.59,18.87,17.82,23.77,2.76,2.59,7.4,9.88,10.11,15.89,4.18,9.29,10.28,18.98,11.31,17.96.19-.19,2.25,1.21,4.58,3.12,4.63,3.79,10.91,7.79,12.22,7.79,3.26,0,1.63,5.56-2.44,8.35-1.44.99-5.12,3.67-8.17,5.96-6.83,5.13-7.76,5.64-9.61,5.17-1.08-.27-1.47-.14-1.47.5,0,.48.59,1.03,1.31,1.22,3.07.82,3.56.58,9.92-4.83,4.64-3.96,12.09-8.53,15.13-9.28,3.9-.97,5.21-.86,8.15.7,3.23,1.72,5.15,2.35,5.15,1.69,0-.28-2.3-1.66-5.1-3.07-5.47-2.74-9.48-5.6-9.48-6.74,0-.39-.55-1.07-1.21-1.51-.72-.48-1.31-1.63-1.46-2.84-.14-1.12-1.17-4.78-2.29-8.13-1.12-3.35-2.04-6.76-2.04-7.58,0-2.93-1.7-9.54-3.24-12.58-2.12-4.19-1.57-5.09,1.11-1.81,2.09,2.55,3.88,3.48,3.88,2.02,0-.37-1.33-2.07-2.94-3.79-1.68-1.78-3.71-4.8-4.74-7.05-.99-2.17-2.84-6.17-4.12-8.9-2.94-6.28-5.72-13.14-7.43-18.37-1.38-4.21-9.49-23.59-10.74-25.66-.39-.64-1.45-3-2.37-5.25-.92-2.25-3.62-8.13-6-13.09-3.71-7.71-4.83-9.49-7.79-12.38-1.9-1.86-4.44-3.88-5.64-4.49-2.89-1.47-8.09-2.99-10.24-2.99-.95,0-2.8-.51-4.12-1.14-7.4-3.51-10.97-4.7-15.84-5.25-2.83-.32-5.28-.46-5.43-.31-.65.65.76,1.06,5.01,1.43,2.72.24,5.58.91,7.16,1.67,5.54,2.67,8.47,4.51,9.05,5.7,2.8,5.71,29.46,34.63,31.93,34.64,2.06.01,7.95,12.71,14.37,30.98,1.31,3.73,3.68,9.56,5.27,12.96,5.75,12.31,9.35,22.87,10.53,30.84,1.15,7.78,3.89,16.86,5.97,19.82,1.48,2.1-.28,1.69-4.35-1.02-2.33-1.55-5.58-3.95-7.22-5.33-1.64-1.38-3.39-2.51-3.89-2.51s-1.67-.92-2.59-2.03c-1.96-2.38-7.16-10.98-7.16-11.84,0-.96-4.5-10.07-6.7-13.54-2.02-3.2-5.35-7-6.13-7-.67,0-10-12.52-12.94-17.37-1.5-2.47-3.84-6.34-5.21-8.58-3.81-6.25-20.32-31.16-22.62-34.12-3.77-4.86-8.12-8.77-11.55-10.37-3.33-1.56-3.57-1.58-13.59-1.45-5.61.08-12.61.42-15.54.76-2.93.34-10.28.67-16.33.74l-11,.11.18-4.3c.12-2.77.48-4.6,1.02-5.14.46-.46.84-1.15.84-1.53s.52-1.02,1.17-1.42,1.17-.98,1.17-1.3,1.14-1.75,2.52-3.2c2.37-2.47,2.72-2.64,5.6-2.64,2.06,0,3.58-.36,4.62-1.09,3.28-2.31,6.55-3.55,12.4-4.72,8.26-1.65,8.05-1.55,9.3-4.46.91-2.11,1.6-2.8,3.8-3.74,1.48-.63,3.14-1.15,3.69-1.15s1.52-.39,2.14-.86c1.81-1.37,2.74-1.07,5.95,1.94,2.3,2.16,3.96,3.13,6.98,4.07,4.14,1.29,9.5,2.21,9.5,1.65,0-.18-2.68-1.16-5.95-2.17-3.81-1.18-6.86-2.53-8.49-3.78-1.4-1.07-2.86-2.05-3.24-2.18-1.17-.39.73-2.17,2.32-2.17.78,0,2.16-.56,3.08-1.23,1.55-1.15,1.88-1.18,4.61-.48,2.36.6,3.11.61,3.82.02,1.87-1.55,6.82-2.51,15.52-3,9.16-.52,10.73-.85,20.12-4.29,5.35-1.96,7.39-1.94,9.64.09,1.52,1.36,2.04,2.64,3.48,8.51.93,3.8,2.19,8,2.8,9.33.61,1.33,1.59,3.61,2.19,5.05,3.49,8.47,17,32.01,23.27,40.54,2.12,2.89,4.93,6.8,6.25,8.68,1.31,1.89,4.04,5.24,6.07,7.44,5.99,6.53,8.83,11.26,11.49,19.16,2.46,7.29,3.33,13.03,2.95,19.29-.35,5.64.24,9.12,1.76,10.38.4.33,3.07.65,5.95.7,2.88.06,6.96.37,9.08.69,2.56.39,4.2.39,4.89,0,.57-.32,1.86-.4,2.86-.17,2.17.49,3.28.2,3.28-.85,0-.5-.44-.66-1.26-.44-.86.23-1.13.12-.84-.35.23-.37.86-.68,1.4-.68,1.77,0,7.28-7.17,13.76-17.9.93-1.54,1.81-2.47,1.95-2.06.49,1.41-2.81,11.53-5.55,17.05-2.72,5.48-2.78,5.54-5.05,5.73-1.26.1-2.83.56-3.48,1.02s-2.02.83-3.03.83-3.53.64-5.59,1.41c-6.19,2.33-12.48,1.38-16.01-2.43-1.28-1.39-1.38-1.41-1.38-.3,0,1.39,3.33,4.1,6.36,5.19,3.06,1.1,6.35.96,9.98-.41,1.76-.67,4.64-1.55,6.41-1.96,8.95-2.1,9.43-2.28,10.81-4.09,2.19-2.88,5.43-10.2,6.45-14.61,2.43-10.46,4.43-18.09,4.86-18.64.26-.33.92-2.18,1.47-4.1.54-1.92,1.49-4.57,2.11-5.87.62-1.3,1.13-2.66,1.13-3.01,0-1.29,3.51-8.4,6.1-12.37,2.87-4.4,4.07-6.99,3.48-7.56-.42-.41-1.08.44-4.6,5.92-1.39,2.17-3.13,5.38-3.86,7.14-.73,1.76-1.63,3.2-2,3.2s-1-1.44-1.39-3.2-.94-3.33-1.2-3.5c-.53-.33-.34.73.94,5.24.97,3.41.54,9.04-.69,9.04-.83,0-1.16.8-1.77,4.37-.58,3.39-1.37,4.57-1.4,2.07-.03-3.88-1.27-.88-2.01,4.87-.45,3.55-1.04,5.88-1.6,6.33-1.45,1.19-4.24,5.12-6.94,9.76-3.2,5.5-10.08,12.51-13.11,13.34-1.45.4-3.15.41-5.16.02-1.65-.32-4.21-.42-5.7-.22-1.62.22-2.86.12-3.08-.24-.22-.36-1.53-.46-3.24-.26-2.78.33-2.88.29-3.32-1.34-.88-3.26.15-12.11,1.62-13.98,1.51-1.91,4.73-13.83,6.13-22.7.82-5.16,1.48-9.09,3.41-20.12.55-3.13,1.7-7.06,2.65-9.04.92-1.92,2.05-4.65,2.51-6.06.48-1.49,1-2.28,1.24-1.88.23.37,2.03,1.49,4,2.48,3.21,1.62,3.96,1.77,7.17,1.47l3.59-.34,1.82,2.26,1.82,2.26-.92,3.11c-2.51,8.46-3.98,12.73-5.53,16.05-.93,2-1.7,3.78-1.7,3.96s-1.31,3.1-2.92,6.49-2.92,6.49-2.92,6.88-.24.96-.53,1.26c-.29.3-.93,1.74-1.43,3.18-.94,2.73-1.92,5.29-5.05,13.12-1.55,3.88-3.5,10.08-3.5,11.11,0,.14.24.26.54.26s1.11-1.77,1.81-3.94c1.92-5.98,4.76-11.49,6.05-11.72,2.03-.38,8.85-5.15,11.06-7.74,1.2-1.4,3.54-3.35,5.21-4.34,2.18-1.28,3.81-2.92,5.79-5.83,3.38-4.97,3.85-7.42,2.32-12.22-.61-1.92-1.87-5.96-2.8-8.96-.93-3-2.28-6.1-3-6.88-.72-.78-1.32-1.95-1.32-2.61,0-1.13.08-1.12,1.74.27,2.55,2.14,5.4,2.88,10.12,2.61,4.52-.25,10.45-2.58,11.14-4.36.2-.52.53-4.56.73-8.98l.37-8.03-3.47-3.99c-5.52-6.34-6.4-7.78-9.48-15.57-2.4-6.06-2.82-7.64-2.38-8.97.66-1.98,2.2-13.53,2.87-21.54.38-4.52.84-6.6,1.96-8.75.81-1.55,2.21-5.14,3.12-7.97,2-6.25,4.09-10.13,6.06-11.3,1.41-.83,1.73-.71,7.87,3.11,3.73,2.32,7.86,5.47,9.9,7.57,4.15,4.26,8.03,10.92,9.55,16.41.6,2.17,1.52,5.26,2.03,6.86,2.7,8.39,3.53,13.87,3.63,23.86.05,5.42-.02,10.32-.17,10.87-.15.56-1.95,2.36-4,4.01-2.06,1.65-3.74,3.25-3.74,3.56,0,1.28,1.89.41,4.46-2.05,1.5-1.44,2.83-2.53,2.94-2.42.11.11-.04,2.01-.34,4.23-.9,6.72-.76,23.77.22,28,.49,2.09,2.67,7.22,4.99,11.74,3.75,7.28,4.58,8.45,9.01,12.69,4.54,4.35,10.53,12.47,10.1,13.71-.1.3-2.26-1.35-4.79-3.67-4.11-3.77-4.5-4.3-3.65-5.01,1.32-1.1,1.27-2.66-.07-2.08-.56.24-3.37,1.07-6.24,1.84-2.87.77-5.51,1.64-5.86,1.93-.35.29-1.19.39-1.86.21-1.43-.37-1.83.16-3.24,4.3-.95,2.79-.96,3.25-.16,5.17.75,1.79,1.1,2.07,2.37,1.82,1.73-.33,2.29.53,4.36,6.73,1.29,3.86,2.03,4.99,2.76,4.26.45-.45-1.28-5.44-3.23-9.35-2.23-4.48-3.81-9.71-3.13-10.38.62-.62,4.94,8,6.77,13.52.58,1.74,1.33,2.97,1.82,2.97.62,0,.74-.42.46-1.6-.21-.88-.61-1.85-.89-2.16-.88-.96-.56-2.34.72-3.14,2.35-1.47.04-6.67-3.76-8.47-1.88-.89-3.73-2.55-3.24-2.9.13-.09,2.15-.48,4.51-.87l4.28-.7,5.24,4.53c2.88,2.49,5.85,4.9,6.61,5.36,2.16,1.31,3.6,4.58,4.39,9.95.4,2.73,1.12,6.07,1.61,7.44.68,1.91.79,3.73.49,7.9-.48,6.48-2.26,11.98-6.87,21.15-3,5.98-3.31,6.99-4.22,13.71-1.87,13.78-2.79,19.53-4.47,27.96-2.9,14.51-5.14,28.22-5.18,31.64-.01.88.27,1.6.63,1.6s.52-.5.36-1.12c-.39-1.5,2-3.73,5.7-5.31,1.6-.69,3.7-1.6,4.67-2.02,3.77-1.68,9.15-2.52,18.37-2.87,9.29-.36,22.59-2.32,31.5-4.66,7.63-2,12.01-5.04,15.14-10.51,1.75-3.06,3.61-4.41,6.06-4.41,1.64,0,5.93,2.72,8.25,5.24,2.98,3.23,5.94,4.67,13.21,6.47,6.74,1.67,11.09,3.36,11.86,4.61.2.33,1.25.59,2.34.59,2.2,0,2.35.14,2.82,2.62.3,1.55.05,1.96-2.16,3.56-2.57,1.87-8.27,3.15-13.99,3.15-1.37,0-4.97.54-8,1.19-3.02.66-9.44,1.41-14.25,1.69-8.5.48-8.98.58-17.01,3.47-4.55,1.64-8.39,2.98-8.55,2.98s-2.53,1.05-5.28,2.33c-2.75,1.28-5.12,2.33-5.26,2.33s-3.23,1.44-6.87,3.21c-3.64,1.76-6.91,3.21-7.28,3.21-.36,0-1.41.39-2.33.87-.92.48-2.08.87-2.57.87-.5,0-1.15.24-1.46.53-1.35,1.28-18.74,6.02-27.97,7.63-2.25.39-4.71.96-5.48,1.26-.77.3-4.36.71-7.98.9-6.28.34-6.73.28-9.68-1.17-2.7-1.33-3.47-2.13-5.95-6.22-1.58-2.6-3.2-6.19-3.64-8.04-.98-4.17-.99-3.95.11-5.05,1.66-1.66,2.4-1.07,2.79,2.21.36,3.09,1.95,7.75,2.46,7.23.15-.15-.13-1.21-.61-2.35-.48-1.15-1.04-3.53-1.25-5.3l-.38-3.21,3.58-3.98c3.65-4.05,5.11-6.26,14.04-21.18,4.9-8.2,9.4-17.19,13.72-27.4,1.15-2.72,3.11-6.66,4.35-8.75,1.24-2.09,2.45-4.43,2.67-5.19,1.62-5.46-7.02,9.38-9.71,16.67-.69,1.86-1.5,3.7-1.8,4.08-.3.39-1.29,2.67-2.19,5.08-.9,2.41-3.6,7.34-6,10.96-2.4,3.62-4.91,7.63-5.56,8.92-1.44,2.8-8.87,13.57-10.4,15.06-6.33,6.16-11.7,10.1-17.22,12.61-2.04.93-4.62,2.31-5.74,3.07-2.36,1.6-6.02,3.39-6.93,3.39-.35,0-4.24,1.15-8.66,2.56-4.42,1.41-10.53,3.01-13.57,3.57-3.05.56-6.67,1.37-8.04,1.82-1.37.44-2.83.8-3.23.8s-1.77.53-3.04,1.18c-5.92,3.02-8.13,3.49-16.77,3.55-7.1.05-8.87-.13-12.37-1.25-4.76-1.53-15.99-7.02-18.9-9.24-1.74-1.33-2.68-1.56-7.09-1.73-7-.28-12.33.66-21.55,3.79-9,3.06-12.84,4.79-19.83,8.93-6.97,4.13-9.66,4.93-16.62,4.96-6.82.02-10.8-1.07-14.95-4.12-1.49-1.09-2.95-1.98-3.25-1.98-.68,0-3.08-2.5-3.11-3.25-.01-.3-.7-1.33-1.52-2.3-1.03-1.2-1.37-1.39-1.07-.58.24.64.55,1.82.7,2.62.26,1.39.22,1.38-.88-.29-1.46-2.23-4.79-5.38-4.79-4.53,0,1.39,3.93,5.76,6.19,6.86,1.31.64,3.24,1.9,4.29,2.79,1.05.89,4.3,2.8,7.22,4.24,2.92,1.44,5.53,3.01,5.79,3.48.52.93,3.65,1.19,4.17.34.17-.28,2.07-.7,4.22-.93,2.14-.23,4.31-.65,4.82-.94,2.09-1.2,6.64-2.86,7.82-2.86,1.43,0,8.88-3.37,8.43-3.82-.16-.16-1.53.24-3.05.89-5.91,2.53-3.37.42,3.61-2.99,2.84-1.39,5.64-2.36,6.85-2.36,1.13,0,2.05-.21,2.05-.46s.79-.62,1.75-.82c.96-.2,2.54-.52,3.5-.72.96-.2,1.75-.53,1.75-.75,0-.62,5.12-1.96,5.83-1.52.35.22,1.02.08,1.49-.31.49-.41,3.56-.83,7.28-1.01l6.44-.31,3.04,2.08c1.67,1.14,4.62,2.78,6.54,3.63s4.3,1.91,5.27,2.35c.97.44,3.86,1.37,6.42,2.06s4.91,1.47,5.23,1.72c.85.66,16.6,1.02,16.2.37-.19-.3.36-.4,1.26-.23,1.02.19,1.7.03,1.89-.47.16-.43,1.45-.95,2.85-1.16,1.41-.21,2.86-.75,3.23-1.19s1.18-.81,1.8-.81,1.88-.39,2.8-.87c1.07-.55,2.36-.73,3.56-.49,1.47.29,1.78.21,1.41-.39-.37-.6,0-.69,1.69-.41,1.63.26,2.25.13,2.51-.54.26-.67.84-.8,2.3-.53,1.21.23,1.96.13,1.96-.24,0-.34.41-.61.91-.61,1.26,0,6.27-1.56,10.53-3.29,2.48-1,4.06-1.32,5.19-1.03,1.05.26,1.5.2,1.26-.18-.22-.35.6-.72,2-.91,1.3-.17,3.43-1.06,4.74-1.97,4.56-3.17,6.02-4.04,8.62-5.15,1.44-.61,3.4-1.75,4.35-2.52l1.73-1.4,1.24,4.06c2.07,6.78,6.52,13.47,9.6,14.45.64.2,1.16.71,1.16,1.13,0,1.08,5.17,1.65,9.2,1.01,1.83-.29,3.99-.57,4.79-.61,4.4-.23,6.61-.62,6.99-1.22.27-.44,1.15-.55,2.48-.3,1.27.24,2.21.14,2.45-.25.22-.35,1.02-.64,1.78-.64s1.54-.24,1.72-.53c.18-.29,1.7-.71,3.39-.94,1.68-.23,3.32-.6,3.64-.83s2.16-.88,4.08-1.44c1.92-.56,4.02-1.24,4.67-1.52s2.35-.9,3.79-1.37c2.44-.8,5.69-2.05,8.46-3.26.64-.28,1.95-.77,2.92-1.08s2.25-.77,2.87-1.02c.79-.32.99-.25.69.23-.23.38-.27.68-.08.68.73,0,7.61-3.67,7.8-4.16.11-.28.43-.37.72-.19.29.18,1.25-.1,2.14-.61l1.62-.93-3.5.65,1.68-.93c1.39-.77,1.76-.8,2.17-.15.4.64.97.54,2.99-.53,1.37-.72,2.9-1.31,3.4-1.31.5,0,1.15-.22,1.46-.49.66-.58,2.53-1.27,8.43-3.09,2.41-.74,4.79-1.81,5.3-2.37.68-.75,1.46-.93,2.96-.68,1.37.22,2.31.05,2.88-.52.61-.61,1.57-.75,3.46-.49,1.44.2,4.05.13,5.82-.14,1.76-.27,4.45-.47,5.98-.45,1.52.02,2.77-.18,2.77-.46s2.17-.69,4.81-.92c7.08-.6,14.56-1.75,14.13-2.17-.2-.2.14-.53.77-.73.63-.2,1.81-.95,2.63-1.66.82-.71,2.16-1.77,2.98-2.34,1.15-.81,1.5-1.55,1.5-3.22,0-3.15-1.34-4.77-3.93-4.77ZM299.7,302.34c-.29-1.27-.41-2.5-.27-2.74.28-.46,4.22.98,5.17,1.88.3.29,1.27.53,2.15.53,1.05,0,1.71.38,1.95,1.11.19.61,1,1.27,1.79,1.47.95.24,1.44.77,1.44,1.58,0,.9.25,1.12.98.84.59-.23,1.46.08,2.19.78.66.64,2.45,2.25,3.98,3.6,5.03,4.43,4,5.06-9.24,5.69-5.75.27-10.61.41-10.81.31-.2-.1,0-1.7.43-3.55.92-3.89,1.01-8.22.25-11.5ZM113.99,191.52c-.29.76-.66.57-1.93-1-.86-1.07-5.17-5.62-9.57-10.11s-9.25-9.74-10.78-11.66c-1.53-1.92-4.18-5.11-5.89-7.09-1.71-1.97-3.12-3.71-3.12-3.86,0-.57,8.69,1.78,11.34,3.06,4.86,2.35,8.61,6.65,12.29,14.07,1.81,3.66,3.96,8.23,4.77,10.15.81,1.92,1.87,3.95,2.36,4.5.49.55.72,1.42.53,1.94ZM194.24,177.46c-.71-.5-1.53-.77-1.81-.59-.55.34-2.67-2.62-4.66-6.51-.8-1.57-1.25-3.53-1.25-5.49,0-2.88,1.01-6.92,1.73-6.92.18,0,.23,1.94.11,4.3-.27,5.4.93,8.39,5.2,12.91,2.97,3.14,3.25,4.11.66,2.3ZM212.22,191.04c.22.25,1.53,4.12,2.92,8.61,4.26,13.81,3.36,17.93-5.12,23.38-1.68,1.08-3.98,2.99-5.11,4.25s-3.93,3.65-6.21,5.31c-3.64,2.66-4.11,2.86-3.84,1.67.37-1.61,3.96-10.41,6.27-15.36,5.92-12.66,9.88-23.07,9.89-26,0-1.66.58-2.55,1.2-1.86ZM222.09,152.21c2.55,6.6,3.89,8.77,8.65,13.96l2.99,3.26-.55,5.31c-.3,2.92-.39,5.72-.2,6.22.19.5.03,1.3-.37,1.78-.5.6-.52.87-.06.87.36,0,.65.49.65,1.1,0,.75-1.02,1.6-3.26,2.69-2.64,1.29-4.03,1.59-7.31,1.56-3.43-.03-4.54-.32-7.27-1.88-1.86-1.06-3.86-2.8-4.72-4.11-.83-1.25-1.82-2.27-2.2-2.27-.75,0-.71-.99.38-8.17.69-4.57,2.47-9.68,6.34-18.18,1.27-2.78,2.3-5.28,2.3-5.56,0-.63,1.8-3.23,2.06-2.98.1.1,1.27,2.98,2.59,6.39ZM282.21,339.02c.01-1.26.28-3.48.59-4.92.31-1.44.95-4.86,1.41-7.58s1.09-6.01,1.39-7.29c1.45-6.2,1.88-8.54,2.4-13.12.31-2.73.95-7.84,1.43-11.37.48-3.53.88-6.53.89-6.68.07-.96,4.4,4.29,5.51,6.67,1.27,2.74,1.34,3.49,1.14,11.96-.33,14.06-.32,13.95-2.52,17.79-3.2,5.57-8.53,13.26-10.48,15.13l-1.79,1.71.03-2.3Z"/>
  <path class="cls-1" d="M235.64,165.86c.36.78.85,1.43,1.09,1.43.75,0,1.19-6.73,1.3-20.12.1-12.31.05-12.95-1.25-15.84-.75-1.65-1.99-3.6-2.77-4.33l-1.41-1.33,1.51,3.71c2.39,5.87,2.6,9.6,1.48,26.13-.44,6.48-.42,9.32.05,10.35Z"/>
  <path class="cls-1" d="M233.07,108.49c-.14-.73-.54-.43-1.49,1.12-1.08,1.76-1.3,2.95-1.3,7.11,0,2.75.24,5.15.52,5.32.86.53,1.23-1.26,1.23-5.88,0-2.4.28-4.89.62-5.52.34-.64.53-1.6.43-2.15Z"/>
  <path class="cls-1" d="M206.62,302.42c1.84-2.43,4.08-17.31,2.74-18.14-.37-.23-.77-.07-.89.35-.12.42-.53,3.96-.9,7.87-.37,3.91-.91,7.98-1.21,9.04-.47,1.71-.44,1.81.27.88Z"/>
  <path class="cls-1" d="M85.05,145.12c0-1.22-3.03-2.41-8.23-3.22-6.99-1.09-10.96-2.31-13.39-4.1-2.04-1.51-2.87-1.77-2.87-.89s3.49,3.53,5.15,3.89c.86.19,2.74.81,4.18,1.39,1.44.58,4.82,1.36,7.51,1.74,2.69.38,5.51.93,6.27,1.22.86.32,1.38.31,1.38-.03Z"/>
  <path class="cls-1" d="M230.74,37.54c.16-.16-1.01-1.54-2.58-3.07-1.57-1.53-4.4-4.56-6.28-6.72-1.88-2.17-3.7-3.94-4.06-3.94s-.06.41.66.91c.72.5,1.18,1.11,1.03,1.36-.74,1.19,10.25,12.42,11.22,11.46Z"/>
  <path class="cls-1" d="M214.98,68.02c.55-1.47.86-1.72,1.41-1.17.39.39,1.11.7,1.61.69.7-.02.62-.26-.34-1.06-.73-.61-1.42-2.1-1.67-3.63-.6-3.62-3.4-8.71-4.79-8.71-.32,0-.99-.46-1.49-1.02-.82-.92-.83-1.26-.04-3.35,1.11-2.98,1.59-4.96,1.18-4.96-.17,0-.86,1.45-1.53,3.23-.66,1.78-1.21,3.46-1.21,3.74,0,.56-2.28.13-3.25-.62-1.16-.9-4.68,2.17-6,5.24-.69,1.61-1.52,3.08-1.84,3.28-.32.2-.58.87-.58,1.49s-.39,1.13-.87,1.13-.87-.2-.87-.44c0-.58-2.68-1.67-5.2-2.13-1.96-.35-1.97-.34-.93.81.58.64,1.55,1.17,2.15,1.17s1.25.39,1.43.87c.22.57,1.13.87,2.61.87,2.71,0,4.47-1.5,5.31-4.54.31-1.14,1.3-2.8,2.18-3.68,1.42-1.42,1.86-1.55,3.75-1.13,2.9.65,4.65,1.89,6.19,4.38,1.1,1.78,1.26,2.74,1.09,6.54-.22,4.82.52,6.12,1.7,2.98Z"/>
  <path class="cls-1" d="M121.61,236.69c1.4,0,.79-1.18-2.87-5.56-3.1-3.71-5.12-5.3-5.12-4.02,0,1.49,6.75,9.58,7.99,9.58Z"/>
  <path class="cls-1" d="M211.38,102.89c-.19.51-.35,1.8-.35,2.88s-.22,2.1-.49,2.26c-.62.38-.83,6.21-.32,8.93.68,3.62,1.36.8,1.77-7.36.36-7.21.22-8.86-.61-6.72Z"/>
  <path class="cls-1" d="M97.39,208.11c3.6,5.29,6.62,8.77,8.51,9.81,2.09,1.15,2.28.36.36-1.52-4.97-4.9-8.38-8.91-8.72-10.26-.21-.84-.75-1.53-1.19-1.53s-.81-.21-.81-.46c0-.69-3.45-4.59-3.46-3.91,0,.32.52,1.24,1.16,2.04.65.8,2.51,3.43,4.15,5.83Z"/>
  <path class="cls-1" d="M69.01,148.95c8.63,1.58,9.24,1.64,8.79.92-.22-.36-1.16-.66-2.08-.66-1.58,0-9.78-1.65-14.88-2.99-1.28-.34-3.93-1.64-5.87-2.9-3.81-2.46-5.8-3.06-4.17-1.26,1.75,1.93,7.5,5,10.23,5.46,1.5.25,5.1.9,7.98,1.42Z"/>
  <path class="cls-1" d="M176.91,75.06c1.12-.66,2.04-1.31,2.04-1.44,0-.81-2.58.07-5.56,1.91-1.91,1.18-3.61,2.24-3.76,2.36-.57.47,1.49,1.26,4.26,1.64,2.02.28,3.39.9,4.63,2.08.97.93,2.1,1.69,2.52,1.69,1.57,0,1.3-1.09-.85-3.42-1.54-1.66-2.71-2.41-3.78-2.41-2.14,0-1.94-.98.49-2.41Z"/>
  <path class="cls-1" d="M207.05,106.63c-.35,0-.91.98-1.24,2.19-.33,1.2-.61,3.04-.61,4.09,0,1.05-.32,2.41-.71,3.03-.55.88-.55,1.87,0,4.55.39,1.88.71,4.12.71,4.99s.3,1.57.67,1.57c.48,0,.55-1.62.26-5.88-.28-4.1-.2-6.13.26-6.69.92-1.11,1.5-7.85.67-7.85Z"/>
  <path class="cls-1" d="M204.44,170.2c.51,0,1.2-2.75,4.23-16.99.78-3.67.99-6.39.76-10.06-.17-2.77-.5-5.03-.73-5.03s-.59,1.77-.8,3.94c-.87,9-1.5,13.45-2.33,16.6-1.16,4.38-1.86,11.54-1.13,11.54Z"/>
  <path class="cls-1" d="M183.2,59.68c.9-1.12,1.95-2.04,2.34-2.04.84,0,2.24-2.05,1.74-2.55-.19-.19-.94.24-1.67.96-1.62,1.6-4.68,3.93-5.15,3.93-.57,0-.39-2.24.2-2.6,1.12-.69,5.76-9.65,5.01-9.65-.14,0-1.01,1.12-1.94,2.48s-2.16,3.4-2.72,4.52c-1.48,2.96-3.23,4.67-4.77,4.67-.79,0-1.74.6-2.31,1.48-1.03,1.57-.67,2.71.48,1.55.38-.38,2.15-.69,3.93-.69,3,0,3.36-.15,4.87-2.04Z"/>
  <path class="cls-1" d="M191.78,21.51c-.8,0-2.25.57-3.21,1.25-3,2.14-5.51,4.64-10.74,10.69-5.5,6.36-8.81,11.38-10.19,15.45-2.12,6.26-3.12,9.9-2.72,9.9.24,0,1.19-2.3,2.11-5.1,2.24-6.84,4.94-11.13,12.68-20.13,4.47-5.2,7.6-8.27,10.01-9.81,2.88-1.85,3.25-2.25,2.05-2.24Z"/>
  <path class="cls-1" d="M43.98,146.79c-1.83-.15-2.68.01-2.68.49,0,.75,1.64,1.1,7.15,1.56,1.85.15,4.83.95,6.63,1.78,4.81,2.2,6.02,2,3.21-.54-1.24-1.12-2.52-2.04-2.84-2.04-1.13,0-5.73-2.88-7.42-4.64-1.69-1.77-2.65-2.23-2.65-1.27,0,.28.56,1.21,1.24,2.08,1.63,2.07.82,2.85-2.65,2.58Z"/>
  <path class="cls-1" d="M104.29,375.31c-2.41,1.48-5.1,3.07-5.98,3.53-.88.46-1.85,1.29-2.15,1.86-.46.86-.08.8,2.45-.41,3.55-1.7,10.65-6.18,11.2-7.07.81-1.3-1.29-.51-5.51,2.1Z"/>
  <path class="cls-1" d="M113.77,344.15c.4-.32,2.5-.77,4.66-.99,2.51-.26,4.4-.8,5.25-1.51,1.57-1.31,1.26-1.34-3.45-.32-2.15.46-3.82.56-4.14.25-.32-.32-.83-.17-1.27.37-1.15,1.39-1.77,1.08-1.77-.88,0-3.25-1.25-6.83-2.96-8.46-1.3-1.24-2.4-1.67-4.83-1.87-2.1-.17-3.29-.02-3.59.45-.58.93.86,1.82,2.24,1.39.59-.18,1.95-.17,3.02.03,1.58.3,2.18.85,3.19,2.93,1.09,2.26,1.2,3.22.9,8-.62,9.93-1.53,13.29-4.93,18.27-.66.96-1.19,2.27-1.18,2.92.02.96.36.78,2-1.07,3.54-4.01,6.14-10.72,6.14-15.86,0-1.74.31-3.3.73-3.63Z"/>
  <path class="cls-1" d="M289.17,258.78c1.56-2.16,4.09-7.89,4.09-9.28,0-.79-.92-.7-1.56.17-.3.4-1.43,2.52-2.52,4.72-2.33,4.7-4.97,7.09-9.19,8.32-1.68.49-3.06,1-3.06,1.12s1.38.07,3.06-.12c4.13-.47,7.1-2.06,9.18-4.92Z"/>
  <path class="cls-1" d="M197.32,344.63c-2.25.58-6.44,2.23-9.33,3.67-2.89,1.44-6.82,3.1-8.75,3.68-3.2.98-3.34,1.08-1.61,1.25,2.48.24,8.81-1.39,10.67-2.74,2.03-1.48,6.19-3.56,7.11-3.56.42,0,2.73-.77,5.13-1.72,5.1-2,3.45-2.3-3.22-.58Z"/>
  <path class="cls-1" d="M135.53,356.18c-2.49,1.17-9.35,6.99-8.84,7.5.15.15,2.06-1.15,4.25-2.88,2.19-1.74,5.23-3.76,6.76-4.49,3.78-1.81,4.2-2.78,3.31-7.55-.93-4.93-1.76-6.81-4.29-9.71-1.41-1.61-2.05-2.03-2.06-1.35-.01.54.24,1.15.56,1.35.96.59.66,2.37-.58,3.5-1.2,1.09-1.57,2.62-.64,2.62.29,0,1.07-.92,1.73-2.04,1.31-2.22,2.74-2.78,2.24-.87-.17.64-.09,1.89.18,2.77.27.88.8,2.99,1.18,4.69.81,3.64.28,4.54-3.78,6.45Z"/>
  <path class="cls-1" d="M235.65,325.68c-.72.5-2.25,2.4-3.41,4.23-2.93,4.62-7.02,9.31-8.99,10.33-.91.47-2.53.86-3.59.86-1.06,0-2.84.25-3.97.55-1.12.3-2.93.67-4.02.83-1.09.16-2.27.6-2.62.99-.5.54-.24.62,1.11.37.97-.18,4.12-.51,7-.74,5.77-.45,6.46-.7,10.01-3.59,1.93-1.57,7.98-9.77,10.35-14.01.56-1-.3-.92-1.87.18Z"/>
  <path class="cls-1" d="M243.38,226.55c1.45-2.95,2.64-5.62,2.64-5.93s.94-1.97,2.09-3.67c2.36-3.5,2.38-4.38.06-1.95-1.55,1.62-9.89,17.65-9.42,18.11.62.62,2.2-1.62,4.63-6.56Z"/>
  <path class="cls-1" d="M140.73,363.43c.52-2.78,2.29-6.27,4.66-9.21,1.03-1.28,2.2-2.93,2.58-3.66.43-.81,2.63-2.22,5.63-3.61,4.65-2.15,6.19-3.53,3.91-3.51-.56,0-2.07.49-3.35,1.07-1.28.58-3.12,1.25-4.08,1.49-2.15.53-4.37,2.52-4.37,3.91,0,1.28-2.02,4.85-4.17,7.36-1.76,2.06-3.05,5.9-2.48,7.38.59,1.55,1.25,1.07,1.68-1.22Z"/>
  <path class="cls-1" d="M81.58,340.25c.67.6,1.51.78,2.55.52,2.22-.56,1.52-1.68-1.17-1.89-1.73-.13-2.74-.67-4.15-2.19-1.66-1.78-3.09-2.57-3.09-1.7,0,.48,4.15,8.65,4.8,9.46,1.22,1.52,1.56-.01.47-2.14-1.25-2.46-.96-3.46.59-2.05Z"/>
  <path class="cls-1" d="M127.28,315.21c.24.62-.57,2.04-2.35,4.13-1.49,1.75-2.88,4-3.09,5.01-.3,1.49-.73,1.91-2.3,2.23-1.06.22-2.22.68-2.57,1.03-1.21,1.21.14,1.4,2.77.4,1.86-.71,2.64-1.34,2.64-2.12,0-.61.87-2.1,1.93-3.31,3.71-4.2,4.6-5.83,3.91-7.13-.75-1.41-1.45-1.58-.94-.24Z"/>
  <path class="cls-1" d="M229.11,248.7c0,1.44,5.16,10.01,7.72,12.81,2.51,2.75,5.75,4.92,7.36,4.92.7,0,2.68-4.22,3.62-7.72.45-1.67.45-2.53,0-2.97-.34-.34-.64-1.43-.67-2.4-.02-.98-.24-2.29-.49-2.92-.5-1.27-1.22,4.14-1.22,9.11,0,2.56-.16,2.91-1.58,3.45-3,1.14-5.56-1.37-10.19-10.01l-2.21-4.13,1.13-2.14c.62-1.18,2.14-3.71,3.36-5.62l2.23-3.48,4.21-.02c2.31-.01,4.14.11,4.06.27-.08.16-.88,1.68-1.77,3.38-1.71,3.26-2.45,5.97-3.46,12.72-.66,4.41-.45,6.23.95,8.1.79,1.07.84.89.55-2.04-.55-5.61.68-11.99,3.34-17.29,1.31-2.61,2.95-5.28,3.65-5.92,1.76-1.62,8.24-5,11.87-6.19,3.23-1.06,5.34-2.72,3.32-2.62-.6.03-2.14.39-3.42.8-2.6.83-11.69,5.19-12.88,6.18-.83.69-8.63.5-10.22-.25-.75-.35-1.8.98-5.1,6.45-2.29,3.79-4.16,7.17-4.16,7.52Z"/>
  <path class="cls-1" d="M127.51,330.11c-.43.75-1.06,1.87-1.4,2.49-.33.62-1.57,1.41-2.75,1.75-1.18.34-2.56,1.22-3.06,1.94-.5.72-1.25,1.31-1.66,1.31-.96,0-2.99,2.22-2.49,2.72.48.48,2.94-.6,5.76-2.53,1.19-.81,3.02-1.91,4.07-2.44,1.59-.8,1.99-1.41,2.35-3.55.51-3.05.26-3.57-.82-1.69Z"/>
  <path class="cls-1" d="M115.93,312.49c1.91-.95,4.26-1.72,5.22-1.72,1.95,0,4.73-1.08,4.73-1.84s-2.21-.53-7,.71c-2.71.7-4.76,1.6-5.4,2.37-1.77,2.14-1.13,2.26,2.45.49Z"/>
</svg>