<?xml version="1.0" encoding="UTF-8"?>
<svg id="Warstwa_1" data-name="Warstwa 1" xmlns="http://www.w3.org/2000/svg" viewBox="0 0 405.71 450.11">
  <defs>
    <style>
      .cls-1 {
        fill: #010101;
      }
    </style>
  </defs>
  <path class="cls-1" d="M290.11,306.23c-.68-1.08-1.01-.92-1.54.75-.87,2.74-1.67,2.68-4.47-.3-2.57-2.74-2.54-3.02.93-7.58,5.66-7.43,10.28-11.89,12.6-12.18,3.39-.43,2.57-2.3-1.04-2.36-1.61-.03-3.12-.6-3.34-1.28-.36-1.09-7.25-5.17-8.72-5.17-.32,0,1.02,1.4,2.96,3.1,1.94,1.71,3.53,3.51,3.53,4.01s-2.92,4.74-6.5,9.42c-3.58,4.69-6.5,9.2-6.5,10.04,0,2.11,4.53,6.43,6.71,6.4,2.84-.03,6.39-3.24,5.38-4.86Z"/>
  <path class="cls-1" d="M210.38,396.4l1.91-2.36c2.77-3.42,1.62-7.63-3.34-12.18-2.25-2.06-5.06-3.74-6.25-3.72-2.11.03-2.1.09.37,2.25,1.39,1.22,3.64,2.95,5,3.84,2.13,1.4,2.46,2.35,2.39,6.89l-.08,5.27Z"/>
  <path class="cls-1" d="M183.75,430.11c-.12,0-.22,4.5-.22,10,0,6.74.37,10,1.12,10,2.57,0,3.19-12.52.85-17.05-.84-1.62-1.63-2.95-1.75-2.95Z"/>
  <path class="cls-1" d="M196.42,371.92c-.28-.45-1.84-.81-3.46-.81-2.72,0-2.91-.22-2.3-2.75.36-1.51,1.11-3.32,1.66-4.02.55-.7.75-1.53.44-1.84-.31-.31-1.35.71-2.32,2.27-2.74,4.41-4.41,5.34-9.63,5.34s-10.55,2.24-16.27,6.55c-4.6,3.46-10.36,5.53-13.35,4.78-1.46-.36-5.55-1.96-9.1-3.54-3.55-1.59-9.4-4.06-13-5.49-3.6-1.43-9.24-3.8-12.54-5.28-3.3-1.48-8.7-3.4-12-4.28-6.64-1.76-19.68-3.22-20.6-2.31-1.03,1.03-24.19,3.71-24.81,2.88-1.28-1.73-14.51-1.5-20.34.36-3.16,1.01-5.75,2.23-5.75,2.7s1.01.54,2.25.14c6.89-2.22,13.71-2.85,16.45-1.51l2.8,1.36-4,.71c-10.25,1.83-18.22,3.71-20.2,4.77-2.66,1.43-4.3,1.49-4.3.16,0-.55.61-1,1.35-1s2.2-.98,3.25-2.17c1.88-2.14,1.88-2.16-.1-1.39-1.1.43-2.79,1.01-3.75,1.29-.96.28-1.75.83-1.75,1.23,0,.64-2.66,1.92-10.5,5.08-3.15,1.27-7.71,2.18-11.25,2.24-3.36.06-4.61,1.61-1.5,1.85,4.43.35,11.94-.21,13.75-1.01,1.1-.49,7.18-2.11,13.5-3.59,6.33-1.48,14.2-3.33,17.5-4.1s8.48-1.92,11.5-2.55c3.03-.63,7.75-1.72,10.5-2.43,8.46-2.18,15.95-2.61,24.66-1.42,7.84,1.07,20.73,4.86,23.22,6.83.62.49,2.85,1.44,4.97,2.12,2.12.68,5.04,1.86,6.5,2.62,1.46.76,3.35,1.39,4.2,1.39.85,0,1.98.37,2.5.81.52.44,4.55,2.31,8.95,4.15,13.48,5.65,23.91,18.42,32.08,39.26,2.8,7.13,3.15,16.02.89,22.29-1.79,4.96-1.83,6.5-.19,6.5,2.99,0,4.92-14.81,3.25-25-1.6-9.74-10.17-26.47-17.67-34.49l-6.09-6.51,3.59-1.5c1.97-.82,3.98-1.5,4.46-1.5s1.67-.87,2.64-1.94c.97-1.07,3.17-2.24,4.9-2.6,1.73-.36,4.18-1.31,5.43-2.1,1.5-.95,5.34-1.5,11.19-1.59,4.9-.08,8.68-.5,8.4-.95Z"/>
  <path class="cls-1" d="M278.53,374.64c-6.35.74-11.17,1.75-31.41,6.62l-16.41,3.95-4.09-3.93c-5.3-5.1-7.75-6.29-11.46-5.54-2.22.44-3.74.04-5.72-1.51-1.48-1.16-3.15-2.11-3.72-2.11s-1.82-.7-2.77-1.57c-1.15-1.04-1.95-1.21-2.39-.5-1.01,1.63.34,3.12,4.32,4.78,1.99.83,4.2,2.34,4.91,3.37.95,1.35,2.07,1.7,4.13,1.29,3.15-.63,7.13,1.1,12.02,5.21l3.16,2.66-4.79,2.38c-9.24,4.59-15.25,10.35-23.71,22.71-6.82,9.97-9.59,16.81-9.52,23.54.07,7.38,1.18,13.37,2.54,13.83.77.26.95-2.6.62-9.49-.56-11.68.37-14.42,9.23-27.06,9.27-13.23,22.07-23.29,33.09-26.03,41.36-10.27,53.59-13.94,41.96-12.59Z"/>
  <path class="cls-1" d="M405.26,314.76c.04-.69.2-1.3.43-1.85l-3.67-2.21c-3.03-1.82-7.64-4.32-10.25-5.55-2.61-1.23-4.75-2.54-4.75-2.91,0-1.75-7.46-4.16-17.12-5.54-5.84-.83-11.83-1.98-13.31-2.54-1.48-.56-3.84-1.02-5.24-1.02s-4.07-1.33-5.92-2.94-5.27-3.46-7.6-4.08c-2.33-.63-5.52-2.21-7.09-3.53-3.03-2.54-5.63-2.98-8.46-1.45-2.37,1.28-7.41,2.43-9.24,2.12-.83-.14-4.42-1.89-7.98-3.9-3.56-2-7.16-3.86-8-4.14-.84-.28-3.83-1.84-6.66-3.46l-5.13-2.96-.54-7.99-.54-7.99,3.55-3.2,3.55-3.2-.73-31.09c-.4-17.1-1.1-32.08-1.57-33.29-.93-2.44-3.98-3.4-11.32-3.54-4.65-.09-4.77-.17-4.17-2.7.34-1.44,1.76-4.96,3.14-7.82,4.47-9.24,6.47-17.96,7.09-30.83l.58-12.15,9.61-3.15c5.28-1.73,10.82-3.77,12.31-4.52,1.49-.76,3.51-1.39,4.5-1.39.99,0,2.46-.43,3.27-.94,2.74-1.72.4-2.03-4.55-.6-6.22,1.8-24.25,6.53-24.9,6.53-.27,0-.22-2.58.11-5.74.96-9.15-4.08-20.93-10.6-24.76-2.04-1.2-3.07-2.62-3.14-4.31-.05-1.39-.46-3.64-.9-5.01-.68-2.11-.83-2.19-.97-.5-.09,1.1-.37,3.64-.62,5.66-.4,3.27-.06,3.96,3.12,6.38,1.96,1.49,4.79,4.77,6.27,7.28l2.7,4.57-.26,20.29c-.28,21.98-.98,26.37-6.3,39.09-3.76,9-9.58,24.69-11.39,30.71-.74,2.46-1.58,8.96-1.87,14.43-.29,5.48-1.21,13.31-2.05,17.42-1.34,6.54-2.58,13.56-4.32,24.49-.44,2.77.02,3.45,4.44,6.68,2.71,1.98,6.97,4.47,9.46,5.54,2.49,1.06,6.73,3.48,9.41,5.37,2.68,1.89,9.38,5.67,14.88,8.4,5.5,2.73,11.75,6.16,13.89,7.61,2.14,1.45,4.43,2.64,5.08,2.64,1.89,0,7.32,7.35,9.32,12.61,1.38,3.64,1.81,7.43,1.75,15.59l-.07,10.78,3.01-.61c1.66-.34,6.5-.89,10.76-1.22,5.92-.46,7.75-.96,7.75-2.09,0-1.22-1.17-1.37-6.75-.88-3.71.33-8.03.9-9.6,1.26-2.42.57-2.8.39-2.49-1.2.22-1.14,1.47-2.07,3.19-2.37l2.82-.51-2.59-2.23c-1.42-1.23-2.6-2.8-2.62-3.48-.35-13.64-2.81-20.54-8.15-22.9-3.58-1.58-3.61-3.52-.07-4.36,1.51-.36,3.96-1.34,5.44-2.19,2.52-1.44,2.93-1.38,6.5.91,5.87,3.76,7.48,4.67,12.06,6.79,2.34,1.08,4.25,2.64,4.25,3.46,0,2.19,1.65,2.84,3.81,1.5,1.49-.93,2.92-.82,6.79.49,2.7.92,8.18,1.95,12.18,2.28,4.01.34,7.52,1,7.81,1.46.29.46,1.64.85,2.99.85,1.48,0,4.19,1.58,6.8,3.98,2.39,2.19,4.83,3.98,5.43,3.98s4.49,1.78,8.64,3.96c2,1.05,3.53,1.81,4.75,2.34.01-.2.02-.41.03-.61ZM264.35,223.78c.59-23.43.81-25.65,3.14-32.16,1.38-3.85,2.51-7.67,2.52-8.5.02-1.24,1.29-1.41,7.44-1,4.08.27,7.79.88,8.25,1.34.46.46.88,3.38.93,6.5.05,3.12.43,17.04.84,30.95.55,18.61.44,25.65-.41,26.68-1.46,1.76-12.54,2.99-18.68,2.07l-4.67-.7.63-25.17ZM276.74,264.89c-2.87-1.7-6.49-3.96-8.04-5.02-1.55-1.06-3.08-1.68-3.39-1.37s-1.83-.51-3.39-1.82c-1.55-1.31-3.31-2.54-3.9-2.73-.76-.25-.71-1.91.14-5.6,1.38-5.98,2.86-6.9,2.86-1.76,0,4.8,3.53,6.53,13.38,6.53h7.48l.04,7.44.04,7.44-5.21-3.1Z"/>
  <path class="cls-1" d="M290.78,333.68c-2.48-1.83-2.17-5.83.67-8.49,3.29-3.09,9.58-16.23,9.58-20.01,0-2.06.49-3.06,1.5-3.06.83,0,1.5-.45,1.5-1,0-1.04-2.57-1.22-4.75-.34-.69.28-1.25,1.17-1.25,1.98,0,2.89-3.42,11.92-6.19,16.36-3.78,6.06-5.81,10.54-5.81,12.84,0,2.55,2.55,4.54,4.74,3.7,1.68-.65,1.68-.74.01-1.97Z"/>
  <path class="cls-1" d="M300.77,340.88c-2.8,2.63-4.3,2.82-5.13.64-.99-2.59-.87-2.82,5.98-11.03,7.54-9.04,10.72-14.6,10.11-17.72-.23-1.2-.48-1.48-.56-.62-.08.85-2.27,4.4-4.89,7.88-11.54,15.38-14.24,19.62-14,21.97.41,3.93,2.95,4.75,6.54,2.09,1.71-1.26,3.38-3.01,3.71-3.87.4-1.03-.21-.81-1.77.65Z"/>
  <path class="cls-1" d="M313.03,335.38c0-.85.84-2.94,1.87-4.66,1.97-3.27,3.51-11.62,2.14-11.62-.44,0-1.07,1.49-1.42,3.32-.34,1.83-1.74,4.84-3.11,6.69-1.37,1.85-2.49,3.93-2.49,4.61s-1.39,3.47-3.08,6.19c-3.35,5.39-3.7,10.42-.77,10.98,1.79.34,8.85-5.31,8.85-7.09,0-.6-1.32.18-2.94,1.73-1.78,1.71-3.56,2.58-4.5,2.22-2.28-.88-1.96-2,1.94-6.66,1.92-2.3,3.5-4.88,3.5-5.73Z"/>
  <path class="cls-1" d="M204.23,158.91c-.62-.62-1.54.94-2.58,4.37-.89,2.93-1.8,9.16-2.04,13.83s-.71,12.33-1.07,17c-.52,6.87-.42,8.13.57,6.57.71-1.13,1.38-6.95,1.61-14,.26-7.99,1.09-14.57,2.44-19.44,1.31-4.74,1.7-7.71,1.07-8.33Z"/>
  <path class="cls-1" d="M166.28,87.9c8.7-2.7,10.22-2.91,14.19-1.91,7.01,1.77,18.57,1.37,25.72-.87,8.16-2.56,16.78-1.84,25.68,2.15,6.03,2.7,7.05,2.84,20.5,2.8,12.54-.04,13.76-.19,10.66-1.29-2.21-.79-7.36-1.13-14-.93-14.46.43-15,.25-15-5.13,0-2.4-.73-6.1-1.61-8.22-1.33-3.18-1.4-4.45-.43-7.14.65-1.8,1.39-7.26,1.65-12.12.38-7.26,0-10.59-2.07-18.59-1.39-5.36-2.53-10.61-2.53-11.67,0-4.98-16.18-24.86-20.23-24.86-2.86,0-2.13,1.23,4.75,7.94,8.97,8.76,11.18,12.9,14.46,27.06,2.41,10.41,2.77,25.01.76,30.75-.87,2.47-.84,4.7.12,9.35.69,3.36,1.01,6.36.71,6.66s-1.48-.29-2.62-1.32c-1.42-1.29-2.28-1.52-2.76-.75-.47.76-4.48,1-12.53.75-9.63-.3-11.74-.12-11.32.98.85,2.23-4.97,2.75-16.35,1.46l-10.52-1.19-9.68,3.15c-5.32,1.73-9.88,3.15-10.13,3.15s-.06-1.69.42-3.75.88-10.77.9-19.34c.02-15.41,2.06-30.3,5.27-38.41,1.46-3.7,6.85-11.5,7.95-11.5.44,0,.81-.66.81-1.46s2.03-3.95,4.5-6.99c2.48-3.04,4.5-5.76,4.5-6.04,0-1.42-3.91-.24-5.73,1.74-1.14,1.24-5.3,7.14-9.25,13.11-5.9,8.94-7.34,11.92-8.14,16.9-.54,3.33-1.51,6.99-2.17,8.14-.82,1.45-1.23,9.74-1.32,26.83l-.13,24.74,2.62-.58c1.44-.32,7.01-1.94,12.37-3.61Z"/>
  <path class="cls-1" d="M195.94,297.78c-1.07,2.75-2.02,7.96-3.92,21.33-1.29,9.09-1.04,12.6.47,6.47,2.03-8.26,2.29-8.33,1.82-.47-.54,9.17-1.84,13.7-4.32,15.02-1.06.57-2.17,2.63-2.55,4.74-.37,2.06-1.3,4.98-2.07,6.49-.77,1.51-.99,2.75-.49,2.75,1.57,0,3.12-2.58,3.47-5.79.38-3.44,2.25-6.21,4.18-6.21.69,0,1.52-.99,1.83-2.19.57-2.18.59-2.18,2.76-.25l2.19,1.94-1.19-2.26c-1.52-2.9-1.26-22.94.38-29.74,2.37-9.8.31-19.27-2.57-11.83Z"/>
  <path class="cls-1" d="M78,329.7c2.32-6,4.73-11.74,5.36-12.74.89-1.43.77-2.54-.56-5.09-.93-1.79-1.83-4.84-1.98-6.76l-.29-3.5-.74,3.33c-.44,1.97-.3,4.16.35,5.36,1.32,2.46,1.13,3.26-4.03,17.8-6.56,18.47-5.11,19.7,1.89,1.6Z"/>
  <path class="cls-1" d="M103.72,305.47c4.7,5.3,5.05,6.69,2.78,11.04-1.93,3.7-.89,4.83,1.61,1.74,2.29-2.82,2.52-7.69.41-8.5-1.93-.74-2-5.64-.08-5.64.78,0,2.79,1.15,4.46,2.56,2.48,2.09,3.41,2.36,5.05,1.48,2.54-1.36,4.06-4.16,4.06-7.45,0-1.78-1.54-4-5.08-7.32-6.11-5.73-11.23-12.95-9.81-13.83.55-.34,2.89,1.26,5.2,3.56,7.53,7.51,12.01,8.51,15.34,3.42,2.27-3.46,1.11-7.74-3.53-13.01-5.96-6.77-5.92-7.93.46-11.53,6.62-3.73,7.39-5.13,1.55-2.79-1.3.52-3.73,2.09-5.39,3.49-1.66,1.4-3.63,2.31-4.38,2.02-2.3-.88-1.53.64,4.16,8.21,5.44,7.25,6.58,10.7,4.28,13-2.15,2.15-4.8,1.28-9.59-3.16-2.59-2.4-5.68-4.87-6.88-5.49-1.19-.62-2.69-2.71-3.33-4.64-.64-1.93-1.57-3.51-2.08-3.51-1.21,0-1.17.37.86,8,2.16,8.14,5.14,12.98,10.85,17.66,3.73,3.06,4.42,4.16,4.17,6.65-.17,1.64-1.13,3.48-2.14,4.09-1.51.9-2.12.69-3.37-1.15-1.07-1.57-2.53-2.25-4.82-2.25-2.84,0-3.95-.85-8.23-6.29-3.36-4.28-5.35-7.98-6.21-11.58-1.58-6.59-3.05-5.47-2.1,1.6.75,5.56,3.79,10.64,11.76,19.62Z"/>
  <path class="cls-1" d="M134.22,155.61c-1.03-2.2-2.42-6.55-3.09-9.67-.67-3.12-1.87-6.21-2.66-6.87-.9-.75-1.45-.81-1.45-.16,0,1.98,3.12,13.71,4.71,17.7.88,2.2,3.06,11.42,4.86,20.5,1.8,9.08,4.2,20.53,5.35,25.45,1.14,4.92,2.09,10.55,2.09,12.5,0,1.95.45,4.23.98,5.05,1.71,2.65,1.14-6.8-1.07-17.5-2.38-11.54-4.19-21.28-6.34-34-.84-4.95-2.37-10.8-3.4-13Z"/>
  <path class="cls-1" d="M85.17,294.06c-.36,4.96,3.29,16.82,6.1,19.81,2.14,2.28,3.01,8.34,1.42,9.93-.41.41-1.83-.59-3.16-2.22-1.33-1.63-2.44-2.57-2.46-2.09-.02.48-.71.31-1.54-.37-1.21-1-1.49-.98-1.46.13.05,1.71,6.43,5.87,9.01,5.87,4.15,0,3.58-5.72-1.85-18.5-1.4-3.3-2.9-8.25-3.33-11-1.69-10.73-2.39-13.65-3.11-12.92-.95.96-.98,5.86-.04,6.8.39.39.58,2.45.43,4.57Z"/>
  <path class="cls-1" d="M128.69,189.11c3.16,9.49,4.77,16.29,5.41,22.91.95,9.75,4.32,22.37,8.5,31.84,1.33,3.01,2.17,5.87,1.87,6.36-.3.49-.15.89.35.89,1.4,0,3.31-4.83,2.18-5.52-.53-.33-.96-3.92-.96-7.98s-.45-7.66-1-8c-.61-.38-1,1.22-1,4.14,0,6.26-1.04,4.89-4.86-6.41-2.33-6.9-3.14-11.07-3.14-16.27s-.87-9.72-3.43-17.73c-3.99-12.48-8.74-29.36-10.48-37.23-.67-3.03-2.05-9.1-3.07-13.5-4.08-17.61-5-29.72-2.61-34.3,3.17-6.09,8.71-9.32,20.02-11.65,11.62-2.4,11.3-2.06,11.43-12.01.12-8.57-.12-9.89-1.25-6.95-.33.87-.61,4.65-.61,8.39,0,7.33-.5,8.01-5.83,8.04-6.63.03-20.7,6.3-24.26,10.83-3.52,4.48-4.08,9.13-2.49,20.85,2.67,19.68,7.8,40.97,15.23,63.31Z"/>
  <path class="cls-1" d="M149.4,251.11c.75,0,2.51.9,3.91,2,1.83,1.44,4.04,2,7.89,1.98,3.82-.01,4.91-.29,3.84-.98-.83-.53-3.08-.98-5.01-.98-2.42-.01-3.9-.64-4.76-2.02-1.3-2.08-7.23-2.9-7.23-1,0,.55.61,1,1.36,1Z"/>
  <path class="cls-1" d="M200.04,214.19c-1.23-7.9-2.89-11.56-3.13-6.89-.07,1.27,0,2.76.14,3.31.14.55.19,7.38.11,15.18-.08,7.8.25,14.43.74,14.74,2.41,1.49,3.8-15.66,2.14-26.34Z"/>
  <path class="cls-1" d="M263,176.61l1.5-4.5c.82-2.48,1.51-5.85,1.52-7.5,0-1.65,1.32-6.18,2.9-10.07,2.81-6.89,6.83-24.04,5.86-25.01-.27-.27-.98.77-1.58,2.3-.6,1.53-1.4,4.13-1.77,5.78-.37,1.65-2.16,8.31-3.99,14.81-1.83,6.49-3.58,14.59-3.88,18l-.56,6.19Z"/>
  <path class="cls-1" d="M327.56,358.38c-.52-1.79,0-2.62,2.66-4.25,1.82-1.11,4.12-2.02,5.11-2.02,1.11,0,2.36-1.35,3.28-3.54.82-1.96,2.54-3.94,3.86-4.44,2.74-1.04,4-4.05,3.01-7.17-.54-1.7-.35-2.02.9-1.54.87.34,2.84-.04,4.36-.84,3.52-1.84,4.28-1.83,4.28.04,0,1.97.9,1.88,4.36-.4,2.28-1.51,4.42-1.84,10.61-1.65,6.64.2,7.91-.03,8.92-1.64,1.05-1.68.92-1.81-1.36-1.24-1.56.39-2.52.21-2.52-.48,0-1.38-2.66-1.46-3.5-.11-.34.55-2.42,1-4.62,1s-4.84.45-5.86.99c-1.02.55-7.63,1.25-14.68,1.56-7.06.31-13.73.84-14.83,1.18-1.85.57-1.81.67.5,1.34,1.38.4,3.95.77,5.72.82,2.08.07,3.58.78,4.25,2.03.85,1.6.55,2.26-1.71,3.8-3.71,2.52-7.93,4.27-10.3,4.27-1.07,0-1.95.45-1.95,1s.9,1,2,1c2.82,0,2.48,1.65-.66,3.2-4.08,2.01-4.96,4.1-2.9,6.91,1.7,2.33,1.73,2.33,1.09.16Z"/>
  <path class="cls-1" d="M359.73,375.14c-.6,2.28.68,4.97,2.36,4.97.45,0,.57-1.51.27-3.36-.47-2.89-.22-3.45,1.81-4.07,9.36-2.83,12.06-2.35,7.11,1.25-1.51,1.1-2.47,2.29-2.13,2.63,1.04,1.04,6.87-4.5,6.87-6.52s-.13-2.02-11.3.14c-5.91,1.14-8.7,1.18-8.7.12,0-.45,1.43-2.27,3.18-4.06,2.32-2.37,3.78-3.1,5.38-2.7,1.21.3,4.83.07,8.04-.53,4.21-.78,5.94-.77,6.2.01.53,1.6,2.37,1.3,5.18-.86,2.9-2.22,1.91-4.09-1.15-2.18-1.49.93-2.38.99-3.15.21-1.31-1.31-1.83-1.28-8.18.49-2.75.76-6.86,1.4-9.14,1.41-3.26.02-4.47.53-5.73,2.45-.88,1.34-2.95,3.23-4.61,4.22-1.66.98-3.02,2.31-3.02,2.94,0,1.39,7.12,2.68,9.58,1.74,1.44-.55,1.63-.25,1.12,1.7Z"/>
  <path class="cls-1" d="M404.36,356.43c-2.29.49-4.15,1-4.82,1.36-1.1.58-2.59.84-3.3.59-2.41-.86-6.95,1.86-8.79,5.27-1.2,2.22-2.82,3.61-4.69,4.02-2.79.61-4.61,2.89-3.33,4.17.35.35,1.17.11,1.82-.54.65-.65,2.44-1.18,3.98-1.18,2.09,0,2.8-.48,2.8-1.91,0-2.95,5.64-7.22,8.58-6.48,1.33.33,2.42.18,2.42-.34,0-1.09,2.36-2.25,5.31-2.87,0-.69,0-1.39.01-2.08Z"/>
  <path class="cls-1" d="M363.33,319.11c-.45,0-1.38.9-2.07,2-1.01,1.62-2.33,2-6.94,2-6.5,0-6.16.66,2.03,3.93,3.88,1.55,6.16,1.99,6.82,1.33.67-.67.1-1.23-1.7-1.68l-2.7-.68,1.98-2.2c2.6-2.89,3.59-4.7,2.58-4.7Z"/>
  <path class="cls-1" d="M376.66,306.76c-.54-2.17-1.24-2.65-3.84-2.65h-3.17l2.19,2.04c2.74,2.55,2.74,3.46,0,5.38-2.52,1.77-4.82.56-4.82-2.54,0-1.03-.45-1.88-1-1.88s-1,1.28-1,2.84c0,2.99,2.64,6.16,5.14,6.16.81,0,2.3.6,3.3,1.33,1.74,1.27,1.75,1.45.08,4-1.84,2.81-.65,3.74,1.49,1.16.81-.98,1.03-2.91.61-5.5-.38-2.4-.18-4.73.52-5.84.65-1.04.86-3.02.49-4.5Z"/>
  <path class="cls-1" d="M359.45,346.76c-1.13,1.51-3.03,2.7-4.45,2.76-2.72.13-11.39,5.05-13.89,7.89-.87.99-2.82,3-4.33,4.47-2.47,2.41-3.76,6.23-2.1,6.23.36,0,2.99-2.14,5.86-4.75,8.58-7.84,13.27-11.27,14.67-10.74,2.41.91,7.82-3.24,7.82-5.99,0-3.23-1.11-3.19-3.59.13Z"/>
  <path class="cls-1" d="M403.55,424.51c-.21-1.29-.38-2.59-.5-3.9-1.13-1.85-2.02-3.54-2.02-3.86,0-.41.68-.9,1.69-1.37-.02-.74-.03-1.49-.04-2.23-.19.04-.38.08-.57.12-4.21.97-5.36.92-6.83-.29-.97-.8-3.57-2.06-5.77-2.79-2.2-.73-5.48-2.44-7.3-3.8-1.81-1.36-3.91-2.23-4.66-1.94-2.53.97-8.66-1.7-12.36-5.38-2.02-2.01-4.68-4.19-5.9-4.83-1.95-1.03-2.15-.96-1.56.55,1.08,2.82,5.42,6.27,11.29,8.99,26.69,12.35,31.58,16.09,35.91,27.48.25.64.5,1.31.76,1.99-.87-2.88-1.67-5.78-2.16-8.75Z"/>
  <path class="cls-1" d="M345.59,372.53c-1.87-1.36-7.89-1.71-12.06-.7-3.03.74-5.32,3.16-6.02,6.37-.35,1.59-1.07,3.16-1.61,3.49-1.17.72,12.82,7.69,14.38,7.17.6-.2-1.11-1.51-3.79-2.92-2.68-1.41-5.31-3.24-5.84-4.08-1.29-2.04,1.16-8.05,3-7.35.73.28,2.62.06,4.19-.49,1.94-.68,3.76-.66,5.67.07,3.45,1.31,4.72.35,2.09-1.57Z"/>
  <path class="cls-1" d="M404.22,372.62c0-.64.02-1.29.03-1.93-.82-.32-1.97-.56-2.9-.56-1.2,0-2.32-.72-2.5-1.57-.26-1.25-.57-1.31-1.57-.3-.69.69-1.25,1.7-1.25,2.24s-.85,1.91-1.89,3.05c-2.35,2.57-3.66,6.56-2.16,6.56.6,0,1.48-1.01,1.95-2.25,1.31-3.43,4.66-6.02,6.88-5.32,1.19.38,2.49.34,3.4.07Z"/>
  <path class="cls-1" d="M404.72,328.57c-1.05-.13-2.31-.35-3.9-.64-8.06-1.49-10.41-3.67-13.93-12.93-1.09-2.87-2.67-6.16-3.52-7.31-1.43-1.94-1.51-1.67-1.14,3.97.61,9.42,7.27,17.32,15.75,18.67,2.76.44,4.93.79,6.66,1.04.02-.93.05-1.87.08-2.8Z"/>
  <path class="cls-1" d="M404.44,344.04c.01-1.21.03-2.41.05-3.62-.55.38-1.15,1.12-1.64,2.19-.63,1.38-1.63,2.5-2.24,2.5-2.06,0-14.58,9.03-14.58,10.52,0,2.1.25,1.98,6.11-3.02,2.9-2.48,5.83-4.5,6.51-4.5,1.2,0,4.01-2.14,5.8-4.07Z"/>
  <path class="cls-1" d="M376.65,342.51c-.29,1.17-1.9,2.93-3.57,3.92-3.11,1.84-4.03,3.7-1.79,3.66.69-.01,3.92-2.04,7.17-4.5,3.26-2.46,6.87-4.47,8.03-4.47s3.13-.72,4.39-1.6c1.26-.88,2.49-1.4,2.73-1.16.81.81,9.82-1.91,10.21-3.09.27-.8-1.55-1.1-5.99-.98-5.45.15-6.64.53-8.18,2.57-1.08,1.43-2.41,2.16-3.31,1.82-2.66-1.02-9.1,1.53-9.68,3.84Z"/>
</svg>