<?xml version="1.0" encoding="UTF-8"?>
<svg id="Warstwa_1" data-name="Warstwa 1" xmlns="http://www.w3.org/2000/svg" viewBox="0 0 370.47 504.79">
  <defs>
    <style>
      .cls-1 {
        fill: #010101;
        fill-rule: evenodd;
      }
    </style>
  </defs>
  <path class="cls-1" d="M369.11,330.42c-2.21-8.03-5.61-15.29-9.76-20.78-2.43-3.22-2.47-3.35-1.8-6.14.84-3.5-.5-8.13-3.41-11.73-1.72-2.13-1.96-3.03-2.87-10.96-.55-4.75-1.42-9.78-1.93-11.18-.51-1.4-1.13-3.68-1.36-5.06-.33-1.93-1.16-3.19-3.62-5.47-1.76-1.63-3.57-2.95-4.03-2.95s-1.21-.48-1.67-1.08c-.46-.6-2.4-2.26-4.32-3.69-1.92-1.43-7.02-6.12-11.34-10.42-4.32-4.31-8.12-7.83-8.45-7.82-.81,0-.56-21.52.39-33.91.96-12.51.06-22.4-3.12-34.55-4.16-15.88-10.59-28.25-18.92-36.41-6.44-6.31-16.83-12.17-20.08-11.32-1.33.35-.74.78,4.24,3.09,12.29,5.69,20.08,13.83,26.37,27.54,3.58,7.81,4.73,11.16,7.24,21.13,2.21,8.76,2.93,25.92,1.61,38.29-.51,4.81-.9,12.65-.85,17.41l.09,8.66,8.93,8.78c8.8,8.65,15.46,14.31,20.69,17.58,2.6,1.62,4.65,4.44,4.67,6.4,0,.53.59,2.6,1.29,4.58.8,2.26,1.55,6.78,1.99,12.09.66,7.92.82,8.58,2.33,9.87,1.84,1.57,4.15,6.4,4.17,8.71,0,.85-.4,2.38-.91,3.38-.9,1.79-.85,1.92,2.27,5.97,5.18,6.71,9.55,16.99,11,25.91,1.48,9.1-.43,18.91-5.92,30.25-2.35,4.87-3.94,7.1-8.25,11.61-2.93,3.07-5.74,5.59-6.24,5.59-.74,0-.85,1.26-.61,7.08.35,8.26-.65,16.76-2.36,20.23-.66,1.35-1.06,3-.88,3.67.18.67.13,4.24-.11,7.94l-.44,6.72-4.79,9.48c-5.25,10.39-6.45,12.01-11.29,15.32-5.86,3.99-18.15,18.47-21.01,24.75-1.29,2.82-3.45,5.44-9.32,11.29-4.21,4.19-8.1,8.34-8.65,9.21l-1.01,1.58-24.04.57c-21.3.5-19.85.53,12.75.21,20.24-.2,31.47-.45,24.96-.58l-11.84-.22,6.12-6.04c3.36-3.32,7.17-6.97,8.46-8.12,1.31-1.17,3.4-4.23,4.76-6.97,2.17-4.38,9.1-13.74,11.72-15.84,1.3-1.04,5.64-2.31,7.55-2.2,1.05.06,2.56-1.04,5.18-3.77,2.03-2.12,4.67-4.27,5.86-4.78,1.19-.51,2.16-1.35,2.16-1.86s1.24-2.79,2.76-5.06c2.77-4.13,4.65-9.16,4.62-12.35,0-.93.71-3.65,1.59-6.03,2.35-6.35,2.3-12.56-.12-17.24-1.59-3.07-1.71-3.68-1.06-5.34.45-1.12.75-5.51.75-10.95v-9.08s2.84-2.27,2.84-2.27c7.64-6.12,14.07-16.87,16.91-28.25,1.91-7.68,1.96-17.73.1-24.48M350.57,306.16c-2.64-.5-2.9-1.79-1.03-5.06,1.62-2.82,2.12-6.05.95-6.04-.35,0-.62.44-.62.97.02,2.17-7.13,14.41-11.17,19.09-1.06,1.23-2.23,2.91-2.59,3.73-.36.82-1.23,1.68-1.93,1.91-2.81.92-3.99-4.46-1.87-8.56,2.14-4.15,5.23-9.79,8.46-15.47,1.78-3.13,3.55-6.83,3.92-8.22.89-3.33,1.45-13.06.65-11.33-.32.7-.6,2.11-.62,3.15-.09,4.49-1.8,10.25-4.3,14.44-1.43,2.4-3.86,6.81-5.4,9.8-1.54,2.99-3.46,6.32-4.27,7.4-.81,1.08-1.47,2.39-1.46,2.91.01,1.31-2.01,3.05-3.56,3.06-2.22.02-2.92-1.52-2.61-5.82.24-3.47,1.06-5.51,6.92-17.2l6.64-13.26,1.44-9.69c1.01-6.85,1.24-9.89.76-10.36-.48-.47-.67-.39-.67.25,0,.5-.64,5.16-1.43,10.36l-1.44,9.45-6.26,12.64c-3.45,6.95-6.64,12.86-7.09,13.13-.45.27-1.56.21-2.46-.12-1.37-.51-1.63-.99-1.65-3.09-.02-2.28,3.16-12.14,7.06-21.86,2.67-6.65,3.76-13.12,3.6-21.22-.14-6.81-.26-7.48-1.61-8.79l-1.46-1.42.74,1.88c.41,1.03.85,4.99.98,8.8.29,8.17-1.24,15.77-4.58,22.78-1.71,3.6-2.33,4.33-3.6,4.35-1.01,0-1.87-.56-2.5-1.65-.87-1.51-.84-2.19.36-7.24,2.28-9.61,2.29-11.81.08-18.18-2.7-7.78-3.33-10.66-3.79-17.36-.5-7.11-.8-8.65-1.71-8.64-.5,0-.56,1.94-.19,6.76.66,8.68,1.88,14.7,4.05,19.97,1.97,4.78,1.94,8.14-.16,17.31-.86,3.78-.98,5.51-.5,7.19.7,2.46,3.01,4.3,4.59,3.68,1.31-.52,1.3-.12-.12,2.75-1.43,2.9-3.14,8.95-3.12,11.03s2.2,4.7,3.99,4.94c1.27.17,1.39.49,1.25,3.33-.27,5.71,3.63,9.19,6.92,6.16,1.03-.95,1.17-.87,2.07,1.24.85,1.98,1.24,2.25,3.17,2.24,1.66-.02,2.48-.43,3.32-1.67.61-.9,1.97-2.69,3.03-3.96,1.05-1.27,3.13-4.23,4.62-6.57,2.45-3.84,2.81-4.17,3.74-3.34,1.14,1.01,3.5,1.21,4.03.34.18-.31-.52-.72-1.56-.92M348.02,427.61c-.62,1.45-1.44,4.29-1.82,6.31-1.11,5.91-2.48,9.76-4.7,13.13-1.14,1.74-2.07,3.5-2.07,3.91s-.62.96-1.38,1.21c-.76.25-2.94,1.95-4.84,3.78-1.98,1.91-4.25,3.49-5.33,3.7-1.04.21-2.73.56-3.77.79l-1.88.41,2.49-2.34c1.37-1.28,3.62-2.85,5-3.48,1.38-.63,4.05-2.81,5.93-4.84s2.79-3.16,2.02-2.5c-.8.68-1.41.88-1.41.46s1.98-4.65,4.4-9.45l4.41-8.72.65-9.27c.66-9.29,1.5-12.21,2.65-9.2.32.83.76,1.94.98,2.45.72,1.7-.18,10.96-1.33,13.66M347.88,365.69c-1.63.56-2.87,5.64-2.49,10.25.51,6.23.87,7.71,1.62,6.56.34-.52.41-2.96.18-5.63-.31-3.47-.17-5.44.54-7.48,1.16-3.34,1.19-4.05.16-3.7M341.35,417.25c-.15.15-1.57,2.69-3.15,5.64-6.07,11.32-13.48,16.37-31.84,21.68-4.97,1.44-9.49,2.22-16.17,2.81-8.8.77-10.78,1.3-8.04,2.14,2.17.66,16.92-1.11,23.07-2.77,15.34-4.15,22.86-7.97,28.86-14.67,3.26-3.64,7.58-11.55,7.56-13.83,0-.7-.14-1.15-.29-1M308.58,288.55c-1.15-2.24-2.26-5.07-2.48-6.3-.22-1.23-.87-3.17-1.46-4.31-1.34-2.63-1.57-14.79-.51-27.09.77-8.94.37-22.02-.99-32.39-1.16-8.79-2.17-8.34-1.43.64.6,7.28.72,17.23.57,45.34-.05,9.65.13,13.52.69,14.17.42.5,1.08,2.24,1.46,3.87,1.29,5.49,6.65,15.04,6.35,11.3-.05-.65-1.03-3.01-2.18-5.24M282.01,461.76c-.49-.88-1.28-3.94-1.76-6.8-.56-3.36-1.21-5.37-1.83-5.69-.86-.44-10.37-1.11-28.02-1.96-3.46-.17-15.21-.33-26.11-.36-10.9-.03-22.22-.33-25.17-.66-5.87-.67-42.15-.5-53.15.24-5.56.37-20.28-.2-23.66-.92-.4-.08-.84.17-.98.57-.28.79,6.11,2.05,10.15,2.01,3.67-.04,5.64,2.54,11.4,14.98.56,1.21,2.61,6.85,4.56,12.54,3.64,10.62,9.09,24.93,9.74,25.56.2.2.65.07,1-.29.43-.44.19-1.64-.74-3.72-1.9-4.27-9.28-24.2-10.65-28.78-1.38-4.6-5.56-13.56-7.81-16.76-.91-1.29-1.55-2.46-1.41-2.6.14-.13,3.92-.38,8.41-.54l8.17-.3.45,2.83c.25,1.55,1.82,10.03,3.49,18.84,3.35,17.62,6.43,29.76,8,31.46.96,1.05.76,1.12-3.93,1.37-2.72.15,8.92.12,25.87-.06,28.62-.3,29.01-.32,5.48-.25l-25.34.08-.67-1.7c-1.68-4.3-5.3-19.06-7.11-29.03-1.1-6.04-2.59-13.8-3.32-17.23-.73-3.43-1.25-6.32-1.15-6.41.62-.64,21.99-.86,33.44-.35,7.61.34,16.11.59,18.88.57l5.03-.05.11,9.12c.09,7.93.39,10.35,2.26,18.53,3.01,13.12,4.2,20.21,4,23.71l-.17,2.99,7.86-.21,7.86-.21-6.92-.13-6.92-.13-.11-5.8c-.08-4.32-.89-9.37-3.18-19.79-3-13.66-3.63-19.29-2.77-24.79l.37-2.36,11.87-.12c6.53-.06,16.9.15,23.04.48l11.17.59,2.99,2.73c1.64,1.5,3.32,2.72,3.74,2.72s2.34,1.03,4.3,2.31c1.95,1.27,4.4,2.74,5.44,3.25,1.04.51,1.99,1.41,2.1,1.99.14.73-5.12,5.43-17.08,15.26-9.51,7.82-19.42,15.73-22.04,17.59-2.61,1.86-4.85,3.65-4.96,3.98-.56,1.66,2.83.16,7.8-3.44,6.24-4.52,36.95-29.4,38.15-30.91.97-1.22.94-1.9-.18-3.91M273.58,52.48c-4.37-18.33-13.53-30.91-29.02-39.89-9.32-5.4-13.12-6.86-20.69-7.92-7.55-1.06-26.04-.63-30.67.72-1.38.4-4.91,1.25-7.84,1.9-6.38,1.4-10.52,3.02-14.69,5.75-1.7,1.11-3.53,2.03-4.07,2.03-1.66.02-6.21,3.49-9.48,7.24-1.72,1.97-3.49,3.58-3.94,3.59s-2.74,2.08-5.09,4.62c-4.52,4.86-8.3,11.26-8.28,14,0,.9-.31,2.9-.7,4.44-.57,2.2-.55,3.17.08,4.51.73,1.55.61,1.97-1.25,4.61-1.74,2.47-2.04,3.44-2.01,6.47.03,2.87.32,3.87,1.51,5.11.81.85,1.85,2.76,2.3,4.24,1.15,3.76,2.33,3.94,2.16.32-.13-2.71.9-5.13,1.92-4.52.52.31,1.21,4.22,1.77,9.95.2,2.02.76,4.78,1.26,6.14,1,2.75.63,4.43-1.69,7.7-.76,1.07-2.21,3.52-3.23,5.45-1.82,3.45-1.91,3.52-5.21,3.96-4.54.6-12.15,4.57-14.4,7.51-1.77,2.32-5.04,9.1-5.02,10.44,0,.4-.54,1.71-1.22,2.92-2.83,5.09-5.56,11.67-5.54,13.34,0,.99-.21,1.8-.48,1.8-1.44.01-8.5-8.52-11.33-13.7-4.24-7.76-9.57-10.66-16.99-9.25-5.68,1.08-7.7,2.3-9.67,5.82-1.23,2.2-2.71,3.69-5.1,5.15-4.48,2.73-6.41,6.35-5.8,10.88.46,3.43,1.21,4.81,4.61,8.5,3.94,4.28.32,2.65-4.86-2.18-1.92-1.79-6.56-5.42-10.3-8.06-4.01-2.83-6.81-5.23-6.81-5.85,0-2.47,3.14-11.82,5.58-16.65,2.22-4.4,3.92-6.52,10.57-13.25,4.36-4.41,8.49-8.98,9.19-10.16,1.8-3.01,1.58-6.19-1.06-15.55-4.55-16.15-4.51-15.81-4.83-46.12-.21-19.5-.49-27.52-.98-27.51-1.48.01-1.7,29.81-.35,47.91.84,11.25,1.72,16.04,5.28,28.82,2.03,7.27,2.13,8.04,1.34,10.05-.47,1.2-4.8,6.32-9.61,11.4-9.76,10.29-12.75,15.08-15.21,24.35-.74,2.77-1.45,5.24-1.58,5.47-.14.23-3.16-1.33-6.73-3.46-8.72-5.23-23.26-14.12-28.31-17.32-2.26-1.43-4.61-2.78-5.22-3-1.03-.37-1.14-3.59-1.78-52.15-.37-28.46.37,61.53,1.65,199.99l2.32,251.75,76.26-.91,76.26-.91-75.95.59-75.95.59-1.96-199.07C1.66,195.6.91,106.02,1.08,106.02s1.53.91,3.02,2.01,6.12,4.08,10.29,6.6c4.17,2.52,10.35,6.28,13.73,8.36,3.38,2.07,7.51,4.6,9.18,5.62,3.78,2.3,21.62,15.52,25.71,19.05,2.26,1.95,3.79,2.72,6.01,3.05,6.83.99,11.26,2.57,16.33,5.83,2.83,1.82,6.03,4.3,7.11,5.5,2.14,2.39,2.63,2.64,2.62,1.33,0-.47-1.36-2.1-3.02-3.62-4.97-4.55-10.46-7.84-15.18-9.1-5.71-1.52-7.74-2.59-10.27-5.41-5.68-6.35-5.04-13.52,1.5-16.89,2.71-1.4,4.41-3.26,5.64-6.19.9-2.13,3.14-3.34,8.09-4.37,3.3-.68,4.31-.65,6.97.2,3.8,1.22,5.49,2.93,9.26,9.4,1.61,2.75,4.97,7.19,7.48,9.85l4.55,4.84-4.74,5.06c-4.06,4.33-4.73,5.37-4.71,7.26.01,1.21.3,2.21.65,2.2s.62-.44.62-.97c-.03-3.28,8.29-12.84,10.83-12.44.72.11,1.37.25,1.43.31.06.06-.41,1.66-1.04,3.57-1.73,5.18-1.56,7.24.67,8.14,1.68.68,2.07.55,4.86-1.63,3.46-2.7,4.24-3.7,6.6-8.52l1.7-3.48-.35,3.6c-.34,3.48-.29,3.63,1.39,4.38,1.68.75,1.87.64,5.25-3.12,1.93-2.14,4.15-5.41,4.93-7.27.79-1.86,1.94-4.56,2.56-6,.62-1.44,2.16-3.43,3.42-4.41l2.29-1.79,1.26,1.7c.7.94,3.03,2.93,5.19,4.44,5.58,3.9,6.2,4.72,6.44,8.55.18,2.88.5,3.57,2.49,5.36,1.26,1.13,2.84,2.05,3.53,2.04,1.8-.02,1.01,1.57-1.61,3.22-1.76,1.11-2.84,1.32-5.74,1.1-2.1-.16-5.09.13-7.22.69-3.38.89-3.73.88-4.91-.16-.75-.67-1.19-1.74-1.09-2.63.14-1.26.91-1.77,4.56-3.06,2.41-.85,5-1.42,5.76-1.25,1.57.34,3.35-.22,3.34-1.05,0-.31-.69-.55-1.53-.55-1.65.02-3.52-1.44-3.53-2.76,0-.45-.42-1.16-.93-1.57-.78-.63-.89-.34-.77,1.94l.15,2.68-3.17,1.01c-1.74.56-3.86,1.47-4.7,2.04-.84.56-2.94,1.76-4.66,2.65s-5.66,3.7-8.75,6.22c-3.09,2.53-5.95,4.73-6.36,4.9-.41.17-1.76,1.82-3.01,3.67-1.95,2.89-2.2,3.67-1.78,5.47l.49,2.1.67-1.92c1.18-3.37,3.54-6.65,5.88-8.16,1.25-.81,4.16-3.22,6.47-5.36,4.61-4.26,9.31-7.12,9.73-5.92.14.4.96,1.56,1.84,2.58,1.7,1.98,3.75,2.34,6.07,1.06.8-.44,3.61-.73,6.78-.69,4.67.05,5.65-.13,7.1-1.29.92-.74,1.81-1.22,1.96-1.07.16.15.77,2.18,1.37,4.5,1.02,3.96,1.32,4.4,4.69,6.94,4.47,3.37,7.42,6.62,8.69,9.58,4.82,11.25,11.45,21.49,16.71,25.83,1.11.91,2.02,2,2.02,2.41s-.85,2.53-1.89,4.71c-2.29,4.77-3.26,11.73-2.61,18.69.45,4.79.44,4.84-1.3,5.97-6.7,4.35-13.6,11.11-15.76,15.44-1.32,2.65-5.15,13.63-5.76,16.51-.41,1.96-3.19,4.56-13.49,12.65-21.49,16.88-34.6,28.59-41.22,36.83l-2.25,2.8-4.24-1.79c-2.33-.98-4.48-2.22-4.77-2.74-.29-.52-1.89-4.6-3.56-9.07-1.67-4.47-3.86-9.3-4.87-10.74-1.84-2.61-6.55-6.81-10.73-9.56-4.87-3.2-9.09-7.2-12.07-11.44-4.45-6.33-4.85-6.73-10.48-10.38-9.39-6.09-18.27-13.75-22.34-19.26-1.4-1.89-3.29-3.83-4.21-4.31-1.89-.98-2.35-2.82-.59-2.33,1.39.38,6.7.59,9.6.36,3.98-.31.14-1.23-5.11-1.22-4.92,0-26.37-4.14-34.51-6.66-3.96-1.23-5-1.23-4.23-.01.51.81,7.01,2.81,12.99,4.01,2.6.52,6.86,1.48,9.46,2.14,2.6.65,5.81,1.34,7.12,1.53,1.75.25,2.55.74,2.98,1.84.32.82,1.19,1.81,1.93,2.2s2.4,2.32,3.69,4.31c2.9,4.45,8.72,9.58,19.47,17.16,7.07,4.99,8.73,6.5,11.74,10.69,4.43,6.17,7.88,9.54,13.23,12.91,6.32,4,11.18,9.02,12.69,13.14.38,1.03,1.73,4.63,2.99,8,2.26,6.01,2.27,6.12.89,5.8-5.05-1.13-28.02-5.25-31.66-5.68-2.42-.28-8.24-1.06-12.91-1.73-4.68-.67-11.05-1.47-14.17-1.78-11.13-1.11-30.92-4.23-34.34-5.42-5.34-1.86-5.68-1.93-5.67-1.14.02,1.77,7.06,3.73,20.63,5.73,7.55,1.12,15.43,2.19,17.51,2.39,11.54,1.1,29.67,3.7,44.09,6.33,13.52,2.47,17.42,3.42,22.27,5.47,5.5,2.32,5.86,2.58,5.52,4.03-.56,2.35.41,1.56,4.51-3.65,6.99-8.9,17.72-18.56,41.93-37.8,12.94-10.28,17.88-14.85,36.12-33.45,13.31-13.57,23.53-22.68,28.22-25.16,2.11-1.12,2.36-2.43.33-1.79-4.81,1.52-18.81,14.26-39.12,35.61-5.99,6.3-11.12,11.28-11.39,11.06-.62-.49,2.54-9.53,5.48-15.65,2.35-4.9,4.39-6.96,14.18-14.35,2.53-1.91,5.29-4.41,6.15-5.57,1.87-2.53,5.71-11.75,5.13-12.32-.57-.56-.52-.64-4.05,6.6-1.74,3.56-3.41,6.48-3.72,6.48-.95,0-1.15-6.9-.38-12.71.9-6.72,3.17-11.62,8.39-18.06,3.76-4.64,5.4-5.26,4.16-1.59-.37,1.09-.56,2.63-.43,3.42l.23,1.45.77-1.41c.43-.78,1-3.33,1.28-5.67.64-5.4,1.43-7.21,5.11-11.59,4.49-5.35,4.63-10.09.55-18.49-2.91-5.98-10.49-12.82-14.18-12.78-1.95.02-1.56-1.12.73-2.12,2.27-1,5.91-4.62,5.27-5.25-.36-.35-7.04,4.38-7.96,5.64-.18.25-1.58.91-3.11,1.47-3.68,1.34-8.61,4.33-7.65,4.63.42.13,2.65-.53,4.95-1.48,3.23-1.33,4.78-1.64,6.73-1.35,3.71.56,10.84,4.58,9.82,5.55-.65.61-22.2-.67-22.63-1.35-.35-.56-.96-.56-2.51,0-5.04,1.81-9.79-.02-12.23-4.72-2.04-3.93-3.1-4.71-6.88-5.06l-3.15-.29-2.39-5.31c-2-4.44-2.95-5.75-5.81-8.02-8.89-7.05-10.26-9.36-7.61-12.8,1.97-2.55.68-3.99-4.51-5.06-2.93-.6-5-2.71-5.03-5.11-.02-2.24,4.41-11.67,8-16.99,2-2.96,2.36-5.82,1.14-8.94-.38-.96-.99-4.44-1.35-7.73-.37-3.29-.84-7.04-1.06-8.34-.63-3.81.73-2.74,1.97,1.55,1.25,4.33,4.01,9.79,6.42,12.67l1.56,1.87v-1.69c0-.93-.23-1.84-.53-2.02-.9-.55-5.26-9.67-6.26-13.12-1.63-5.61-1.87-7.93-.81-7.94.62,0,1.41,1.54,2.34,4.54.87,2.83,2.6,6.28,4.58,9.12,1.75,2.52,3.19,5.17,3.2,5.89.01,1.47,9.99,17.38,14.06,22.43,3.14,3.89,8.92,9.04,13.5,12.03,1.82,1.19,4.25,2.91,5.39,3.83,2.78,2.23,3.41,1.35.87-1.22-1.11-1.12-2.03-2.53-2.03-3.12-.02-2.24,1.99-.93,5.29,3.44,3.28,4.34,8.29,8.43,11.82,9.64,3.22,1.11,13.42-.69,11.89-2.09-.15-.14-2.68,0-5.62.29-4.42.45-5.53.38-6.45-.42-.61-.53-1.11-1.3-1.12-1.72s-1.25-1.22-2.78-1.79c-2.13-.79-3.41-1.91-5.55-4.85-1.53-2.1-3.28-4.34-3.9-4.97-1.33-1.37-3.56-1.46-5.22-.22-.9.68-1.52.73-2.48.24-2.72-1.42-8.17-6.59-11.97-11.36-5.28-6.63-12.95-18.83-13.54-21.55-.26-1.2-1.6-3.67-2.98-5.49-1.38-1.83-3.45-5.47-4.6-8.11-2.45-5.6-3.91-6.92-5.98-5.43-.97.69-1.37,1.63-1.36,3.18.02,2.26-.96,3.72-3.73,5.52-2,1.3-3.08.65-3.56-2.15-.36-2.11.09-3.35,3.23-8.86.44-.78.51-2.04.17-3.46-.73-3.09.59-9.88,2.68-13.75,1.69-3.14,9.42-11.72,10.57-11.73.33,0,2.58-2.12,5-4.7,3.34-3.56,5.03-4.87,7.02-5.43,1.44-.4,4.07-1.73,5.83-2.94,3.42-2.35,11.98-5.47,15.1-5.5,1.03-.01,2.87-.45,4.09-.97,3.62-1.55,20.49-2.64,28.78-1.85,9.32.89,13.85,2.47,20.27,7.06,1.05.75,3.33,2.06,5.09,2.92,1.93.94,5.79,4.09,9.78,7.99,6.06,5.92,6.87,7,9.99,13.33,1.87,3.79,3.99,9.15,4.71,11.91,1.77,6.76,1.87,17.19.26,28.51-1.3,9.14-2.85,13.81-8.21,24.75-1.68,3.42-2.75,6.49-2.74,7.81.02,2.05.64,2.78,4.3,5.05.29.18-1.91,4.39-2.74,5.25-1,1.03-.98,1.8.12,7.2l.87,4.25-1.62.8c-2.04,1-2.39,2.67-2.39,11.56,0,6.86.03,7.03,1.9,9.34,1.05,1.29,1.75,2.59,1.57,2.89-.63,1.05,1.07,5.51,3.35,8.74l2.29,3.27-1.8-.41c-.99-.23-3.17-1.23-4.85-2.24-1.68-1-3.7-1.82-4.5-1.81s-1.87-.6-2.38-1.35c-.54-.8-1.68-1.41-2.76-1.48-1.01-.07-3.12-.56-4.68-1.09-2.68-.92-2.89-.91-3.8.19-.66.81-1.35,1.03-2.21.72-1.52-.54-5.77-5.05-6.76-7.17-.39-.84-1.31-1.69-2.03-1.91-2.26-.66-3.66-2.27-5.67-6.49-1.77-3.74-1.96-4.76-2.3-12.56l-.37-8.49,2.56-3.27c6.03-7.7,6.34-15.37.94-23.24-2.52-3.68-5.25-5.56-9.25-6.37-3.72-.76-6.07-.02-10.7,3.38-3.32,2.44-3.33,2.46-2.93,5.18l.4,2.73-2.34.22c-2.11.2-2.36.41-2.51,2.2-.13,1.54-.42,1.92-1.29,1.7-.61-.15-1.48.17-1.92.72-1.16,1.43.06,3.93,3.53,7.28,1.55,1.49,2.82,3.06,2.83,3.48.01,1.09,2.43,1.7,3.42.86.69-.58.68-1.13-.06-3.2-.49-1.38-1.17-2.99-1.5-3.59-.69-1.23-3.24-7.07-3.25-7.43-.01-1.02,2.41.23,4.89,2.53,3.43,3.18,6.86,5.17,7.58,4.41.27-.29-.47-1.26-1.64-2.16-4.55-3.48-5.46-4.34-5.06-4.75.22-.23,1.31.04,2.41.59,1.1.55,2.33.88,2.74.72.43-.17.21-.49-.52-.76-2.17-.82-4.78-2.83-4.67-3.6.06-.4-.13-1.27-.42-1.93-.41-.92-.11-1.55,1.29-2.74,6.78-5.75,14.26-3.96,18.31,4.38,2.96,6.1,1.98,12.47-2.88,18.78l-1.86,2.41.1,9.56c.1,8.96.21,9.79,1.8,13.28.94,2.05,2.35,4.58,3.15,5.63.8,1.05,2.26,3.45,3.24,5.35,2.91,5.58,4.19,5.99,1.65.52-2.49-5.35-1.32-5.55,2.11-.36,4.2,6.35,8.92,8.98,12.19,6.79,1.18-.79,1.66-.83,2.42-.22.52.42,1.52.61,2.23.42.99-.27,1.65.22,2.86,2.1,1.73,2.68,2.83,3.14,2.81,1.18-.02-1.65.1-1.63,4.14.9,1.91,1.19,3.76,2.16,4.11,2.16s2.9,1.09,5.66,2.43c2.95,1.44,5.16,2.18,5.39,1.81.21-.35-.87-2.09-2.39-3.88-4.03-4.72-5.89-7.28-7.44-10.25-1.72-3.3-1.75-4.14-.13-3.64,1.65.51,1.63-.71-.03-1.58-.71-.37-2.13-1.99-3.16-3.61-1.7-2.65-1.78-3.01-.87-3.71.8-.61.85-.97.26-1.67-.95-1.13-.79-11.19.18-11.53.37-.13,1.22.75,1.88,1.96,1.09,1.97,2.64,3.24,3.24,2.63.12-.13-.21-1.61-.75-3.31-1.27-4.03-3.15-13.47-2.76-13.86.17-.17,1.05.17,1.96.75,2.09,1.34,2.72.76,1.37-1.27-1.44-2.16-1.32-2.86.52-2.88.86,0,1.57-.3,1.57-.64s-.45-.62-1-.62c-1.63.02-.62-1.56,1.05-1.64,1.79-.09,4.6-1.49,4.05-2.02-.2-.2-2.03-.37-4.05-.38-2.18-.01-4.12-.38-4.76-.9-2.41-1.96-2.36-2.81.44-8.65,5.42-11.26,7-16.02,8.29-24.89,1.65-11.38,1.92-21.78.7-26.89M278.23,459.32c-.16,0-2.08-1.22-4.27-2.71-2.19-1.49-4.56-2.89-5.25-3.11-1.47-.46-4.42-2.76-4.04-3.14.14-.14,2.98.03,6.3.4l6.05.66.65,2.23c.7,2.39,1.02,5.68.56,5.69M255.65,356.7c-.42-1.62-1.88-3.63-8.17-11.24-4.72-5.71-10.48-13.55-10.49-14.28,0-.53-6.08-10.55-9.81-16.18-1.99-3-3.62-5.57-3.62-5.7s-1.44-2.74-3.19-5.79c-1.75-3.05-3.2-5.76-3.2-6.02s1.56-.49,3.48-.51c4.06-.04,9.07-1.21,9.06-2.12,0-.41-1.48-.42-4.25-.04-5.38.74-15.17.86-16.82.19-1.18-.47-1.13-.58.61-1.52,2.48-1.34,7.82-5.35,12.63-9.49,8.11-6.97,16.95-12.6,25.57-16.29,4.19-1.79,5.83-3.12,3.81-3.1-1.38.01-7.06,2.44-11.5,4.91-6.77,3.77-12.93,8.18-23.16,16.59-10.33,8.5-20.41,15.6-31.11,21.93-3.78,2.24-9.69,5.97-13.13,8.3-3.44,2.32-8.22,5.33-10.63,6.69-6.46,3.63-16.13,10.48-22.32,15.8-5.3,4.56-13.82,10.24-17.65,11.77-4.24,1.69-13.23.29-23-3.6-2.25-.89-9.78-3.15-16.72-5.01-6.94-1.86-16.74-4.69-21.77-6.29-20.87-6.62-31.25-9.35-48.74-12.81-5.08-1.01-6.97-1.16-7.5-.62-.89.91-1.29.79,10.85,3.16,12.08,2.35,29.44,6.85,41.94,10.87,5.21,1.67,10.74,3.46,12.31,3.96,1.56.5,7.66,2.19,13.55,3.76,5.89,1.56,12.71,3.65,15.14,4.63,7.31,2.96,15.86,4.89,20.38,4.6l3.97-.25,1.8,4.39c.99,2.41,3.87,9.36,6.4,15.44,2.53,6.08,4.78,11.91,5,12.96.38,1.82.28,1.93-2.34,2.6-1.5.38-3.65,1.01-4.78,1.39-6.31,2.14-20.83,6.01-26.79,7.16-15.09,2.89-21.98,5.74-27.43,11.34-2.97,3.05-4.17,5.04-7.34,12.22-4.33,9.79-4.98,13.97-3.5,22.58,1.41,8.24,5,14.11,16.37,26.77,5.28,5.88,7.7,9.27,16.53,23.14,4.43,6.97,6.42,9.47,7.02,8.86.4-.41-6.22-11.26-13.49-22.08-1.85-2.75-5.7-7.67-8.57-10.92-13.97-15.86-17.32-23.06-16.48-35.38.4-5.92,6.47-20.05,10.32-24.06,4.58-4.76,12.06-7.59,29.71-11.26,3.8-.79,10.15-2.4,14.12-3.59,29.5-8.82,54.55-13.55,91.35-17.26,15.93-1.6,22.92-2.82,32.89-5.71,4.96-1.44,9.13-2.5,9.26-2.37.14.14-.14,1.21-.61,2.39-2.07,5.17-3.56,13.43-3.15,17.45.42,4.01,3.31,11.43,4.46,11.41.69,0,.55-.57-1.49-5.96-2.24-5.92-1.32-13.53,3.42-28.34.77-2.4,1.23-7.8.8-9.44M253.6,363.35c-.57,2.79-.95,3.36-2.73,4.13-1.14.49-3.3,1.09-4.8,1.34-1.5.25-4.42,1.1-6.49,1.89-3.97,1.52-17.72,3.7-31.4,4.99-25.18,2.38-48.05,6.08-63.8,10.34-3.24.88-6.04,1.45-6.21,1.28-.18-.17-1.37-3.18-2.67-6.69-2.91-7.91-5.89-15.5-8.64-22.04-3.39-8.06-3.47-7.35,1.01-9.68,3.9-2.03,6.71-4.09,16.72-12.29,2.85-2.33,8.15-6.05,11.8-8.26,3.64-2.21,9.99-6.22,14.12-8.9,4.13-2.68,10.31-6.56,13.75-8.61,3.44-2.05,9.82-6.14,14.19-9.1l7.94-5.38,3.66.75c2.01.41,4.09.96,4.62,1.21.53.26,2.52,3.23,4.43,6.62,1.9,3.38,4.93,8.4,6.73,11.15,1.8,2.75,4.97,7.96,7.04,11.57,4.88,8.52,10.05,15.61,17.75,24.36,3.78,4.3,4.14,5.64,2.98,11.32M231.83,66.02c-2.08-3.69-4.26-6.27-5.29-6.26-.35,0,.22.92,1.29,2.03,1.06,1.11,2.71,3.36,3.66,5s1.86,2.97,2.02,2.97c.43,0,.41-.06-1.67-3.74M217.93,178.02c-.43.7-1.01.54-2.99-.77-4.64-3.1-9.1-3.95-21.03-4-8.74-.03-10.99-.22-11.57-.97-1.34-1.73-8.33-8.55-10.34-10.09-1.25-.96-2.14-2.31-2.39-3.61l-.39-2.08,2.98.37c1.64.2,4.32.9,5.95,1.55,2.16.86,4.21,1.13,7.56,1,7.58-.3,26.56.62,27.48,1.34.47.37,1.1,1.24,1.4,1.95.3.7,1.27,2.97,2.17,5.04,1.63,3.77,2.18,8.63,1.16,10.28M215.44,182.09c-1.1.66-2.57,2.63-3.68,4.89-1.01,2.08-3.8,5.97-6.18,8.63l-4.33,4.84-2.24-1.68c-2.65-1.98-6.63-7.01-9.26-11.69-1.03-1.84-3.04-5.38-4.45-7.87-1.42-2.49-2.36-4.67-2.09-4.84s1.38-.06,2.47.24c1.09.3,5.05.36,8.79.12,4.41-.28,8.01-.17,10.22.32,3.42.74,12.58,4.76,12.59,5.52,0,.22-.82.9-1.83,1.51M209.12,347.39c-4.02-1.28-7.82.67-7.79,4,.03,3.09,1.06,4.25,3.73,4.23s4.53-1.59,5.66-4.66c.95-2.59.87-2.79-1.6-3.57M206.75,354.26c-1.31,1.33-4.02.44-4.52-1.48-.73-2.79,2.06-4.82,5.07-3.7.81.3.97.86.69,2.34-.2,1.07-.76,2.35-1.24,2.83M201.11,115.05c-1.25-1.37-2.69-3.11-3.21-3.87-.99-1.44-.69-2.69.63-2.71.98,0,4.75,6.12,4.8,7.82.03,1.01-.4.77-2.23-1.24M182.84,76.59c-4.33-8.25-6.55-11.72-5.07-7.92,1.74,4.48,9.91,18.72,9.54,16.64-.03-.17-2.04-4.1-4.47-8.72M172.16,155.52c-1.45-.2-3-.81-3.44-1.35-.96-1.18-1.08-4.28-.2-4.84,1.11-.7,2.93.26,3.74,2,.43.93,1.34,2.06,2.02,2.53,1.86,1.27.84,2.07-2.12,1.66M168.07,228.92c-1.26.01-2.52,1.72-2.5,3.37.01,1.12,2.31,4,2.8,3.5.19-.2,0-1.28-.44-2.41-.69-1.78-.65-2.15.3-2.86,1.43-1.07,1.38-1.62-.15-1.61M164.63,5.16c-1.2-4.7-1.68-5.67-2.4-4.94-.53.54,2.54,12.98,3.2,12.97.77,0,.47-3.06-.8-8.03M159.87,102.8c-3.21-.48-4.74-2.33-5.33-6.45-.29-2.06-.75-3.16-1.31-3.15-.49,0-.76.49-.63,1.11,1.16,5.5,1.89,8.13,2.46,8.82,1.19,1.46,3.9,2.48,5.66,2.13,2.61-.53,2.1-2.01-.84-2.45M158.99,91.05c-2.02-1.48-7.67-4.12-8.79-4.11-.31,0-.27.56.11,1.25.52.94,9.28,5.58,10.53,5.57.86,0-.12-1.44-1.85-2.7M112.34.8c-26.12.26-36.8.44-23.74.41,13.06-.03,34.43-.24,47.49-.47,13.06-.22,2.37-.2-23.75.06M154.24,107.02c-1.84.02-3.1,7.96-1.75,11.03.41.94.56.46.59-1.89.02-1.73.44-4.28.92-5.67,1.06-3.04,1.09-3.47.23-3.46M150.15,202.78c-1.15-1.85-2.86-3.1-3.43-2.51-.12.13.73,1.35,1.9,2.72,2.47,2.87,3.36,2.75,1.52-.21M146.56,120.66c-.5.68-.91,2.29-.91,3.59,0,1.5-.29,2.36-.81,2.37-1.6.02-5.44,4.87-6.91,8.76-1.86,4.9-3.73,8.03-6.41,10.77-2.32,2.38-4.27,2.36-3.69-.02.19-.78.64-3.54,1.02-6.14.79-5.52,1.11-6.22,4.39-9.85,1.36-1.5,2.96-4.09,3.56-5.76.81-2.24,1.65-3.33,3.21-4.15,1.24-.66,1.67-1.12,1.03-1.11-1.75.02-4.6,3.26-5.75,6.55-.59,1.67-1.47,3.2-1.96,3.4-1.39.55-4.53,5.47-8.58,13.44-3.02,5.94-4.22,7.66-6.51,9.33-3.17,2.32-3.14,2.3-4.24,1.62-.64-.4-.55-1.37.43-4.66.68-2.29,1.65-4.96,2.15-5.95,1-1.97.41-2.55-1.51-1.5-2.73,1.5-3.42.96-3.05-2.41.34-3.1,4.62-13.4,5.91-14.21.37-.23.67-.88.66-1.44-.01-1.25,3.5-9.33,5.1-11.72,1.36-2.04,9.61-6.47,13.12-7.05,2.62-.43,2.78-.16,1.44,2.46-1.19,2.35-1.15,5.26.11,7.02,1.07,1.5,4.56,3.42,7.39,4.07,1.98.45,2.12.89.83,2.62M137.99,189.9c-1.57-2.77-2.5-3.41-3.76-2.61-1.71,1.09-1.46,1.61.87,1.81,1.81.16,2.03.38,1.94,1.95-.07,1.09.17,1.68.6,1.53,1.04-.36,1.15-1.26.34-2.68M130.51,119.21c-.88,0-3.71,3.75-5.36,7.08-.84,1.7-2.5,4.64-3.69,6.54-2.03,3.25-3.62,6.63-3.1,6.63.43,0,5.87-9.24,7.83-13.28,1.06-2.19,2.59-4.66,3.4-5.48.81-.82,1.22-1.49.92-1.49M108.5,364.78c-1.27-3.26-2.39-5.65-2.49-5.32-.1.33.96,3.56,2.36,7.18,1.4,3.62,2.52,6.01,2.49,5.32-.03-.69-1.09-3.92-2.36-7.18M106.29,198.39c-.62-1.12-1.15-1.55-1.3-1.06-.45,1.4.5,3.9,1.47,3.89,1.16-.01,1.14-.47-.17-2.83M104.44,381.63c-.69.39-2.25,1.8-3.48,3.13-1.23,1.33-6.61,5.43-11.97,9.12-5.36,3.68-9.64,6.8-9.51,6.92.49.48,22.59-15.53,24.34-17.64,1.34-1.61,1.51-2.03.61-1.53M102.95,357.24c-.35-.01-7.11,3.32-15.02,7.41-13.79,7.11-14.64,7.46-20.13,8.2l-5.73.77-5.94-4.61c-3.27-2.54-8.43-6.63-11.47-9.09-8.75-7.09-26.32-19.04-32.17-21.89-6.57-3.2-5.94-2.31.88,1.24,5.31,2.77,27.12,17.89,29.55,20.49.74.8,13.27,10.52,16.24,12.6,2.45,1.72,3.69,2.2,5.05,1.97,10.21-1.73,10.63-1.88,22.49-8.02,13.46-6.97,17.17-9.04,16.27-9.07M82.03,496.48c-.98-1.55-4.95-8.16-8.81-14.7l-7.03-11.88-1.84-9.1c-1.81-8.94-2.84-12.71-2.9-10.61-.04,1.22,3.64,18.58,4.3,20.34.56,1.47,16.8,29.12,17.62,29.99,1.24,1.33.35-1.39-1.33-4.04M73.57,404.72c-1.31.01-4.4,3.71-9.29,11.13l-5.03,7.63.15,5,.15,5,.34-5.14q.34-5.14,5.11-12.39c2.62-3.99,5.77-8.14,6.99-9.24,1.22-1.09,1.93-1.99,1.58-1.98M65.07,296.87c-9.27-11.22-16.16-18.98-16.85-18.97-.42,0-6.68,2.44-13.93,5.41-7.24,2.97-15.64,6.37-18.65,7.56-3.02,1.19-5.48,2.38-5.48,2.65,0,.7-.48.86,10.42-3.44,5.47-2.16,10.94-4.3,12.15-4.76,1.21-.46,5.12-2.17,8.69-3.8,3.57-1.63,6.59-2.97,6.71-2.97s4.51,5.03,9.76,11.18c8.35,9.78,10.89,12.53,10.84,11.77,0-.11-1.66-2.18-3.66-4.61M63.41,341.54c-1.11.25-3.51-.41-7.47-2.05-3.21-1.33-5.52-2.06-5.14-1.61.38.45,1.9,1.3,3.38,1.89,1.48.59,3.62,1.46,4.76,1.94,2.47,1.02,3.9,1.06,5.17.14.73-.53.57-.6-.7-.31M56.51,18.11c-3.06-6.3-7.79-14.56-8.13-14.21-.42.43,8.12,16.76,9.5,18.18.92.95.69.27-1.37-3.97M59.71,439.14c-.73-4.47-.82-4.68-.81-1.88,0,1.73.39,4.56.85,6.28,1.05,3.93,1.04,2.14-.04-4.4M24.91,1.65c-12.97.13-18.28.26-11.79.3,6.49.04,17.1-.07,23.59-.23,6.48-.17,1.18-.2-11.8-.07M33.52,114.5c-.31-1.21-1.8-8.82-3.32-16.91-2.94-15.72-7.55-32.52-9.49-34.65-2.54-2.79-18-16.12-18-15.52,0,.94,2.71,3.56,10.17,9.85,3.67,3.1,7.04,6.06,7.48,6.58,1.8,2.12,7.28,23.86,10.01,39.68,1.13,6.52,3.38,17.57,3.64,17.84.45.47.08-4.62-.49-6.86"/>
</svg>