<?xml version="1.0" encoding="UTF-8"?>
<svg id="Warstwa_1" data-name="Warstwa 1" xmlns="http://www.w3.org/2000/svg" viewBox="0 0 390.14 496.73">
  <defs>
    <style>
      .cls-1 {
        fill: #010101;
      }
    </style>
  </defs>
  <path class="cls-1" d="M295.03,482.55c-3.31,2.83-3.32,2.87-1.06,3.59,1.77.56,2.81.12,4.6-1.96,4.42-5.14,1.92-6.29-3.54-1.63Z"/>
  <path class="cls-1" d="M223.11,327.86c-2.88,3.07-2.89,7.17,0,9.19,3.35,2.35,4.17,1.87,1.85-1.08-2.49-3.17-2.57-4.16-.47-6.48,2.49-2.76,1.17-4.34-1.37-1.63Z"/>
  <path class="cls-1" d="M260.88,467.43c0,1.56,5.8,7.31,6.4,6.35.33-.53-.63-2.36-2.12-4.07-2.67-3.04-4.28-3.9-4.28-2.28Z"/>
  <path class="cls-1" d="M193.95,450.21c-.32.32,4.6.45,10.92.29,6.33-.16,12.51.05,13.73.47,1.7.58,2.84.15,4.79-1.79,1.41-1.41,3.96-3.28,5.67-4.17,1.71-.89,4.91-2.91,7.11-4.5,3.28-2.38,5-2.89,9.6-2.88,4.19,0,8.12-.99,15.6-3.94,5.5-2.17,11.24-4.21,12.75-4.53,1.6-.34,2.75-1.24,2.75-2.16,0-1.02-.55-1.38-1.54-1-.84.32-4.11,1.32-7.25,2.21-3.14.89-6.75,2.27-8.01,3.07-2.79,1.76-6.2.88-6.2-1.6,0-1-.75-2.43-1.67-3.18-1.51-1.23-1.6-1.12-.93,1.13.41,1.38.97,3.22,1.25,4.11.55,1.72-3.04,2.89-8.84,2.89-3.57,0-6.08,1.27-11.24,5.65-2.16,1.84-4.69,3.35-5.61,3.35s-2.77.86-4.1,1.9c-1.87,1.47-4.12,1.91-9.89,1.95-7.28.05-17.74,1.57-18.89,2.74Z"/>
  <path class="cls-1" d="M347.93,413.11c1.21-5.85,1.11-13.04-.22-15.95-1.58-3.47-3.29-3.31-2.2.2.47,1.51.89,6.12.93,10.25.09,9.34.43,10.6,1.48,5.5Z"/>
  <path class="cls-1" d="M372.88,315.77c0-.49-2.03-1.16-4.5-1.5-2.47-.34-5.56-.88-6.86-1.21-1.56-.39-2.98.03-4.19,1.23-1.77,1.76-1.67,1.84,3.11,2.36,2.71.3,5.84,1.02,6.94,1.61,2.7,1.45,10.5,2.58,10.5,1.52,0-.47-1.12-1.36-2.5-1.99-1.38-.63-2.5-1.54-2.5-2.03Z"/>
  <path class="cls-1" d="M262.38,488.98l3.32.38c3.95.46,6.18-1.12,6.18-4.38,0-2.85-1.62-3.15-2.47-.46-.34,1.05-2.05,2.49-3.82,3.19l-3.21,1.27Z"/>
  <path class="cls-1" d="M303.52,473.49c2.44-2.02,1.44-2.88-3.39-2.91-2.61-.02-5.62-.69-6.69-1.5-2.26-1.71-3.56-1.88-3.56-.47,0,.55.43,1,.96,1s1.77.83,2.75,1.86c2.26,2.34,8.11,3.54,9.93,2.03Z"/>
  <path class="cls-1" d="M316.61,425.61c1.31,0,2.14-.39,1.84-.87s-1.63-.66-2.96-.4c-1.59.3-3.15-.26-4.52-1.63-2.37-2.37-3.98-2.86-2.15-.65,2.17,2.61,4.02,11.91,4.04,20.22.02,13.16-4.84,23.1-9.95,20.36-1.05-.56-2.79-1.02-3.87-1.02s-5.38-1.72-9.57-3.82c-4.18-2.1-7.61-3.52-7.61-3.15,0,2.17,10.49,7.98,14.41,7.98,1.37,0,2.9.73,3.4,1.63,1.3,2.32,7.61,2.7,9.41.57.78-.93,2.88-5.02,4.66-9.09,2.64-6.04,3.05-7.87,2.24-10-.55-1.43-1.17-6.54-1.38-11.35-.38-8.66-.36-8.75,1.99-8.75Z"/>
  <path class="cls-1" d="M283.88,439.3c0,2.21,3.9,10.66,5.79,12.55,3.62,3.62,3.48,1.34-.34-5.61-3.41-6.2-5.46-8.8-5.46-6.93Z"/>
  <path class="cls-1" d="M280.42,428.54c-.67,1.09,2.46,8.07,3.62,8.07,1.42,0,2.03-4.76.88-6.91-1.16-2.17-3.51-2.78-4.51-1.16Z"/>
  <path class="cls-1" d="M266.88,265.08c0,.81,1.24,2.12,2.75,2.91,1.51.79,4.04,2.54,5.61,3.91,1.58,1.36,4.73,3.49,7,4.74l4.14,2.26-4-4.27c-3.49-3.72-13.39-11.02-14.95-11.02-.3,0-.55.66-.55,1.47Z"/>
  <path class="cls-1" d="M251.45,318.16q-.72-3.83,2.26-3.23l2.98.6-2-5.71c-2.36-6.73-2.57-7.02-3.43-4.78-.36.94-.15,2.22.48,2.84,1.88,1.88,1.37,2.4-4.62,4.81-9.58,3.84-16.25,7.98-16.25,10.08,0,1.47,2.01.92,4.25-1.17,2.87-2.68,4.06-2.11,5.22,2.52.72,2.86.66,3.96-.25,4.26-.67.22-1.22,1.01-1.22,1.74s-1.24,2.23-2.75,3.33c-3.93,2.86-2.06,3.83,2.25,1.17,6.59-4.07,7.75-8.54,3.79-14.66-1.31-2.02-1.2-2.2,1.65-2.83,1.67-.37,3.3-1.08,3.61-1.59,1.15-1.87,2.37-.88,1.57,1.28-2.28,6.16,4.55,15.79,11.19,15.79,6.29,0,14.96,7.18,21.41,17.73,3.77,6.17,12.82,14.95,18.34,17.81,4,2.07,3.72.36-.32-2.01-5.72-3.36-13.5-11.49-17.59-18.37-5.31-8.94-14.88-17.15-20.01-17.17-2.01,0-4.12-.35-4.7-.75-1.9-1.34-5.15-7.79-5.88-11.68Z"/>
  <path class="cls-1" d="M204.28,464.04c1.41-.35,3.38.02,4.75.91,1.29.83,4.02,1.82,6.06,2.19,2.04.37,4.24,1.31,4.88,2.08.95,1.14,1.58.62,3.43-2.85,2.72-5.09,4.43-5.35,6.6-1.01.89,1.78,2.18,3.91,2.86,4.74.73.88.98,2.56.6,4.08-.52,2.06-.02,3.17,2.49,5.51,1.73,1.61,3.29,2.93,3.47,2.93.65,0-1.53-6.39-2.52-7.38-.56-.56-1.02-1.8-1.02-2.76,0-2.08-9.06-17.86-10.25-17.86-.46,0-.73.56-.59,1.25.35,1.84-1.17,6-2.93,8-2.01,2.29-4.9,2.21-9.74-.26-2.16-1.1-5.07-1.81-6.46-1.58-1.39.23-2.87.46-3.28.51-.41.05-.75.54-.75,1.1s1.04.76,2.41.41Z"/>
  <path class="cls-1" d="M258.46,443.61c1.73,0,2.42-.55,2.42-1.94,0-2.6-1.1-3.12-3.62-1.72-2.67,1.48-1.95,3.66,1.2,3.66Z"/>
  <path class="cls-1" d="M239.88,488.85c0,.85-.67,1.8-1.48,2.12-1.71.66-.94,3.65.93,3.65.68,0,1.99-.83,2.9-1.84,1.56-1.72,1.53-1.95-.35-3.66-1.7-1.53-2.01-1.58-2.01-.27Z"/>
  <path class="cls-1" d="M285.19,478.69c.91-.92.63-1.6-1.22-3.01-1.66-1.25-2.19-2.37-1.73-3.59.39-1.01-.01-2.82-.94-4.23-1.11-1.7-1.29-2.79-.58-3.5.71-.71.12-2.16-1.87-4.64-1.6-1.99-5.07-6.5-7.73-10.04-5.04-6.72-6.6-7.93-7.76-6.04-.39.62.14,1.73,1.16,2.45,2.19,1.56,4.51,5.86,7.39,13.75,1.35,3.69,3.14,6.47,5.03,7.82,1.62,1.15,2.94,2.85,2.94,3.77s.93,3.21,2.07,5.07c1.59,2.61,2.33,3.11,3.25,2.2Z"/>
  <path class="cls-1" d="M249.25,484.36c5.96-9.45,8.9-31.38,4.72-35.17-1.05-.95-2.45-3.05-3.12-4.66-1.24-2.98-2.06-3.21-7.47-2.05-3.73.8-3.05,2.62.98,2.62,2.2,0,3.08.53,3.34,2,.2,1.1,1.2,2.67,2.24,3.5,1.55,1.23,1.92,3.01,2.07,10,.21,9.54-.54,13-2.8,13-.88,0-1.32.58-1.03,1.34.28.74.17,1.9-.26,2.59-.53.87-1.43.19-2.91-2.21-2.7-4.38-2.68-4.72.36-4.72,1.38,0,2.5-.45,2.5-1s-.59-1-1.31-1c-2.08,0-6.12-6.18-6.36-9.73-.26-3.87.65-4.61,4.09-3.31,3.07,1.17,3.41,4,.58,4.74-2.49.65-2.63,2.29-.2,2.29,2.22,0,4.21-1.88,4.18-3.95-.03-2.16-11.68-12.35-13.11-11.47-.63.39-2.44.68-4.01.63-3.16-.09-3.4.5-1.7,4.24,1.46,3.21,3.08,3.34,2.28.18-.46-1.82-.12-2.49,1.44-2.9,2.99-.78,4.69,1.69,3.28,4.78-1.23,2.71-.63,7.59,1.43,11.48,2.09,3.95,7.4,18,7.4,19.58,0,2.15,1.77,1.71,3.37-.83Z"/>
  <path class="cls-1" d="M261.56,270.26c-1.11,1.11,3.21,8.08,7.44,11.97,2.32,2.13,5.82,5.52,7.79,7.53,6.59,6.72,11.08,10.18,11.08,8.53,0-2.15-9.08-11.68-11.14-11.68-.93,0-2.67-1.58-3.86-3.5-1.19-1.92-2.96-4.06-3.93-4.75-.97-.69-2.51-2.68-3.41-4.44-1.77-3.45-3.03-4.6-3.97-3.66Z"/>
  <path class="cls-1" d="M151.37,485.45c.77-.77-5.77-6.55-8.24-7.3-1.24-.37-2.25-.31-2.25.14,0,1.06,9.86,7.79,10.49,7.16Z"/>
  <path class="cls-1" d="M101.5,469.72c-1.51-1.25-7.63-2.66-7.63-1.76,0,.33,1.35,1.3,3,2.15,3.43,1.77,3.95,4.44,1,5.21-2.34.61-2.46,1.86-.5,5.29,1.96,3.43,1.84,4.68-.5,5.29-3.44.9-2.37,2.99,1.25,2.44,2.11-.33,3.86.04,5.01,1.05,3.06,2.7,2.96.64-.29-6.04-3.02-6.2-3.09-6.6-1.59-9.51,1.29-2.49,1.34-3.23.25-4.13Z"/>
  <path class="cls-1" d="M163.88,308.92c0-2.95-.4-2.92-1.8.14-.62,1.35-2.53,3.18-4.25,4.07-1.72.89-2.9,1.86-2.61,2.15.29.29,2.36-.5,4.59-1.76,2.93-1.65,4.07-2.93,4.07-4.6Z"/>
  <path class="cls-1" d="M178.88,167.47c0-1.21.72-3,1.6-3.97,1.48-1.63,1.39-2.04-1.12-5.33-2.27-2.98-3.31-3.55-6.35-3.48-2,.05-4.78.43-6.19.86-4.22,1.28-7.16,3.13-12.94,8.14-3.02,2.62-6.74,5.07-8.25,5.45-3.98.99-3.38,2.12,1.5,2.79,4.16.57,4.36.46,9.39-5.12l5.14-5.7,2.42,2.25c4,3.72,6.79,2.54,9.6-4.06,1.51-3.54,3.19-2.61,3.19,1.78,0,5.25-4.28,8.24-13.04,9.1-5.29.52-7.27,1.14-8,2.5-1.42,2.65.06,3.06,7.21,2.03,8.99-1.3,15.83-4.42,15.83-7.24Z"/>
  <path class="cls-1" d="M99.38,322.57c-1.87.76-1.84.84.5,1.37,10.03,2.24,56.99,3.19,58,1.17.29-.59-2.39-1.31-6.5-1.74-10.54-1.12-49.71-1.72-52-.79Z"/>
  <path class="cls-1" d="M64.69,266.61c-2.41-2.85-2.38-2.64,1.24,7.5,2.2,6.15,11,16.99,13.82,17.01.75,0,2.55,1.41,4,3.12,3.9,4.6,11.24,7.47,20.72,8.1,11.23.75,17.16-1.53,30.87-11.85,5.37-4.04,6.54-4.09,6.54-.3,0,3.25,6.04,6.47,8.43,4.49,3.02-2.5,2.85-12.8-.22-13.83-.88-.29-1.02,1.2-.55,5.68.35,3.34.32,6.08-.07,6.08-1.81,0-4.58-2.27-6.43-5.27-1.69-2.73-1.88-3.96-1.11-7.26.51-2.18.93-4.86.95-5.94.02-1.85-.07-1.87-1.68-.26-.94.94-2.4,3.47-3.25,5.62-1.93,4.9-9.85,11.71-18.53,15.94-5.23,2.55-7.71,3.16-12.95,3.16-10.56,0-15.43-2.54-26.8-14-9.44-9.51-9.76-9.98-9.76-14.33s-3.29-15.03-5.25-17.17c-.56-.61-.64.96-.2,4,.39,2.75,1.1,5.76,1.58,6.68.48.93.86,2.5.84,3.5-.03,1.55-.35,1.45-2.16-.68Z"/>
  <path class="cls-1" d="M107.13,227.27c-1.24-1.11-2.25-3.04-2.25-4.29,0-2.86-2.01-7.37-3.28-7.37-.56,0-.77,2.32-.51,5.48.51,6.11,1.82,8.03,8.79,12.87,4.07,2.83,5.26,3.13,12.42,3.22l7.92.09,4.33,5.41c6.03,7.53,7.94,12.82,6.59,18.22-.58,2.31-1.64,5.64-2.36,7.41-1.49,3.66-.93,4.75,1.96,3.83,2.86-.91,5.48-9.38,4.94-15.93-.45-5.39-4.82-13.02-11.68-20.38-2.74-2.94-3.44-3.21-7-2.64-3.7.59-4.06.42-5.6-2.55-1.15-2.22-1.56-5.13-1.36-9.59.18-4.08-.16-6.85-.94-7.63-1.43-1.43-1.65-6.45-.32-7.27,1.28-.79,6.09,9.24,6.09,12.69,0,4.1,2.57,8.48,6.02,10.26,3.82,1.98,3.8.49-.05-3.9-1.67-1.9-3.66-5.63-4.43-8.28-.76-2.65-2.42-7.53-3.67-10.83-2.16-5.67-2.28-7.39-2.29-31,0-21.98.26-26.36,2.25-36.3,1.24-6.22,3.34-14.32,4.65-18,2.76-7.74,5.6-18.36,6.05-22.7.55-5.2,1.69-8.94,3.26-10.75,1.94-2.22,1.32-2.19-1.39.08-3.34,2.79-4.7,5.92-7.9,18.17-2.57,9.83-3.29,11.5-5,11.5s-2.03.75-2.26,5.5c-.14,3.03-1.18,12.17-2.31,20.33-1.63,11.76-2.1,20.8-2.24,43.79-.18,28.35-.23,28.96-2.19,28.67-1.71-.24-2.02-1.09-2.11-5.79-.15-7.64-.23-8-1.66-8-.85,0-1.36,2.04-1.57,6.25-.17,3.44-.72,6.68-1.23,7.2-2.12,2.16-.82,3.24,3.79,3.15l4.73-.1.87,5.5c.48,3.02,1.5,6.21,2.27,7.08,4.85,5.47-4.59,2.63-11.35-3.41Z"/>
  <path class="cls-1" d="M81.45,470.81c-1.88-1.65-4.92-3.33-6.75-3.71-1.83-.39-4.11-1.4-5.08-2.26-2.09-1.84-1.94-1.97-4.55,4l-2.06,4.73-4.23-1.49c-5.18-1.83-7.02-3.28-6.82-5.37.26-2.71-.04-4.1-.88-4.1-.44,0-.91,1.82-1.04,4.04-.24,4-.18,4.06,5.4,6.62,6.72,3.08,9.52,2.37,12.11-3.08l1.65-3.46,3.4,1.74c1.87.96,3.95,2.84,4.62,4.19,1.03,2.07,1.82,2.4,5.19,2.13,2.23-.17,4.54-1.05,5.26-1.99,1.06-1.38,1.44-1.43,2.14-.3,1.3,2.1,2.87.49,2.32-2.38-.63-3.3-4.25-5.8-12.17-8.4-7.11-2.34-8.69-2.53-9.52-1.19-.31.5,1.8,1.68,4.69,2.61,7.86,2.54,9.76,4.02,9.76,7.6v3.08l-3.43-3.01Z"/>
  <path class="cls-1" d="M285.19,493.33c-2.36.29-3.27.96-3.5,2.59-.04.31-.09.58-.2.81.17,0,.34,0,.51-.01.81-.02,1.62-.06,2.43-.09,1.09-.85,3.03-1.14,4.41-.27.06.04.11.06.17.1.81-.04,1.62-.08,2.43-.12.13-.19.26-.4.4-.67,1.77-3.3,1.58-3.37-6.66-2.34Z"/>
  <path class="cls-1" d="M322.44,318.76c-3.71,1.69-3.18,3.19.86,2.43,2.02-.38,6.12.03,10,1.01,7.39,1.86,7.76,2.57,4.69,8.97-3.25,6.77-4.42,15.04-3.68,25.94.4,5.93,1.27,10.9,2.12,12.21,3.06,4.69,1.28,5.43-5.68,2.35-5.39-2.38-14.88-3.8-14.88-2.23,0,.6,1.91,1.58,4.25,2.18,8.12,2.09,16.73,5.15,17.36,6.16.35.56-.32,2.21-1.49,3.67-1.16,1.46-3.22,4.67-4.58,7.15-1.35,2.47-4.1,5.62-6.1,7-2,1.38-7.31,6-11.79,10.28-7.8,7.45-8.31,7.75-11.85,7.17-4.23-.7-8.61.88-5.21,1.88,1.05.31,3.94.85,6.41,1.19l4.5.63,6-7.23c3.83-4.62,7.45-7.87,10-9.01,4.53-2.02,9.94-7.28,10.97-10.68.86-2.86,5.64-10.22,6.64-10.22.41,0,1.24,1.49,1.84,3.32,1.26,3.81,6.03,8.68,10.92,11.15l3.36,1.69-.68,6.67c-.75,7.31-3.61,14.52-8.68,21.89-1.81,2.63-4.36,6.92-5.66,9.53-1.59,3.18-3,4.75-4.28,4.75-2.42,0-2.41-1.67.07-7.95,1.09-2.76,1.96-6.72,1.93-8.79-.03-2.07.41-6.69.97-10.27,1.03-6.52.9-8.12-1.08-13.28-.99-2.58-1.16-2.65-2.34-.97-1.72,2.46-2,7.16-.62,10.55,2.17,5.34,2.34,7.38.73,8.99-1.86,1.86-2.05,4.39-.37,4.95,1.46.49-.67,6.35-2.57,7.08-.66.25-1.29,2.74-1.41,5.55-.2,4.69-.02,5.15,2.28,5.73,5.67,1.42,8.49-1.26,17.44-16.59,2.09-3.58,5.32-7.55,7.18-8.84,3.03-2.09,4.09-2.27,10.14-1.69,4.19.4,6.75.28,6.75-.33,0-.54-1.29-1.27-2.87-1.61-3.45-.76-6.33-3.78-8.12-8.53-1.47-3.91-5.75-9-7.55-9-.65,0-3.34-1.91-5.99-4.24-11.22-9.87-16.26-23.27-15.14-40.24.83-12.71,4.33-22.02,10.97-29.18,1.61-1.74,2.66-3.61,2.33-4.15-.33-.54-.66-6.2-.73-12.59-.07-6.38-.22-11.6-.34-11.6s-.52.3-.88.67c-.37.37-.67,4.35-.67,8.85,0,8.66-1.09,13.24-4.22,17.73-1.51,2.17-2.29,2.55-3.7,1.79-3.6-1.92-14.79-3.13-17.51-1.89ZM359.55,405.25c.64-3.95,1.22-3.85,3.07.51,1,2.35.88,2.71-1.02,3.21-2.76.72-2.77.7-2.06-3.72Z"/>
  <path class="cls-1" d="M368.04,395.6c.8,2.4,16.84,7.22,16.84,5.07,0-.83-9.22-4.47-14.38-5.67-2.11-.49-2.77-.33-2.46.61Z"/>
  <path class="cls-1" d="M302.59,285.11c-10.94-16.43-14.32-20.59-19.47-23.96-2.89-1.89-5.25-3.2-5.25-2.92s2.59,3.07,5.75,6.21c3.16,3.13,7.08,7.94,8.7,10.68,1.62,2.74,4.18,6.56,5.69,8.49s3.03,4.72,3.4,6.21c.36,1.49,1.25,3.2,1.96,3.79.72.59,2.09,4.1,3.06,7.79.97,3.69,2.14,7.14,2.6,7.66.8.9,1.29-3.49.89-7.95-.14-1.55.68-1.06,3.64,2.15,4.36,4.74,13.92,10.38,17.43,10.29,2.24-.06,2.26-.11.34-.89-1.12-.45-2.66-1.58-3.43-2.51-.77-.93-3-2.51-4.97-3.51-4.72-2.41-14.55-12.82-20.35-21.53Z"/>
  <path class="cls-1" d="M180.94,138.61c.58,0,.78-.45.44-1-.86-1.39-14.83-1.1-21.5.44-3.02.7-7.08,1.98-9,2.85-5.65,2.54-16.7,15.12-15.76,17.94.2.6,2.36-1.27,4.8-4.16,2.44-2.89,6.24-6.31,8.45-7.6,5.46-3.18,16.07-4.86,26.17-4.15,7.84.55,11.76-.41,7.35-1.81-2.1-.67-2.8-2.51-.96-2.51Z"/>
  <path class="cls-1" d="M389.93,324.04c.06-.76.13-1.52.21-2.28-.68-.04-1.35-.06-1.99-.05l-5.78.1,4,1.32c1.02.34,2.29.65,3.55.91Z"/>
  <path class="cls-1" d="M341.88,217.88c4.95-.22,6.9-.76,5.91-1.65-.93-.84-4.64-1.24-8.23-.88-6.02.6-4,2.8,2.32,2.52Z"/>
  <path class="cls-1" d="M167.43,477.46c1.92,1.72,10.51,3.48,11.62,2.38,1.87-1.87.02-3.26-2.87-2.16-1.78.68-3.6.66-5.61-.04-3.62-1.26-4.38-1.31-3.13-.19Z"/>
  <path class="cls-1" d="M156.38,150.47c-4.31,1.96-7.21,4.76-6.09,5.88.38.38,1.46.15,2.39-.51,3.35-2.35,10.46-5.38,14.55-6.19l4.15-.82-5.5-.09c-3.36-.05-7.06.62-9.5,1.73Z"/>
  <path class="cls-1" d="M285.88,210.41c0,1.29,17.43,4.27,28.68,4.91,10.25.58,11.99.25,8.49-1.62-4.41-2.36-37.17-5.26-37.17-3.29Z"/>
  <path class="cls-1" d="M210.38,490.19c-.55-.24.12-1.35,1.5-2.48l2.5-2.05-3.11.87c-5.47,1.53-11.11-.59-8.51-3.2,1.38-1.38,1.44-2.71.11-2.71-.55,0-1,.67-1,1.5,0,1.86-.39,1.86-3.93.04-3.55-1.84-4.52-4.17-2.28-5.48,1.58-.92,1.57-1-.14-1.03-2.67-.04-7.56-3.17-8.22-5.25-.31-.98-1.35-1.78-2.32-1.78-1.02,0-2.35-1.36-3.18-3.25-1.32-2.99-1.83-3.27-6.43-3.46l-5-.21,4.29,1.55c2.36.85,5.01,2.64,5.88,3.98,2.33,3.56,18.73,17.88,26.77,23.38,2.36,1.61,4.2,2.85,5.64,3.76,1.42.1,2.84.19,4.27.28-1.35-1.34-4.53-3.47-6.85-4.47Z"/>
  <path class="cls-1" d="M194.24,295.28c-2.12-2.54-2.36-2.62-2.36-.78s2.75,7.19,9.4,18.35c4.3,7.22,9.37,10.73,15.5,10.75,2.2,0-1.77-3.91-5.57-5.5-1.76-.74-3.93-2.75-4.82-4.47-1.52-2.93-1.5-3.33.3-6.33,2.04-3.4,1.56-8.23-.98-9.8-2.08-1.29-2.72-.05-1.56,3.02.85,2.24.8,3.28-.21,4.5-1.99,2.4-2.83,1.96-5.18-2.67-1.19-2.34-3.22-5.52-4.52-7.08Z"/>
  <path class="cls-1" d="M44.97,453.06c-1.57-.5-2.18-.41-1.77.26,1.33,2.15,6.6,3.53,10.41,2.71l3.77-.8-5-.7c-2.75-.38-6.08-1.05-7.41-1.47Z"/>
  <path class="cls-1" d="M47.98,335.17c-.68-.42-1.1.23-1.1,1.73,0,3.91-4.07,8.74-10.61,12.6-9.6,5.66-15.61,10.55-19.14,15.55-5.27,7.48-3.75,7.2,4-.76,5.18-5.32,9.32-8.48,14.49-11.07,5.11-2.56,7.97-4.74,9.73-7.39,2.92-4.42,4.22-9.68,2.63-10.66Z"/>
  <path class="cls-1" d="M77.49,486.61c1.52,0,2.43-3.69,1.52-6.15-.63-1.7-.91-1.48-2.12,1.6-.77,1.96-1.78,3.55-2.26,3.55-.66,0-2.31,3.03-3.48,5.88.25.02.5.04.75.05.87.05,1.75.09,2.63.14.02-.06.05-.12.07-.19.96-2.69,2.26-4.89,2.89-4.89Z"/>
  <path class="cls-1" d="M36.88,441.31c-.82-.33-3.34-1.08-5.59-1.65-2.71-.69-4.45-1.84-5.16-3.4-.59-1.3-2.51-3.43-4.26-4.76-6.44-4.85-8.68-7.51-10.48-12.4-1.74-4.73-4.53-9.05-4.51-6.96,0,.53.67,3.15,1.48,5.82,2.17,7.14,5.12,11.4,8.42,12.12,3.25.71,6.51,3.84,7.94,7.62.72,1.91,2.16,2.93,5.45,3.85,4.45,1.25,9.9,1.05,6.7-.24Z"/>
  <path class="cls-1" d="M2.48,424.01c1.01.39,1.4-.29,1.4-2.43,0-2.71-1.67-3.96-3.22-2.41-.93.93.33,4.27,1.82,4.84Z"/>
  <path class="cls-1" d="M.91,472.11c.29-2.92-.05-5.2-.91-6.67,0,2.17,0,4.35.03,6.52,0,.16,0,.32.01.48.53.96.75.8.86-.34Z"/>
  <path class="cls-1" d="M22.27,445.74c-5.22-.98-10.23-5.88-14.35-14.03-1.69-3.35-3.34-6.1-3.67-6.1s-.27.79.12,1.75c1.45,3.54,1.03,4.75-1.77,5.07-3.26.38-2.67,2.18.72,2.18,2.8,0,3.62,1.75,2.9,6.2-.3,1.82-.09,4.89.46,6.81.97,3.37,1.01,3.3,1.09-2.26.08-5.28,1.09-7.17,2.56-4.8,1.36,2.2,9.84,7.05,12.33,7.06,1.48,0,3.9.63,5.37,1.4,2.89,1.51,12.86,3.89,13.52,3.23.56-.56-14.29-5.57-19.3-6.51Z"/>
  <path class="cls-1" d="M263.06.36c7.09.13,17.83.16,26.75.09-4.33-.12-8.67-.24-13-.38-16.09.02-22.32.14-13.75.3Z"/>
  <path class="cls-1" d="M263.93,175.28c-.03.64.88,3.33,2.01,5.98s2.47,6.4,2.97,8.33c.83,3.2.86,3.09.39-1.15-.47-4.23-5.25-15.93-5.37-13.17Z"/>
  <path class="cls-1" d="M44.43,444.54c.52.51,4.77,2.33,9.45,4.04,7.38,2.7,9.83,3.11,18.62,3.14l10.12.03,3.32,3.43c4.12,4.26,8.23,4.52,13.59.89,5.24-3.55,7.47-2.96,9.02,2.4,1.75,6.08,2.92,7.14,7.82,7.14,2.49,0,4.75.6,5.46,1.45,1.94,2.34,11.12,5.05,12.04,3.56.42-.68,4.27-2.76,8.55-4.62,6.55-2.85,8.99-3.39,15.37-3.42,5.98-.02,7.18-.26,5.7-1.12-3.88-2.25-20.38,1.15-27.18,5.61-3.15,2.06-3.23,2.05-9.49-1.72-2.99-1.8-7.36-3.84-9.7-4.54-2.68-.8-4.87-2.27-5.93-3.98-.92-1.49-2.36-3.27-3.19-3.96-2.42-2-6.71-1.51-8.35.95l-1.47,2.21-4.91-3.11c-8.14-5.15-14.89-7.65-17.25-6.39-3.32,1.78-16,1.27-23-.93-6.9-2.16-10.15-2.56-8.61-1.06Z"/>
  <path class="cls-1" d="M59.88,300.99c0,2.07,11.55,7.62,15.84,7.6,4.78-.02,8.28-.98,7.59-2.1-.3-.49-2.21-.89-4.24-.89-2.18,0-5.94-1.21-9.19-2.96-5.95-3.2-10-3.87-10-1.65Z"/>
  <path class="cls-1" d="M148.2.36c21-.15,3.53-.27-38.82-.27s-59.53.12-38.18.27c21.35.15,56,.15,77,0Z"/>
  <path class="cls-1" d="M54.51,164.61c.12,7.97.24,22.38.27,32,.06,22.37,3.17,61.76,4.97,62.96.44.29,1.29,1.43,1.9,2.54,1.46,2.64.67-13.26-1.33-26.5-1.26-8.4-1.91-30.04-1.41-47.5.09-3.3-.09-14.96-.41-25.92-.52-17.8-.37-20.84,1.44-28.5,1.11-4.72,2.54-9.71,3.16-11.08.62-1.38,1.67-5.44,2.32-9.03,1.67-9.26,10.21-26.52,16.71-33.78,11.94-13.33,16.46-16.1,31.98-19.61,1.51-.34,2.75-1.06,2.75-1.6,0-1.5-8-1.09-12.5.64-2.2.85-5.12,1.79-6.5,2.1-1.38.31-4.62,2.52-7.21,4.92-4.29,3.97-6.79,5.35-6.79,3.74,0-.34,1.66-2.14,3.7-4,2.03-1.86,3.19-3.39,2.58-3.39-3.23,0-17.7,21.02-23.18,33.67-3.94,9.11-8.45,23.81-9.44,30.83-.31,2.2-1.17,8.27-1.91,13.5-.75,5.29-1.24,15.92-1.12,24Z"/>
  <path class="cls-1" d="M193.13.35c3.71.19,9.79.19,13.5,0,3.71-.19.67-.35-6.75-.35s-10.46.16-6.75.35Z"/>
  <path class="cls-1" d="M89.24,309.11c-2.67,1.92-8.36,5.59-12.65,8.16-9.04,5.41-9.91,6.35-5.88,6.35,2.77,0,10.79-4.66,15.76-9.16,1.15-1.04,4.05-2.89,6.45-4.12,2.4-1.22,4.53-2.78,4.74-3.47.73-2.39-3.58-1.24-8.42,2.25Z"/>
  <path class="cls-1" d="M136.03,45.14c-6.24,1.34-12.82,3.34-14.62,4.45-2.04,1.26-5,2.02-7.86,2.02-5.78,0-14.62,3.25-17.68,6.51-2.89,3.08-.93,3.29,3.19.36,4.34-3.09,10.39-4.61,15.35-3.86,3.47.53,5.02.21,8.13-1.67,3.87-2.34,7.34-3.05,7.34-1.49,0,1.05-2.99,3.71-5,4.45-.87.32-.37.58,1.18.63,1.88.05,3.31-.8,4.76-2.84,1.47-2.07,4.01-3.56,8.65-5.11,5.96-1.98,7.27-2.08,14.03-1.08,4.1.61,11.02,1.11,15.36,1.11,9.94,0,21.2,3.39,29.85,8.97,6.93,4.48,22.71,19.98,23.75,23.34.37,1.2,1.53,3.4,2.57,4.88,2.18,3.1,9.86,18.42,9.8,19.55-.02.42-1.26-.64-2.75-2.35-2.51-2.88-9.34-7.96-21.71-16.14-6.22-4.11-12.94-6.19-22-6.79-7.46-.49-16.78-1.84-25.1-3.62-4.37-.93-5.48-.84-7.75.65-1.58,1.03-2.65,1.29-2.65.62,0-1.82-2.55-1.27-4.58.97l-1.89,2.09,7.98-.28c9.28-.32,35.65,2.51,43.11,4.63,6.03,1.72,16.29,7.53,24.42,13.85,8.96,6.96,15.19,16.48,20.69,31.62,1.1,3.02,4.38,11.58,7.28,19,5,12.76,5.36,14.32,6.68,28.5,1.61,17.23,1.29,23.94-1.79,38.3-1.64,7.66-2.94,11.22-5.06,13.89-5.36,6.74-5.82,14.32-.87,14.32.96,0,4.39,1.34,7.63,2.99,7.1,3.6,7.59,3.65,6.86.74-.55-2.21-.24-2.32,9.73-3.5,5.67-.67,14.35-1.23,19.3-1.23,14.37,0,35.03-1.26,32.92-2-1.06-.37-15.2-.5-31.42-.28-41.1.56-41.98.54-43.52-.73-1.63-1.36-.66-4.6,3.02-9.98,4.52-6.64,6.89-18.77,6.93-35.5.05-19.76-.98-28.04-4.89-39.5-3.69-10.83-6.08-18.92-7.06-24-2.46-12.67-13.95-39.43-23.02-53.63-4.06-6.35-16.12-18.3-23.46-23.23-10.63-7.14-17.09-9.11-33.5-10.17-7.15-.46-14.8-1.07-17-1.36-2.38-.31-8.6.47-15.35,1.91Z"/>
  <path class="cls-1" d="M230.26,114.84c-2.46-.82-3.93-.67-7,.71-5.15,2.31-10.02,6.52-12.98,11.2-2.26,3.58-3.13,6.85-1.83,6.85.32,0,3.81-2.64,7.76-5.87,9.08-7.42,13.51-10.12,16.61-10.12,2.98,0,1.75-1.33-2.56-2.77Z"/>
  <path class="cls-1" d="M208.72,195.44c5.54-5.06,5.97-5.83,3.29-5.83-1.15,0-3.19,1.52-4.7,3.5-1.96,2.57-3.43,3.5-5.55,3.5-3.59,0-3.77,1.56-.29,2.43,2.12.53,3.44-.12,7.25-3.6Z"/>
  <path class="cls-1" d="M225.34,191.98c.73-1.01,2.35-1.84,3.6-1.85,1.24-.01,2.44-.55,2.65-1.2.26-.76-.37-.97-1.8-.6-2.05.53-2.15.33-1.52-3.05.49-2.6.21-4.34-.98-6.15-1.57-2.4-3.46-3.39-3.39-1.78.02.41.69,1.62,1.5,2.69,2.06,2.73,1.84,4.73-.98,8.89-2.51,3.69-1.64,6.55.92,3.04Z"/>
  <path class="cls-1" d="M218.63,233.18c-1.72,1.74-.5,7.12,3.39,14.97,2.28,4.59,4.75,8.58,5.5,8.87,1.72.66,1.75-.29.07-2.34-2.1-2.57-6.49-13.24-7.38-17.92-.45-2.39-1.16-4-1.58-3.58Z"/>
  <path class="cls-1" d="M233.34,132.84c-3.54-.19-5.87.29-8.11,1.67-1.73,1.07-3.43,2.41-3.78,2.98-.85,1.38,3.34,6.12,5.41,6.12,2.29,0,6.25-3.93,5.62-5.57-.84-2.2,1.57-2.91,3.04-.89,2.06,2.82,1.66,4.35-2.13,8.14l-3.47,3.47,3.22-.69c5.23-1.12,6.6-2.27,7.33-6.16,1.12-5.97-1.06-8.74-7.14-9.07Z"/>
  <path class="cls-1" d="M221.93,226.56c3.12-3.34,2.71-3.58-2.4-1.45-1.97.83-5.21,1.5-7.19,1.5-2.86,0-3.54-.35-3.28-1.71.23-1.18,2.04-2.08,5.82-2.89,7.91-1.69,11.99-3.4,11.99-5,0-1.74-.61-1.71-5,.21-1.92.84-5.49,1.7-7.93,1.9-3.66.31-5.2,1.14-8.88,4.82-2.45,2.45-4.17,4.89-3.84,5.43.35.57,4.21.8,9.28.56,8.05-.39,8.86-.63,11.42-3.37Z"/>
  <path class="cls-1" d="M236.25,265.92c-.76-.29-1.38-1.08-1.38-1.77,0-1.2-3.22-4.69-4.08-4.41-.23.07-2.4,1.14-4.81,2.36-4.56,2.31-4.27,4.28.37,2.51,3.77-1.43,4.23-1.3,4.91,1.43.34,1.34,1.44,2.7,2.45,3.02,1.8.57,8.17,8.56,8.14,10.21-.01.75-9.26,6.34-10.49,6.34-.27,0-.5-1.6-.5-3.56,0-4.38-1.92-12.27-3.17-13.05-.51-.31-1.46-.13-2.13.41-.66.54-3.48,1.28-6.25,1.65-5.93.8-8,1.85-6.95,3.54,1.04,1.68,6.81.63,10.35-1.89l2.83-2.02,1.16,5.03c1.52,6.59,1.47,7.88-.34,7.88-.83,0-1.5-.62-1.5-1.39s-.9-2.45-1.99-3.75l-1.99-2.36.24,4.4c.23,4.2.06,4.5-3.68,6.5-3.7,1.97-5.87,4.6-3.81,4.6.51,0,3.97-1.61,7.67-3.58,3.71-1.97,6.98-3.34,7.27-3.04,1.21,1.21-.93,3.74-6.03,7.13-2.97,1.98-5.92,4.72-6.55,6.09-1.47,3.22-1.4,4.31.14,2.39,1.18-1.47,6.19-4.99,7.1-4.99.25,0,1.24,2.05,2.19,4.56,1.57,4.12,1.59,4.7.18,6.11-1.41,1.41-1.62,1.35-2.23-.57-.92-2.89-2.69-1.58-1.94,1.42.48,1.91-.18,3.12-3.23,5.91-2.49,2.28-3.49,3.85-2.85,4.48.64.63,3.35-.99,7.73-4.59,5.72-4.71,6.75-6.04,6.74-8.69,0-1.72-.88-4.45-1.94-6.06l-1.93-2.93,3.94-3.82c2.17-2.1,4.72-3.84,5.69-3.85.96-.02,2.62-.69,3.69-1.5,3.06-2.31,4.36-1.77,6.73,2.78,3.22,6.17,3.52,2.41.47-6.03-2.61-7.23-7.95-16.02-10.27-16.91Z"/>
  <path class="cls-1" d="M246.88,246.18c0,.32,2.36,3.4,5.25,6.86,2.89,3.45,5.76,7.13,6.38,8.18.62,1.04,1.47,1.58,1.87,1.19,1.06-1.01-4.24-9.73-8.24-13.54-3.14-3-5.27-4.08-5.27-2.68Z"/>
  <path class="cls-1" d="M206.96,276.61c-1.12,0-2.71,1.03-3.53,2.29-1.26,1.93-1.3,3.05-.27,7.17.67,2.69,1.86,5.1,2.63,5.35,1.05.34,1.2-.02.61-1.42-1.63-3.83-1.74-7.48-.29-9.17,2.79-3.25,2.98-4.21.85-4.21Z"/>
  <path class="cls-1" d="M234.38,216.61c.83,0,1.5.45,1.5,1s.45,1,1,1c1.39,0,1.25-3.35-.2-4.8-1.69-1.69-5.77-1.49-6.33.3-.26.83-.69,2.21-.97,3.08-.47,1.48,8,11.41,9.75,11.42,1.96.01.39-4.07-2.74-7.1-3.82-3.71-4.3-4.89-2.01-4.89Z"/>
  <path class="cls-1" d="M193.51,285.67c-5.22-2.53-5.64-2.54-5.64-.22,0,1.02.79,2.53,1.75,3.36,1.92,1.66,8.32,4.06,9,3.38,1.29-1.29-1.39-4.71-5.11-6.51Z"/>
  <path class="cls-1" d="M186.06,463.61c.81,0,2.52-1.12,3.82-2.5,1.54-1.64,3.43-2.5,5.48-2.5,1.72,0,4.01-.66,5.08-1.47,1.87-1.41,1.85-1.47-.56-1.36-1.38.06-3.41.29-4.52.51-2.6.52-11.24,7.33-9.3,7.33Z"/>
  <path class="cls-1" d="M220.92,129.78c-3.47,2.03-5.95,4.58-6.01,6.18-.02.47,1.44-.43,3.24-2,1.8-1.57,4.39-3.62,5.75-4.55,3.45-2.37,1.22-2.09-2.98.37Z"/>
  <path class="cls-1" d="M244.13,296.86c-.46-5.82-1.33-7.54-2.7-5.33-1.52,2.46-1.64,9.67-.2,11.58,2.35,3.12,3.45.76,2.9-6.25Z"/>
  <path class="cls-1" d="M216.33,142.68c-2.71,4.3-2.91,7.43-.46,7.43.88,0,1.74-1.4,2.15-3.5.37-1.92,1-4.51,1.38-5.75,1.08-3.46-.23-2.68-3.08,1.82Z"/>
  <path class="cls-1" d="M206.36,140.89c-.56,4.47-.25,6.18,2.02,11.14,1.48,3.23,3.3,7.62,4.06,9.77,1.51,4.27,8.66,13.64,9.19,12.04.31-.93-3.42-8.34-6.33-12.59-.7-1.03-1.03-2.51-.73-3.29.3-.78-.17-2.22-1.05-3.19-2.22-2.45-4.78-10.06-4.6-13.66.23-4.48.04-5.5-.98-5.5-.51,0-1.23,2.38-1.59,5.28Z"/>
  <path class="cls-1" d="M199.16,189.23c.25.25,2.04-1.03,3.99-2.84,1.95-1.81,4.82-4.28,6.38-5.5,4.28-3.33,1.36-2.73-4.01.82-4.37,2.9-7.4,6.47-6.36,7.51Z"/>
</svg>