<?xml version="1.0" encoding="UTF-8"?>
<svg id="Warstwa_1" data-name="Warstwa 1" xmlns="http://www.w3.org/2000/svg" viewBox="0 0 403.21 492.68">
  <defs>
    <style>
      .cls-1 {
        fill: #010101;
      }
    </style>
  </defs>
  <path class="cls-1" d="M333.45,61.91c.75.75,7.27-5.09,7.27-6.52,0-2.11-3.34-.63-5.55,2.47-1.32,1.85-2.09,3.67-1.72,4.05Z"/>
  <path class="cls-1" d="M302.72,186.34c-.44,1.38-1.69,2.48-2.81,2.48s-3.4,1.28-5.1,2.85c-2.36,2.17-2.57,2.66-.89,2.03,1.21-.45,3.33-.9,4.72-1.01,2.99-.23,6.1-4.24,5.38-6.92-.43-1.6-.64-1.5-1.31.57Z"/>
  <path class="cls-1" d="M339.24,31.01c-.4.4-.73,1.6-.73,2.65s-2.26,4.69-5.01,8.07c-3.15,3.86-4.41,6.16-3.4,6.16,1.66,0,7.31-6,7.31-7.76,0-.54,1.61-1.81,3.58-2.81,4.81-2.45,4.75-2.33,2.48-4.84-2.12-2.34-3.04-2.66-4.23-1.47Z"/>
  <path class="cls-1" d="M242.01,256.4c-1.12-.38.19,1.35,2.92,3.84,5.02,4.6,7.02,5.66,5.95,3.16-.77-1.79-6.25-6.12-8.86-7.01Z"/>
  <path class="cls-1" d="M301.25,36.81c-3.71-1.48-16.31-2.1-22.74-1.1-15.52,2.4-25.9,10.31-32.44,24.74-1.93,4.25-2.24,6.13-1.45,8.81l1,3.4,1.37-5.5c2.68-10.8,12.41-21.54,23.26-25.69,7.19-2.75,11.54-3.43,22.57-3.53,8.03-.07,10.31-.38,8.43-1.13Z"/>
  <path class="cls-1" d="M271.5,213.27c-.68-.23-2.51.59-4.07,1.82-1.81,1.42-3.51,1.93-4.69,1.41-1.02-.45-6.56-3.13-12.32-5.95-10.48-5.15-18.15-7.76-15.96-5.43,2.13,2.27,27,15.63,29.09,15.63,2.47,0,9.77-6.86,7.94-7.47Z"/>
  <path class="cls-1" d="M341.22,65.39c3.91-3.43,4.84-5.78,2.79-7.04-.61-.37-1.1-.06-1.1.7,0,1.86-5.55,7.56-7.36,7.56-.79,0-1.45.5-1.45,1.1,0,2.13,3.27,1.07,7.12-2.32Z"/>
  <path class="cls-1" d="M330.8,257.25c0,1.95,4.66,2.91,18.17,3.73,7.87.48,15.47.74,16.89.59,1.42-.15,4.03.33,5.82,1.06,5.01,2.08,5.03.38.02-2.18-3.65-1.86-6.63-2.3-16.35-2.37-6.53-.05-14.73-.45-18.21-.88-3.48-.43-6.33-.41-6.33.05Z"/>
  <path class="cls-1" d="M327.31,260.38c-.5,0-.91.15-.91.34s2.24,7,4.98,15.14c5.01,14.89,5.46,15.33,2.18,2.14-.98-3.94-2.03-8.39-2.35-9.91-.77-3.74-2.78-7.71-3.89-7.71Z"/>
  <path class="cls-1" d="M331.43,195.85c1.95.75,5.98-1.05,5.98-2.67,0-1.19-5.83-1.47-6.97-.33-1.2,1.2-.84,2.29,1,3Z"/>
  <path class="cls-1" d="M364.42,126.02c-.63,1.06-3.08,4.73-5.44,8.16-2.36,3.43-4.06,6.47-3.77,6.75.77.77,6.17-5.14,10.79-11.8,3.48-5.01,4.56-5.84,7.81-5.96,8.55-.32,19.74-1.89,19.74-2.77s-2.4-.93-17.8-.13c-7.3.38-8.51,1-11.34,5.75Z"/>
  <path class="cls-1" d="M338.51,162.88c0-2.18-.18-2.09-4.28,2.14-2.62,2.7-3.23,3.96-2.24,4.58,1.56.96,6.52-4.15,6.52-6.72Z"/>
  <path class="cls-1" d="M310.6,240.05c.32.84,1.41,1.79,2.41,2.11,1,.32,3.51,3.85,5.58,7.85,3.52,6.82,5.92,9.32,7.47,7.77.37-.37-.58-2.53-2.09-4.82-1.52-2.28-3.7-5.81-4.84-7.84-2.11-3.74-9.76-8.3-8.52-5.08Z"/>
  <path class="cls-1" d="M343.82,42.35c-.27-.82-2.12.55-4.54,3.38-5.5,6.43-5.18,8.19.46,2.55,2.5-2.49,4.33-5.16,4.08-5.92Z"/>
  <path class="cls-1" d="M320.49,152.48c-.25,0-.67,2.1-.93,4.68-.82,8.17,1.53,12.07,2.89,4.81.61-3.26-.68-9.49-1.96-9.49Z"/>
  <path class="cls-1" d="M244.95,382.21c-2.24,5.04-4.28,12.56-3.08,11.38,1.12-1.11,6.5-15.64,5.98-16.16-.3-.3-1.6,1.86-2.9,4.78Z"/>
  <path class="cls-1" d="M363.2,90.06c2.1-1.18,17.14-25.88,16.44-27.01-.3-.49-1.06-.57-1.68-.18-1.11.69-13.02,18.64-13.02,19.63,0,.27-1.07,2.31-2.38,4.53l-2.38,4.03-2.02-7.55c-3.44-12.87-5.77-22.92-5.52-23.87.13-.5-.27-.59-.89-.21-.62.38-1.13,2.06-1.13,3.72,0,4.39-5.25,11.98-12.74,18.43-8.3,7.15-9.35,7.67-20.75,10.32-13.7,3.19-22.43,7.53-30.8,15.32-3.97,3.69-7.42,6.72-7.66,6.72s-2.34-.79-4.65-1.76c-3.82-1.59-4.01-1.86-2.06-2.88,4.9-2.56,10.29-6.67,10.92-8.33.61-1.59.48-1.6-1.29-.11-1.09.91-5.69,3.81-10.23,6.43-17.66,10.2-22.88,14.27-18.44,14.39.76.02.2,1.02-1.23,2.21-5.9,4.91-25.17,7.8-29.28,4.39-1.58-1.31-1.8-2.68-1.23-7.69.38-3.35,1.15-14.91,1.7-25.69.97-18.7,1.17-19.94,4.57-27.3,1.95-4.24,5.23-9.18,7.28-10.98,2.96-2.6,3.37-3.4,2-3.93-2.22-.85-4.2.85-7.99,6.85-1.68,2.66-3.46,4.85-3.95,4.85-.49,0-.61-2.1-.27-4.68.34-2.57,1.38-17.06,2.31-32.2.65-10.68,1.33-20.29,1.76-25.3-1.16.29-2.33.58-3.49.87-.14,1.67-.28,3.81-.44,6.54-.39,6.81-1.19,21.06-1.77,31.65-.99,18.06-1.53,26.54-4.35,69.15-.76,11.4-.76,17.53,0,18.94,1.62,3.03,8.02,3.83,18.58,2.31,11.5-1.66,17.13-4.41,19.67-9.62,1.39-2.85,3.32-4.53,6.95-6.08,6.84-2.92,10.51-1.59,11.6,4.2.82,4.37,4.11,7.98,7.32,8.04,2.54.05,2.44-1.36-.28-3.82-4.42-4-1.69-10.12,7.02-15.74,16.24-10.48,17.81-11.23,25.69-12.22,4.24-.53,8.74-1.52,10-2.19,4.09-2.19,6.83-1.55,6.83,1.6,0,4.06,1.93,7.08,4.52,7.08,1.23,0,4.92-2.35,8.2-5.23,5.19-4.55,5.96-5.76,5.98-9.31,0-2.24-.55-5.32-1.24-6.84-1.02-2.23-.91-3.3.58-5.56,1.01-1.54,2.21-2.8,2.67-2.8s.82,3.22.8,7.16c-.02,4.44.41,7.16,1.16,7.16,1.28,0,7.06,10.64,7.06,12.99,0,.77-2.94,4.48-6.53,8.24-3.59,3.76-8.14,9.07-10.09,11.8-7.67,10.67-16.64,19.82-19.43,19.82-1.49,0-4.18,1.24-5.98,2.75-2.21,1.86-4.6,2.75-7.38,2.75-4.46,0-6.5-1.24-9.14-5.52-2.17-3.52-15.2-10.49-15.2-8.12,0,.88.87,1.91,1.93,2.28,3.67,1.29,9.18,6.05,11.79,10.2,1.83,2.9,3.68,4.37,6.11,4.86,4.13.83,12.6-1.1,14.4-3.26.7-.84,2.65-1.53,4.33-1.53,2.58,0,4.58-1.89,12.55-11.84,5.22-6.51,11.69-14.56,14.39-17.89,14.84-18.32,13.74-16.29,10.46-19.27-2.59-2.34-2.83-4.49-.63-5.72ZM342.69,95.72c-5.05,4.32-6.75,4.5-7.3.75-.25-1.72,1.13-3.94,4.63-7.44,5.34-5.34,7.29-5.45,7.29-.42,0,2.34-1.19,4.17-4.62,7.11Z"/>
  <path class="cls-1" d="M317.25,166.4c.95-.95-2.95-5.11-4.79-5.11-.81,0-1.48.48-1.48,1.08,0,1.44,5.39,4.91,6.27,4.03Z"/>
  <path class="cls-1" d="M228.61,86.05c-1.96,3.67-3.66,15.12-3.23,21.84l.42,6.61.21-7.48c.11-4.11,1.25-10.71,2.53-14.65,2.24-6.95,2.29-10.44.08-6.31Z"/>
  <path class="cls-1" d="M306.58,160.88c0-1.35.59-3.04,1.3-3.76,1.84-1.84.21-3.05-1.83-1.36-.92.77-1.68,2.51-1.68,3.88s-.78,3.13-1.72,3.91c-2.89,2.4-4.88,7.3-4.88,12.03,0,3.27-.53,4.69-1.93,5.22-1.06.4-4.12,2.97-6.8,5.71-2.68,2.74-5.06,4.41-5.3,3.71-.23-.7.1-4.12.75-7.6.64-3.48,1.11-8.34,1.04-10.8-.14-4.95-.08-5.26-3.31,16.77-.74,5.02-1.77,9.4-2.3,9.73-1.85,1.15-23.99-19.28-23.99-22.13,0-1.52-4.62-6.08-6.16-6.08-.58,0-4.52-3.53-8.74-7.84-5.22-5.33-7.19-8.02-6.14-8.4.84-.31,6.54-3.88,12.66-7.93,6.12-4.05,14.72-9.72,19.11-12.6,4.39-2.88,7.98-5.94,7.98-6.8s-.16-1.57-.36-1.57-4.13,2.35-8.74,5.23c-4.61,2.88-14.6,9.12-22.21,13.86-7.61,4.75-14.11,9.09-14.45,9.65-.87,1.41,37.67,41.11,42.43,43.71,2.14,1.17,5.52,2.43,7.52,2.8,3.24.61,3.84.31,5.5-2.72,3.77-6.86,8.07-12.1,10.99-13.39,4.3-1.9,5.84-4.19,5.34-7.96-.43-3.32,1.58-8.49,4.4-11.31.83-.83,1.51-2.61,1.51-3.96Z"/>
  <path class="cls-1" d="M261.82,312.36c-.93-3.56-2.23-2.98-3.05,1.33-.81,4.31-8.61,13.57-14.51,17.21-2.12,1.31-3.61,2.64-3.3,2.95.85.85,9.75-3.58,13.43-6.68,4.18-3.52,8.25-11.64,7.41-14.82Z"/>
  <path class="cls-1" d="M314.2,174.14c-1.81,2.16-4.31,7.51-4.31,9.22,0,.58.5,1.05,1.1,1.05s1.1-.79,1.1-1.76,1.03-3.2,2.29-4.97c2.58-3.63,2.43-6.65-.18-3.54Z"/>
  <path class="cls-1" d="M260.17,100.28c-3.4-4.82-6.25-6.82-4.97-3.48.33.86,1.88,3.6,3.45,6.08,2.43,3.85,3.16,4.35,4.96,3.38,1.16-.62,2.48-1.75,2.94-2.5.58-.96.28-.93-.99.1-1.59,1.29-2.25.86-5.38-3.58Z"/>
  <path class="cls-1" d="M270.5,281.82c5.18,1.69,5.56,1.68,7.02-.19,3.67-4.74,6.05-9.18,5.44-10.17-1.18-1.91-3.44-.09-4.9,3.93-1.58,4.37-.69,4.34-13.86.51-4.24-1.23-8.56-2.26-9.6-2.27-2.32-.04-19.5-17.53-19.54-19.9-.02-.94-1.68-2.3-3.69-3.03-4.47-1.62-30.23-1.72-32.95-.13-1.06.62-1.93,1.47-1.93,1.89,0,.42,6.87.78,15.27.8,15.05.03,15.34.08,19.9,3.23,4.44,3.07,9.51,8.96,14.69,17.03,2.22,3.45,3.13,3.9,10.55,5.15,4.47.75,10.58,2.17,13.6,3.16Z"/>
  <path class="cls-1" d="M243.54,48.39c2.16.65,3.13-.32,7.86-7.86,7.38-11.77,10.41-15.19,18.13-20.43,7.37-5,20.46-9.64,27.21-9.64,4.93,0,5.81-1.16,5.15-6.78l-.43-3.68-.86,3.45c-.76,3.05-1.32,3.46-4.87,3.54-11.52.25-29.21,8.99-37.61,18.57-8.52,9.72-9.9,11.65-9.93,13.92-.05,3.6-2.61,6.22-6.09,6.22s-2.64,1.47,1.43,2.7Z"/>
  <path class="cls-1" d="M273.22,97.41c-5.46,3.46-6.22,4.43-3.5,4.43,1.51,0,10.71-7.61,9.28-7.68-.34-.02-2.94,1.45-5.78,3.25Z"/>
  <path class="cls-1" d="M247.01,117.25c1.02,0,4.92-8.78,4.22-9.48-.22-.22-1.48,1.06-2.8,2.85-2.46,3.33-3.17,6.64-1.42,6.64Z"/>
  <path class="cls-1" d="M312.09,10.37c.91.52,4.87,1.76,8.81,2.76,3.94,1,8.89,2.95,11.01,4.35,5.86,3.85,8.81,5.27,8.81,4.22,0-2.01-16.14-10.03-22.5-11.17-7.73-1.39-8.3-1.41-6.13-.16Z"/>
  <path class="cls-1" d="M330.47,27.62c-11.68-8.91-32.79-12.94-47.01-8.97-6.12,1.7-15.61,6.46-17.54,8.8-1.8,2.17-.75,2.23,2.44.15,5.74-3.73,19.68-7.22,28.8-7.22,10.74,0,18.18,1.99,28.96,7.75,8.36,4.47,10.54,4.22,4.35-.5Z"/>
  <path class="cls-1" d="M248.39,96.44c-.39.06-2.94.82-5.66,1.69-2.72.87-6.09,1.39-7.47,1.14-2.45-.44-5.66,3.01-4.19,4.49.62.62,18.06-2.46,18.96-3.35.65-.65-.78-4.1-1.64-3.97Z"/>
  <path class="cls-1" d="M352.21,190.02c-.34.55,2.01,1,5.23,1.01,3.21,0,7.08.32,8.6.7,1.85.46,2.39.32,1.65-.43-1.45-1.47-14.69-2.57-15.48-1.28Z"/>
  <path class="cls-1" d="M343.46,378.18c-.73,1.19.4,1.72,5.3,2.51,2.37.38,2.95.13,2.48-1.1-.34-.88-.61-1.81-.61-2.06,0-.99-6.52-.4-7.16.65Z"/>
  <path class="cls-1" d="M314.19,365.68c5.39-2.16,6.36-3.62,2.86-4.29-1.73-.33-4.13.44-6.59,2.12-2.14,1.46-3.88,3.57-3.88,4.72,0,2.19,2.72,5.54,4.51,5.54,1.15,0,2.7,3.34,3.69,7.94.72,3.39,3.92,3.15,3.92-.29,0-2.78-4.21-9.67-6.73-11.02-3.09-1.66-2.55-2.81,2.23-4.72Z"/>
  <path class="cls-1" d="M341.96,410.15c2.54.68,5.9.87,7.46.42,1.56-.45,6.06-.74,10-.64,8.11.2,15.43-1.37,20.57-4.43,3.55-2.12,5.59-6.52,7.88-17.03,1.13-5.17-.02-8.62-1.73-5.21-.57,1.14-1.93,5.47-3.02,9.61-2.2,8.37-4.23,10.3-13.48,12.9-3.92,1.1-5.44,1.11-7.13.06-1.71-1.07-3.35-.99-8.21.42-3.92,1.14-7.74,1.51-10.8,1.05-6.42-.96-7.6,1.21-1.55,2.84Z"/>
  <path class="cls-1" d="M363.45,384.78c-2.36,0-4.8-3.37-10.03-13.86-4.86-9.75-7.35-13.67-8.7-13.67-.39,0-.7.51-.7,1.12s1.94,5.2,4.3,10.18c2.37,4.98,4.48,10.05,4.69,11.25.21,1.21,1.78,2.86,3.47,3.67,1.7.81,3.4,2.3,3.79,3.31.39,1.01,1.64,2.6,2.8,3.53,1.89,1.54,1.96,2.14.7,6.34-1.41,4.71-1.03,6.53,1.09,5.22.65-.4,1.17-2.37,1.17-4.38s.77-4.29,1.7-5.07c.96-.79,1.39-2.18,1-3.16-.39-.96-.84-3.24-1.01-5.05-.45-4.86-4.55-18.16-6.05-19.64-1.86-1.83-.28,12.26,1.73,15.47,1.93,3.08,1.95,4.72.05,4.72Z"/>
  <path class="cls-1" d="M389.58,357.76c-4.93-.53-8.07-.38-9.4.46-2.47,1.54-3.13,1.57-3.13.12s9.83-7.68,12.19-7.68c1.02,0,2.47-.74,3.22-1.65,1.19-1.43.87-1.56-2.34-.97-6.81,1.26-13.03,4.56-14.15,7.51-.59,1.55-1.64,2.81-2.34,2.81-1.86,0-.44-8.98,1.66-10.52.93-.68,6.04-2.09,11.36-3.14,4.4-.87,8.91-1.76,11.15-2.21,0-1.25,0-2.5.01-3.75-4.46,1.89-11.36,3.95-17.65,5.13-2.66.5-5.65,1.36-6.65,1.92-1.06.59-9.93.69-21.41.23-10.78-.43-20.02-.38-20.52.12-1.4,1.4,9.33,2.66,24.55,2.89l13.76.21.83,6.49c1.09,8.5.3,10.7-2.56,7.19-2.58-3.16-2.58-2.63-.07,6.36,1.83,6.54,3.83,7.35,2.77,1.12-.26-1.52.39-3.75,1.49-5.14,1.68-2.12,3.44-2.58,12.87-3.3,13.22-1.02,15.31-3.03,4.37-4.2Z"/>
  <path class="cls-1" d="M340.62,309.61c2.42-.91,4.28-.86,7.61.24,2.62.87,5.67,1.12,7.52.64,1.72-.45,4.85-.78,6.97-.74s5.84-.49,8.26-1.17c2.42-.68,6.14-1.37,8.26-1.54,11.73-.91,14.26-1.35,17.62-3.03.44-.22.92-.41,1.39-.59.04-1.72.08-3.44.12-5.16-2.18,2.64-4.12,4.08-6.06,4.51-4.02.88-4.48.46-7.07-6.5-1.98-5.33-7.93-12.8-10.19-12.8-.65,0-1.47.46-1.81,1.02-.35.56-.16,1.32.42,1.68,1.9,1.18,10.15,17.07,9.45,18.21-1.49,2.41-3.95.87-6.54-4.12-1.49-2.88-3.67-6.63-4.83-8.33-1.8-2.65-2.22-2.83-2.83-1.22-.4,1.04-.06,2.93.75,4.21.81,1.28,1.44,4.06,1.4,6.18-.06,3.62-.31,3.87-4.09,4.19-2.95.25-4.42-.22-5.5-1.75-2.31-3.25-13.74-10.39-15.95-9.96-1.48.29-.24,1.75,4.9,5.79,3.79,2.97,6.7,5.94,6.49,6.6-.56,1.69-6.43,2.64-8.86,1.45-1.12-.55-2.98-.76-4.13-.46-1.57.41-2.09-.04-2.09-1.8,0-2.26-.11-2.24-2.89.54-3.62,3.61-2.76,5.6,1.7,3.91Z"/>
  <path class="cls-1" d="M314.56,213.63c-2-.6-2.48-.32-2.48,1.49,0,2.72,3.54,4.94,5.21,3.27.79-.79,1.37-.78,1.88.05.41.67-.02,1.2-.98,1.2s-1.72.43-1.72.97c0,1.48,3.12,8.98,5.77,13.88,1.3,2.42,3.72,7.85,5.36,12.08,4.12,10.58,7.47,11.62,3.7,1.15-.87-2.42-1.59-5.04-1.6-5.82,0-.78-1.07-2.85-2.37-4.6-1.29-1.75-2.05-3.96-1.69-4.91.37-.97-.57-3.55-2.14-5.86-1.93-2.84-2.62-5.03-2.22-7.03.4-1.99-.07-3.49-1.48-4.77-1.7-1.54-1.87-2.43-.95-5.05,1.57-4.5.83-5.81-2.12-3.74-2.74,1.92-3.19,4.81-1.1,7.01,1.12,1.18.92,1.31-1.1.7Z"/>
  <path class="cls-1" d="M329.15,304.41c-2.12-3.29-3.85-6.4-3.85-6.91s-.48-.63-1.06-.27c-.59.37.64,3.74,2.8,7.68,2.47,4.5,3.44,7.28,2.69,7.75-.69.43-2.27-1.75-3.84-5.31-2.46-5.57-4.51-8.19-5.56-7.13-.6.6,2.7,10.02,3.95,11.3,1.3,1.33,1.33,3.91.05,3.91-.54,0-3.63-2.17-6.88-4.82-3.25-2.65-7.03-5.17-8.41-5.59-1.58-.48-3.68-3.09-5.69-7.08-2.72-5.4-6.67-10.5-6.67-8.62,0,.53,3.29,7.56,7.17,15.34,1.38,2.77,1.26,3.24-1.66,6.36-4.22,4.52-7.11,12.24-6.06,16.2l.82,3.08,1.02-3.3c2.24-7.24,8.01-18.17,9.58-18.17.9,0,4.04,2.02,6.97,4.5,4.93,4.16,5.68,4.44,9.98,3.77,10.16-1.58,10.75-3.2,4.65-12.67Z"/>
  <path class="cls-1" d="M323.1,372.57c0-1.87,1.07-4.91,2.38-6.75,1.93-2.72,5.24-13,5.31-16.54.02-1.08-1.9-1.07-2.57,0-.28.46-.87,2.81-1.29,5.23-.43,2.42-2.21,6.67-3.95,9.45-3.22,5.12-3.71,7.13-2.51,10.27,1.12,2.91,2.63,1.95,2.63-1.67Z"/>
  <path class="cls-1" d="M322.96,345.29c2.44.18,4.79-.03,5.22-.46.43-.43-2.15-.78-5.73-.78-5.16,0-7.12.52-9.4,2.48-2.83,2.43-8.68,12.1-8.68,14.36,0,.64,1.24,0,2.75-1.43s2.75-3.22,2.75-4,1.94-3.46,4.32-5.95c3.85-4.05,4.8-4.51,8.76-4.22Z"/>
  <path class="cls-1" d="M397.81,178.08c-2.3-9.34-2.29-10.77.13-15.73,1.32-2.7,2.86-5.66,3.44-6.57.35-.56.78-1.37,1.13-2.15.02-2.52.03-5.05.04-7.58-.8-.26-1.65-.49-2.54-.67-3.7-.75-4.9-4.59-1.94-6.18,1.74-.93,2.3-.69,3.13,1.39,1,2.48,1.01,2.47,1.08-.44.09-4-1.38-4.64-5.65-2.43l-3.58,1.85-6.22-6.76c-3.42-3.72-6.9-6.69-7.73-6.6-.83.09-3,.38-4.82.64-5.67.81-6.16,2.84-.54,2.25l4.97-.52,8.24,9.07c4.53,4.99,9.23,9.25,10.45,9.47,2.52.45,2.59,2.11.17,3.64-1.24.78-2.89-.1-6.58-3.5-4.77-4.4-14.68-9.84-15.83-8.69-.31.31,2.2,2.33,5.58,4.5,6.93,4.43,11.28,8.63,9.54,9.21-.64.21-3.63-1.39-6.66-3.56-3.02-2.17-5.89-3.95-6.38-3.95s-2.95-1.52-5.48-3.38c-6.78-4.99-10.16-3.49-17.96,7.96-2.33,3.43-5.39,7.14-6.79,8.26-3.1,2.47-4.89,6.84-5.81,14.14l-.69,5.5,2.28-3.3c1.25-1.82,2.03-4.09,1.73-5.04-.3-.96.45-2.65,1.67-3.75,1.22-1.1,2.22-2.64,2.22-3.41,0-4.51,11.22-7.8,14.71-4.31.91.91,2.91,1.65,4.44,1.65s3.92,1.14,5.31,2.53c5.57,5.6,5.9,5.65,10.62,1.86,6.58-5.29,8.3-4.34,8.96,4.97.38,5.3,1.24,8.63,2.75,10.69,3.03,4.12,3.8,3.8,2.61-1.07ZM389.2,156.89c-1.29,0-3.82,1.1-5.64,2.44-2.73,2.02-3.63,2.21-5.18,1.08-9.5-6.85-15.3-8.8-20.22-6.76-1.76.73-3.42,1.11-3.69.85-.86-.86,9.48-11.93,11.15-11.93.89,0,3.45,1.24,5.67,2.75,2.23,1.51,4.48,2.75,5,2.75s2.28.95,3.91,2.11c1.63,1.16,4.64,2.55,6.7,3.08,4.26,1.1,5.84,3.62,2.28,3.62Z"/>
  <path class="cls-1" d="M401.32,206.4c-.42-1.15-.72-2.24-.84-3.13-.49-3.63-2.36-6.39-10.54-15.49-5.47-6.09-12.22-12.49-15-14.21-14.12-8.77-20.05-11.07-23.22-8.99-1.47.96-1.47,1.09,0,1.13,2.27.07,14.67,6.33,22.02,11.11,8.83,5.75,23.12,22.24,23.12,26.7,0,3.75,1.31,6.87,4.24,10.11.08-2.41.15-4.81.23-7.22Z"/>
  <path class="cls-1" d="M372.18,255.48c3.35-1.67,12.22-10.17,11.39-10.91-.26-.23-2.96,1.47-5.98,3.79-7.38,5.65-9.63,7.7-9.08,8.25.26.25,1.91-.26,3.67-1.14Z"/>
  <path class="cls-1" d="M399.14,270.79c-4.19,2.14-10.04,2.16-15.11.04-2.17-.91-5.25-1.64-6.85-1.63-2.56.02-2.37.26,1.63,2.08,7.54,3.43,12.71,3.9,20.26,1.42.02-.64.04-1.28.06-1.91Z"/>
  <path class="cls-1" d="M345.24,155.77c2.8-3.5,7.58-10.78,7.58-11.52,0-1.65-2.41-.12-5.28,3.35-4.23,5.13-6.3,9.08-5.29,10.09.45.45,1.79-.42,2.99-1.93Z"/>
  <path class="cls-1" d="M400.5,231.48c.07-2.06.15-4.12.22-6.19-.9-1.23-1.85-2.19-2.74-2.72-2.04-1.21-3.41-1.47-3.87-.73-.39.63,1.31,3.43,3.78,6.23,1.02,1.16,1.91,2.32,2.62,3.41Z"/>
  <path class="cls-1" d="M387.64,234.29c2.5,1.33,5.6,3.05,6.88,3.83,1.28.78,2.33,1.03,2.33.55,0-1.4-9.4-6.93-11.67-6.85-1.36.04-.51.9,2.46,2.48Z"/>
  <path class="cls-1" d="M397.13,125.15c-1.06.11-4.03.38-6.61.61-2.57.23-4.68.89-4.68,1.46,0,1.54,5.2,1.77,10.73.47,2.91-.68,3.37-2.83.55-2.55Z"/>
  <path class="cls-1" d="M384.75,112.85c-.91.59-3.67,1.07-6.15,1.08-3.25.01-4.5.47-4.5,1.67,0,1.05,1.06,1.65,2.92,1.65,3.48,0,12.96-3.09,13.84-4.51.82-1.33-4.03-1.25-6.12.1Z"/>
  <path class="cls-1" d="M384.47,218.54c-3.89,0-7.4.33-7.8.73-1.69,1.69-.35,2.08,6.64,1.94,9.91-.21,10.98-2.67,1.15-2.67Z"/>
  <path class="cls-1" d="M380.06,203.74c2.3-.5,3.67-.2,4.71,1.06,1.78,2.15,7.69,5.33,7.68,4.13,0-.47-1.77-2.71-3.92-4.99-3.54-3.73-4.32-4.07-8.04-3.47-2.71.43-6.8-.14-11.88-1.65-7.8-2.32-14.67-3.02-14.67-1.48,0,.81,7.5,3.26,17.78,5.83,2.82.7,6.58.96,8.36.56Z"/>
  <path class="cls-1" d="M388.07,56.63c2.36-2.69,4.31-5.92,4.34-7.19.1-5.13-7.77-7.95-11.21-4.02-.93,1.06-1.93,4.57-2.22,7.8-.49,5.39-.31,5.97,2.13,7.09,2.42,1.1,3.07.75,6.96-3.67ZM382.13,51.34c.56-2.83,1.19-3.5,3.03-3.23,1.27.18,2.48,1.2,2.68,2.26.21,1.12-.3,1.93-1.24,1.93-.88,0-1.89,1.11-2.25,2.46-1.02,3.91-3.07.78-2.23-3.41Z"/>
  <path class="cls-1" d="M403.21,106.41c-6.31-4.96-13.64-8.21-20.66-8.76-3.59-.28-6.95-1.25-8.26-2.38-3.84-3.33-5.33-3.89-4.06-1.53,2.19,4.1,5.58,6.05,12.1,6.97,3.64.51,8.85,1.93,11.59,3.14,3.11,1.37,6.18,3.44,9.13,6.04.05-1.16.1-2.31.16-3.47Z"/>
  <path class="cls-1" d="M270.3,235.87c2.11-1.32,2.96-3.16,1.33-2.87-.45.08-3.06.46-5.78.85-5.75.82-8.03,1.99-7.04,3.6.85,1.38,8.41.34,11.49-1.58Z"/>
  <path class="cls-1" d="M346.22,194.33c0,1.32.68,3.71,1.5,5.32.83,1.61,2.53,5.22,3.78,8.03,1.25,2.81,3.71,6.77,5.47,8.81,1.76,2.04,4.13,5.31,5.27,7.28,2.08,3.59,4.17,4.54,5.45,2.47.38-.61-2.29-4.95-5.92-9.65-3.63-4.7-8.08-11.99-9.88-16.2-3.35-7.84-5.67-10.33-5.67-6.06Z"/>
  <path class="cls-1" d="M358.12,183.32c5.11,0,11.21,2.21,18.51,6.68,8.49,5.19,13.14,5.84,5.34.74-7.71-5.04-13.26-7.31-20.89-8.55-3.63-.59-6.76-1.07-6.95-1.07-.19,0-.03.49.34,1.09.37.61,2.01,1.1,3.64,1.11Z"/>
  <path class="cls-1" d="M259.95,482.9c-1.9.07-2.64.35-1.62.61,1.15.3,2.12,2.14,2.59,4.9.9,5.32,1.97,4.72,2.28-1.27.22-4.24.12-4.37-3.24-4.25Z"/>
  <path class="cls-1" d="M273.55,441.55c0-4.62-.45-7.23-1.24-7.23-.86,0-1.09,2.8-.75,9.08.5,9.21,3.16,17.41,3.96,12.17.2-1.33-.16-3.4-.8-4.61-.64-1.2-1.17-5.44-1.17-9.41Z"/>
  <path class="cls-1" d="M261.09,462.27c-1.07,5.37-1.72,10-1.44,10.27,1.03,1.03,4.42-14.87,3.81-17.89-.24-1.18-1.3,2.24-2.37,7.62Z"/>
  <path class="cls-1" d="M254.23,397.05c-1.71-1.49-2.59-3.18-2.25-4.33,1.91-6.4,3-12.39,2.59-14.15-.4-1.72-.67-1.58-1.69.9-.67,1.61-1.79,6.07-2.5,9.91-.71,3.83-3.44,16.14-6.06,27.34-7.08,30.22-10.24,51.13-7.23,47.84,1.68-1.84,4.39-11.31,3.84-13.42-.31-1.18.42-2.89,1.74-4.08,1.25-1.13,2.27-2.82,2.27-3.75,0-1.33-.37-1.24-1.73.45-1.62,2-1.69,1.85-1.1-2.45.34-2.52,1.58-6.81,2.75-9.54,1.17-2.73,1.86-5.99,1.53-7.25-.33-1.26.22-3.55,1.23-5.08,2.13-3.26,4.56-2.65,2.77.69-1.21,2.26-.48,6.5,1.12,6.5,1.47,0,2.24-3.1,2.28-9.17.02-3.13.75-6.93,1.61-8.44,2.51-4.4,2.05-9.17-1.16-11.96Z"/>
  <path class="cls-1" d="M257.92,443.4c-.23-3.61-.59-4.6-1.16-3.2-.45,1.11-.81,4.33-.79,7.16.03,4.04.27,4.73,1.16,3.2.62-1.07.98-4.29.79-7.16Z"/>
  <path class="cls-1" d="M264.19,421.46c-1.21,1.34-3.69,3.51-5.5,4.81-3.61,2.6-3.21,4.3.77,3.26,2.66-.69,7.97-7.53,7.32-9.42-.21-.6-1.37,0-2.59,1.34Z"/>
  <path class="cls-1" d="M286.78,274.69c-.59,0-1.39,1.36-1.77,3.03-.38,1.66-1.38,5.15-2.22,7.75-.84,2.59-1.53,5.97-1.53,7.5s-.51,3.74-1.14,4.92c-1.36,2.54-4.37,2.84-4.37.42,0-3.95-3.2-7.9-6.88-8.49-2.02-.33-6.26-2.12-9.41-3.98-6.25-3.68-7.14-3.01-3.17,2.42,3.61,4.94,8.75,17.09,8.02,18.98-.73,1.9.27,4.89,1.64,4.89.54,0,.98-2.2.98-4.88,0-6.02,1.62-10.53,3.77-10.53,1.31,0,1.5,1.09.98,5.5-.51,4.27-.31,5.51.88,5.52.84,0,2.62.31,3.95.66,3.26.88,6.92-5.04,6.93-11.21,0-2.46,1-6.52,2.21-9.03,2.28-4.73,3.01-13.47,1.12-13.47Z"/>
  <path class="cls-1" d="M287.54,250.83c-.43,1.11-.78,3.63-.78,5.61,0,2.17-.85,4.37-2.16,5.55-2.82,2.55-7.4,1.71-17.31-3.19-4.13-2.04-9.16-4.05-11.19-4.48-3.17-.66-3.63-.49-3.3,1.22.24,1.22,2.08,2.49,4.78,3.29,2.42.72,7.62,2.84,11.55,4.73,8.92,4.26,13.05,4.38,16.94.5,3.5-3.5,4.24-6.23,3.09-11.39-.68-3.06-1.02-3.44-1.63-1.84Z"/>
  <path class="cls-1" d="M273.07,315.54c-1.2-1.94-2.51-1.42-3.23,1.26-.97,3.62-.84,8.53.23,8.53,1.34,0,3.89-8.35,3-9.79Z"/>
  <path class="cls-1" d="M280.06,436.53c-1.39-5.94-4.51-14.67-7.23-20.22-5.21-10.61-7.48-18.26-8.69-29.3-.43-3.92-1.45-9.04-2.28-11.38-1.28-3.63-1.25-5.67.2-14.11,2.26-13.08,1.88-16.84-1.73-17.21-1.51-.16-3.94.34-5.4,1.1-2.64,1.38-6.65,10.86-6.64,15.7,0,1.9.34,1.76,2.45-1.01,1.34-1.77,2.97-4.95,3.62-7.09,1.15-3.78,4.12-6.79,5.41-5.5.35.35.09,5.22-.59,10.82-.92,7.54-.91,12.63,0,19.68,3.62,27.67,4.37,30.36,11.51,41.23,3.52,5.36,5.34,9.66,6.7,15.89,1.03,4.7,3.31,11.67,5.07,15.5,1.76,3.83,3.19,7.39,3.19,7.92s.46,1.25,1.03,1.6c1.21.75.03-3.68-2.48-9.31-.94-2.12-2.82-8.56-4.15-14.31Z"/>
  <path class="cls-1" d="M26.44,459.26c-2.15,2.81-3.9,6.13-3.9,7.38,0,1.33.39,1.83.94,1.22,1.58-1.76,8.07-13.71,7.45-13.71-.32,0-2.34,2.3-4.48,5.11Z"/>
  <path class="cls-1" d="M84.39,489.48c-3.33-1.78-4.48-1.49-3.83.99.51,1.96,1.44,2.19,8.43,2.07,7.56-.12,7.66-.16,2.76-.99-2.8-.47-6.11-1.41-7.36-2.07Z"/>
  <path class="cls-1" d="M251.93,439.83c-.22,0-.41.12-.42.28-.01.15-2.44,7.46-5.39,16.24-4.95,14.73-5.97,19.46-3.32,15.38,2.21-3.41,10.37-31.9,9.14-31.9Z"/>
  <path class="cls-1" d="M211.72,378.72c-5.05-2.9-9.62-6.06-10.16-7.03-1.75-3.12-10.56-11.12-12.24-11.12-.96,0-1.63-1.02-1.62-2.48.01-3.02,5.01-14.04,6.37-14.04.54,0,3.87,1,7.41,2.21,5.95,2.05,11.88,2.04,9.71-.02-.52-.49-4.37-1.94-8.56-3.22-4.19-1.28-8.28-2.87-9.08-3.54-1.08-.9-1.46-.86-1.46.14,0,2.71-7.19,19.77-8.57,20.32-2.2.89-2.92-2.57-1.4-6.77.76-2.09,1.09-4.08.75-4.42-.88-.88-2.88,4.78-2.88,8.14,0,2.72-.16,2.78-5.23,2.04-18.98-2.78-30.15-6.87-48.92-17.89-6.47-3.8-12.03-6.91-12.35-6.91s1.17,1.75,3.31,3.9c2.36,2.36,10.08,6.91,19.51,11.5,13.28,6.47,17.85,8.09,30.65,10.88,8.27,1.8,16.03,3.02,17.23,2.71,2.8-.73,7.26,2.07,13.07,8.2,2.53,2.67,5.08,4.57,5.66,4.21.58-.36,1.69.13,2.48,1.08.79.95,3.84,2.95,6.78,4.44,6.48,3.29,7.31,5.06,4.65,10-1.89,3.51-2.33,3.74-5.95,3.08-4.43-.81-50.75-15.85-61.69-20.03-7-2.67-23.78-8.03-71.04-22.69-26.42-8.19-28.69-9-29.7-10.64-.41-.66,1.45-4.28,4.13-8.05,5.79-8.16,7.82-11.81,6.54-11.81-.51,0-2.19,1.36-3.72,3.03-5.22,5.67-10.83,13.8-10.83,15.7,0,3.1,4.15,7.44,8.55,8.94,2.26.77,4.49,1.3,4.94,1.18.46-.12,17.55,5.02,37.98,11.44,20.43,6.42,46.07,14.37,56.97,17.68,10.9,3.31,27.99,8.7,37.98,11.99,10.48,3.45,19.89,5.91,22.23,5.82,3.59-.14,4.36-.7,6.51-4.77,1.34-2.53,2.16-5.36,1.8-6.28-.35-.92-4.77-4.04-9.82-6.94Z"/>
  <path class="cls-1" d="M291.55,244.28c-1.03-2.24-1.04-9.99-.02-15.28,2-10.34,2.92-19.7,2-20.28-.97-.6-1.65-4.37-1.38-7.57.07-.79,1.73-2.13,3.7-2.98,2.48-1.08,2.9-1.55,1.38-1.53-1.21.01-3.24.45-4.52.96-1.71.69-2.5,2.28-3.02,6.1-.39,2.84-.44,5.6-.11,6.13.33.53.08,8.71-.55,18.17-.63,9.46-.77,17.87-.31,18.69,1.32,2.36,3.98.1,2.83-2.4Z"/>
  <path class="cls-1" d="M57.22,445.95c-5.45-1.71-11.39-3.74-13.21-4.52-1.82-.78-4.67-1.64-6.34-1.91-2.36-.38-2.78-.18-1.88.91.84,1.01.53,2.42-1.09,5.08-2.46,4.03-2.77,5.33-1.28,5.33.54,0,1.8-1.73,2.8-3.85,1.44-3.03,2.48-3.85,4.86-3.85,1.67,0,3.5.47,4.08,1.04.87.87,25.03,9.97,26.46,9.97.25,0,.46-.66.46-1.47,0-1.78-2.04-2.71-14.86-6.72Z"/>
  <path class="cls-1" d="M237.51,397.14c-2.26,2.82-5.8,10.74-5.8,12.98,0,3.8,1.78,1.54,4.88-6.2,2.85-7.12,3.19-9.62.91-6.78Z"/>
  <path class="cls-1" d="M233.51,387.54c1.35-3.09,1.07-17.94-.36-19.38-.84-.84-1.4-.84-1.93.02-.41.66-.11,2.95.66,5.08,1.07,2.95,1.11,4.66.17,7.15-.73,1.94-.88,4.52-.37,6.3.81,2.81.94,2.87,1.83.82Z"/>
  <path class="cls-1" d="M136.62,362.12c9.79,4.32,11.65,4.74,10.76,2.4-.33-.85-6.38-3.88-13.45-6.71-7.07-2.84-14.17-5.86-15.78-6.71-3.76-1.99-4.85-1.96-3.15.08,1.4,1.69,6.38,4.2,21.63,10.94Z"/>
  <path class="cls-1" d="M11.25,481.35c-1.97-.31-4.82-.93-6.33-1.38-1.51-.46-2.39-.43-1.94.05,1.48,1.6,9.07,4.59,10.47,4.12,2.52-.84,1.42-2.23-2.2-2.8Z"/>
  <path class="cls-1" d="M399.26,408.42c-1.47-2.64-1.5-4.17-.24-5.32-.21-4.74-.4-9.49-.55-14.23-.12-.98-.25-1.96-.4-2.9-.79-4.92-.8-7.19.07-9.25-.09-3.95-.16-7.9-.21-11.86-.98,4.66-2.08,8.8-2.68,10.01-.93,1.86-1.34,7.76-1.25,18.17l.13,15.41,5.23,7.76c.12.18.24.36.36.54-.16-2.78-.31-5.56-.44-8.34Z"/>
  <path class="cls-1" d="M291.04,268.08c-.56,0-.69,1.36-.29,3.03.4,1.66,1.36,4.51,2.13,6.33l1.41,3.3.09-2.86c.11-3.61-2-9.8-3.34-9.8Z"/>
  <path class="cls-1" d="M395.54,425.49c-.28-2.77-.65-1.6-1.31,4.22-.5,4.43-.65,8.31-.33,8.63.89.89,2.08-8.51,1.64-12.86Z"/>
  <path class="cls-1" d="M311.91,475.65c.64-3.24-1.66-4.4-2.46-1.24-.41,1.62-2.22,3.62-4.27,4.7-2.93,1.55-3.19,1.97-1.49,2.33,2.51.53,7.69-3.12,8.22-5.79Z"/>
  <path class="cls-1" d="M334.39,409.96c-.46-.45-8.01-2.41-16.8-4.37-8.78-1.96-16.58-4.03-17.34-4.61-2.55-1.95-1.14-19.08,1.81-22.03.81-.81,2.39-.78,5.26.1,5.41,1.66,6.17.7,1.11-1.41-5.06-2.11-7.82-2.11-9.59.02-.77.93-1.9,6.38-2.51,12.11-1.01,9.47-.93,10.63.9,12.64,1.11,1.22,3.53,2.62,5.39,3.1,2.81.73,4.08,2.27,7.47,9.07,4.55,9.13,8.6,20.8,8.6,24.82s2.86,3.16,4.73-1.49c1.86-4.63,1.62-5.65-.83-3.61-1.84,1.53-1.55,2.02-3.89-6.57-.74-2.72-2.95-8.33-4.91-12.45l-3.56-7.5,4.51.68c2.48.37,7.09,1.18,10.24,1.79,6.4,1.24,6.3.56,1.55,10.88-2.58,5.61-2.99,9.92-.95,9.89,1.67-.02,9.99-19.89,8.81-21.04Z"/>
  <path class="cls-1" d="M297.03,261.48c-.42-5.75-.64-11.2-.5-12.11.23-1.43.98-11.09,1.17-15.14.11-2.28,1.97-1.55,2.65,1.05.35,1.34.94,2.12,1.32,1.75.38-.38.11-1.76-.6-3.08-1.07-2-.91-2.8.97-4.8,1.24-1.32,3.13-5.11,4.19-8.43,1.06-3.31,3.06-7.7,4.44-9.76,1.46-2.17,2.51-5.39,2.51-7.71,0-3.62,1.74-7.58,10.62-24.13,1.47-2.73,1.66-4.1.78-5.5-1.1-1.74-4.79-3.29-4.79-2,0,.32.57,1.83,1.26,3.35.98,2.15.94,3.16-.17,4.5-2.41,2.9-10.01,18.4-11.63,23.7-.84,2.75-3.02,6.43-4.85,8.19-1.83,1.75-3.33,4.28-3.33,5.62s-1.43,5.16-3.18,8.48c-2.92,5.55-3.25,7.36-3.98,21.94-.75,14.93-.65,16.15,1.54,20.21l2.34,4.32-.76-10.46Z"/>
  <path class="cls-1" d="M319.32,447.41c-.37.6-.62,2.49-.56,4.19.06,1.7-.71,5.33-1.73,8.05-1.41,3.79-1.67,6.78-1.12,12.71.68,7.35.57,7.91-2.13,10.61-1.57,1.57-4.32,3.46-6.12,4.21-2.76,1.14-3.71,1.06-6.12-.52-3.88-2.54-4.6-1.41-.94,1.47,4.11,3.23,9.81,1.67,16.71-4.6,2.8-2.54,3.34-8.67,1.19-13.38-1.11-2.43-.94-3.18,1.22-5.48,1.65-1.75,2.67-4.48,3-7.97.28-2.92.6-6.28.71-7.47.22-2.3-2.96-3.7-4.12-1.82Z"/>
  <path class="cls-1" d="M379.69,476.16c-.77,0-1.55,1.08-1.74,2.39-.53,3.58-3.1,3.89-3.1.37,0-2.09-2.27-5.4-7.98-11.65-4.39-4.8-8.34-8.73-8.77-8.73-.43,0,.78,2.35,2.69,5.23s5.52,7.71,8.03,10.73c2.5,3.03,5.47,7.98,6.6,11.01l2.06,5.5.88-4.15c.48-2.28,1.63-5.29,2.54-6.69,1.71-2.6,1.28-4.02-1.2-4.02Z"/>
  <path class="cls-1" d="M401.77,443.7c-.96,2.3-2.02,4.87-2.94,7.14-1.83,4.54-3.66,8.75-4.08,9.36-.76,1.12-2.74,6.11-8.81,22.26-3.96,10.53-3.91,10.22-1.68,10.22.94,0,1.47-.4,1.16-.89-.3-.49.88-3.9,2.64-7.58,3.87-8.12,11-26.01,11-27.59,0-.56,1.4-3.98,3.23-7.93-.18-1.66-.36-3.32-.52-4.99Z"/>
  <path class="cls-1" d="M377.25,466c-2.59-.67-3.94-2.02-5.54-5.55-5.29-11.69-12.91-17.93-30.53-24.98-9.13-3.66-11.5-4.06-11.47-1.97,0,.76,3.35,2.69,7.43,4.29,16.19,6.36,20.53,8.6,24.36,12.54,2.19,2.26,3.36,3.77,2.6,3.35-.76-.42-1.38-.24-1.38.4s.75,1.17,1.67,1.17c1.9,0,6.03,6.2,6.03,9.06,0,2.81,4.72,5.49,8.14,4.64,2.2-.55,2.87-.31,2.87,1.05,0,.97.56,1.77,1.24,1.77,2.54,0-2.06-4.89-5.43-5.76Z"/>
  <path class="cls-1" d="M42.74,166.93c-5.44,1.76-7.95,3.42-12.76,8.47-5.4,5.66-6.14,7.04-7.52,13.98-2.94,14.82-1.08,37.75,5.13,63.17,1.54,6.29,4.11,13.95,5.72,17.03,2.64,5.04,2.9,6.58,2.63,15.65-.4,13.35,1.38,16.58,12.11,21.96,4.21,2.11,7.89,3.84,8.18,3.84s0-.99-.65-2.2c-.65-1.21-3.76-3.51-6.91-5.11-3.15-1.6-6.34-3.7-7.08-4.68-.87-1.14-1.36-6.05-1.39-13.79-.03-10.86-.3-12.47-2.85-16.81-3.2-5.46-5.97-13.83-5.98-18.11,0-1.59-.76-3.51-1.66-4.26-.91-.75-1.65-3-1.65-4.98s-.78-10.23-1.73-18.31c-1.86-15.84-1.38-28.92,1.36-36.68,1.63-4.63,9.7-13.79,12.16-13.79,2.02,0,1.8.75-1.51,5.09-2.38,3.12-2.93,5.02-2.93,10.11,0,6.29.51,7.65,6.29,16.63,1.72,2.67,3.22,5.53,3.34,6.36.12.83,1.25,2.23,2.51,3.11,2.01,1.41,2.46,1.4,3.64-.02,1.11-1.34.67-2.38-2.47-5.86-2.1-2.33-5.18-7.1-6.84-10.61-2.46-5.2-2.89-7.27-2.3-11.17.85-5.68,8.02-15.44,12.08-16.46,1.47-.37,5.38.12,8.69,1.08,6.87,2,8.44,2.15,8.44.8,0-1.52-12.63-6.76-16.1-6.68-1.74.04-6.21,1.06-9.94,2.26Z"/>
  <path class="cls-1" d="M83.8,207.86c-.69-.42-.59.08.24,1.09.83,1.02,2.06,1.53,2.75,1.15,2.32-1.31,5.11-4.01,5.11-4.95,0-1.47-1.44-1.03-4.24,1.3-1.43,1.19-3.16,1.82-3.85,1.4Z"/>
  <path class="cls-1" d="M60.84,183.31c-.54,0-2.22,1.24-3.73,2.76-3.1,3.1-2.56,6.21.58,3.37,3.7-3.35,10.08-1.04,15.02,5.43,1.62,2.12,3.59,3.85,4.38,3.85,1.61,0,4.9-2.95,4.9-4.4,0-.94-19.34-11.02-21.15-11.02Z"/>
  <path class="cls-1" d="M85.54,198.41c-1.88.69-4.89,6.65-3.72,7.37,1.43.88,7.37-5.8,6.16-6.92-.57-.53-1.67-.73-2.44-.44Z"/>
  <path class="cls-1" d="M61.15,258.17c.43,0,1.9-2.35,3.26-5.23,5.76-12.11.63-27.8-9.09-27.8-2.37,0-5.26-.51-6.44-1.14-1.66-.89-2.13-.78-2.13.49,0,2.54,4.48,5.06,9.02,5.06,3.46,0,4.4.53,5.81,3.25,3.31,6.39,1.09,16.27-5.37,23.95-1.7,2.02-3.48,6.05-4.21,9.5-1.19,5.69-1.05,6.58,2.91,17.95,2.29,6.58,4.15,12.71,4.13,13.62-.02.91-.24,4.13-.5,7.16-.32,3.75.16,6.91,1.49,9.91,2.26,5.09,2.51,4.22,2.16-7.43-.18-5.8.14-8.53.99-8.53s.92-.62.23-1.93c-2.45-4.62-7.87-22.77-7.87-26.34s3.92-12.47,5.59-12.47Z"/>
  <path class="cls-1" d="M92.51,245.99c-1.41,1.56-1.93,4-1.92,9.08,0,9.63.28,10.86,1.39,6.4.53-2.12.68-5.23.34-6.91-.41-2.01.16-4.37,1.64-6.88,2.45-4.16,1.63-5.11-1.46-1.7Z"/>
  <path class="cls-1" d="M90.69,229.55c-1.77,0-4.64,2.18-8.96,6.78-6.05,6.46-7.43,8.63-5.48,8.63.48,0,4.51-3.47,8.96-7.71,6.88-6.56,7.69-7.71,5.48-7.71Z"/>
  <path class="cls-1" d="M69.12,306.79c1.36.89,4.06-.04,4.06-1.39,0-.54-.62-.98-1.39-.98s-2.01-.99-2.76-2.2c-1.26-2.02-3.56-3.04-3.56-1.58,0,1.16,2.53,5.43,3.64,6.16Z"/>
  <path class="cls-1" d="M54.92,193.06c-.32-.52-1.67-.93-2.99-.93-2.31.02-2.29.08.34,1.4,1.51.76,2.91,2.49,3.1,3.84.41,2.86,2.12,3.06,7.39.85,2.21-.92,3.82-2.37,3.82-3.44,0-1.56-.88-1.76-5.54-1.32-3.05.29-5.8.11-6.12-.41Z"/>
  <path class="cls-1" d="M125.2,327.17c-3.03-.9-7.03-2.42-8.89-3.39-4.95-2.56-6.74-2.07-3.16.86,4.03,3.3,14.92,6.79,16.43,5.27.75-.75-.68-1.64-4.39-2.75Z"/>
  <path class="cls-1" d="M84.96,257.29c4.09,3.96,4.67,3.15,1.48-2.07-2.77-4.54-5.1-5.6-10.51-4.77-2.42.37-5.39,1.25-6.61,1.97-1.85,1.09-1.06,1.3,4.9,1.33,6.48.03,7.42.34,10.73,3.55Z"/>
  <path class="cls-1" d="M121.82,193.98c4.73-3.58,12.31-5.56,17.92-4.67,15.05,2.38,35.61,9.7,45.16,16.09,4.22,2.82,9.07,5.06,30.3,13.97,8.72,3.66,10.3,3.96,23.12,4.35,16.16.49,15.87-.99-.55-2.8-11.23-1.24-19.57-3.59-29.63-8.35-3.1-1.47-9.35-4.36-13.88-6.43-4.53-2.07-8.92-4.59-9.75-5.59-.83-1.01-2.32-1.83-3.3-1.83-.99,0-5.26-1.73-9.5-3.84-9.26-4.62-27.38-9.35-35.88-9.36-4.34,0-7.59.75-11.01,2.55-4.23,2.23-8.32,7-7.07,8.25.23.23,2.07-.82,4.07-2.34Z"/>
  <path class="cls-1" d="M200.22,190.93c-8.37-5.65-11.36-8.77-16.1-16.83-2.59-4.41-5.26-6.65-5.26-4.41,0,1.21,4.64,8.49,8.44,13.25,6.78,8.48,28.88,22.39,35.56,22.39,4.43,0,4.27-1.83-.24-2.8-4.88-1.05-13.05-5.28-22.41-11.59Z"/>
  <path class="cls-1" d="M174.73,134.99c-4.37,2.16-13.47,11.11-13.47,13.24,0,1.71,2.1.99,3.22-1.1.6-1.12,4.25-4.1,8.1-6.61,9.87-6.43,15.03-6.35,29.97.48,15.11,6.9,14.67,6.75,12.39,4.14-1.06-1.21-1.93-2.78-1.93-3.49s-.66-1.29-1.46-1.29-5.46-1.73-10.35-3.85c-10.83-4.69-19.1-5.17-26.46-1.53Z"/>
  <path class="cls-1" d="M145.84,320.63c-.91-.91-4.26-2.49-7.44-3.52-4.93-1.6-7.97-4.1-7.97-6.57,0-1.04,3.62-.61,7.98.95,2.27.81,4.13,1.1,4.13.64,0-1.75-3.17-3.34-8.74-4.4-4.43-.84-7.04-2.24-11.24-6.01-3.01-2.7-9.03-7.6-13.38-10.88-6.95-5.23-12.61-12.31-16.43-20.52-.44-.96-11-7.74-12.04-7.74-.5,0-.91.47-.91,1.03s2.53,3.17,5.62,5.78c3.09,2.61,6.79,7.05,8.22,9.86,1.76,3.47,6.24,8.29,13.92,14.98,11.04,9.62,19.31,17.9,21.33,21.37,1.49,2.56,6.94,5.01,13.12,5.88,4.87.69,5.3.6,3.84-.86Z"/>
  <path class="cls-1" d="M175.9,333.66c-1.4-1.62-3.04-2.64-3.65-2.26-.61.38-2.92-1.33-5.13-3.79-4.09-4.56-5.86-5.51-5.86-3.17,0,.72,2.39,3.61,5.31,6.42,6.07,5.85,19.78,12.04,21.28,9.61,1.24-2-.46-3.14-5.2-3.52-2.93-.23-4.98-1.23-6.75-3.29Z"/>
  <path class="cls-1" d="M157.37,305.51c1.09,13.08,3,15.4,2.48,3-.25-5.99-.95-10.17-1.83-11.01-1.16-1.1-1.28.36-.65,8.01Z"/>
  <path class="cls-1" d="M12.17,335.09c-.86,1.39,4.71,17.33,7.07,20.24,3.76,4.64,3.5,1.02-.73-10.1-4.06-10.65-5.04-12.23-6.34-10.14Z"/>
  <path class="cls-1" d="M20.46,431.73c-.78-.94-2.49-2.04-3.8-2.44-3.14-.95-9.5-4.98-16.66-10.24.02.84.04,1.67.06,2.51,6.4,4.41,12.52,8.01,17.47,10.07,3.84,1.59,4.18,1.61,2.93.09Z"/>
  <path class="cls-1" d="M36.25,364.71c-1.79-.91-5.98-2.26-9.31-3.01-3.33-.75-8.05-2.01-10.49-2.8-4.22-1.37-9.91-2.13-15.57-2.28.05,1.18.11,2.36.17,3.53,13.26.33,22.09,3.5,23.57,8.53.56,1.9,3.1,9.4,5.65,16.66,4.16,11.86,4.56,13.88,3.92,19.82-.39,3.63-.92,9.83-1.17,13.76l-.46,7.16,1.14-6.06c1.71-9.06,1.95-9.63,3.19-7.68,1.13,1.78,1.39,12.38.4,16.07-.79,2.96-4.8,4.81-10.38,4.81-4.26,0-4.44.17-11.91,11.3-4.17,6.21-8.95,14.02-10.62,17.34-1.43,2.85-2.97,5.37-3.72,6.17,0,1.41,0,2.83,0,4.24,3.06-4.84,6.58-10.49,8.56-13.72,9.27-15.19,13.9-21.47,16.06-21.78,1.21-.17,4.8-1.08,7.97-2.02,5.36-1.59,5.85-2.03,7.03-6.29.96-3.48.94-7.65-.08-17.35l-1.34-12.77,3.95-8.33c2.92-6.15,5.39-9.53,9.45-12.94,4.6-3.85,5.5-5.22,5.5-8.3v-3.7l-9.13.64c-6.94.49-9.91.25-12.39-1.01ZM52.24,372.91c-1.4,1.13-3.11,2.41-3.8,2.84-2.31,1.43-9.39,11.53-9.39,13.39,0,1.01-.7,2.78-1.55,3.95-1.42,1.95-1.61,1.68-2.36-3.37-.68-4.53-3-11.12-7.87-22.37-.4-.93,1.16-.52,4.19,1.09,4.01,2.13,6.41,2.56,14.08,2.49,9.19-.08,9.23-.06,6.7,1.98Z"/>
  <path class="cls-1" d="M6.28,321.51c-3.35-.71-3.71-.5-5.23,3.15-.45,1.08-.79,1.97-1.05,2.73.02,1.11.05,2.22.07,3.32.2.09.46.13.77.13,2.04,0,4.07-2.31,4.07-4.62s1.09-2.51,3.92-.35c1.84,1.4,1.91,1.78.49,2.71-1.2.79-1.31,1.4-.42,2.29,1.38,1.38,4.82-1.33,4.82-3.79,0-2.14-3.45-4.72-7.45-5.57Z"/>
  <path class="cls-1" d="M101.23,218.54c1.47,0,11.58-5.37,11.58-6.15,0-1.33-6.5-.15-9.29,1.69-1.78,1.17-3.63,1.89-4.12,1.59-.49-.3-.59.22-.23,1.16.36.94,1.28,1.71,2.05,1.71Z"/>
  <path class="cls-1" d="M121.33,234.77c3.72,7.41,8.53,16.13,10.68,19.38,2.15,3.25,3.92,6.4,3.92,7s-1.48,3.28-3.28,5.94c-2.76,4.08-3.27,5.89-3.23,11.45l.05,6.61,2.72-7.71c1.5-4.24,3.28-9.32,3.97-11.28.69-1.97,1.55-3.58,1.91-3.58s1.61,1.75,2.77,3.9c2.09,3.87,2.08,3.93-.3,8.84-1.32,2.72-2.38,6.04-2.35,7.39.04,2.05.38,1.82,2.08-1.41,1.12-2.12,2.66-5.97,3.44-8.56,1.34-4.5,1.28-4.84-1.53-7.77-1.61-1.68-2.93-3.74-2.93-4.57s-.73-2.32-1.63-3.31c-2.19-2.42-6.07-9.43-12.2-22.04-8.86-18.22-10.01-23.5-5.98-27.52,1.21-1.21,2.2-2.45,2.2-2.75,0-1.34-2.02-.34-4.36,2.16-1.97,2.1-2.56,4.03-2.62,8.53-.06,5.01.87,7.7,6.69,19.3Z"/>
  <path class="cls-1" d="M102.37,52.3c1.13,21.11,4.82,73.79,7.17,102.39,1.22,14.84,2.53,31.8,2.91,37.71.38,5.9,1.13,10.73,1.66,10.73,1.76,0,3.06-5.32,2.06-8.49-.53-1.69-1.5-10.25-2.17-19.03-1.93-25.35-9.05-113.64-10.72-132.94-.38-4.39-1.13-7.98-1.66-7.98s-.73,1.12-.45,2.48c.28,1.36.82,8.17,1.19,15.14Z"/>
  <path class="cls-1" d="M146.67,243.4c-2.27-2.23-4.93-5.64-5.91-7.58-2.15-4.25-4.79-7.38-6.21-7.38-.58,0-.76.74-.41,1.65,1.47,3.82,10.13,14.02,13.27,15.62q3.38,1.72-.73-2.32Z"/>
  <path class="cls-1" d="M68.28,402.95c-.33-1.82-1.13-7.48-1.77-12.59s-1.41-9.69-1.72-10.18c-.69-1.12-7.17-1.16-8.71-.06-2.1,1.5-8.15,9.83-9.25,12.72-.73,1.91-.72,3.1.01,3.55.61.38.77,1.72.37,3-1.26,3.98-1.47,14.45-.31,15.84.61.73,2.57,1.65,4.35,2.04l3.25.71-2.77,3.3c-1.53,1.81-2.77,3.75-2.77,4.31,0,2.04,1.71.91,4.25-2.81,2.68-3.94,5.4-5.44,9.97-5.5,1.46-.02,2.88-.71,3.16-1.53.37-1.08-.14-1.29-1.83-.75-3.29,1.04-2.91-.85,1.03-5.12,2.68-2.91,3.24-4.32,2.76-6.95ZM55.22,414.47c-6.66.08-8.32-2.61-6.67-10.84.56-2.78,1.23-3.44,3.51-3.44,1.55,0,3.93,1.04,5.29,2.32,4.12,3.87,5.88,1.87,1.88-2.13-2.41-2.41-4.54-3.49-6.88-3.49-3.65,0-4.15-1.28-1.97-5.1,2.27-3.98,8.98-11.23,10.14-10.95.6.15,1.67,4.19,2.36,8.98.7,4.79,1.82,10.12,2.49,11.83,1.11,2.83.84,3.55-2.91,7.95-3.04,3.55-4.96,4.84-7.23,4.87Z"/>
  <path class="cls-1" d="M151.54,318.28c4.15,2.14,3.93,1.24-1.3-5.32-2.42-3.04-4.44-6.33-4.49-7.31-.66-14.18-.56-15.3,1.92-21.93,1.98-5.29,2.32-7.44,1.44-9.08-1.6-2.99-3.07-2.69-2.46.5.28,1.46-.25,5.3-1.17,8.53-.92,3.24-2.02,8.73-2.44,12.21-.66,5.48-.35,7.29,2.32,13.56,2.17,5.1,3.99,7.71,6.18,8.84Z"/>
  <path class="cls-1" d="M277.35,183.1c.4-3.22,1.19-8.33,1.77-11.36,2.24-11.82,5.17-36.38,4.42-37.18-.43-.46-1.36,3-2.07,7.71-2.44,16.24-5.85,45.67-5.35,46.17.28.28.83-2.13,1.23-5.35Z"/>
  <path class="cls-1" d="M96.86,205.1c.9,4.41-.54,6.41-6.27,8.7-4.63,1.85-5.75,4.07-1.52,3.01,4.69-1.18,2.18,3.82-3.11,6.18l-4.52,2.02,5.06-.61c3-.36,6.07-.07,7.53.71,3.47,1.86,4.03.66,1.3-2.81-3.38-4.3-3.03-7.67.99-9.45,4.12-1.82,4.93-4.2,3.22-9.39-3.42-10.35-18.64-29.46-18.64-23.4,0,.63,1.12,2.24,2.48,3.58,4.21,4.12,12.72,17.65,13.49,21.46Z"/>
  <path class="cls-1" d="M67.77,180.18c2.5,4.68,10.37,7.04,10.37,3.12,0-1.21-1.05-1.54-4.02-1.29-4.89.42-5.98-.97-3.33-4.24,1.67-2.07,2.37-2.26,4.33-1.22,3.61,1.93,4.41,1.41,1.53-.99-3.38-2.82-6.23-2.74-8.3.21-1.2,1.71-1.36,2.94-.57,4.4Z"/>
</svg>