<?xml version="1.0" encoding="UTF-8"?>
<svg id="Warstwa_1" data-name="Warstwa 1" xmlns="http://www.w3.org/2000/svg" viewBox="0 0 354.5 515.57">
  <defs>
    <style>
      .cls-1 {
        fill: #010101;
        fill-rule: evenodd;
      }
    </style>
  </defs>
  <path class="cls-1" d="M141.26,10.23c-.43,5.63-1.05,12.51-1.39,15.31-.34,2.79-.93,9.43-1.32,14.74-.39,5.32-.98,12.42-1.31,15.79s-1.03,11.63-1.56,18.37-1.25,14.85-1.61,18.05c-1.19,10.71-1.96,20.58-2.05,26.26-.05,3.1-.35,5.64-.68,5.64s-.4.32-.17.7c.24.39-.56,1.76-1.77,3.06-5.96,6.37-6.29,7.57-6.7,24.59-.44,18.54-.83,25.63-1.8,33.29-.53,4.2-1.13,11.45-1.33,16.11-.2,4.66-.79,10.75-1.33,13.53-.53,2.78-.97,6.12-.97,7.42s-.55,3.65-1.22,5.21c-.93,2.16-1.1,3.46-.71,5.37.28,1.39.83,4.08,1.22,5.99.39,1.91.74,4.95.78,6.77.06,3.21.09,3.17.9-1.68.55-3.25.64-5.82.27-7.41-.88-3.81-.76-5.54.37-5.1,1.07.41,1.27-.7.37-2.11-.34-.53-.34-1.54,0-2.42.32-.83.72-3.46.91-5.85.32-4.15,1.31-16.02,2.91-34.96.41-4.79.89-9.72,1.08-10.96l.34-2.26,1.13,2.58c.62,1.42,1.79,4.17,2.6,6.12.81,1.95,1.78,4.21,2.16,5.03.49,1.06.47,2.49-.06,5.04-.57,2.7-.57,3.85,0,4.76.58.93.55,1.57-.14,2.87-.68,1.28-.71,1.84-.13,2.42.58.58.76.53.76-.24,0-.55.58-1.52,1.29-2.16s1.29-1.61,1.29-2.16c0-.6.22-.75.55-.38.3.34.32,2.79.04,5.45-.65,6.12-.62,15.3.05,17.4.51,1.6.52,1.59.66-.32.08-1.06.22-2.8.31-3.87s.23-7.67.31-14.69l.15-12.76-2.26-3.41c-5.8-8.74-6.71-12.51-7.25-30.08-.44-14.2-.41-14.61,1.03-18.05,1.69-4.03,7.28-11.34,10.61-13.88,1.73-1.32,2.1-1.92,1.56-2.57-.47-.57-.58-3.66-.33-9.42.2-4.72.52-12.2.71-16.63.49-11.6,2.13-39.62,2.85-48.66.34-4.25.62-8.17.63-8.7.02-1.56,1.4-27.79,1.6-30.61.1-1.42.41-3.52.69-4.67.47-2,.41-2.09-1.39-2.09h-1.89l-.78,10.23M157.25,18.88c0,12.81.23,19.11.71,19.59.46.46.56,2.14.28,4.8-.23,2.25-.34,6.56-.23,9.57.11,3.01.2,17.66.2,32.55v27.07s-1.45.21-1.45.21c-.87.12-1.61-.2-1.84-.81-.55-1.43-1.71-1.26-1.25.19.45,1.41-.53,2.32-3.19,2.95-2.43.58-8.7,4.12-8.7,4.92s-.24.9,7.18-2.08c5.88-2.36,7.36-2.7,12.47-2.83,5.76-.15,5.81-.17,7.25-2.25.8-1.16,1.72-3.14,2.05-4.42.33-1.27,1.22-4.78,1.99-7.79,1.52-6,2.34-8.23,5.68-15.47,1.23-2.66,2.88-6.57,3.68-8.7,3.22-8.57,9.01-20.87,11.77-25.02,1.61-2.42,4.76-6.38,7-8.8,4.23-4.56,4.61-5.18,3.26-5.16-1.93.02-9.69,8.56-13.02,14.33-1.99,3.45-2.88,4.28-2.8,2.59.03-.63-.13-6.51-.35-13.06-.23-6.56-.59-18.52-.81-26.58-.35-12.62-.54-14.66-1.4-14.66s-.94,1.18-.57,9.51c.23,5.23.62,18.69.85,29.91.46,22.32.68,20.53-3.67,29.87-2.35,5.04-2.89,6.27-6.24,14.18-.9,2.13-1.92,4.41-2.26,5.08-.34.67-1.05,2.63-1.56,4.35-.51,1.72-1.03,3.13-1.15,3.13s-.11-21.61.01-48.01c.15-31.16,0-48.01-.4-48.01s-.67,6-.72,15.95c-.05,8.77-.17,19.72-.27,24.33-.1,4.61-.35,20.85-.57,36.09-.42,30.02-.45,30.45-1.92,33.94-.97,2.29-1.07,2.35-3.75,2-1.52-.2-2.83-.53-2.91-.75-.09-.21-.25-24.6-.37-54.2-.12-29.6-.44-54.61-.72-55.59-.28-.98-.91-1.77-1.4-1.77-.74,0-.89,3.24-.89,18.88M292.02,18.63c-1.25.79-.34,1.94,1.21,1.54,1-.26,1.29-.02,1.29,1.11s.17,1.3.92.68c1.14-.95,3.4.11,7.46,3.5,1.54,1.28,3.64,2.5,4.67,2.71,1.04.21,2.03.77,2.22,1.25.38.98,1.91,1.19,2.24.3.12-.31,2.24.4,4.73,1.58s4.98,2.17,5.56,2.18c.58.01,1.41.46,1.85.99s1.36.97,2.05.97,2.46.69,3.95,1.54c1.49.85,4.1,2.33,5.8,3.3,1.7.97,3.7,2.58,4.44,3.57.74,1,2.6,2.71,4.13,3.82,1.54,1.1,3.17,2.36,3.63,2.79,1.18,1.1,4.74,3.04,5.59,3.04.39,0,.7-.51.7-1.13,0-.66-1.46-2.04-3.51-3.33-1.93-1.21-4.46-3.12-5.63-4.24-3.97-3.8-9.59-8.07-12.63-9.59-1.67-.84-6.95-3.04-11.73-4.89-12.71-4.93-13.47-5.27-17.57-7.92-6.09-3.93-9.37-5.02-11.35-3.77M256.17,19.35c-1.06.27-2.74.68-3.73.91-1.01.23-1.62.7-1.38,1.08.23.37.8.52,1.28.34.47-.18,7.19-.38,14.92-.45,12.54-.1,14.61.03,19.18,1.26,6.26,1.68,7.67.92,2.76-1.49-3.41-1.67-3.88-1.72-17.29-1.93-7.58-.12-14.66.01-15.72.29M164.34,32.19c0,7.87.25,13.01.64,13.25.42.26.64-4.18.64-12.85s-.24-13.25-.64-13.25-.64,4.71-.64,12.85M230.72,27.99c-4.47,1.02-7.09,2.09-7.09,2.89,0,.34-.65.71-1.45.82-1.07.15-1.51.71-1.67,2.1-.2,1.74-.12,1.82.91.97.88-.72,1.19-.75,1.4-.11.19.57.84.34,2.14-.75,1.02-.86,3.75-2.46,6.07-3.55,2.31-1.09,4.2-2.28,4.2-2.63,0-.76.02-.76-4.51.28M227.72,39.59c-2.59,2.53-3.63,4.59-3.12,6.19.48,1.51-2.12,7.05-3.55,7.58-2.04.75-2.66,3.02-.65,2.38,1.59-.51,1.62.12.24,5.18-.58,2.11-1.18,6.29-1.33,9.28-.16,2.99-.55,5.94-.89,6.56-.8,1.49-.77,3.32.04,2.82.35-.22.64.08.64.66s.36.94.81.79c.88-.29,1.65-4.28,1.72-8.97.03-1.65.32-3.1.65-3.22.33-.12.75-1.52.94-3.11.19-1.6.54-4.64.78-6.77s.94-4.88,1.55-6.12,1.32-3.42,1.57-4.83c.25-1.42.84-3.18,1.31-3.91,1.11-1.72,2.29-6.01,1.73-6.28-.24-.12-1.34.68-2.46,1.77M212.63,48.41c-.54,1.01-.48,1.57.24,2.39.59.67.83,1.84.63,3.09-.17,1.11.02,2.63.42,3.38.53.99.54,1.72.03,2.68-.39.72-.5,1.95-.25,2.74.44,1.39.47,1.39.96.14.28-.71.52-2.78.55-4.59.02-1.82.48-4.54,1.01-6.04,1.42-4.03,1.27-4.81-.96-4.97-1.37-.1-2.13.25-2.63,1.18M211.61,66.54c-.03,1.86-.43,4.74-.88,6.41-.73,2.64-.69,3.29.27,5.16l1.1,2.13-.38-2.59c-.25-1.65-.03-3.42.59-4.91.58-1.39.88-3.6.73-5.47-.33-4.27-.29-4.11-.86-4.11-.28,0-.53,1.52-.56,3.38M316.96,72.02c-4.94,4.36-7.81,7.28-7.48,7.6,1.05,1.05,12.11-7.54,12.11-9.41,0-1.29-2-.51-4.63,1.81M337.05,75.36c0,1.04,3.9,7.78,4.5,7.78,1.41,0,.96-2.08-1.04-4.91-2.25-3.17-3.46-4.17-3.46-2.87M322.94,76.35c-1.21.44-2.51,1.2-2.9,1.69-1.85,2.36-8.01,6.65-14.55,10.13-2.31,1.23-4.66,2.63-5.22,3.11-.56.48-1.31.87-1.67.87-1.42,0-2.69,2.43-3.13,5.96-.6,4.85-2.24,4.77-2.24-.11,0-2.95-1.42-9.08-2.11-9.08-.64,0-.35,3.3.56,6.36.41,1.37.3,1.48-1.09,1.05-3.88-1.18-3.79-.21.39,4.43,1.77,1.97,3.8,4.28,4.51,5.14l1.29,1.57,8.38-1.25c4.61-.69,10.93-2.11,14.05-3.15,7.03-2.36,18.53-4.47,24.58-4.52,7.2-.06,11.39-2.19,9.67-4.91-.67-1.07-7.26-5.41-12.2-8.04-3.68-1.96-6.48-4.46-6.24-5.57.14-.65-.12-.83-.84-.55-.64.25-2.35-.47-4.39-1.85q-3.64-2.45-6.84-1.3M332.05,82.49c3.15,2.13,5.85,3.87,6,3.87s2.37,1.34,4.92,2.98c2.56,1.64,5.46,3.26,6.45,3.61,1.98.69,2.39,2.08.78,2.69-.56.22-2.8.39-4.97.39-7.37,0-24.57,3.28-28.89,5.52-.93.48-5.25,1.36-9.61,1.95-7.62,1.04-7.96,1.03-8.79-.09-.47-.65-.86-2.37-.86-3.84,0-3.31.76-4.04,9.54-9.07,3.65-2.09,9.02-5.61,11.92-7.82s5.84-4.02,6.52-4.03c.68,0,3.82,1.72,6.97,3.85M236.32,88.99c-.59,1.49-1.57,2.77-2.27,2.95-1.02.27-1.32,1.14-1.69,4.86-.25,2.5-.71,5.22-1.02,6.05-.75,1.96.01,2.37,1.84.99,1.09-.82,1.6-2.11,2.02-5.02.3-2.15,1-4.78,1.55-5.84.55-1.06.84-2.51.65-3.24-.19-.72-.03-1.51.36-1.75.83-.51.94-1.65.15-1.65-.3,0-1.01,1.18-1.58,2.63M136.32,100.38c-.27,5.23-.55,10.81-.61,12.41-.34,8.77-.37,8.97-1.59,9.63-1.16.62-1.2.39-.9-4.97.27-4.9,1.52-16.68,2.56-24.15.75-5.36,1.01-1.87.54,7.09M194.64,98.97c.94,2.47.76,7.59-.32,9.02-1.08,1.42-1.32,4.8-.34,4.8.35,0,.64-.47.64-1.05s.73-1.73,1.61-2.55c2.11-1.95,2.17-5.79.16-9.32-1.63-2.86-2.71-3.41-1.76-.9M161.32,120.11c-1.91,2.14-3.04,4.41-4.67,9.37-1.18,3.6-1.95,6.75-1.71,6.99.55.55,1.55-.95,2.05-3.07.5-2.15,4.53-10.14,6.32-12.57,2.27-3.06,2.47-3.54,1.46-3.54-.51,0-2.06,1.27-3.45,2.82M216.79,142.05c-.51,1.33.99,20.35,1.71,21.7.34.63.61,2.29.61,3.68,0,1.56.5,3.16,1.29,4.18.71.91,1.49,2.6,1.72,3.77.23,1.17,1.55,3.29,2.92,4.72,2.53,2.63,3.55,4.87,2.79,6.11-.8,1.3-1.58.67-2.01-1.64-.3-1.63-.6-2.06-.99-1.45-.93,1.47-.65,4.25.49,4.68,1.24.47,3.59-.15,4.21-1.12.27-.41,1.51.19,3.22,1.57,1.53,1.23,3.95,2.58,5.37,2.99,3.76,1.09,9.99,1.66,9.99.91s-3.45-2.04-5.32-2.04-8.34-3.65-11.1-6.31c-8-7.75-10.49-14.39-11.9-31.73-.72-8.87-1.92-12.86-3.01-10.02M128.89,155.39c0,.87,13.43,14.15,19.41,19.2,12.54,10.59,22.5,16.81,29.71,18.55,3.82.92,4.45,1.28,4.76,2.72,1.1,4.98,1.97,7.39,2.76,7.66.67.22.78-.12.46-1.4-.23-.93-.6-2.99-.82-4.58l-.39-2.88,3.47.34c7.11.7,6.6.11,6.21,7.24-.34,6.18-1.51,11.71-2.47,11.71-.27,0-1.1-.77-1.84-1.71-1.75-2.22-2.59-1.4-.93.91.7.97,1.67,3,2.16,4.51.49,1.51,1.31,3.1,1.83,3.53.81.67.89.42.54-1.78-.28-1.8,0-3.62.92-6.11,2.01-5.42,3.43-12.98,2.53-13.54-.91-.56-.58-4,.41-4.32.4-.13.93.72,1.2,1.88l.47,2.12.62-2.19c.46-1.63.4-2.39-.23-2.99-.47-.44-4.3-1.12-8.58-1.51-12.59-1.16-17.69-3.08-29-10.89-7.04-4.86-15.38-11.92-23.91-20.24-6.5-6.34-9.28-8.22-9.28-6.26M333.46,161.06c-1.04.64-2.49,1.86-3.23,2.71-2.08,2.37-4.32,6.37-3.56,6.37.37,0,1.02-.65,1.44-1.45.81-1.55,5.48-6.15,7.4-7.3.68-.4.89-.86.5-1.09-.36-.22-1.5.12-2.54.77M311.27,172.76c-5.38,1.85-7.1,2.54-10.31,4.14-4.15,2.07-16.81,4.97-25.23,5.77-5.09.48-11.68,2.5-13.73,4.2-.72.6-.95,1.42-.7,2.43.34,1.36.24,1.46-.88.85-.7-.37-1.78-.68-2.41-.68-.83,0-.26.89,2.03,3.22,3.52,3.57,4.4,3.96,3.83,1.71-.35-1.4-.2-1.5,1.95-1.37,1.96.12,2.51.5,3.52,2.47.65,1.28,1.37,3.28,1.6,4.43.23,1.16.53,2.68.67,3.39.14.71.29,1.58.33,1.93.04.35.49.09,1-.58.82-1.09.97-1.11,1.33-.19.22.57.95,1.22,1.63,1.43.68.21,1.23.96,1.23,1.66s.42,1.43.94,1.63c.52.2,1.12.93,1.34,1.62.32,1.02.58,1.11,1.33.49.51-.42,1.13-.56,1.39-.31s-.15.95-.89,1.54c-1.94,1.56-2.31,3.18-1.15,4.96,1.07,1.63.78,4.96-.58,6.64-.55.69-.82.62-1.38-.35-.38-.66-2.39-3.43-4.47-6.17-3.54-4.65-4.92-5.86-4.92-4.33,0,.77,4.88,7.48,6.93,9.51,1.93,1.92,2.11,8.39.27,10.05-1.98,1.79-3.92,1.35-4.96-1.13-.7-1.67-1.43-2.31-3.03-2.64-2.36-.5-6.06-3.66-7.13-6.11l-.71-1.61-.24,1.81c-.27,2.01,1.33,4.95,2.69,4.95.48,0,1.23.44,1.67.97s1.35.97,2.01.97c1.59,0,3.79,2.24,3.79,3.85,0,.78-.81,1.69-2.09,2.36-1.15.6-1.74,1.21-1.3,1.36.44.15,1.69-.17,2.77-.72,3.19-1.59,3.84-.88,3.84,4.21,0,2.82.24,4.33.64,4.08.35-.22.64-2.18.64-4.35,0-3.28.26-4.24,1.54-5.6.85-.91,2-3.28,2.57-5.27.57-1.99,1.47-3.98,2-4.43.53-.44.97-1.35.97-2.02s.44-1.21.97-1.21c1.45,0,1.22-3.44-.32-4.83-1.58-1.43-1.73-3.03-.22-2.45.84.32.99.12.72-.92-.7-2.67.56-3.13,2.61-.94,1.88,2.02,3.33,2.65,3.33,1.45,0-.33-.87-1.56-1.93-2.72-1.94-2.12-2.47-4-1.32-4.71.77-.48-1.48-4.49-4.1-7.31-2.69-2.89-5.71-4.68-7.55-4.47-1.13.12-1.77-.33-2.5-1.77-1.79-3.51-1.96-3.68-2.94-2.86-1.43,1.19-4.27.19-4.02-1.42.28-1.86,3.67-2.92,14.06-4.4,13.8-1.96,19.17-3.45,29.42-8.12,1.12-.51,2.31-.93,2.66-.93s2-.61,3.68-1.35c4.8-2.12,4.97-1.06,1.07,6.52-3.79,7.35-6.02,10.71-12.61,19-2.54,3.19-5.45,6.94-6.47,8.33-2.44,3.31-7.48,9.01-8.23,9.3-.32.13-1.29-.43-2.15-1.24-1.96-1.85-2.06-.54-.16,2.13l1.4,1.97-1.5,1.22c-1.06.86-1.3,1.42-.82,1.9,1.01,1.01,3.26.06,3.75-1.57.23-.78,2.09-3.16,4.12-5.28,4.5-4.7,8.41-9.57,8.41-10.45,0-.36,2.18-2.7,4.83-5.21,2.97-2.8,4.83-5.07,4.83-5.89,0-.75.42-1.33.97-1.33s.97-.57.97-1.29.28-1.29.63-1.29.81-.71,1.03-1.58c.22-.87.79-1.91,1.26-2.3.47-.39,1.04-1.55,1.27-2.56s.82-2.19,1.33-2.61c.51-.42.93-1.44.93-2.26s.26-1.66.58-1.85c.32-.2.88-1.22,1.24-2.26.55-1.58.44-2.19-.63-3.55-1.59-2.02-2.11-2-8.93.33M336.68,174.3c-.22.87-.81,1.93-1.31,2.34-2.72,2.26-3.54,8.32-1.12,8.32.85,0,.89-.17.23-.97-1.17-1.41.39-6.92,1.87-6.59.57.13.98.54.9.91-.07.37.58,1.35,1.45,2.17,1.52,1.42,1.58,1.43,1.58.2,0-.71-.75-1.99-1.66-2.85-1.27-1.19-1.58-1.98-1.31-3.34.44-2.2-.09-2.36-.63-.19M220.55,182.32c-.79,1.07-1.44,2.36-1.44,2.88,0,.92-7.16,4.66-10.09,5.26-.83.17-2.24.46-3.12.64-.89.18-1.61.66-1.61,1.06,0,1.16,7.13.23,10.17-1.32,1.47-.75,3.11-1.36,3.66-1.36,1.64,0,1.12,1.8-.97,3.35-1.8,1.33-1.87,1.52-.86,2.26,1.04.76,1.04.89.03,2-1.34,1.48-1.36,2.05-.09,2.05,1.57,0,1.97,1.99.56,2.78-1.59.89-1.79.81-2.29-.97-.37-1.31-.43-1.24-.48.5-.04,1.1-.5,3.42-1.02,5.16-1.43,4.73-1.3,6.06.62,6.06,1.48,0,1.54-.12.84-1.66-.58-1.27-.58-1.95.01-2.89.42-.68.77-1.6.78-2.05.01-.86,2.74-3.71,3.55-3.71.26,0,.31,1.05.1,2.33-.3,1.82-.03,2.84,1.2,4.66,1.77,2.61,1.99,5.42.62,7.83-1.07,1.88-1.27,5.16-.3,5.16.37,0,.82-.51,1-1.13.18-.62.76-1.95,1.27-2.95,1.08-2.11,1.22-4.69.29-5.26-.35-.22-.64-1.21-.64-2.19s-.58-2.32-1.29-2.96c-1-.9-1.29-1.98-1.29-4.78,0-1.98-.28-4.6-.63-5.82-.55-1.92-.42-2.49.98-4.33,1.19-1.55,1.51-2.56,1.2-3.78-.23-.91-.06-2.93.38-4.48,1.06-3.79.62-4.71-1.13-2.34M334.8,187.49c-2.48.6-4.83,2.08-4.83,3.03,0,.47.86.3,2.39-.48,2.87-1.46,4.64-1.53,7.62-.29,2.82,1.18,2.92.11.14-1.59-2.25-1.37-2.39-1.39-5.32-.68M351.56,191.21c-1.74.94-6.05,4.23-15.66,11.96-1.87,1.51-3.83,2.83-4.35,2.95-.52.11-.94.57-.94,1.01s-.65,1.38-1.45,2.09c-2.07,1.85-6.95,7.66-8.33,9.93-.77,1.26-1.17,3.18-1.17,5.56,0,3.27.21,3.82,2.05,5.46,2.2,1.97,3.11,2.22,4.17,1.15.44-.44,1.21-.47,2.22-.07,2.62,1.02,10.42,2.66,13.47,2.84,2.97.17,4.46-.94,1.8-1.34-.81-.12-1.77-.44-2.12-.7s-2.75-.86-5.32-1.33c-2.57-.47-4.67-1.06-4.67-1.31s3.99-.52,8.86-.61c4.87-.08,9.3-.17,9.83-.18.53-.02,1.76.19,2.74.46,1.5.42,1.77.29,1.77-.79,0-.73-.54-1.43-1.26-1.61-.69-.18-6.71-.19-13.37-.02-9.49.24-12.48.53-13.84,1.34-2.25,1.33-3.75.23-3.75-2.75,0-3.5,1.65-6.36,6.89-11.93,5.23-5.56,20.33-18.07,23.5-19.48,1.24-.55,1.84-1.29,1.84-2.27,0-1.71-.33-1.75-2.89-.36M278.57,200.29c2.04,1.55,3.71,3.19,3.71,3.66s.43,1.67.95,2.68c.55,1.06.71,2.07.38,2.4-.77.77-3.86-1.54-3.89-2.92-.01-.6-1.16-1.9-2.55-2.9-2.76-1.98-4.87-4.98-4.23-6.01.47-.77.75-.61,5.63,3.09M147.3,203.81c.25.8,1.3,2.69,2.33,4.2l1.88,2.75-.38,10.14c-.21,5.58-.48,14.41-.6,19.62-.21,9.18-.27,9.54-1.93,11.52-1.46,1.73-1.69,2.55-1.53,5.39.17,3.08.3,3.32,1.64,3.07,1.5-.28,2,.75.74,1.53-1.09.67-3.13,5.54-3.14,7.5-.01,1.42-.52,1.97-2.75,2.97-2.71,1.21-5.51,3.69-4.88,4.33.18.18,2.33-.86,4.78-2.3,2.45-1.44,4.88-2.88,5.42-3.19,2.1-1.23,5.98-2.87,17.72-7.51,6.73-2.66,13.42-5.37,14.87-6.02,4.22-1.91,9.3-3.17,14.06-3.5,2.44-.17,4.53-.41,4.65-.52s.64-1.84,1.15-3.82c1.15-4.43,4.84-11.75,8.62-17.11,2.65-3.76,4.54-8.25,3.79-9-.18-.18-1.64,1.66-3.25,4.09-1.61,2.43-3.75,5.58-4.77,7-1.02,1.42-2.38,4.03-3.03,5.8-.64,1.77-1.37,3.45-1.61,3.74-.4.47-2.63-4.44-2.98-6.53-.08-.47-.86-1.92-1.74-3.22-.88-1.3-2.26-3.96-3.06-5.91-.8-1.95-1.84-4-2.31-4.56-.47-.56-.86-1.43-.86-1.93,0-1.56-2.8-4.51-3.72-3.92-.64.41-.53.9.48,2.19.72.91,1.31,2.12,1.31,2.67s.7,2.54,1.55,4.41c1.33,2.93,1.51,4.15,1.3,8.83-.2,4.33-.51,5.7-1.55,6.81-1.58,1.68-1.85,3.52-.33,2.27.53-.44.97-.58.97-.31s.74-.3,1.64-1.27c1.1-1.19,1.5-2.18,1.24-3.03-.22-.69-.13-1.61.21-2.03.34-.43.82-1.64,1.07-2.7.43-1.79.51-1.84,1.16-.64.38.7,1.01,1.49,1.39,1.74.49.32.49.67-.03,1.18s-.39,1.58.52,3.98c.75,1.98,1.16,4.43,1.05,6.24l-.19,2.97-5.03.5c-5.09.5-7.13,1.08-13.12,3.72-3.31,1.46-3.33,1.46-8.06.32-2.6-.63-5.24-1.41-5.86-1.74-1.16-.61-1.6-3.77-.53-3.77,1.68,0,2.62-2.18,2.62-6.04,0-2.21.25-4.29.55-4.63.85-.94,2.79-7.47,2.36-7.91-.21-.21-1.52.91-2.91,2.49-2.49,2.83-2.52,2.95-2.55,8.14-.02,3.9-.29,5.53-1.04,6.28-1.09,1.09-1.65,1.3-1.43.53.22-.76-1.4-3.38-2.09-3.38-1,0-.72,2.34.39,3.26.74.61.97,1.83.85,4.59-.17,4.1.2,4.99,1.6,3.83.65-.54,1.69-.58,3.64-.14,4.11.92,4.24,1.61.57,2.93-2.77,1-3.39,1.04-3.92.29-.5-.72-.69-.73-.96-.06-.32.79-4.9,4-5.72,4-.69,0,.5-2.89,1.4-3.42,1.32-.77,1.06-1.67-.37-1.29-.69.18-1.83,1.5-2.54,2.93-.82,1.66-2.25,3.15-3.97,4.12-1.47.84-2.83,1.52-3.02,1.52-.7,0,.51-4.05,1.72-5.75.7-.98,2.73-2.47,4.52-3.32,1.79-.85,3.25-1.77,3.25-2.04,0-.85-2.15-.51-4.99.78-2.67,1.21-2.75,1.21-3.38.03-1.65-3.09-.26-5.76,3.71-7.14,1.52-.53,2.2-1.29,2.73-3.07.39-1.3,1.26-3.53,1.93-4.94s1.41-3.45,1.63-4.51c.27-1.26,1.98-3.4,4.96-6.18,4.01-3.74,4.5-4.45,4.13-5.95-.24-.96-3.74-5.01-8.03-9.29-4.18-4.17-8.83-9.26-10.32-11.3-2.82-3.83-4.41-4.83-3.6-2.26M207.81,206.88c-.66,2.66-1.19,6.54-1.18,8.62.03,3.22.26,3.96,1.56,4.95,1.4,1.06,1.45,1.26.55,2.33-1.06,1.27-2.53,4.39-2.53,5.4,0,1.58,1.36.32,2.55-2.37,1.55-3.5,1.63-4.53.44-5.72-1.51-1.51-1.83-6.91-.7-11.88,1.41-6.21.8-7.35-.7-1.32M226.2,215.74c0,3.62-1.64,7.86-3.8,9.79-1.71,1.54-3.81,6.82-3.03,7.6.19.19.8-.02,1.35-.48s1.11-.71,1.25-.57c.5.5-.96,6.64-1.93,8.13-.71,1.08-.88,2.31-.59,4.24.37,2.49.24,2.83-1.55,4.16-1.75,1.3-3.3,1.86-3.3,1.21,0-.13.44-1.47.97-2.98,1.18-3.34,1.18-3.22.02-3.22s-2.28,1.94-2.28,3.75c0,.69-.58,1.95-1.29,2.78-1.26,1.49-1.31,1.5-2.26.27-.65-.83-.97-.96-.97-.36,0,.49-.63,1.56-1.4,2.38-2.15,2.29-.87,2.57,3.04.65,3.74-1.84,5.75-2.17,6.43-1.07.23.37,1.41-.64,2.64-2.25,1.23-1.6,2.94-3.1,3.81-3.32.87-.22,1.59-.66,1.59-.97s.58-.57,1.29-.57,1.29-.33,1.29-.73c0-.5-.93-.6-2.9-.33-3.25.45-3.45.11-1.81-2.99.72-1.36,1.13-3.87,1.23-7.4.13-4.83.29-5.45,1.74-6.59,1.1-.87,1.74-2.18,2.04-4.21.37-2.46.6-2.83,1.36-2.19.73.61.92.55.92-.28,0-.57-.28-1.05-.62-1.05s-.8-1-1.03-2.23c-.23-1.23-.82-2.57-1.32-2.98-.74-.62-.9-.3-.9,1.83M155.21,215.32c1.07,1.71,1.06,25.14-.01,29.54-1.31,5.36-3.23,6.27-2.82,1.34.15-1.76.32-7.93.39-13.69.14-11.55.59-18.54,1.2-18.54.22,0,.78.61,1.25,1.36M164.72,224.5c.85,1.26,1.55,2.72,1.55,3.25,0,1.1-6.68,7.1-7.51,6.75-.57-.24-.99-14.01-.46-14.87.5-.81,4.74,2.41,6.42,4.88M267.21,221.35c1.15.53,2.18,1.59,2.4,2.46.21.84,1.12,1.87,2.03,2.28,1.04.47,1.78,1.46,2.03,2.68.21,1.06.67,1.75,1.02,1.54,2.34-1.45-3.33-8.8-7.33-9.5l-2.16-.38,2.02.93M179.4,225.36c-.75.15-2.02.96-2.82,1.81-1.4,1.49-1.42,1.66-.53,5.28.59,2.42,1.28,3.81,1.95,3.94.85.16,1.02-.38.94-3.02-.09-2.83.16-3.48,2.01-5.39,1.16-1.2,1.91-2.37,1.66-2.62-.46-.45-.87-.45-3.21,0M340.92,237.18c-5.36.75-14.18,4.42-14.18,5.9,0,.7.88.67,1.64-.05.34-.32,3.44-1.48,6.9-2.58,5.29-1.68,7.31-2,12.73-2,5.93,0,7.94-.57,5.42-1.54-1.31-.5-7.97-.36-12.51.27M320.94,243.72c-3.43.98-10.31,4.28-10.31,4.95,0,.82,3.58-.06,7.05-1.75,1.57-.76,3.33-1.39,3.9-1.39,1.09,0,2.59-1.19,2.59-2.06,0-.61-.28-.59-3.22.24M223.91,249.74c-1.7,1.59-3.62,3.05-4.27,3.26-.64.2-1.17.89-1.17,1.53,0,1.57,3.01,1.01,3.94-.73.52-.98,1.07-1.17,2.4-.83.95.24,3.46.7,5.59,1.03,2.13.33,5.61,1.01,7.73,1.52,15.46,3.72,25.65,5.42,37.03,6.18,22.74,1.52,27.48,2.32,34.17,5.76,4.62,2.37,7.49,3.79,9.84,4.86,2.97,1.35,3.05,2,.32,2.59-1.15.25-2.38.66-2.74.93s-1.66.66-2.9.87c-12.78,2.21-20.39,4.4-19.62,5.64.22.36.84.34,1.57-.05.66-.35,1.65-.47,2.19-.26,1.63.63,16.4-2.88,22.66-5.38,8.74-3.49,19.18-4.81,24.91-3.14,1.99.58,3.9,1.05,4.26,1.05.51,0,4.63-7.8,4.63-8.77,0-.14-.37-.25-.82-.25-.77,0-2.44,2.71-3.31,5.39-.29.88-.78,1.1-1.83.81-4.02-1.09-12.04-1.13-18.04-.1l-6.28,1.08-3.71-1.69c-4.58-2.09-7.31-3.47-11.37-5.74-1.73-.97-4.34-2.17-5.8-2.66-2.74-.93-15.44-2.47-29.39-3.55-9.74-.76-19.45-2.37-35.12-5.81-3.19-.7-6.67-1.28-7.73-1.27-1.06,0-2.58-.17-3.36-.38-1.25-.34-1.31-.5-.48-1.33,1.05-1.06,1.24-2.53.38-3.06-.31-.19-1.96.95-3.66,2.53M199.78,255.86c0,.35-.44.64-.97.64s-1.88.87-3,1.93c-1.11,1.06-2.24,1.93-2.51,1.93s-1.25,1.31-2.19,2.9c-1.35,2.3-2.06,2.9-3.44,2.91-.96,0-2.18.29-2.71.63-.79.51-.7.63.45.63,2.48.02,2.21,1.13-.61,2.52-2.36,1.17-2.72,1.71-.96,1.43.73-.11.58.83-.32,2.07-.71.96-1.26,1.01-4.53.41-3.8-.7-6.26-.4-6.26.77,0,.38.77.48,1.87.24,1.07-.24,2.05-.12,2.29.27.23.38,1.11.68,1.96.68s1.72.29,1.94.65c.5.8-2.95,6.38-3.96,6.41-.4.01-1.21.75-1.79,1.63s-2.1,2.04-3.38,2.58c-2.79,1.16-10.54,1.33-10.54.23,0-.47-.41-.38-1.13.24-.62.54-2.2,1.18-3.52,1.41-2.17.39-13.95,7.3-18.98,11.14l-2.05,1.56-.21-1.44c-.12-.79-.51-1.54-.87-1.65-.83-.27-2.66,3.29-3.15,6.14-.39,2.25-5.77,8.76-8.36,10.12-.75.39-1.29,1.05-1.21,1.47.09.41-.2.76-.64.77-.44,0-1.53.61-2.42,1.34l-1.61,1.32,1.78-.28,1.78-.28-1.31,2.22c-.72,1.22-1.6,4.25-1.95,6.72-.94,6.62-1.32,7.17-10.94,16.02-.96.89-3.17,2.93-4.9,4.53-5.08,4.71-8.06,6.76-12.17,8.38-2.13.84-4.47,2.05-5.2,2.68-1.79,1.56-2.42,1.46-2.08-.34.24-1.28.07-1.46-1.21-1.21-1.69.32-1.86.8-.7,1.96.44.44.8,1.79.81,2.99v2.2s-2.89-.36-2.89-.36l-2.9-.36,2.26,1.97c1.24,1.08,3.05,2.16,4.03,2.38,2.33.54,2.24,1.46-.23,2.5-1.61.67-1.78.92-.91,1.26.6.23,1.36.26,1.68.06.32-.2.59-.05.59.32s.28.68.62.68.46-.42.26-.94c-.29-.75.12-.86,2.12-.56,1.36.21,3.05.85,3.76,1.42,2.85,2.31,3.94,2.62,5.44,1.58.78-.54,1.97-.84,2.66-.66.89.23,1.25,0,1.25-.83,0-1.29-1.23-1.94-3.68-1.94-1.38,0-1.51.15-.84.97.51.61.55.97.12.97-.98,0-5.27-2.61-5.27-3.21,0-.28-.83-.85-1.84-1.27-1.79-.74-4.6-3.87-4.6-5.12,0-1.12,8.63-5.88,10.66-5.88.47,0,1.23-.37,1.7-.81.47-.45,2.16-1.81,3.75-3.03,1.6-1.22,5.08-4.3,7.73-6.85,2.66-2.55,5.91-5.56,7.23-6.69,3.31-2.84,4.81-5.55,5.34-9.69.58-4.44,2.33-8.39,5.1-11.47,1.18-1.31,2.74-3.54,3.47-4.96.73-1.42,2.15-3.49,3.15-4.6,1-1.11,2.66-3.11,3.69-4.44,2.05-2.65,10.64-8.46,18.09-12.24,4.48-2.27,5.18-2.43,12.22-2.74,7.42-.33,9.09.13,6.34,1.73-1.66.97,3.8.92,5.93-.05,2.54-1.16,2.02-2.27-1.03-2.21-1.6.03-2.79-.27-2.95-.75-.17-.49.29-.81,1.19-.81,2.01,0,8.02-6.31,9.66-10.14,1.24-2.88,3.41-5.7,9.44-12.21,1.51-1.63,2.74-3.15,2.74-3.39,0-.96,4.34-4.55,6.68-5.53,1.37-.57,2.35-1.17,2.18-1.34-.65-.64-4.99-.87-4.99-.26M233.67,277.71c-1.02,1.13-1.1,1.62-.49,2.97.41.89,1.54,1.93,2.52,2.32.98.39,2.29.97,2.91,1.29.68.35,1.13.34,1.13-.02,0-.33.36-.73.81-.88.44-.15.3-.2-.32-.11-1.37.21-1.4-.27-.1-1.97.97-1.27,1-1.27,1.91-.04.7.94.93,1.01.93.28,0-1.57-3.49-4.45-5.87-4.84-1.71-.28-2.47-.06-3.42.99M37.7,281.26c-6.64,2.21-8.9,3.66-9.75,6.21-.74,2.23-.53,4.08.4,3.51.28-.17.69-1.3.92-2.51.43-2.27,2.31-4.64,2.31-2.89,0,2-1.43,5.81-2.29,6.14-.51.2-.93.98-.93,1.74,0,.76-.57,2.23-1.25,3.27-1.37,2.09-1.08,3.72.33,1.85.85-1.13.89-1.13.9,0,.01.64.32.98.68.76.36-.22.5-.65.32-.95-.18-.3-.17-.96.03-1.48.38-1,3.62-1.58,12.02-2.16,4.64-.32,5.08-.23,6.7,1.26,1.15,1.06,1.59,1.97,1.31,2.7-.32.83-.16,1,.63.69.82-.32.97-.11.69.96-.2.75-.09,2.07.24,2.93.46,1.22.36,1.65-.45,1.97-.96.37-.96.47-.03,1.15,2.01,1.47,4.04,10,2.38,10-.35,0-.64.29-.64.64s.4.64.89.64c1.56,0,3.06,3.05,2.64,5.33-.24,1.27.01,3.03.64,4.52.56,1.35.85,2.73.64,3.07-.21.34.5,2.27,1.59,4.27,1.09,2.01,1.98,4.27,1.98,5.02s.33,1.69.72,2.09c.4.4.83,1.67.97,2.83.14,1.16.82,2.72,1.53,3.48.71.75,1.29,1.58,1.29,1.84s.58,1.09,1.29,1.85c.71.76,1.29,1.88,1.29,2.48s.51,1.23,1.13,1.4,1.85,1.73,2.74,3.46c2,3.9,2.26,4.09,5.64,4.11,3.64.01,3.5-1.09-.21-1.64-1.85-.28-3.09-.83-3.32-1.49-.2-.58-.95-1.7-1.67-2.5s-1-1.45-.63-1.45,1.05.45,1.51,1c.46.55,1.42,1.32,2.15,1.71,1.31.7,1.31.69.13-1.16-.65-1.03-1.86-2.59-2.68-3.48-.82-.89-2.23-3-3.14-4.7-1.44-2.7-1.56-3.43-1.02-5.8.98-4.25.81-9.23-.36-10.4-.57-.57-2.1-1.01-3.47-1.01s-2.74-.36-3.09-.81c-1.01-1.29-2.75-6.99-2.75-9.02,0-1.02-.33-2.47-.73-3.22-1.16-2.17-3.18-10.62-4.07-17.06-.69-4.95-1.26-6.67-3.42-10.31-1.43-2.4-2.91-5.54-3.3-6.98-.74-2.74-2.82-5.47-4.13-5.42-.43.02-2.81.71-5.29,1.53M44.36,285.02c.35,1.15.82,2.91,1.04,3.9.4,1.78.37,1.8-2.04,1.36-1.34-.24-3.11-.69-3.93-1-2.4-.89-2.98-.65-1.73.73.88.97,1.98,1.29,4.52,1.29,3.33,0,6.75,1.7,6.75,3.35,0,.42-.38.36-.97-.13-.71-.59-3.28-.73-9.65-.51-7.16.24-8.56.14-7.97-.56.39-.47,1.2-.86,1.79-.86s1.36-.27,1.69-.59c.34-.32,1.34-.72,2.22-.88,1.01-.18.57-.32-1.18-.38-1.91-.06-2.71-.34-2.53-.89.15-.44.68-.83,1.18-.87,2.77-.2,2.88-.28,1.65-1.21-1.6-1.21-.81-2.28,1.71-2.29,1.13,0,2.48-.28,2.99-.6.57-.36,1.38-.35,2.09.03.77.41,1.16.4,1.16-.05,0-.37-.29-.67-.64-.67s-.64-.29-.64-.64c0-1.56,1.89-.45,2.47,1.45M128.28,285.44c-.37.7-.68,1.69-.68,2.22,0,.95-7.37,10.22-8.45,10.63-.31.12-.57-.53-.57-1.45,0-2.14-1.03-2.16-1.56-.02-.47,1.85.04,3.09,1.01,2.49.36-.22-.02.62-.84,1.87-.82,1.25-1.71,2.13-1.98,1.97-.27-.17-.5.45-.5,1.37,0,2.47-1.82,5.67-2.98,5.22-.53-.2-.79-.09-.58.25.21.34-1.01,1.36-2.71,2.26-1.7.91-4.88,2.92-7.07,4.48-2.19,1.56-4.61,3.03-5.37,3.27-1.33.42-1.37.31-.94-3.1.24-1.94.25-4.15,0-4.9-.86-2.7-1.63-.54-1.63,4.55s-.08,5.26-2.01,7.06c-1.11,1.04-3.12,2.67-4.47,3.64-1.35.97-4.78,3.65-7.62,5.95-2.84,2.3-5.9,4.71-6.81,5.35-1.66,1.17-2.18,2.39-1.01,2.39s7.43-4.36,12.58-8.8c2.84-2.44,6.17-5.15,7.41-6.01,1.24-.86,2.4-1.74,2.58-1.96.96-1.17,14.31-9.76,16.93-10.88,2.48-1.06,3.53-2.06,5.47-5.19,5.84-9.41,12.21-17.75,13.72-17.97,1.19-.18,1.37-.04.84.64-.96,1.23-2.14,6.35-1.45,6.35.88,0,2.32-3.95,2.84-7.8l.47-3.48-1.56,1.45c-2.6,2.41-4.02,1.78-2.12-.94.58-.82.72-1.55.35-1.77-.34-.21-.92.19-1.3.88M26.85,300.75c-.77.77-.46,5.14.57,8.03.55,1.55,1.17,4.62,1.38,6.83.21,2.21.63,3.86.93,3.67.3-.19.55-.89.55-1.55s.32-1.41.71-1.65c.5-.31.56.19.19,1.73-.64,2.66-.58,4.2.37,9.59.41,2.3.73,5.12.7,6.26-.03,1.62.71,2.91,3.38,5.9,3.71,4.16,5,7.15,4.26,9.89-.32,1.2-.1,2.48.71,4.07.65,1.27,1.37,3.45,1.61,4.85.24,1.4.74,2.73,1.11,2.96.45.28.53-.17.24-1.36-.25-.98-.62-2.69-.83-3.8-.21-1.11-.8-2.5-1.31-3.09-.81-.94-.8-1.27.11-2.66,1.63-2.49.7-6.32-2.38-9.82-2.23-2.53-2.53-3.22-2.26-5.31.17-1.33-.08-3.16-.56-4.11-.47-.94-1.33-4.71-1.9-8.38-.57-3.67-1.32-7.25-1.65-7.96-.33-.71-.7-3.09-.81-5.29-.11-2.2-.57-4.45-1.02-4.99-.45-.55-.57-1-.26-1,.31,0,.13-.29-.4-.63-.84-.54-.83-.63.08-.63.58,0,1.41-.44,1.85-.98.69-.83.41-.97-2.07-.97-1.58,0-3.07.19-3.3.43M57.36,304.94c.01,3.1.96,5.22,1.77,3.97.36-.56,1.26-.58,3.48-.07,1.65.38,3.53.47,4.18.22.97-.38.71-.64-1.39-1.37-1.42-.5-3.36-.91-4.31-.92-1.47,0-1.76-.32-1.93-2.05-.32-3.27-1.81-3.09-1.8.22M339.35,304.03c.84,2.95.42,5.22-1.39,7.6-2.27,2.97-1.62,3.53.85.73,2.98-3.39,3.43-10.1.68-10.1-.39,0-.44.7-.13,1.77M146.45,310.45c-.44.16-.81.75-.81,1.31,0,1.44-3.82,4.68-5.52,4.68-.78,0-2.25.43-3.27.96-1.02.53-2.48.96-3.25.97-.77,0-1.84.44-2.37.97-.53.53-1.51.97-2.18.97-1.02,0-5.67,4.57-7.38,7.27-.7,1.11-.64,4.98.08,4.98.33,0,1.05-1.54,1.59-3.42.74-2.54,1.62-3.93,3.43-5.37,3.21-2.57,4.93-3.45,6.74-3.45.82,0,2.8-.42,4.39-.93,1.6-.51,5-1.27,7.57-1.67,2.57-.41,4.67-1.04,4.67-1.41,0-.4-.78-.51-1.91-.28-1.07.21-2.09.08-2.33-.3-.43-.69.86-3.76,1.89-4.51.73-.53-.33-1.11-1.36-.75M107.62,326.42c-.44.53-1.2.97-1.69.97s-.89.42-.89.92c0,.81-1.85,1.85-3.44,1.94-.29.02-.87.48-1.29,1.04-.41.55-1.22,1.18-1.78,1.39-.56.21-1.55,1.49-2.2,2.85-1.02,2.14-1.23,2.3-1.62,1.19-.38-1.08-.52-.96-.92.82-.26,1.15-.82,2.09-1.26,2.09-.97,0-2.73,3.55-3.32,6.7-.29,1.53-.19,2.32.28,2.32.39,0,.72-.53.72-1.19s.55-1.69,1.22-2.29c.73-.66,1.09-1.61.89-2.36-.25-.96.13-1.42,1.61-1.94,1.19-.41,2.65-1.79,3.75-3.54.99-1.57,2.18-2.86,2.62-2.86s1.13-.58,1.5-1.28c.43-.81,1.64-1.44,3.25-1.69,2.21-.35,2.42-.52,1.49-1.2-1.29-.94-.65-2.27,1.09-2.27.82,0,1.25-.44,1.25-1.29,0-1.54-.23-1.6-1.29-.32M91.05,331.13c-3.23,3.06-5.39,5.64-5.63,6.73-.5,2.33.37,2.26,1.78-.14,1.29-2.17,1.43-2.35,6.2-7.3,5.24-5.45,3.65-4.97-2.35.71M173.36,331.54c0,.17,1.18,1.44,2.61,2.82,3.67,3.52,8.01,4.66,13.55,3.55,1.82-.36,1.95-.5.89-.92-.69-.27-2.61-.51-4.27-.54-2.21-.03-4.3-.73-7.89-2.64-2.69-1.42-4.89-2.45-4.89-2.28M61.75,334.39c1.2.76,3.97,6.96,4.15,9.28.27,3.49-1.1,2.48-3.07-2.28-3.07-7.42-3.22-8.36-1.08-7M29.96,339.41c-1.06.56-2.58,1.68-3.37,2.51-1.22,1.27-1.34,1.77-.77,3.4.72,2.07,6.45,7.31,8.61,7.87.85.22,1.4.98,1.53,2.09.11.96.69,2.11,1.29,2.55.6.45,1.52,1.65,2.05,2.68,1.64,3.17,1.58.16-.09-4.56-1.12-3.17-1.89-4.37-3.09-4.83-1.28-.49-1.42-.73-.68-1.18.51-.32.71-.78.45-1.04-.26-.26-.9.09-1.43.77-.94,1.22-.99,1.21-2.25-.28-1.35-1.59-1.75-4.54-.64-4.68.35-.04.93-.15,1.29-.24s1.59-.21,2.74-.26c1.99-.1,2.03-.15.84-1.05-1.89-1.43-3.48-1.15-5.62.99-2.28,2.28-2.48,2.33-2.48.65,0-.76.92-1.88,2.25-2.74,1.24-.8,2.25-1.96,2.26-2.58,0-1.36-.39-1.37-2.89-.06M351.71,340.1c-1.82.28-2.37,1.16-1.01,1.62.45.15.58.73.31,1.43-.39,1.01-.96,1.13-4.14.8-3.62-.37-3.65-.36-1.44.49,1.24.48,2.91.72,3.71.54,1.74-.39,1.87.61.54,4.15-.5,1.34-1.07,4.64-1.27,7.34-.2,2.7-.68,5.74-1.06,6.76-.39,1.02-.87,4.23-1.08,7.15-.21,2.92-.58,5.18-.83,5.02-.25-.16-.43,2.16-.39,5.14.05,3.57-.2,5.7-.73,6.23-.46.46-.81,2.41-.81,4.51s-.31,3.89-.69,4.13c-.38.23-.54.8-.37,1.26.18.46.05,2.53-.29,4.61-.33,2.08-.89,7.83-1.25,12.8-.35,4.96-1.05,10.91-1.55,13.21-1.84,8.44-2.44,12.96-2.28,17.23.19,5.25,0,8.53-.45,7.42-.53-1.32-1.41-.91-1.05.48.19.71.61,1.29.95,1.29s.52.92.41,2.04c-.24,2.46-1.57,2.82-5.16,1.38-3.17-1.27-3.98-.62-1.14.91,1.18.63,3.1,2.16,4.27,3.4,1.78,1.88,2.15,2.79,2.24,5.48.15,4.66-.07,6.17-1.24,8.7-1.42,3.06-2.87,4.38-8.04,7.25-.8.44-1.67,1.15-1.94,1.57-.45.7-4.52,2.78-9.05,4.63-.99.4-2.4.74-3.13.74s-2.24.4-3.35.88c-2.2.95-4.64,1.89-11.85,4.58-2.57.96-4.83,2-5.03,2.33-.2.32-1.33.59-2.5.59s-2.52.45-2.98,1.01c-1.27,1.53-4.27,2.9-5.4,2.46-.55-.21-1.01-.06-1.01.35s-.51.94-1.13,1.2c-.62.25-2.5,1.28-4.17,2.29-1.67,1-3.56,1.7-4.19,1.55-.96-.23-.88-.39.47-.96,1.7-.73,4.27-3.38,3.27-3.38-.32,0-1.45.73-2.5,1.61s-2.11,1.61-2.35,1.61c-1.22,0-3.06-3.53-3.22-6.2-.02-.4-.37-1.41-.77-2.26-.4-.84-1.07-2.79-1.49-4.34-.71-2.6-.65-2.93.72-4.39,1.34-1.43,1.36-1.53.21-1.12-2.5.9-2.86,1.57-2.48,4.67.2,1.65.82,4.01,1.38,5.25.56,1.24,1.12,3.13,1.23,4.19.12,1.06.62,2.24,1.12,2.61.5.37,1.11,1.75,1.35,3.06.25,1.31.68,2.38.97,2.38.89,0,12.51-5.14,22.22-9.84,6.16-2.98,12.42-5.31,20.3-7.56,8.55-2.44,12.99-4.66,19.01-9.5,2.13-1.71,4.36-4.08,4.96-5.28.6-1.2,1.4-2.48,1.77-2.85s.69-1.27.7-2c.02-1.3.04-1.3.97-.07.52.69.95,2.45.95,3.92,0,2.24-.4,3.08-2.51,5.19-4.85,4.89-6.22,6.07-7.02,6.07-.44,0-1.31.27-1.93.59-5.11,2.69-10.93,5-19.16,7.6-5.32,1.68-9.81,3.24-9.99,3.47-.18.23-1.05.63-1.93.9-2.37.71-11.01,4.86-12.99,6.23-.94.65-2.25,1.22-2.9,1.26-.65.04-3.22,1.13-5.7,2.42-3.29,1.71-4.57,2.74-4.72,3.79-.14.98.13,1.45.81,1.45.56,0,1.01-.29,1.01-.64s.43-.64.95-.64c1.11,0,5.99-2.46,6.49-3.27.19-.31,1.57-.88,3.06-1.28,3.16-.84,5.62-1.88,11.51-4.87,2.36-1.2,4.71-2.18,5.23-2.18s1.65-.56,2.52-1.24c.86-.68,2.72-1.45,4.11-1.7,1.4-.26,3.12-.86,3.82-1.34.7-.48,1.64-.88,2.1-.88s2.06-.56,3.56-1.24c1.5-.68,3.95-1.43,5.43-1.66,1.49-.23,3.07-.86,3.52-1.4.45-.54,2.28-1.65,4.07-2.46,1.79-.81,4.98-3.1,7.09-5.09,2.11-1.98,3.88-3.61,3.94-3.61.53,0,1.61,13.49,1.73,21.75.02,1.51.3,2.74.63,2.74s.53.51.47,1.13c-.31,3.09.11,7.89.7,7.89.77,0,.3-21.23-.69-30.93-.82-8.03-2.39-16.29-3.86-20.3-1.07-2.92-1.13-4.4-.65-15.79.29-6.91.97-14.74,1.5-17.4s1.47-9.62,2.07-15.47,1.38-11.94,1.74-13.53c.6-2.67,1.1-6.46,3.09-23.2,2.11-17.71,5.1-36.09,5.87-36.09.31,0,.57-.73.57-1.61s-.22-1.57-.48-1.51c-.27.05-1.28.22-2.26.36M82.96,344.16c-1.14,1.75-1.43,2.58-.81,2.34,1.38-.53,2.32,1.6,2.52,5.73.18,3.53.87,5.55.95,2.76.02-.82.23-3.23.45-5.36.28-2.64.14-4.55-.47-6.02l-.88-2.15-1.78,2.71M26.17,350.48c-.37.6.02,8.86.45,9.61.16.27.48,1.83.72,3.48.25,1.7.98,3.48,1.7,4.13,1.7,1.53,1.96,1.07,1.15-1.98-1.11-4.14-1.35-8.54-.6-10.69.61-1.75.51-2.21-.74-3.53-1.55-1.63-2.14-1.86-2.66-1.01M35.44,361.48c0,1.64-.34,2.64-.97,2.88-.53.2-.97.92-.97,1.59s-.55,1.92-1.21,2.76c-1.03,1.31-1.1,1.85-.48,3.61.74,2.1,7.83,10.5,8.86,10.5,1.12,0,.51-1.07-2.98-5.28-3.16-3.81-3.48-4.46-2.92-5.94.35-.92.48-1.66.29-1.66s.17-.87.8-1.93c.63-1.06,1.67-1.93,2.31-1.93s1.34-.44,1.54-.97c.6-1.57,1.4-1.13,3.23,1.77.95,1.51,2.71,3.9,3.91,5.32,2.64,3.11,11.23,10.76,11.63,10.36.51-.51-1.58-2.98-4.97-5.88-3.47-2.96-9.05-9.42-9.05-10.48,0-.34-.43-.97-.96-1.41-.53-.44-.81-1.04-.62-1.34.18-.3-1.16-.37-2.99-.15l-3.33.39.28-2.36c.19-1.64.02-2.35-.56-2.35-.54,0-.84.88-.84,2.51M24.16,361.38c-.26.8-.82,1.45-1.26,1.45s-1.33,1.81-2,4.03c-.66,2.22-1.58,4.75-2.03,5.64-1.09,2.12-1.02,5.72.15,7.73l.93,1.61-.11-1.93c-.25-4.45.13-6.77,1.09-6.77.69,0,.97-.7.97-2.43s.54-3.11,1.8-4.67c1.45-1.8,1.72-2.62,1.36-4.17-.42-1.83-.47-1.86-.91-.48M163.53,363.61c-1.33.35-2.42.92-2.42,1.26s.27.45.6.25,3.59-.4,7.25-.44c5.94-.06,7.3.16,12.77,2.04,3.37,1.16,6.7,2.59,7.41,3.17,3.15,2.59,3.72,2.76,1.83.55-1.12-1.31-2.28-2.76-2.58-3.23-.54-.86-7.01-2.83-12.46-3.79-3.88-.69-9.44-.6-12.41.19M155.92,367.38c-.51.32-1.86.42-3,.21-1.92-.35-3.85.07-12.58,2.77-1.68.52-3.3.79-3.61.59-.68-.42-3.17,1.28-2.64,1.8.2.2,1.21.1,2.25-.21,2.45-.75,11.7-2.57,17.04-3.36,2.3-.34,7.46-.46,11.47-.27,4.36.21,7.13.11,6.91-.25-.68-1.1-14.38-2.2-15.84-1.27M174.02,370.12c.72.8,5.23,3.67,5.76,3.67.31,0,1.39.68,2.39,1.52,1,.84,2.76,2,3.92,2.59,1.29.66,2.09,1.56,2.09,2.35,0,.7.31,1.27.69,1.27,1.59,0,.07-2.99-2.44-4.8-5.22-3.77-9.14-6.11-10.94-6.54-1-.24-1.66-.27-1.47-.06M148.22,372.6c-1.24.36-2.85,1.21-3.59,1.89-.73.68-2.25,1.24-3.38,1.24-2.34,0-2.8,1.09-.6,1.4,2.13.3,6.93-.94,6.93-1.79,0-.76,3.17-1.48,7.09-1.61l2.26-.07-1.93-.53c-1.06-.29-2.51-.68-3.22-.86-.71-.18-2.3-.03-3.54.33M25.23,375.22c-2.46,1.87-2.74,2.35-2.46,4.15.23,1.44-.04,2.42-.92,3.36-.68.73-1.24,1.65-1.24,2.03,0,1.78,2.06,4.33,4.61,5.73,7.71,4.2,9.77,5.22,10.6,5.22.57,0,.9.71.9,1.93s-.33,1.93-.91,1.93c-.5,0-1.03.36-1.18.8-.15.44-.8.8-1.45.81-.65,0-1.3.37-1.45.81-.17.51.1.66.75.41,1.14-.44,1.47,1.33.38,2-.85.52-.84,3.54.01,3.54.37,0,.49-.67.27-1.52-.26-1.05-.07-1.65.63-1.91.56-.21,1.01-.72,1.01-1.12s.76-1.33,1.68-2.05c1.39-1.09,1.62-1.69,1.33-3.48-.2-1.24-.08-2.16.29-2.16,1.27,0-.13-1.18-3.46-2.9-1.86-.96-3.85-2.16-4.41-2.65-.56-.49-1.22-.89-1.46-.89s-1.62-.74-3.06-1.65c-2.08-1.32-2.46-1.83-1.87-2.54.61-.73,1.82-.16,6.81,3.2,3.34,2.25,6.22,3.85,6.4,3.56.18-.29-.93-1.35-2.46-2.36-1.53-1.01-4.29-2.82-6.13-4.02-3.27-2.14-4.33-3.93-2.34-3.93,1.33,0,4.37,1.6,5.41,2.86.9,1.08,2.61,1.37,2.61.44,0-.31-.85-.92-1.89-1.35-1.04-.43-2.06-1.22-2.26-1.76-.21-.54-.75-.83-1.21-.65-.46.18-1.53-.2-2.38-.84-1.29-.97-1.4-1.32-.72-2.15.45-.54,1.74-1.08,2.87-1.19,1.7-.16,2.05-.47,2.05-1.81,0-2.4-2.12-2.35-5.38.14M130.03,383.14c-2.37,2.3-4.09,4.19-3.81,4.19,1.59,0,7.03-3.33,7.65-4.68.54-1.19,1.41-1.69,3.5-2.03,2.07-.33,2.54-.6,1.83-1.05-2.51-1.58-4.76-.71-9.16,3.57M121.8,381.83c-.89.51-2.3,1.24-3.15,1.62-2.64,1.18-10.09,6.39-12.01,8.4-2.11,2.2-1.47,2.63.77.52,2.79-2.62,2.05-.86-1.11,2.66-1.73,1.93-3.06,3.6-2.94,3.72.56.56,2.44-.81,4.03-2.94.97-1.3,2.15-2.59,2.61-2.88.46-.28,1.28-1.37,1.82-2.41.54-1.05,2.2-2.5,3.71-3.26,3.56-1.78,8.81-5.29,8.83-5.9.02-.72-.76-.58-2.56.47M51.34,384.79c-1.18,1.68-.71,3.65,1.39,5.92,1.59,1.71,4.63,2.45,4.63,1.13,0-.35-.58-.64-1.29-.64-3.37,0-5.35-5.4-2.26-6.18.88-.22,1.45-.66,1.25-.98-.64-1.04-2.76-.6-3.72.76M185.87,384.02c.2.33,3.74,2.55,7.86,4.95,4.12,2.39,8.83,5.25,10.48,6.36,12.28,8.26,24.49,19.81,30.49,28.83,8.78,13.2,20.08,35.24,23.07,45.02.81,2.66,1.99,6.43,2.62,8.38s1.35,4.64,1.6,5.97c.51,2.7,1.4,3.66,1.99,2.12.21-.56-.08-1.73-.65-2.6-.57-.87-1.04-2.2-1.04-2.96s-.4-2.87-.88-4.69c-.49-1.83-1.25-4.92-1.71-6.87s-1.54-5.14-2.42-7.09c-2.89-6.4-5.47-11.89-6.37-13.53-4.87-8.89-6.85-12.28-7.36-12.6-1.35-.84-.45-1.67,1.62-1.49,2.6.22,3.79-.53,1.56-.99-.84-.17-2.27-.47-3.19-.66-1.09-.23-2.09-1.18-2.9-2.78-.68-1.34-1.89-3.25-2.69-4.25-.8-1-1.45-2.22-1.45-2.71s-.38-1.12-.85-1.4c-.47-.28-1.74-1.82-2.83-3.42-2.45-3.57-17.86-18.79-18.77-18.53-.41.12-3.94-1.99-4.62-2.75-.47-.53-8.62-5.74-14.02-8.95-2.57-1.53-4.67-2.97-4.67-3.19,0-.22-1.18-.49-2.63-.59-1.5-.1-2.47.08-2.26.42M16.11,388c-1.24.26-5.25.83-8.91,1.27-4.59.55-6.77,1.08-7.01,1.71-.53,1.39-.18,1.46,4.33.84,2.3-.32,6.48-.89,9.29-1.28,2.81-.38,5.54-.94,6.06-1.23,1.6-.9-1.15-1.85-3.76-1.3M337.42,398.12c-.22,2.04-.52,5.03-.65,6.64-.14,1.61-.45,4.01-.7,5.32-.27,1.46-.2,2.38.2,2.38.81,0,1.29-3.03,1.81-11.44.44-7.1,0-8.99-.66-2.9M28.35,399.48c-3.56,2.5-6.13,4.05-13.13,7.93-2.08,1.15-3.48,2.2-3.11,2.32.83.28,7.14-2.31,8.56-3.5.56-.47,1.36-.86,1.77-.86s1.84-.94,3.17-2.09c2.68-2.33,4.28-3.4,6.45-4.34,1.55-.67,1.98-1.95.64-1.95-.44,0-2.4,1.12-4.35,2.49M7.93,411.98c-1.09.8-3.32,2.03-4.95,2.74-1.9.82-2.97,1.69-2.98,2.42,0,.62.3,1.13.67,1.13,1.15,0,4.48-1.93,4.48-2.59,0-.35.36-.64.81-.65.96-.02,5.54-4.49,4.61-4.49-.36,0-1.54.65-2.63,1.45M90.62,421c-.17,1.15-.62,4.06-1.02,6.47-.39,2.41-.54,4.67-.32,5.02.22.35-.03,1.3-.56,2.1-.63.97-.76,1.81-.37,2.5.37.65.29,1.71-.19,2.86-.99,2.34-1.03,16.94-.06,20.83.4,1.6,1.07,5.08,1.48,7.73,1.19,7.59,4.35,19.86,6.11,23.71.88,1.93,1.61,3.92,1.61,4.41s.61,2.56,1.35,4.59c.74,2.03,2.06,5.7,2.92,8.16,1.72,4.91,2.51,6.17,3.89,6.17.74,0,.77-.26.13-1.45-1.38-2.57-9.65-27.01-11.55-34.11-1.01-3.78-2.17-9.39-2.58-12.46-.41-3.07-1.15-6.36-1.64-7.3-1.1-2.11-1.23-14.62-.2-19.43.5-2.32.5-3.52.02-4.11-.49-.59-.46-1.05.1-1.61.72-.72,1.37-5.13,1.93-13.14.24-3.44-.59-4.2-1.05-.97M105.67,451.49c-.35.91-.63,2.02-.63,2.48s-.58,1.35-1.29,1.99-1.29,1.41-1.29,1.72-1.04,2.03-2.3,3.83-2.11,3.47-1.87,3.7c1.15,1.13,7.63-8.75,8.7-13.27.59-2.5-.41-2.83-1.32-.44M346.4,503.33c-.63,1.02,1.56,4.51,2.84,4.51.66,0,2.12.19,3.25.41,2.02.4,2.06.36,1.85-1.73-.16-1.66-.57-2.24-1.82-2.56-3.81-.99-5.77-1.19-6.12-.63"/>
</svg>