<?xml version="1.0" encoding="UTF-8"?>
<svg id="Warstwa_1" data-name="Warstwa 1" xmlns="http://www.w3.org/2000/svg" viewBox="0 0 397.8 298.37">
  <defs>
    <style>
      .cls-1 {
        fill: #010101;
        fill-rule: evenodd;
      }
    </style>
  </defs>
  <path class="cls-1" d="M46.52,1.18c-4.19,2.27-6.65,4.51-9.31,8.49-1.49,2.22-3.07,4.77-3.53,5.66-1.21,2.36-1.8,8.21-1.75,17.25.04,8.33-.54,14.86-1.78,19.91-3.81,15.56-9.36,40.09-10.46,46.24-.44,2.46-1.11,6.04-1.49,7.95s-1.16,6.16-1.74,9.45c-2.47,14-4.76,22.12-8.2,29.08-.88,1.78-2.1,4.8-2.72,6.71-.62,1.91-2.11,5.45-3.3,7.85-2.22,4.47-3,7.67-1.36,5.57,1.36-1.74,4.7-8.81,5.96-12.61.67-2.01,2.09-5.48,3.17-7.71,3.17-6.56,5.07-13.33,7.95-28.4,2.87-14.98,4.98-25.63,5.47-27.59.89-3.55,2.42-10.27,2.88-12.68.26-1.37,1.52-6.62,2.79-11.68,4.32-17.14,4.77-20.33,4.77-33.63,0-8.9.5-12.63,2.08-15.58,1.71-3.19,4.48-7.02,6.44-8.9,2.02-1.94,8.57-5.52,10.11-5.52.38,0,.84-.22,1-.5.62-1-4.89-.5-7,.64M60.97.54c.17.27.63.5,1.02.5,1.21,0,6.54,2.79,10.05,5.26,3.97,2.8,38.55,37.3,42.02,41.92,1.31,1.75,2.32,3.33,2.24,3.52-.08.19-1.9,1.87-4.05,3.74-2.15,1.87-5.32,5.04-7.03,7.06-3.44,4.03-17.82,25.28-19.78,29.24-1.04,2.1-8.59,10.11-9.04,9.59-.9-1.05-6.72-14.51-6.72-15.54,0-.47.68-2.55,1.51-4.63,3.43-8.57,5.15-18.46,4.62-26.6-.52-8.09-3.53-16.13-7.4-19.77-1.9-1.78-1.44-.31,1.01,3.27,1.23,1.8,2.37,3.87,2.53,4.6.16.74.59,2.14.96,3.11.6,1.61,1.39,6.47,1.9,11.65.11,1.09-.11,3.44-.47,5.22s-.67,4.16-.68,5.3c0,1.79-1.22,5.78-4.96,16.33-1.37,3.85-4.99,10.75-9.66,18.39-2.34,3.83-7,12.42-10.36,19.1-3.92,7.8-6.83,12.95-8.14,14.42-2.61,2.92-15.31,19.32-19.84,25.63-1.91,2.66-3.72,5.1-4.01,5.41-1.26,1.36-11.15,15.72-11.15,16.2,0,.64-.11.64-1.58.1-2.61-.96-3.89-1.1-3.89-.42,0,.39,1.01.9,2.46,1.24,3.9.9,11.59,4.96,14.96,7.9,3.1,2.7,3.99,3.07,3.01,1.24-1.05-1.95-6.72-5.92-11.61-8.11-1.3-.58-2.36-1.24-2.36-1.46,0-.42,5.27-7.96,11.1-15.87,1.91-2.6,4.17-5.69,5.01-6.87,2.57-3.59,17.55-22.85,18.71-24.07.6-.62,1.74-2.02,2.54-3.09,2.59-3.51,20.17-22.35,22.63-24.26,2.44-1.89,8.48-6.24,11.31-8.15,3.02-2.04,7.14-6.16,8.01-8.01.78-1.66,3.86-6.68,6.14-10.01.44-.65,1.59-2.38,2.55-3.84,7.78-11.89,9.89-14.59,16.72-21.37,7.84-7.79,12.43-11.45,18.3-14.61,4.22-2.27,10.39-4.71,14.46-5.71,3.14-.78,8.32-3.57,11.53-6.23.33-.27.93-.5,1.34-.5s1.34-.78,2.07-1.74c1.22-1.6,1.54-1.74,3.94-1.74,2.89,0,4.02-.8,3.49-2.46-.41-1.28,0-1.29,1.58-.04,1.62,1.27,4.38,1.78,5.91,1.08,1.41-.64,1.52-1.39.38-2.65-1.21-1.34-.43-1.68,1.1-.48,3.46,2.72,9.09,1.5,6.98-1.51-.87-1.24-5.76-4.59-5.76-3.94,0,.26,1.17,1.49,2.61,2.74,2.15,1.87,2.48,2.37,1.86,2.78-.9.61-2.59.27-5.11-1.02-1.03-.53-2.18-.97-2.55-.97s-1.01-.52-1.42-1.15c-.91-1.39-5.12-3.71-5.68-3.13-.22.23.02.67.53.98,3.78,2.3,6.77,5.35,6.78,6.9,0,.84-3.29.29-5.31-.89-1.19-.7-2.38-1.14-2.63-.98-.26.16-1.41-.39-2.55-1.22-1.45-1.05-2.62-1.5-3.87-1.47l-1.79.04,2.24,1.02c1.23.56,3.1,1.7,4.16,2.53,1.82,1.43,1.87,1.55.99,2.21-.57.43-1.63.61-2.75.46-1-.13-2.06,0-2.35.3-.38.38-.86.24-1.66-.5-1.32-1.22-4.4-2.16-5.84-1.78-1.57.41-1.18,1.14.61,1.14,1.88,0,4.85,1.65,4.85,2.69s-1.6,1.41-3.2.8c-1.37-.52-3.26.04-3.26.96,0,.24-.14.79-.3,1.23-.17.45-.04.79.3.79s.71-.45.86-.99c.18-.7.68-.99,1.69-.99.79,0,1.43.1,1.43.23s-1.06.84-2.36,1.58c-1.3.75-3.18,1.99-4.17,2.76-2.02,1.56-3.18,1.82-2.72.61.17-.43.3-2.1.3-3.71,0-2.69.15-3.08,1.86-4.94,1.03-1.11,2.31-2.6,2.86-3.31,1.94-2.52,2.75-3.16,4-3.16.7,0,1.53-.23,1.86-.5,2.78-2.33,4.65-3.47,5.67-3.47.66,0,1.63-.23,2.15-.5,1.67-.9,6.71-.75,8.95.26,1.35.61,2.27.77,2.67.46,2.85-2.16,5.69-3.7,6.86-3.7.77,0,1.79-.22,2.26-.5.47-.27,2.32-.81,4.09-1.18,1.78-.38,5.02-1.17,7.21-1.77,6.51-1.78,12.42-2.48,21.53-2.54,6.12-.04,8.82.12,9.34.55.57.47,1.02.48,2.01.02,3.73-1.7,20.88-1.9,29.01-.33,2.05.39,5.3.95,7.21,1.23,8.65,1.29,18.82,4.18,25.22,7.19,1.44.68,3.74,1.51,5.11,1.85s3.6,1.13,4.97,1.77c1.37.63,2.78,1.15,3.13,1.16.66,0,2.62.84,8.82,3.77,4.6,2.17,9.07,6.55,11.13,10.92.84,1.77,1.52,3.42,1.52,3.68s.26,1.09.58,1.86c.32.77.86,2.52,1.2,3.89.34,1.37,1.18,4.35,1.88,6.63.7,2.28,1.43,5.86,1.61,7.95.21,2.37.78,4.75,1.51,6.3,3.06,6.48,13.61,23.32,13.96,22.28.26-.78-1.4-4-4.66-9.01-1.47-2.27-3.34-5.44-4.15-7.05-.81-1.61-1.71-3.06-1.99-3.24-1.25-.77-2.57-4.66-3.5-10.31-.98-5.97-1.81-9.14-3.37-12.98-1.01-2.49-.58-3.13,3.45-5.21,2.59-1.33,3.85-1.67,6.67-1.76,1.91-.06,4.03-.43,4.71-.82,3.39-1.94,6.24-2.59,11.43-2.61,3.98-.02,6.07.23,8.78,1.05,5.89,1.78,8.08,2.92,8.45,4.41.21.83.12,1.39-.24,1.51-.32.11-.58,1.12-.58,2.26,0,3.18-.59,7.29-1.03,7.29-.22,0-.53-.43-.7-.95-.17-.52-.86-1.31-1.53-1.76-1.13-.74-1.26-.74-1.54,0-.2.53.38,1.51,1.7,2.88l2.01,2.08-.9,3.23c-1.71,6.13-2.49,10.7-2.48,14.54,0,2.12.2,3.85.45,3.85.63,0,1.04-1.85,1.05-4.8,0-1.41.43-3.98.95-5.72,1.33-4.45,2.5-9.78,2.65-12.07.07-1.1.43-2.05.8-2.17.53-.17.62.39.4,2.7-.15,1.6-.35,4.59-.45,6.65-.2,4.01-1.18,9.84-1.81,10.67-.21.28-.66,1.5-1.01,2.7-.86,3.01-5.53,9.53-7.59,10.6-.91.47-2.55.98-3.64,1.14-2.98.41-4.41-.55-5.92-3.98-.39-.88-1.28.96-.96,1.98.27.87.21.91-.51.31-.7-.58-.82-.56-.82.16,0,.46.23,1.27.51,1.8.4.75.35.96-.23.96-1.18,0-3.19,1.06-3.49,1.84-.32.84,1.34,3.21,5.17,7.36,5.75,6.25,6.95,7.76,8.73,11.06l1.83,3.39,3.08-.2c2.39-.15,3.23-.02,3.74.6.74.89,3.3,1.05,5.2.33,1.94-.74,3.8.97,3.8,3.48,0,1.63.43,2.46,2.68,5.11,1.48,1.74,3.02,3.81,3.44,4.61.42.79,1.67,2.33,2.79,3.41,1.14,1.1,2.03,2.44,2.03,3.04,0,1.44-3.69,11.31-5.07,13.58-1.24,2.04-1.9,2.62-4.37,3.89-.95.49-2.34,1.48-3.07,2.19-.74.71-3.63,2.73-6.44,4.47-2.81,1.75-6.57,4.56-8.36,6.24-6.42,6.02-13.77,12.27-17.85,15.18-9.54,6.79-8.93,6.43-15.26,9.04-2.8,1.15-3.41,1.22-8.95.96-6.83-.32-7.25-.54-9.46-4.91-1.18-2.33-1.31-3.05-1.08-5.95.16-2.03-.01-4.58-.46-6.61-1.94-8.92-2.16-11.48-1.61-18.94.54-7.25,1.22-10.31,2.98-13.35,1.04-1.81,1.19-2.58.49-2.58-.76,0-2.99,4.44-3.83,7.65-.44,1.67-.94,5.72-1.11,9l-.32,5.97-5.72,3.23c-3.14,1.78-6.5,3.52-7.46,3.88-14.16,5.28-19.44,6.68-35.05,9.3-4.93.83-10.7,2.15-15.34,3.51-1.33.39-2.64.71-2.91.71s-1.19.32-2.06.71c-.86.39-3.02,1.31-4.8,2.04-1.78.73-4.46,1.96-5.97,2.73-3.94,2.03-6.76,3.2-10.44,4.33-11.04,3.39-14.94,3.91-23.08,3.09-5.87-.59-11.92-1.98-12.89-2.94-.33-.33-.03-1.61.91-3.86,2.86-6.83,6.84-17.9,7.92-22.01l1.11-4.23,13.44-8.95c15.44-10.28,15.78-10.54,23.84-18.45,9.55-9.37,11.69-12.06,20.69-26.04.97-1.5,2.61-4.3,3.64-6.21,2.85-5.27,3.99-6.97,6.69-9.95,2.62-2.89,2.81-3.22,1.91-3.22-1.37,0-6.02,5.98-9.77,12.58-5.13,9.03-11.04,17.79-15.45,22.91-3.94,4.58-12.89,13.42-16.97,16.76-2.73,2.24-26.2,17.92-32.32,21.59-6.31,3.78-14.61,9.63-29.52,20.76-8.06,6.02-9.62,7.47-13.93,12.95-1.89,2.4-4.46,5.05-5.72,5.89-1.26.84-2.96,2.16-3.78,2.92s-3.17,2.33-5.22,3.48c-2.05,1.16-4.71,2.85-5.91,3.77l-2.18,1.66h-5.77c-8.99.02-16.07,2.35-25.41,8.36-4.48,2.89-13.92,13.36-13.92,15.45,0,.82-.84.68-1.18-.2-.22-.58-.75-.68-2.28-.44-2.36.38-4.33-.66-4.58-2.4-.13-.88-.58-1.19-2.08-1.43-2.13-.34-2.79-1.05-2.8-3.02,0-1.07-.34-1.44-1.75-1.9-1.16-.38-1.84-.97-2.04-1.75-.43-1.72.11-2.23,2.39-2.23,1.73,0,2.42-.35,4.63-2.36,1.43-1.3,3.18-2.76,3.9-3.25,1.3-.88,1.79-2.34.79-2.34-.28,0-2.07,1.45-3.96,3.23-2.85,2.68-3.73,3.23-5.14,3.23-2.2,0-3.08-1.1-3.02-3.81.06-2.5,1-3.78,3.92-5.26,1.09-.55,3.21-2.29,4.72-3.86,3.3-3.43,4.23-3.93,12.61-6.74,3.6-1.2,8.77-3.12,11.51-4.25,5.72-2.37,7.82-3.19,13.67-5.39,2.32-.87,5.44-2.24,6.92-3.04,1.48-.8,3.29-1.46,4.02-1.46.95,0,2.28-.92,4.76-3.31,1.89-1.82,4.67-4.09,6.17-5.05,5.39-3.44,13.75-10.97,21.38-19.25,1.77-1.92,6.17-6.62,9.77-10.44,8.06-8.54,16.49-18.95,22.53-27.82.56-.82,2.89-4.1,5.18-7.28,2.29-3.18,5-7.1,6.03-8.7,2.2-3.44,6.81-9.13,9.5-11.71,1.84-1.77,3.79-3.32,11.37-9.06,8.28-6.27,13.57-11.75,18.51-19.18,2.09-3.14,3.93-5.83,4.09-5.97s1.04-1.26,1.96-2.49c4.17-5.57,8.7-8.48,15.54-9.97,7.81-1.7,14.89,2.31,19.09,10.81l1.84,3.72-.35,5.2c-.32,4.82-.52,5.58-2.72,10.27-3.75,8.03-4.38,10.87-5.76,25.92-.4,4.36-.97,9.17-1.27,10.69-1.75,8.88-6.21,18.53-17.49,37.81-11.19,19.13-11.89,20.25-13.98,22.37-1.67,1.69-1.82,1.99-.96,1.99,1.63,0,6.2-6.09,8.84-11.77,1.47-3.17,1.89-2.56,1.51,2.13-.2,2.43-.57,4.8-.81,5.26-.24.46-.44,1.24-.44,1.72,0,.81.07.81.78.1.97-.97,1.84-7.29,1.44-10.37-.29-2.18-.09-2.58,7.1-14.98,7.83-13.49,12.47-22.97,14.06-28.71,1.09-3.93,2.96-16.51,2.97-19.93,0-1.24.14-3.42.32-4.85.36-3.04-.31-2.54,12.49-9.09l8.09-4.14,3.59,1.58c1.98.87,3.83,1.58,4.12,1.58.89,0,3.2-2.73,3.18-3.76-.01-.53-.66-1.72-1.45-2.64l-1.43-1.67-4.2,2.04c-2.31,1.12-4.47,2.04-4.8,2.04s-2.1.86-3.92,1.91c-1.82,1.05-5.44,2.96-8.04,4.24-2.6,1.28-5.23,2.69-5.84,3.12-1.11.78-1.12.77-.84-.88.49-2.93,2.14-7.53,3.98-11.12,1.67-3.25,2.19-5.37,3.03-12.25.65-5.32-4.23-14.03-9.78-17.48-4.16-2.59-9.88-3.55-12.43-2.09-.68.39-1.99.72-2.91.73-2.3.02-6.84,2.55-9.64,5.37-3.48,3.51-5.58,6.22-9.73,12.54-4.52,6.88-11.27,13.74-20.17,20.47-10.67,8.07-14.23,11.75-20.34,21.04-1.26,1.91-3.28,4.82-4.5,6.46-1.22,1.64-3.73,5.22-5.59,7.95-1.86,2.73-4.19,5.98-5.18,7.21s-4.02,5.03-6.73,8.44c-2.71,3.41-6.96,8.33-9.44,10.94-2.48,2.61-7.72,8.19-11.65,12.4-7.53,8.09-13.51,13.47-19.81,17.87-4.58,3.19-6.4,4.84-7.36,6.66-.39.75-.97,1.37-1.27,1.37-.74,0-.24-7.71,1.1-16.78.55-3.76,1.67-11.65,2.48-17.53,1.66-12.03,2.14-14.41,3.73-18.36.61-1.52,1.27-4.36,1.46-6.3.38-3.82-.34-12.83-1.56-19.59-1.1-6.09,0-17.89,2.01-21.63.44-.82.8-1.68.8-1.9,0-1.12,7.4-11.06,10.53-14.17,3.75-3.72,4.33-5.28.97-2.62-4.48,3.55-11.08,12.49-13.49,18.28-2.52,6.04-3.16,17.97-1.47,27.13,1.66,8.98,1.44,15.86-.68,21.01-1.38,3.36-2.64,9.64-3.34,16.65-.86,8.62-1.16,9.52-3.98,11.66-1.37,1.04-2.76,2.28-3.09,2.76-1.7,2.42-14.39,12.87-21.74,17.9-1.4.96-4.49,3.18-6.86,4.94-6.65,4.93-11.89,8.77-20.48,15.03-6.81,4.96-14.11,9.7-18.64,12.11-3.34,1.78-5.67,3.53-9.2,6.93-5.03,4.85-6.5,5.64-12.93,6.99-1.78.37-4.15,1.01-5.27,1.41-3.62,1.29-10.29,2.45-13.99,2.44-2.56,0-3.6.17-3.6.61,0,1,3.91,1.26,7.71.52,1.91-.38,4.46-.84,5.67-1.02,1.2-.19,2.97-.67,3.93-1.07.96-.4,3.35-1.04,5.31-1.41,6.89-1.32,9-2.43,14.18-7.44,3.51-3.4,5.87-5.19,9.2-6.98,5.19-2.79,11.69-6.93,15.82-10.07,3.79-2.89,7.31-4.73,12.37-6.49,2.27-.79,5.58-2,7.36-2.69,8.82-3.42,14.65-5.38,19.4-6.52,2.88-.69,5.79-1.5,6.46-1.79l1.23-.53-1.24.2c-5.22.82-14.02,3.36-22.75,6.58-5.67,2.09-10.93,4.11-11.68,4.5s-1.37.52-1.37.3c0-.4,11.94-9.29,23.86-17.75,5.22-3.71,8.38-6.19,15.98-12.56.71-.6,1.09-.5,2.87.71,1.8,1.23,2.02,1.58,1.8,2.89-.14.82-.4,4.18-.58,7.46-.19,3.44-.56,6.12-.88,6.33-.3.2-1.05.37-1.65.37-.61,0-1.84.64-2.73,1.41-.9.77-3.09,1.91-4.86,2.54s-7.93,2.99-13.67,5.26c-5.74,2.26-12.65,4.82-15.34,5.68-6.35,2.02-7.45,2.63-10.44,5.69-1.37,1.4-3.84,3.45-5.5,4.54-1.66,1.09-3.31,2.61-3.67,3.36-.86,1.81-.88,4.89-.04,6.23.53.84.54,1.2.06,1.68-1.56,1.56.66,5.88,3.02,5.88.59,0,.85.42.85,1.37,0,.75.17,1.61.37,1.91.52.78,2.38,1.69,3.46,1.69.56,0,1.14.58,1.48,1.49.66,1.76,2.68,2.68,5.03,2.31,1.06-.17,1.73-.04,1.88.36.57,1.48-10.25,16.49-16.94,23.51l-3.98,4.17-3.12-3.73c-4.79-5.73-9.65-8.33-15.55-8.31-2.75,0-3.67.26-5.97,1.59-6.15,3.59-6.87,4.78-11.71,19.39-3.2,9.65-7.74,18.32-12.98,24.75-2.36,2.9-2.45,3.09-1.46,3.09.59,0,3.66-3.77,7.19-8.84,1.97-2.83,6.14-11.62,7.6-16.02,2.78-8.38,4.87-14.2,5.66-15.76,1.33-2.62,6.53-6.23,9.83-6.82,2.71-.48,7.68.65,10.61,2.41,2.34,1.4,8.15,7.31,8.15,8.28,0,.23.44.66.99.95.84.45,1.34.21,3.25-1.55,4.48-4.13,13.43-15.71,18.14-23.47,2.64-4.35,8.16-11.72,10.81-14.44,4.05-4.14,12.48-9.15,19.02-11.28,3.71-1.21,12.07-1.99,18.05-1.69,8.85.45,13.43,1.9,19.66,6.23,2.91,2.02,3.55,2.29,3.55,1.47,0-.39-4.61-3.9-6.65-5.06-2.7-1.53-9.42-3.43-14.2-4.01-1.05-.13-.82-.39,1.74-1.95,1.62-.99,3.74-2.2,4.69-2.68s2.76-1.72,4-2.76c1.24-1.03,3.39-2.74,4.78-3.78,1.39-1.05,3.95-3.68,5.7-5.86,5.09-6.34,6.1-7.2,22.32-19.08,2.32-1.7,4.62-3.42,5.1-3.82.48-.4,3.95-2.77,7.71-5.26,3.76-2.49,7.46-4.97,8.24-5.51,1.82-1.27,2.21-.82,1.17,1.36-.46.96-.83,2.09-.83,2.51s-.43,1.81-.95,3.09c-.52,1.28-1.99,5.24-3.27,8.79-1.28,3.55-2.83,7.69-3.46,9.2-.63,1.5-1.6,3.96-2.16,5.47-.56,1.5-1.84,4.86-2.83,7.46-3.33,8.69-10.88,23.18-16.25,31.19-2.82,4.2-3.58,5.79-4.37,9.09-1.61,6.76-1.84,7.2-4.9,9.49-1.56,1.17-4.1,3.21-5.64,4.54-3.63,3.14-6.32,4.11-15.39,5.57-8.18,1.32-11.19,2.56-16.85,6.95-5.37,4.16-13.34,9.15-24.36,15.23l-11.19,6.17-6.84,6.83c-3.76,3.76-6.84,6.94-6.84,7.08,0,.62,1.57.17,2.36-.67,10.09-10.72,9.84-10.52,25.47-19.22,9.14-5.09,13.75-8.02,19.91-12.69,8.17-6.19,9.91-6.94,19.63-8.43,7.03-1.08,10.67-2.46,14.36-5.44,10.44-8.44,10.01-7.88,11.56-15.19.62-2.91,1.42-4.52,4.9-9.81,2.29-3.48,5.77-9.52,7.74-13.42,1.97-3.9,3.86-7.43,4.21-7.84.35-.41,2-4.21,3.68-8.45,1.68-4.24,3.23-7.99,3.45-8.34.32-.5.85-.47,2.6.15,5.78,2.05,16.07,2.95,23.77,2.07,4.69-.54,10.69-2.33,19.48-5.83,2.73-1.09,5.28-1.98,5.67-1.98s.87-.26,1.06-.57c.24-.38.12-.44-.34-.18-.53.3-.52.21.05-.37,1.77-1.83,16.94-6.82,20.72-6.83.59,0,3.06-.43,5.47-.95,2.41-.52,6.29-1.33,8.61-1.78,14.73-2.9,26.9-6.66,32.07-9.93,1.37-.86,3.43-2.17,4.59-2.9,1.16-.73,2.3-1.33,2.55-1.33s.6,1.62.8,3.6c.19,1.98.79,4.92,1.33,6.52.78,2.31.91,3.61.65,6.27-.29,2.99-.18,3.69,1.02,6.36.74,1.65,1.98,3.61,2.76,4.35,1.29,1.24,1.92,1.4,7.44,1.89,4.79.43,6.35.4,7.62-.11.87-.36,2.48-.97,3.58-1.37,4.01-1.45,10.97-5.31,14.72-8.16,2.12-1.61,4.39-3.18,5.05-3.48.66-.3,1.4-1.05,1.65-1.67.25-.62,2.51-2.95,5.03-5.19l4.58-4.07.87,1.63c.57,1.06.82,2.44.72,3.95-.14,2.13.03,2.52,1.93,4.59,1.45,1.57,2.63,2.36,3.89,2.6.99.19,4.16,1.23,7.03,2.32l5.23,1.99,6.21-.59c8.69-.83,9.94-1.06,9.94-1.85,0-.84.38-.85-6.48.11-7.64,1.06-10.29.81-14.89-1.46-4.56-2.24-11.43-7.09-11.43-8.07,0-.88.58-.92,1.47-.09.37.34.25-.05-.27-.87-1.97-3.1-2.21-3.51-2.72-4.7-.62-1.46-.52-1.56,6.74-6.33,2.73-1.8,5.89-4.01,7.02-4.93l2.05-1.66.78,2.1c.43,1.15,1.26,3.55,1.84,5.33,1.19,3.62,4.78,10.44,5.49,10.44.66,0,.54-.49-.69-2.78-2.91-5.42-3.49-6.67-3.24-6.93.28-.28,5.51-1.01,11.22-1.57,2.14-.21,3.11-.51,3.11-.98,0-.89-1.94-.87-8.69.08-2.96.42-5.51.63-5.67.47-.16-.16-.79-1.67-1.41-3.37l-1.12-3.08,1.36-.98c3.48-2.52,3.99-3.39,7.8-13.23.7-1.8,1.27-4.19,1.27-5.32,0-1.72-.3-2.35-1.86-3.86-1.02-.99-2.48-2.17-3.23-2.62-2.29-1.35-1.69-2.06.92-1.07,2.43.93,2.3-.3-.18-1.65-2.67-1.45-5.35-4.15-6.11-6.15-.78-2.05-.27-1.89,1.74.57,2.31,2.82,5.91,4.72,8.96,4.72s2.83-.8-.5-1.5c-4.92-1.02-7.41-4.57-8.99-12.84l-.84-4.38,2.19-3.14c1.21-1.73,2.35-3.39,2.54-3.69.81-1.3,2.92-7.39,3.42-9.84.29-1.46.87-3.99,1.29-5.63,1.04-4.08,1.63-14.02,1.15-19.14-.44-4.7-2.95-13.03-4.39-14.63-.51-.57-1.08-1.65-1.26-2.41-.51-2.16-3.6-5.25-5.88-5.86-1.09-.29-2.27-.43-2.61-.29-.34.13-1.83-.92-3.31-2.33-1.99-1.91-3.51-2.85-5.91-3.66-7-2.36-12.33-2.68-23.61-1.4-9.16,1.03-11.45,1.53-15.93,3.48l-3.96,1.72-.29-1.7c-.33-1.96-1.13-3.08-2.49-3.51-1.25-.4-1.21-.76.49-4.38,3.51-7.46,3.83-9.41,2.35-14.23-.38-1.24-.94-3.16-1.24-4.27-.61-2.24-3.42-6.2-4.4-6.2s-.86.33,2.11,6.21c3.36,6.64,3.84,9.36,2.28,12.8-.58,1.27-1.05,2.52-1.05,2.77s-.57,1.49-1.27,2.74l-1.27,2.28-1.41-1.61c-1.33-1.51-1.41-1.86-1.36-5.95.03-2.39.19-4.34.36-4.34s.68.77,1.13,1.71c.59,1.23.73,2.42.52,4.23-.3,2.57.43,3.58,1.02,1.39.75-2.79.32-5.1-1.43-7.69-2.75-4.08-2.07-5.94.74-2.05l1.49,2.06v-1.66c0-4.08-3.25-9.65-6.76-11.62-1.32-.74-2.96-1.27-3.66-1.19-1.12.13-.94.34,1.58,1.79,2.84,1.64,4.78,3.59,6.53,6.56l.92,1.56-1.41-.16c-.95-.11-1.48-.49-1.6-1.16-.51-2.72-4.08-5.39-8.05-6.03-1.27-.2-1.95-.06-2.43.51-.36.44-1.16.79-1.78.79s-4.73,1.81-9.15,4.01c-6.8,3.4-8.26,3.96-9.59,3.67l-1.57-.34,1.74-1.06c3.17-1.94,11.36-8.81,11.36-9.54,0-.79-.81-.99-1.08-.26-.34.92-12.5,9.99-13.4,9.99-1.49,0-1.09-.62,1.58-2.49,4.59-3.2,5.9-4.22,5.92-4.62,0-.22-.76.19-1.71.92-.95.72-1.98,1.23-2.29,1.13-.98-.33,3.37-3.8,5.48-4.37,2.49-.67,2.57-1,.24-1-1.61,0-2.25.48-6.54,4.97-2.62,2.73-5.06,4.97-5.43,4.97-1.37,0-1.08-.41,5.92-8.17,1.05-1.17,1.11-1.77.17-1.77-.39,0-2.44,2.01-4.57,4.47-3.68,4.26-5.17,5.34-5.17,3.76,0-.54-.43-.64-1.81-.42l-1.81.29,1.94-1.95c1.07-1.08,2.53-2.21,3.24-2.52.72-.31,1.8-1.26,2.4-2.1l1.09-1.53h-1.23c-.82,0-2.21.94-4.14,2.77-3.51,3.35-5.13,4.68-5.71,4.68-.24,0-.43-.95-.44-2.11,0-1.55-.14-1.91-.49-1.37-.35.54-.48.09-.49-1.62,0-1.66-.21-2.36-.69-2.36-.68,0-1.29,2.39-1.3,5.13,0,1.07-.21,1.36-.88,1.24-.66-.12-.98-.93-1.33-3.27-.29-1.93-.7-3.11-1.09-3.11-1.03,0-1.1.61-.4,3.23.85,3.18.85,3.23-.04,3.23-1.23,0-2.73-1.89-2.73-3.44,0-1.75-.44-3.02-1.05-3.02-.24,0-.44,1.23-.44,2.73,0,2.35-.13,2.73-.94,2.73-.52,0-1.05-.44-1.2-.99-.14-.55-.5-.99-.79-.99s-.39.35-.23.79c.24.62,0,.75-1.13.62-1.16-.13-1.47-.44-1.6-1.58-.1-.83.19-1.8.7-2.36.82-.91.81-.95-.16-.95-1.13,0-1.62.89-1.62,2.9v1.33l-6.02-.18c-3.31-.1-8.18.1-10.81.45-2.86.37-9,.58-15.23.51-11.41-.12-16.18.41-24.61,2.74-5.59,1.55-13.98,3.59-15,3.66-.18.01-1.38.82-2.65,1.79-1.61,1.23-2.5,1.62-2.9,1.28-.32-.27-1.62-.75-2.89-1.07-1.89-.48-3-.43-6.21.25-5.2,1.11-7.14,1.73-7.14,2.28,0,.43-2.32,1.61-5.84,2.95-.89.34-1.62.76-1.62.93,0,.3-.6,1.04-4.37,5.41-2.34,2.7-2.51,3.18-2.55,7.1l-.03,3.25-4.6,1.65c-6.76,2.42-14.05,6.14-18.27,9.31l-3.72,2.8-1.99-2.41c-5.89-7.12-34.07-35.63-40.03-40.49C69.59,1.56,66.66.04,63.2.04c-1.56,0-2.42.19-2.23.5M312.66,4.84c1.91,1.19,1.25,1.51-2.18,1.06-2.23-.3-3.47-.27-3.83.09-.37.37-.18.53.65.53h1.18l-1.12,1.19c-.61.65-2.1,1.46-3.31,1.8-1.51.42-2.87,1.34-4.36,2.94-1.19,1.28-2.26,2.57-2.37,2.87-.13.35-.91.43-2.19.21l-1.99-.34,3-2c1.65-1.1,3.42-2.16,3.92-2.36.51-.19.81-.47.68-.6-.14-.14-2.17.56-4.51,1.54-4.02,1.68-7.19,2.12-6.97.97.05-.27,3.03-1.67,6.62-3.11,3.59-1.44,7.35-3.27,8.36-4.06,2.6-2.06,5.81-2.33,8.42-.71M314.05,8.72c1.58,1.58,1.64,5.18.19,10.59-1.11,4.14-1.33,4.58-1.86,3.83-.61-.88-3.28-2.45-5.07-2.98-1.92-.57-1.95-.71-1.26-5.69.36-2.55.33-2.68-.45-1.94-.49.47-.95,1.94-1.12,3.58l-.29,2.79-1.54-.31c-1.5-.3-3.25-1.85-3.28-2.9-.03-.98,3.71-4.09,5.7-4.74,1.09-.36,2.46-1.07,3.04-1.57.91-.79,3.01-1.68,4.31-1.82.22-.02.94.51,1.62,1.18M224.04,8.36c-2.68.66-18.11,7.91-23.14,10.88-8.95,5.27-22.28,14.57-24.8,17.29-1.93,2.08-.59,1.48,3.69-1.67,8.53-6.27,26.61-17.91,27.81-17.91.26,0,3.13-1.31,11.46-5.24,1.91-.9,4.32-1.9,5.34-2.22,2.8-.86,2.48-1.83-.37-1.13M363.8,30.91c4.05.7,7.98,2.38,9.56,4.08,1.14,1.22,1.14,1.26.16,1.57-.59.19-2.2-.18-3.9-.89-8.76-3.64-19.1-4.08-25.07-1.05-1.63.82-3.62,1.39-5.15,1.46-2.67.13-8.93,1.89-10.07,2.83-.76.63-1.18.3-1.99-1.63-.7-1.65-.49-1.9,3.09-3.66,2.02-.99,3.87-1.5,5.72-1.58,1.5-.06,5.08-.57,7.95-1.13,5.71-1.11,13.35-1.11,19.7,0M376.53,42.17c1.15,2.99,1.36,4.32,1.41,8.91.04,3.82-.17,6.03-.73,7.57-.7,1.93-1.12,4.8-.46,3.17.56-1.38,1.16-.48,1.17,1.74,0,1.3.22,2.7.49,3.11.86,1.34.59-19.39-.29-22.37-.42-1.4-.69-3.26-.6-4.13.13-1.3.39-1.61,1.49-1.74,1.68-.19,3.57,1.02,4.87,3.12,1.19,1.92,1.29,3.52.26,3.92-.6.23-.75,1.35-.75,5.65,0,5.31-.52,7.57-1.41,6.2-.27-.41-.54.6-.74,2.73-.47,4.92-.41,7.23.17,6.87.27-.17.5-.91.5-1.65,0-.74.3-1.91.66-2.61.36-.7.82-2.6,1.01-4.23.89-7.48,1.6-12.13,1.9-12.43.57-.57,1.3.23,1.65,1.82.19.84.88,2.72,1.54,4.17,1.53,3.34,1.89,8.13,1.32,17.67-.41,6.94-.5,7.37-2.25,10.81-1,1.97-1.63,3.59-1.39,3.59s.54-.28.66-.62c.12-.34.4-.45.63-.24.22.21-.04.99-.59,1.74-.55.75-1.25,2.1-1.56,3-.31.9-1.04,2.3-1.61,3.11-.58.81-.98,1.82-.89,2.24.09.42,1.05-1.01,2.15-3.19s2.06-3.89,2.15-3.8c.19.19-1.02,3.83-1.98,5.97-.37.82-1.73,2.92-3.03,4.67-1.3,1.75-2.36,3.49-2.36,3.88s-.56,1.52-1.24,2.53c-.68,1.01-1.24,2.44-1.24,3.18s-.18,1.46-.4,1.59c-.82.51-1.36-.52-1.5-2.88-.08-1.34-.35-2.83-.61-3.31-.57-1.06.12-5,1.27-7.3.45-.89.72-1.9.61-2.24-.54-1.57-4.88,9.12-4.78,11.77.05,1.47.07,1.46.42-.33.2-1.03.52-2.03.72-2.22.49-.49,1.34.96,1.04,1.77-.13.36-.24,1.74-.24,3.05,0,2.14-.13,2.41-1.22,2.62-.9.17-1.61-.17-2.69-1.31-1.16-1.21-1.75-2.67-2.76-6.84-.71-2.91-1.43-6.61-1.59-8.22-.43-4.11.87-10,2.99-13.52,2.85-4.73,4.34-8.53,5.29-13.49.67-3.49,1.05-14.81.51-15.15-1.24-.77-1.09-12.47.16-12.05.31.1,1.17,1.77,1.91,3.7M351.28,42.53c-.9.68-.82.73,1.11.75,2.32.02,3.5.89,3.91,2.91.69,3.33,1.03,4.25,1.68,4.47.48.16.59-.03.37-.62-.18-.47-.33-1.7-.33-2.73,0-1.47-.38-2.26-1.76-3.69-1.89-1.95-3.4-2.28-4.98-1.09M333.91,47.23c-.93.4-.9.47.41.98.77.3,1.78.56,2.24.56.46,0,1.08.17,1.38.37.88.59,1.77,2.58,1.41,3.15-.18.29,1.55,2.36,3.85,4.59,2.3,2.23,4.65,4.73,5.23,5.55,1.69,2.41,2.3,1.2,1.61-3.24-.64-4.12-2.2-7.03-4.36-8.15-.78-.4-1.78-1.28-2.21-1.94-.44-.68-1.51-1.36-2.44-1.55-2.92-.61-6.09-.75-7.11-.31M344.01,51.92c1.98,1.9,4.98,7.03,4.43,7.58-.29.29-8.81-9.28-8.81-9.89,0-.89,2.33.33,4.39,2.31M386.63,55.85c-.18,2.53-.86,7.28-1.51,10.56-.65,3.28-1.33,7.32-1.5,8.98-.58,5.43-1.22,4.8-1.29-1.28l-.07-5.72-.43,3.77c-.75,6.49-1.74,11-3.38,15.36-1.37,3.62-1.45,4.08-.6,3.31,1.97-1.78,6.28-12.05,7.78-18.52.44-1.88,1.03-4.21,1.31-5.17.71-2.37,1.15-15.91.52-15.91-.27,0-.63,2.07-.81,4.6M377.52,73.73c-.62,2.26-1.12,4.52-1.11,5.01.02,1.87-2.63,10.2-4.5,14.15-1.12,2.37-1.93,4.79-1.9,5.72l.05,1.61.65-2.05c.36-1.13,1.67-4.03,2.93-6.46,1.95-3.77,2.43-5.32,3.31-10.63.57-3.42,1.26-7.15,1.55-8.3.99-3.97.15-3.15-.97.95M298.7,77.95c-.17.28,1.6,2.94,3.93,5.92,2.33,2.98,6.63,8.52,9.56,12.32,5.87,7.62,13.61,16.39,16.21,18.38,1.29.99,1.82,1.89,2.29,3.91,1.13,4.9,9.44,19.82,13.32,23.9l1.32,1.39-1.19,2.24c-1.37,2.58-1.69,2.79-6.87,4.48-4.85,1.59-12.56,5.3-13.77,6.63-.51.56-.76,1.02-.57,1.02s3.07-1.34,6.39-2.98c3.33-1.64,6.42-2.98,6.87-2.98.78,0,4.18-1.23,7.88-2.86.94-.41,3.03-1.06,4.66-1.44,3.13-.73,8.72-2.75,10.79-3.9,1.04-.58,1.22-1,1.09-2.58-.14-1.82.94-5.57,4.85-16.7.94-2.67,1.56-5.49,1.61-7.25.07-2.5-.11-3.12-1.37-4.7-2.44-3.05-3.06-2.16-.89,1.27,1.29,2.04,1.3,2.15.67,5.33-.35,1.79-1.39,5.27-2.31,7.73-.91,2.46-1.66,4.73-1.66,5.03,0,.31-.46,1.6-1.03,2.87-.56,1.27-1.07,3.53-1.12,5.01-.11,3.01.33,2.67-7.3,5.69l-2.73,1.08-2.63-2.88c-1.45-1.59-3.31-4-4.14-5.37-.83-1.37-2.41-3.91-3.5-5.66-2.92-4.65-6.2-11.35-7.1-14.51-.69-2.43-1.43-3.42-6.13-8.2-2.94-2.99-6.45-6.89-7.8-8.67-1.35-1.78-5.94-7.59-10.19-12.91-4.25-5.32-7.97-10-8.27-10.39-.34-.44-.66-.52-.86-.21M282.19,82.55c-2.98.63-7.84,2.69-8.09,3.43-.17.5.1.48,1.21-.08.78-.4,3.46-1.2,5.96-1.78,3.74-.87,4.99-.97,7.15-.56,1.44.27,3.09.5,3.66.5h1.04l-1.01-.71c-1.26-.88-7.25-1.37-9.91-.8M372.08,83.56c-1.98,4.62-4.62,11.58-4.62,12.19,0,1.88.96.25,3.14-5.32,1.31-3.33,2.29-6.52,2.19-7.08-.17-.97-.22-.96-.72.21M364.78,84.93c-1.7,5.57-2.47,13.55-1.31,13.55.29,0,.36-1.28.18-3.23-.34-3.68.55-4.61,1.06-1.12.17,1.16.56,3.07.86,4.24.3,1.17.44,2.23.32,2.36-.53.53-4.38-1.81-4.38-2.66,0-.49-.33-1.32-.73-1.85-.4-.53-.74-1.61-.75-2.41-.02-1.39-.05-1.41-.96-.59-.56.5-1.07.65-1.25.37-.48-.78.54-2.9,1.53-3.17.5-.14,1.34-1.12,1.88-2.18,1.59-3.18,4.28-5.67,3.56-3.3M354.84,88.98c1.03.63,1.65,1.48,1.87,2.58.18.9.63,1.98,1,2.41.37.43,1.26,1.85,1.98,3.16,2.09,3.8,1.54,5.26-.83,2.22-.69-.89-2.51-2.96-4.03-4.6-2.93-3.15-3.46-4.13-1.74-3.21.57.31,1.19.41,1.37.23.51-.51-1.56-1.81-2.5-1.57-.91.23-2.61-1.28-2.06-1.83.66-.66,3.43-.31,4.94.61M70.4,92.64c.76,1.98,2.04,4.83,2.84,6.34l1.45,2.73-1.24.99c-.68.55-2.65,1.88-4.37,2.96-3.38,2.12-12.26,10.78-17.32,16.9-1.72,2.08-3.22,3.67-3.35,3.54-.31-.31,6.23-12.65,9.43-17.81,4.24-6.84,8.74-14.76,9.69-17.08.49-1.2,1.03-2.19,1.19-2.19.16,0,.92,1.62,1.68,3.6M227.14,103.69c-1.97,3.05-3.98,5.02-12.18,11.99-18.73,15.92-26.29,22.49-29.98,26.05-3.29,3.18-3.4,3.34-.97,1.42,5.67-4.48,30.78-25.69,35.8-30.22,2.87-2.6,5.72-5.44,6.34-6.33,1.31-1.88,3.67-6.23,3.48-6.42-.07-.07-1.19,1.51-2.49,3.52M363.73,100.96c.9.34,1.68,1.35,2.54,3.29.68,1.54,1.13,2.91.99,3.04-.14.14-.82.1-1.51-.07-.88-.22-1.27-.66-1.27-1.43,0-.61-.17-1.67-.36-2.35-.33-1.17-.37-1.15-.63.5l-.28,1.74-.88-1.64c-.49-.91-.74-2.07-.57-2.61.36-1.13.29-1.11,1.97-.47M272.51,101.53c0,.96.93,2.19,6.52,8.66,6.72,7.77,9.89,10.91,13.04,12.9,3.23,2.03,7.7,4.22,8.66,4.22,1.13,0,.65-1-.75-1.56-4.11-1.66-7.57-3.55-9.44-5.15-1.16-.99-5.28-5.42-9.15-9.85-9.25-10.57-8.88-10.18-8.88-9.22M118.2,158.76c-.17.62-.45,2.4-.63,3.98s-.44,2.86-.6,2.86-1.12-.81-2.14-1.81l-1.85-1.81,2.33-2.15c2.64-2.43,3.33-2.68,2.88-1.07M298.61,187.04c-5.2,1.61-13.35,3.72-18.13,4.69-4.78.97-8.8,1.89-8.95,2.04-.53.57,5.84-.26,11.67-1.51,3.28-.71,10.41-2.63,15.84-4.28,5.43-1.65,10.2-2.99,10.59-2.99s.58-.22.41-.5c-.48-.77-1.35-.58-11.43,2.55M330.93,188.75c4.58,1.05,24.63,5,31.32,6.18,3.28.58,7.53,1.36,9.45,1.74,1.91.38,6.16,1.17,9.45,1.74s7.02,1.26,8.3,1.51c2.05.4,2.7.29,5.34-.9,1.65-.75,3.01-1.52,3.01-1.73,0-.64-.97-.41-3.7.88-1.45.69-2.95,1.14-3.33,1-.37-.14-4.71-.95-9.63-1.81-4.92-.86-10.4-1.84-12.18-2.18-1.78-.34-6.48-1.21-10.44-1.92-3.96-.71-11.76-2.19-17.32-3.29-5.56-1.1-10.82-1.97-11.68-1.94-1.18.04-.83.22,1.41.73M202.41,192.46c-3.7.89-25.39,9.73-27.58,11.23-2.03,1.4.43.58,7.06-2.36,3.77-1.67,10.41-4.35,14.75-5.96,9-3.33,10.39-4.03,5.77-2.92M272.01,196.37c0,.19,2.52,1.2,5.59,2.25,10.4,3.56,19.14,7.65,24.52,11.47,2.93,2.08,9.02,5.56,14.67,8.38,7.98,3.99,10.07,5.26,12.04,7.33,2.29,2.41,2.37,2.59,2.06,4.67-.31,2.06-.5,2.27-3.81,4.19l-3.49,2.02-12.25,1.23c-6.74.68-15.16,1.48-18.71,1.78-3.55.3-8.35.98-10.65,1.52-14.6,3.39-43.41,6.04-63.43,5.84-8.98-.09-15.96.13-22.87.71-5.47.47-14.19,1.18-19.39,1.59-12.71,1-24.46,2.23-26.67,2.79-1.19.3-2.29,1.1-3.21,2.32-4.25,5.63-10.88,13.15-12.2,13.83-.83.43-5.35,3.08-10.04,5.88-4.69,2.81-9.54,5.45-10.77,5.89-10.41,3.67-21.19,7.96-29.38,11.71-5.36,2.45-10.22,4.61-10.81,4.8-1.57.5-1.31,1.34.29.98.75-.17,5.95-2.39,11.56-4.93,5.61-2.54,12.76-5.57,15.91-6.72,3.14-1.15,7.17-2.65,8.95-3.33s3.93-1.49,4.79-1.8c.86-.32,6.31-3.37,12.11-6.79,9.62-5.67,10.75-6.48,12.86-9.22,1.27-1.66,3.85-4.94,5.74-7.31l3.43-4.3,2.78-.3c1.53-.17,5.58-.62,9-1,3.42-.39,12.26-1.16,19.64-1.73,7.38-.56,17.34-1.34,22.12-1.73,5.71-.46,11.95-.6,18.15-.42,17.3.52,45.59-2.06,61.15-5.58,3.05-.69,9.42-1.56,14.42-1.98,4.92-.41,13.26-1.19,18.53-1.74,8.37-.87,9.83-1.16,11.55-2.24,1.08-.68,2.14-1.24,2.35-1.24.21,0,1-.5,1.74-1.12,1.08-.89,1.42-1.68,1.66-3.85l.3-2.73-2.65-2.57c-2.11-2.05-4.64-3.56-12.35-7.39-5.88-2.92-11.36-6.06-13.94-7.96-2.6-1.92-6.65-4.23-10.44-5.95-9.42-4.27-20.86-8.25-20.86-7.24M209.99,220.99c-4.14,3.12-9.28,7.09-11.43,8.82-2.15,1.73-5.28,4.05-6.97,5.14-2.51,1.63-3.07,2.23-3.08,3.37-.04,2.85,1.15,2.74,14.15-1.33,16.24-5.08,25.75-7.44,36.04-8.97,4.83-.72,8.98-1.58,9.35-1.94.68-.68.53-.67-13.32,1.45-6.74,1.03-18.6,4.04-29.33,7.44-12.42,3.94-14.68,4.58-15.28,4.35-1.28-.49-.54-1.61,2.48-3.72,1.71-1.2,7.79-5.82,13.51-10.28,5.72-4.46,10.89-8.33,11.49-8.61.84-.38,2.58-.09,7.5,1.28,3.52.98,9.53,2.49,13.36,3.35s7.69,2,8.58,2.53c1.65.99,2.19.54.9-.75-.4-.4-3.81-1.45-7.58-2.33-3.77-.89-10.03-2.48-13.91-3.54-3.87-1.06-7.47-1.93-7.99-1.93s-4.32,2.55-8.46,5.67M51.52,225.28c-2.19.52-8.24,1.97-13.46,3.22-6.23,1.49-12.11,3.29-17.15,5.26-4.22,1.65-10.64,4.13-14.26,5.52-3.62,1.39-6.59,2.72-6.59,2.95,0,.7.58.54,7.77-2.24,18.97-7.32,23.31-8.82,30.27-10.43,4.1-.95,10.1-2.34,13.33-3.09,3.72-.86,5.63-1.52,5.22-1.78-.79-.5-.32-.55-5.13.6M122.45,260.09c-2.73,1.21-13.91,7.86-14.31,8.5-.17.27.67,0,1.86-.62,2.65-1.35,15.51-8.45,15.8-8.72.54-.51-1.43-.03-3.35.83"/>
</svg>