<?xml version="1.0" encoding="UTF-8"?>
<svg id="Warstwa_1" data-name="Warstwa 1" xmlns="http://www.w3.org/2000/svg" viewBox="0 0 410.18 503.12">
  <defs>
    <style>
      .cls-1 {
        fill: #010101;
      }
    </style>
  </defs>
  <path class="cls-1" d="M178.59,186.87c-.74.74-1.34,2.05-1.34,2.91s-1.26,2.56-2.79,3.77c-2.61,2.06-3.9,6.51-1.89,6.51,2.6,0,9.15-9.66,9.15-13.48,0-1.45-1.53-1.31-3.13.3Z"/>
  <path class="cls-1" d="M130.81,253.81c-.77,1.25,7.3,10.36,8.3,9.36.31-.31-.98-2.18-2.86-4.17-1.88-1.99-3.19-4.24-2.9-5.01.63-1.72-1.49-1.87-2.53-.18Z"/>
  <path class="cls-1" d="M165.75,192.99c-.45.72.4,3.62,1.9,6.45,1.5,2.82,3.05,4.62,3.44,3.99.39-.63-.27-2.52-1.47-4.21-1.2-1.69-2.37-4.07-2.61-5.3-.29-1.48-.72-1.79-1.26-.92Z"/>
  <path class="cls-1" d="M153.78,92.76c.61,0,1.12-2.03,1.12-4.51,0-5.11,2.61-12.26,4.48-12.26.68,0,.93-.5.55-1.12-.91-1.48-2.05-1.41-3.69.22-.74.74-1.34,2.22-1.34,3.29s-.5,2.26-1.12,2.64-1.12,3.18-1.12,6.21.5,5.52,1.12,5.52Z"/>
  <path class="cls-1" d="M185.54,102.38c-2.33-.89-2.09-.97-4.21,1.37-2.07,2.29-2.42,5.29-.73,6.34.63.39,1.12-.55,1.12-2.17,0-2.31.54-2.86,2.79-2.86,3.12,0,3.75-1.63,1.03-2.67Z"/>
  <path class="cls-1" d="M154.39,300.02c5.54,3.63,4.76,1.12-1.81-5.81-7-7.38-7.35-8.04-5.41-9.99.67-.67.98-2.16.68-3.3-.49-1.86-.63-1.81-1.35.44-.92,2.88-1.05,2.92-3.97,1.36-1.55-.83-2.16-.8-2.16.12,0,1.89,10.7,15,14.03,17.18Z"/>
  <path class="cls-1" d="M153.61,245.76c.04-4.73-.88-7.83-4.48-15.2-2.49-5.09-4.72-9.26-4.97-9.26s-.44,1.2-.44,2.66.73,4.42,1.63,6.56c.9,2.15,1.36,4.18,1.02,4.52-.34.34.37,1.13,1.56,1.77,1.55.83,2.37,2.83,2.86,6.99.96,8.11,2.76,9.37,2.82,1.97Z"/>
  <path class="cls-1" d="M130.44,312.94c-.11,5.8,3.13,16.07,5.96,18.89,3.55,3.55,3.82,1.36.61-4.92-1.23-2.41-2.25-5.16-2.26-6.1-.02-.95-.98-3.73-2.14-6.19-1.83-3.87-2.12-4.1-2.17-1.68Z"/>
  <path class="cls-1" d="M143.68,252.59c1.21,1.54,2.21,2.18,2.24,1.44.02-.75-1.39-3.01-3.13-5.03-1.74-2.02-3.48-4.55-3.88-5.63-.39-1.08-1.29-1.96-1.99-1.96-.79,0-.51,1.17.71,3.04,1.1,1.67,2.41,3.56,2.92,4.19.51.63,1.92,2.4,3.13,3.94Z"/>
  <path class="cls-1" d="M184.51,168.26c-2.72,1.73-3.46,2.57-1.9,2.14,1.41-.39,3.23-.16,4.04.52,1.08.89,2.26.81,4.41-.3,2.82-1.46,2.85-1.6.9-3.36-2.55-2.31-2.14-2.36-7.45,1.01Z"/>
  <path class="cls-1" d="M218.6,81.59c2.46,0,4.47-.5,4.47-1.12s-.88-1.12-1.96-1.13c-1.08,0-3.09-.32-4.47-.69-1.85-.5-2.51-.2-2.51,1.13s1.1,1.81,4.47,1.81Z"/>
  <path class="cls-1" d="M171.16,103.85c-.69,1.11,3.54,6.8,5.06,6.8.57,0,1.04-1.18,1.04-2.61,0-2.68-4.93-6.06-6.09-4.18Z"/>
  <path class="cls-1" d="M163.25,188.78c1.21,3.82,2.67,2.66,3.04-2.41.41-5.72,3.06-6.83,7.15-2.99,2.93,2.75,3.4,2.25,1.44-1.56-3.4-6.6-9.13-9.65-10.34-5.51-1.39,4.73-1.97,10.33-1.28,12.48Z"/>
  <path class="cls-1" d="M174.18,99.27c2.06-.29,2.45-.95,2.15-3.67-.59-5.45-1.83-6.71-3.35-3.39-2.17,4.77-1.72,7.48,1.19,7.07Z"/>
  <path class="cls-1" d="M147.06,221.73c.76.76,1.13.52,1.13-.74,0-1.03.62-1.63,1.4-1.33,1.04.4,1.32-1.11,1.08-5.9-.41-8.32-1.12-11.47-2.59-11.47-.71,0-.92,1.23-.51,3.07.37,1.69.15,5.81-.48,9.15-.78,4.09-.79,6.45-.03,7.21Z"/>
  <path class="cls-1" d="M221.87,199.55c-.57.35-1.03,2.76-1.03,5.36,0,4.23.52,5.16,5.03,8.93,2.77,2.31,5.05,4.81,5.07,5.55.05,1.81,3.94,6.37,5.43,6.37.66,0,2.02,1.26,3.03,2.8,1.01,1.54,4.23,4.35,7.15,6.25,2.93,1.9,6.4,4.91,7.73,6.7,1.32,1.79,2.9,3.25,3.52,3.25,2.46,0-3.18-6.15-11.82-12.91-5.04-3.94-10.43-8.8-11.98-10.82-1.55-2.01-4.69-5.57-6.98-7.92-3.96-4.05-4.12-4.51-3.38-9.5.43-2.88,1.24-6.09,1.79-7.13,1.3-2.42,1.29-4.26-.02-4.26-.57,0-1.36,1.5-1.76,3.34-.4,1.84-1.2,3.63-1.77,3.98Z"/>
  <path class="cls-1" d="M194.57,112.88c-.83-1.35-11.39-1.35-14.53,0-1.51.65.58.99,6.49,1.04,5.55.05,8.48-.33,8.04-1.04Z"/>
  <path class="cls-1" d="M179.29,152c.02-2.15-.37-6.17-.87-8.94l-.9-5.03-.03,6.15c-.02,3.38.37,7.4.87,8.94.81,2.54.9,2.44.92-1.12Z"/>
  <path class="cls-1" d="M182.5,182.88c.29-.29-.33-2.33-1.37-4.53-1.92-4.04-3.88-5.29-3.88-2.48,0,1.79,4.48,7.78,5.25,7.01Z"/>
  <path class="cls-1" d="M168.06,105.26c-1.85-1.85-5.34-1.64-5.34.32,0,2.47,3.95,4.25,5.44,2.45.87-1.05.84-1.82-.11-2.77Z"/>
  <path class="cls-1" d="M133.52,116.8c-1.62.88-3.24,2.37-3.6,3.31-.85,2.21.26,2.18,2.75-.08,1.18-1.07,5.44-2.18,10.58-2.76,4.73-.53,8.86-1.23,9.19-1.56,1.41-1.41-16.18-.4-18.92,1.09Z"/>
  <path class="cls-1" d="M230.9,344.33c-3.83.05-4.5.29-2.79,1.02,3.25,1.4,11.66,1.4,9.5,0-.92-.6-3.94-1.06-6.71-1.02Z"/>
  <path class="cls-1" d="M228.66,337.66c-8.71.06-12.92.43-11.18.99,4.01,1.28,21.48,1.28,23.47,0,1.13-.73-2.9-1.05-12.29-.99Z"/>
  <path class="cls-1" d="M197.37,329.28c10.32,2.89,14.66,3.61,25.71,4.25l10.62.61-14.53-2.24c-14.63-2.26-28.16-6.17-34.99-10.12-3.91-2.26-5.81-2.68-5.8-1.3,0,1.27,12.05,6.84,19,8.79Z"/>
  <path class="cls-1" d="M152.73,179.78c-6.12,3.47-7.66,4.99-10.29,10.22-1.7,3.38-3.11,7.03-3.14,8.1-.03,1.07-1.81,3.9-3.96,6.28-4.05,4.48-4.54,6.79-3.2,14.93,1.01,6.11,2.64,3.97,2.64-3.46,0-4.93.53-7,2.28-8.88,1.25-1.35,2.76-2.45,3.35-2.45s1.07-1.43,1.07-3.18,1-4.34,2.23-5.76c1.54-1.77,1.89-2.99,1.13-3.91-1.21-1.46-.39-2.8,1.7-2.8,1.54,0,4.2,6.51,6.62,16.21l1.67,6.71-.42-5.59c-.58-7.71-1.73-11.83-4.16-14.96-2.54-3.27-2.74-6.21-.36-5.3.97.37,2.53-.3,3.6-1.56,3.03-3.54,4.78-2.85,3.55,1.41-1.98,6.89-1.32,10.35,2.57,13.57,1.99,1.65,4.27,4.11,5.08,5.47q1.45,2.45.71-.32c-.41-1.54-1.71-4.16-2.88-5.82-4.35-6.18-4.85-13.26-1.51-21.28,1.12-2.67.03-2.37-8.3,2.35Z"/>
  <path class="cls-1" d="M265.54,330.55c0-1.31-1.23-.98-7.26,1.93-3.07,1.48-6.34,2.76-7.26,2.84-1.16.11-1.25.33-.28.72,1.62.65,14.81-4.23,14.81-5.48Z"/>
  <path class="cls-1" d="M204.97,340.82c4.49,1.34,10.38,3.38,13.1,4.54,6.97,2.99,14.78,10.53,16.36,15.79,1.3,4.35,4.29,8.19,4.29,5.51s-8.18-16.95-10.46-18.13c-1.32-.68-3.4-2.12-4.63-3.2-1.23-1.08-7.52-3.54-13.97-5.47-6.45-1.92-14.97-5.12-18.93-7.11-9.44-4.74-9.86-4.88-7.96-2.59,2.34,2.83,12.8,7.85,22.2,10.64Z"/>
  <path class="cls-1" d="M275.88,319.14c-8.45,1.79-7.94,1.94-8.41-2.56-.24-2.31-.56-3.69-.72-3.08-.68,2.72-.67,7.45.01,8.56.52.83,2.51.62,6.47-.69,6.16-2.05,7.63-3.28,2.65-2.23Z"/>
  <path class="cls-1" d="M278.29,331.26c.81-2.11-.01-1.9-7.16,1.84-3.38,1.77-7.91,3.53-10.06,3.91-2.15.38-5.69,1.36-7.86,2.18-2.17.82-6.38,1.85-9.33,2.29-2.96.44-4.79,1.17-4.07,1.61,4,2.47,36.87-7.63,38.49-11.83Z"/>
  <path class="cls-1" d="M193.58,247.19c.07-7.27.75-15.85,1.52-19.06,1.94-8.08.68-8.42-1.79-.49-2.27,7.26-3,31.71-.97,32.39.7.23,1.16-4.58,1.24-12.85Z"/>
  <path class="cls-1" d="M162.35,81.59c1.6,0,1.52.38-.55,2.59-2.93,3.12-3.16,5.54-.47,5.03,1.1-.21,2.12-1.59,2.33-3.16.21-1.53.78-3.2,1.27-3.72.98-1.02.22-5.21-.94-5.21-.4,0-1.35,1.01-2.11,2.24-1.19,1.9-1.12,2.24.49,2.24Z"/>
  <path class="cls-1" d="M225.66,236.06c1.89,1.2,4.12,1.08,4.12-.24,0-.61-.73-1.12-1.63-1.12s-3.03-1.76-4.75-3.91c-4.14-5.19-5.48-5.01-1.9.25,1.56,2.29,3.43,4.55,4.16,5.01Z"/>
  <path class="cls-1" d="M249.08,242.44c-9.86-8.04-14.83-11.47-14.83-10.25,0,.54,4.3,4.63,9.55,9.07,5.25,4.45,9.99,9.25,10.53,10.67.54,1.42,1.8,2.9,2.8,3.28,1.63.63,1.65.46.17-1.65-.91-1.29-1.42-2.94-1.14-3.65.27-.72-2.91-4.08-7.07-7.47Z"/>
  <path class="cls-1" d="M206.73,245.49c-2.27-1.14-4.13-3.35-5.3-6.27-2.26-5.66-3.27-5.8-2.29-.32.42,2.31,1.23,4.79,1.81,5.52.66.83.62,2.13-.12,3.5-.64,1.2-1.44,4.33-1.77,6.96-.69,5.5-1.87,7.22-6.64,9.7-2.11,1.1-2.86,1.98-1.94,2.29.82.28,3.23-.43,5.35-1.57,3.93-2.12,5.1-4.61,6.58-14.1.36-2.3,1.16-4.19,1.78-4.19,1.25,0,10.88,9.71,15.22,15.35,5.27,6.84,17.78,14.54,21.39,13.15,1.13-.44-.31-1.65-4.39-3.68-3.34-1.67-8.34-5.51-11.1-8.55-10.83-11.89-15.22-16.09-18.58-17.78Z"/>
  <path class="cls-1" d="M217.5,241.06c-.02,2.1,14.85,16.52,21.88,21.23,3.52,2.35,7.7,5.15,9.29,6.22,3.72,2.5,7.28,2.64,4.02.16-1.23-.94-5.5-4.18-9.5-7.22-4-3.04-9.52-7.13-12.27-9.1-2.76-1.97-6.9-5.61-9.21-8.1-2.31-2.49-4.2-3.92-4.21-3.19Z"/>
  <path class="cls-1" d="M148.62,87.12c.11-2.76,1.25-7.14,2.54-9.74,1.75-3.53,1.96-4.73.84-4.73-.82,0-2.14,1.13-2.92,2.51-2.37,4.19-3.76,10.06-3.3,13.99.62,5.32,2.61,3.9,2.84-2.03Z"/>
  <path class="cls-1" d="M230.9,241.25c0,.56,1.33,1.89,2.95,2.95,1.62,1.06,6.53,5.38,10.9,9.6,5.35,5.16,8.84,7.67,10.68,7.7,1.54.02,2.27-.37,1.68-.89-.58-.5-4.05-3.4-7.7-6.43-3.65-3.03-7.92-6.69-9.5-8.14-3.56-3.26-9.01-6.16-9.01-4.79Z"/>
  <path class="cls-1" d="M172.04,82.78c.63-3.13,1.07-3.42,5.12-3.42,2.44,0,4.73.49,5.1,1.08.78,1.27,17.35,1.15,17.35-.12,0-1.07-4.49-1.77-16.76-2.63-5.22-.37-10.51-.9-11.74-1.19-1.23-.29-2.85-.12-3.59.37-1.05.69-.97,1.65.35,4.2,2.63,5.09,3.44,5.42,4.18,1.7Z"/>
  <path class="cls-1" d="M193.66,94.24l2.41,1.95c1.43,1.16,3.38,1.7,4.8,1.33,1.73-.45,2.23-.2,1.82.94-.31.86-1.17,1.43-1.91,1.26-1.55-.35-.4,4.53,1.21,5.15,1.46.56,1.17,3.96-.53,6.28-1.37,1.87-1.61,1.61-2.78-3.01-.7-2.79-2.11-5.39-3.13-5.78-2.5-.96-3.27.04-1.59,2.06.75.91,1.11,2.09.78,2.61-.83,1.35,4.22,6.96,6.27,6.96,1.87,0,5.31-4.6,5.31-7.11,0-.88.68-1.86,1.51-2.17.83-.32,2.59-2.42,3.92-4.67,2.29-3.89,2.31-4.06.26-3.41-1.18.38-2.47.16-2.87-.48-.4-.64.05-1.16.98-1.16,2.28,0,6.26-4.4,6.26-6.92,0-1.38-.84-2.02-2.61-2.02-1.44,0-2.94.34-3.35.75-1.3,1.3-.81,2.43,1.21,2.84,3.1.63-3.18,4.31-8.62,5.04-4.44.59-6.35-.98-2.84-2.33.92-.35,1.68-1.16,1.68-1.8,0-1.97-3.24-1.27-5.77,1.26l-2.41,2.41Z"/>
  <path class="cls-1" d="M330.93,102.54c4.92.07,9.95-.31,11.18-.83l2.24-.96-2.24.13c-1.23.07-6.26.44-11.18.83l-8.94.71,8.94.13Z"/>
  <path class="cls-1" d="M325.4,92.17c1.19.9,3.27,1.66,4.62,1.68,1.35.02,2.76.54,3.14,1.15.38.61,2.14,1.12,3.91,1.12s3.53-.5,3.91-1.12c.39-.63-.5-1.12-2.03-1.12s-4.86-.75-7.47-1.68c-6.36-2.24-9.02-2.26-6.08-.04Z"/>
  <path class="cls-1" d="M356.46,95.76c-2.37,2.35-4.4,5.4-4.52,6.79-.19,2.2.17,2.43,2.79,1.8,3.98-.95,4.51-1.52,1.42-1.52s-2.55-2.31,1.11-4.17c1.49-.76,2.25-1.39,1.69-1.4-.56,0-.1-1.03,1.02-2.26,3.78-4.17.81-3.53-3.53.77Z"/>
  <path class="cls-1" d="M341.36,157.17c-.23-1.01-1.74.37-3.9,3.58-5.25,7.76-9.23,24.02-4.8,19.59.62-.62,1.8-4.36,2.61-8.31,1.39-6.73,1.67-7.17,4.53-7.13,2.73.05,2.85-.1,1.12-1.36-1.56-1.14-1.67-1.73-.56-3.07.76-.91,1.21-2.4,1-3.3Z"/>
  <path class="cls-1" d="M334.55,62.24c1.08-.28.14-.57-2.1-.64-2.68-.08-4.29.44-4.72,1.55-.48,1.26.19,1.68,2.74,1.68,1.86,0,3.1-.46,2.75-1.03-.35-.57.25-1.26,1.33-1.55Z"/>
  <path class="cls-1" d="M358.74,131.88c3.39-2.77,6.19-5.41,6.22-5.87.11-1.7-2.45-.76-4.57,1.68l-2.19,2.51.7-3.63c.7-3.61.46-4.31-.97-2.89-.41.41-.75,1.92-.75,3.35,0,1.72-2.19,4.69-6.43,8.73-3.54,3.37-6.86,6.13-7.39,6.15-1.34.03.24-5.76,2.16-7.89,1.89-2.1,2.03-3.26.39-3.26-1.93,0-4.39,3.01-4.39,5.37,0,5.1-1.55,9.48-3.54,10-1.14.3-2.37,1.72-2.73,3.16-.36,1.44-1.61,2.92-2.78,3.29-1.17.37-2.12,1.31-2.12,2.08s-1.26,2.59-2.79,4.03c-1.54,1.44-2.79,3.77-2.79,5.16,0,2.96-2.11,4.68-3.32,2.72-.51-.82-1.34.64-2.11,3.7-.7,2.78-1.78,5.37-2.39,5.75-1.32.82-1.52,7.26-.23,7.26.49,0,1.53-1.76,2.31-3.91.78-2.15,1.88-3.91,2.46-3.91s1.04-1.26,1.04-2.79.54-2.79,1.19-2.79c1.73,0,6.35-5.59,12.47-15.07,2.45-3.79,16.08-17.67,22.54-22.93Z"/>
  <path class="cls-1" d="M354.56,146.69c1.57-1.69,4.26-4.58,5.97-6.43,2.65-2.86,5.45-8.38,4.25-8.38-.21,0-1.78,1.59-3.48,3.53-1.71,1.94-3.6,4.46-4.2,5.59-.6,1.13-1.84,2.06-2.74,2.06s-1.64.77-1.64,1.71-.75,2-1.68,2.35c-.92.35-1.68,1.09-1.68,1.64,0,1.92,2.36.97,5.19-2.08Z"/>
  <path class="cls-1" d="M340.8,91.79c3,1.74,17.5-1.38,17.5-3.77,0-1.61-6.46-.85-7.11.83-.46,1.19-2.35,1.69-6.55,1.71-4.73.03-5.5.27-3.85,1.23Z"/>
  <path class="cls-1" d="M124.83,255.32c1.06-2.7,1.24-8.67.33-11.03-1.17-3.06-2.53-1.93-2.89,2.42-.19,2.31.11,5.67.68,7.49.92,2.94,1.12,3.06,1.88,1.12Z"/>
  <path class="cls-1" d="M355.56,155.14c2.92-3.88,8.31-10.13,11.96-13.9,4.11-4.23,6.5-7.6,6.26-8.81-.27-1.38-3.37,1.63-10.5,10.2-10.61,12.75-14.45,18.14-13.56,19.03.29.29,2.92-2.64,5.85-6.52Z"/>
  <path class="cls-1" d="M363.34,172.71c2.46-.35,8.24-1.16,12.85-1.8s8.89-1.79,9.5-2.56c.61-.77,2-1.73,3.07-2.13,1.08-.4,1.96-1.25,1.96-1.89,0-1.51-.28-1.46-2.86.49-1.19.9-3.49,1.66-5.1,1.68-1.61.02-5.07.79-7.68,1.71-2.61.92-6.35,1.68-8.31,1.68s-4.53.78-5.73,1.73c-2.03,1.62-1.88,1.69,2.3,1.09Z"/>
  <path class="cls-1" d="M376.29,125.76c1.17,3.09,2.13,6.21,2.13,6.95,0,1.36,2.83,8.42,4.59,11.47.53.92,1.99,3.56,3.24,5.86,2.41,4.44,12.59,15.17,17.37,18.3,2.01,1.32,3.21,1.52,4.04.69.83-.83-1.17-3.43-6.73-8.74-13.15-12.56-19.13-26.72-30.37-72-9.48-38.2-10.06-53.03-2.89-74.02,4.64-13.58,4.74-14.28,2.07-14.28-1.43,0-2.82,2.25-5.02,8.1-10.06,26.78-8.8,45.43,6.99,103.1,1.35,4.92,3.41,11.47,4.58,14.55Z"/>
  <path class="cls-1" d="M369.95,147.68c-1.68,2.66-3.73,5.51-4.55,6.33s-1.49,2.35-1.47,3.38c.03,1.6.27,1.54,1.64-.36.88-1.23,2.13-2.86,2.79-3.61,2.39-2.78,5.86-9.35,5.26-9.95-.34-.34-1.99,1.56-3.67,4.21Z"/>
  <path class="cls-1" d="M89.59,319.65c-.97,0-1.76-.72-1.76-1.61s-.41-1.86-.91-2.17c-.5-.31-.83,2.05-.73,5.24.3,9.58,3.08,12.8,7.22,8.35,2.7-2.9,2.72-3.2.48-5.96-.97-1.19-1.42-1.51-1.01-.71.41.8.44,2.7.06,4.22-.59,2.34-1.02,2.58-2.9,1.57-2.65-1.42-2.86-4.76-.45-7.17,1.6-1.6,1.6-1.76,0-1.76Z"/>
  <path class="cls-1" d="M122.23,210.26c1.4,2.69,2.85,6.78,3.22,9.08.74,4.62,2.62,5.73,2.62,1.55,0-3.22-5.92-16.55-8.18-18.43-.9-.75-4.84-2.91-8.74-4.8-9.55-4.62-13.25-7.39-13.25-9.92,0-1.16-.83-2.57-1.85-3.14-1.59-.89-1.76-2.46-1.19-11.23.36-5.61.24-10.2-.28-10.2s-.87-3.13-.78-6.97c.09-3.83.33-6.09.53-5.03.2,1.07.84,1.94,1.41,1.94,1.18,0,1.16-5.64-.03-10.62l-.8-3.35-.76,3.35c-.42,1.84-1.25,5.5-1.86,8.12-.6,2.62-1.1,9-1.1,14.18s-.51,9.73-1.15,10.13c-.71.44-1.09,5.98-.99,14.32.1,7.92-.41,15.7-1.22,18.63-1.56,5.67-3.21,23.47-2.17,23.47.37,0,1.47-4.15,2.44-9.22,2.46-12.86,3.42-16.11,6.96-23.56l3.09-6.52,2.95,2.79c1.62,1.53,5.21,3.88,7.98,5.21,9.83,4.74,10.65,5.37,13.16,10.21ZM94.3,193.8c-1.21,2.27-1.24,2.27-2.09.08-1.09-2.8-1.26-8.87-.26-9.86.41-.42,1.39,1.1,2.17,3.36,1.05,3.05,1.1,4.71.19,6.41Z"/>
  <path class="cls-1" d="M101.25,216.94c0-2.64-9.47-3.26-10.46-.68-.52,1.35.43,1.68,4.91,1.68,3.05,0,5.55-.45,5.55-1Z"/>
  <path class="cls-1" d="M109.43,339.48c.03,5.07.47,9.22.97,9.22,1.12,0,1.04-6.67-.15-13.41-.76-4.32-.88-3.73-.82,4.19Z"/>
  <path class="cls-1" d="M100.1,281.14c-.08-5.17-5.38-8.37-8.37-5.06-1.42,1.57-1.72,3.13-1.17,6.07.64,3.39,1.18,3.96,3.82,3.96,3.67,0,5.77-1.83,5.73-4.97ZM95.63,283.88c-2.5,0-4.71-3.57-3.75-6.07.84-2.2,4.2-2.28,5.98-.13,1.83,2.2.39,6.2-2.23,6.2Z"/>
  <path class="cls-1" d="M116.21,322.09c-1.54-2.89-1.57-2.82-.87,2.03.4,2.77,1.46,5.78,2.37,6.71,1.46,1.48,1.56,1.25.88-2.03-.43-2.04-1.49-5.06-2.37-6.71Z"/>
  <path class="cls-1" d="M129.37,301.41c.52-.93.22-3.92-.69-6.97-.88-2.94-2.18-11.17-2.89-18.29-1.16-11.78-4.48-23.57-6.62-23.57-.39,0-.36,2.64.07,5.87,2.43,18.44,8.78,45.38,10.14,42.96Z"/>
  <path class="cls-1" d="M84.17,179.31c-.13-.1-.84.03-1.58.3-.89.32-1.03,1.3-.42,2.92.51,1.34,1.32,7.22,1.81,13.06.73,8.8,1.03,9.95,1.73,6.71.68-3.14-.6-22.28-1.54-22.98Z"/>
  <path class="cls-1" d="M95.7,125.04c.04,12.89,1.38,11.72,3.36-2.95,1.29-9.55,1.24-10.52-.61-12.57-2.93-3.24-4.28-2.75-3.48,1.27.38,1.92.71,8.33.73,14.25Z"/>
  <path class="cls-1" d="M308,121.03c1.22-.32,2-.95,1.72-1.4-.28-.45.68-5.55,2.11-11.33,1.44-5.78,3.49-15.17,4.55-20.85,1.06-5.69,2.88-13.42,4.05-17.18,2.11-6.78,2.11-6.87-.12-10.47-3.43-5.55-3-6.55,2.5-5.81,4.83.65,4.34.36-3.5-2.14-1.24-.4-1.15-.94.45-2.71,1.1-1.22,1.61-2.21,1.14-2.21s.01-1.33,1.08-2.96c1.07-1.63,3.47-6.03,5.35-9.78,1.88-3.75,4.1-7.64,4.94-8.64.84-1,3.01-5.99,4.81-11.09,1.8-5.1,3.8-9.8,4.42-10.42,2.15-2.15,1.2-4.05-2.03-4.05-2.32,0-3.53.77-4.47,2.85-.71,1.57-1.3,3.28-1.3,3.81s-2.51,6.17-5.58,12.52c-3.07,6.36-5.59,12.31-5.6,13.23-.02,1.6-3.75,14.39-5.21,17.88-.39.92-.58,2.87-.44,4.34.15,1.46-.27,5.74-.91,9.5-1.48,8.59-5.12,31.78-6.94,44.28-.76,5.22-1.81,9.98-2.32,10.56-1.58,1.8-1.04,2.67,1.29,2.06Z"/>
  <path class="cls-1" d="M238.86,189.57c11.67.66,25.35,3.16,33.39,6.12,13.96,5.14,25.71,12.24,25.71,15.55,0,2.67,1.66,3.72,3.07,1.93.72-.92.51-3.76-.61-8.39-1.62-6.68-1.6-7.09.43-8.63,2.99-2.26-.04-2.14-3.52.14-2.65,1.74-2.7,1.96-1.01,4.54,2.7,4.12,1.4,5.41-2.32,2.31-1.82-1.51-4.51-3.38-5.97-4.15q-2.65-1.39,1.87-3.42c2.49-1.11,5.13-3.16,5.87-4.54l1.35-2.52,1.5,2.7c1.82,3.29,1.98,2.51.4-2.03-1-2.86-1.7-3.34-4.53-3.12-3.51.28-6.4,2.26-5.14,3.52.4.4,1.51.09,2.47-.7,2.02-1.68,3.35-.82,2.44,1.56-.65,1.69-7.27,4.01-11.45,4.02-1.27,0-4.95-.78-8.18-1.74-4.39-1.3-5.59-2.09-4.74-3.11.88-1.06-.61-1.26-6.61-.92-4.26.24-9.02.11-10.6-.28-3.24-.81-2.7-2.89.75-2.89,1.25,0,4.51-1.61,7.25-3.58,3.63-2.6,6.02-3.51,8.79-3.32,2.09.14,5.97-.72,8.61-1.92,2.64-1.2,6.06-2.53,7.6-2.96,1.54-.43,3.63-1.52,4.65-2.41,1.64-1.44,2.21-1.4,4.75.26,1.59,1.04,2.89,2.34,2.89,2.88s.5.99,1.12.99c1.93,0,1.23-1.82-1.9-4.95-1.71-1.71-3.77-2.77-4.75-2.44-.95.32-6.2,2.11-11.66,3.98-5.46,1.87-11.58,3.4-13.61,3.4-2.3,0-4.93,1.05-7,2.79-1.83,1.54-3.62,2.79-3.99,2.79-2.12,0-9.59,4.08-9.22,5.04.27.7-1.25.98-3.9.73-4.68-.45-5.93-2.88-2.1-4.09,3.96-1.26,2.93-7.03-2.18-12.25l-4.42-4.51,1.5-5.03c3.1-10.43,7.34-30.2,7.34-34.3,0-2.34.49-6.02,1.07-8.17.59-2.15,1.61-9.38,2.28-16.06,1.09-10.93,1.02-12.36-.69-14.25-1.05-1.16-2.42-2.1-3.06-2.1s-.2.7.96,1.55c2.08,1.52,2.08,1.96-.34,23.19-1.49,13.11-3.96,27.7-6.25,37.02-2.09,8.46-4.13,17.6-4.53,20.31-.68,4.51-.55,4.88,1.44,4.36,2.49-.65,6.87,1.36,6.87,3.15,0,1.2-4.5.86-7.86-.6-1.33-.58-2.16.69-3.67,5.61-1.18,3.83-1.55,6.76-.94,7.38.56.56,5.23,1.26,10.38,1.54Z"/>
  <path class="cls-1" d="M299.94,161.44c1.59-1.11,2.48-2.9,2.48-4.95,0-1.77.79-4,1.76-4.97.97-.97,1.22-1.76.56-1.76s-1.2-1.76-1.2-3.91-.5-3.91-1.12-3.91-1.12,3.24-1.12,7.48c0,6.6-.36,7.85-3,10.62-3.26,3.4-2.35,4.18,1.64,1.39Z"/>
  <path class="cls-1" d="M302.47,133.56l-.69-6.71-.92,5.97c-.61,3.99-.51,6.38.3,7.19,1.85,1.85,2.05.85,1.3-6.46Z"/>
  <path class="cls-1" d="M333.98,44.22c.99.99,13.39,3.76,16.5,3.7,1.54-.03-1.23-1.01-6.15-2.16-9.65-2.26-11.34-2.51-10.36-1.53Z"/>
  <path class="cls-1" d="M257.04,361.7c-4.03,1.44-5.93,4.05-6.7,9.19-.43,2.84-2.46,8.23-4.52,11.98-3.61,6.57-4.69,10.54-2.87,10.54.48,0,2.74-3.77,5.02-8.38l4.15-8.38h11.74c9.35,0,11.74-.32,11.74-1.57,0-2.1-9.12-3.32-17.23-2.3-3.43.43-6.24.49-6.24.13s.82-2.37,1.83-4.48c1.45-3.04,2.66-3.97,5.87-4.48,4.53-.73,8.67-4.13,12.42-10.19,1.77-2.87,2.17-4.44,1.34-5.27-.83-.83-2.38.69-5.2,5.11-3.83,5.99-6.34,7.64-7.87,5.17-1.52-2.46-6.37-1.08-9.8,2.79-1.94,2.2-4.52,3.91-5.88,3.91s-3.21.88-4.17,1.96c-1.98,2.21-5.3,16.94-5.3,23.53v4.35l-8.47,1.19c-4.66.65-8.76,1.49-9.13,1.85-1.55,1.55.98,1.67,9.43.44,7.86-1.15,9.96-1.06,16.68.71,4.23,1.11,10.21,3.2,13.28,4.64,3.07,1.44,9.36,4.17,13.97,6.06,4.61,1.89,9.72,4.17,11.35,5.07,3.15,1.72,7.67,2.19,7.63.79-.02-.84-20.92-10.35-22.72-10.34-1.49,0-9.03-3.68-9.8-4.79-.38-.55-4.65-2.11-9.5-3.47l-8.81-2.47.1-6.65c.05-3.66.73-9.26,1.49-12.46,1.19-4.96,1.99-6.11,5.49-7.91,2.25-1.15,4.58-3.17,5.17-4.47.59-1.3,2.29-2.67,3.76-3.04,3.27-.82,4.7.2,1.74,1.25Z"/>
  <path class="cls-1" d="M176.55,318.65c1.83-1.52,3.07-28.48,1.71-37.09-.47-2.97-2.67-9.23-4.89-13.91-3.97-8.38-4.03-8.67-3.26-18.21.78-9.77,3.69-19.43,8.34-27.7,4.67-8.32,9.12-14.04,12.55-16.12,3.78-2.3,5.17-6.24,8.11-22.88.87-4.92,2.42-12.21,3.46-16.21,2.55-9.87,3.22-40.87.99-46.09-1.38-3.23-1.49-1.35-.92,16.6.63,19.78.58,20.32-1.9,23.67-1.42,1.93-2.24,4.21-1.86,5.2.41,1.07-.15,2.28-1.41,3.07-1.79,1.12-1.86,1.53-.53,2.86,1.65,1.65,2.13,4.78.72,4.72-.46-.02-1.82-.77-3.01-1.68-3.99-3.02-5.5-1.89-2.4,1.8,3.41,4.05,3.72,6.62.79,6.62-1.15,0-2.72.75-3.49,1.68-.77.92-2.08,1.68-2.93,1.68s-1.54.75-1.54,1.68c0,2.31.83,2.12,4.67-1.12,4.82-4.05,8.46-3.64,5.07.58-1.95,2.42-10.43,8.92-11.65,8.92-1.69,0-10.89,11.34-14.06,17.32-8.98,16.98-10.87,22.75-11.37,34.8-.26,6.34-.02,11.81.54,12.16,1.22.75.16,7.18-1.53,9.32-.97,1.23-1.57,1.05-3.22-1-2.93-3.62-3.77-1.82-.98,2.11,1.3,1.82,2.36,4.21,2.36,5.32,0,3.59,2.3-.02,5.08-7.98,2.97-8.5,3.98-23.95,1.75-26.64-1.02-1.23-.83-2.4.87-5.33,1.2-2.07,2.92-6.27,3.84-9.34,2.76-9.25,4.66-12.82,10.37-19.47,5.53-6.44,16.27-15.94,17.08-15.13.25.25-1.57,3.1-4.03,6.34-4.75,6.26-13.28,19.32-16.26,24.9-2.52,4.71-4.88,13.98-6.52,25.55-1.14,8.09-1.13,10.54.07,13.41,2.26,5.4,2.62,11.02,1.32,20.52-1.96,14.33-3.95,19.21-12,29.45-4.07,5.18-8.38,11.43-9.56,13.89-4.06,8.41-5.61,10.76-7.46,11.35-3.37,1.06-10.75,5.19-13.87,7.76-1.69,1.39-4.2,2.87-5.59,3.29-2.76.84-7.55,4.83-7.55,6.29,0,1.98,4.36.8,5.05-1.38.4-1.26,2.57-3.09,4.82-4.06,2.25-.97,5.86-2.72,8.01-3.9,2.15-1.18,5.67-3,7.82-4.04s4.16-2.16,4.47-2.48c.31-.32,2-1.07,3.77-1.68,2.78-.96,3.27-1.77,3.65-6.1.44-4.95,6.02-15.03,6.89-12.43.63,1.9,10.03-11.2,10.75-14.98.23-1.23,1.34-6.26,2.46-11.18,1.12-4.92,1.88-10.58,1.7-12.57-.43-4.64,1.57-4.76,2.5-.14,1.1,5.5.82,9.1-.98,12.56-2.17,4.15-2.13,5.83.1,3.99,1.59-1.32,1.71-.69,1.25,6.23-.41,6.14-.92,7.84-2.54,8.4-1.76.62-1.67.81.7,1.48,2.46.69,2.54.88.78,1.92-2.41,1.42-2.61,7.44-.36,10.65,1.37,1.96,1.38,2.67.04,5-.86,1.49-1.88,3.35-2.28,4.12-.4.77.19,2.78,1.31,4.47,3.9,5.87,3.03,11.45-1.77,11.45-1.7,0-6.02,1.76-9.59,3.91-7.49,4.51-6.86,4.76,4.26,1.68,4.44-1.23,9.21-2.24,10.6-2.24,2.51,0,2.54-.17,2.54-14.39,0-11.43-.35-14.68-1.68-15.78-2.09-1.73-2.14-3.81-.15-5.47Z"/>
  <path class="cls-1" d="M149.46,342c-1.66,0,.02,6.03,2.42,8.66,3.39,3.73,6.33,3.09,12.24-2.65,5.75-5.59,6.15-6.69,3.69-9.99-1.57-2.1-1.6-2.08-.99.35.37,1.48.12,2.51-.61,2.51-.69,0-1.25,1.09-1.25,2.42s-.34,2.08-.76,1.66c-.42-.42-2.45.87-4.51,2.86l-3.74,3.63-2.72-3.33c-1.49-1.83-2.74-3.96-2.76-4.72-.02-.77-.47-1.4-1-1.4Z"/>
  <path class="cls-1" d="M297.49,261.36c1.7-.83,3.31-2.18,3.58-3.01.37-1.13-.02-1.24-1.59-.45-1.15.58-5.35.84-9.35.57-4-.27-8.52-.57-10.05-.67-2.49-.16-2.94.46-4.27,5.96-.82,3.38-2.52,7.15-3.8,8.38l-2.31,2.24.85-2.24c3.49-9.2,4.06-12.95,3.73-24.56-.33-11.48-.21-12.3,1.86-12.71,2.87-.57,17.71,2.18,18.56,3.43.36.53,1.31.18,2.12-.79.8-.97,1.18-2.04.83-2.38-.34-.35-5.95-1.18-12.45-1.85-10.21-1.06-11.83-1.5-11.83-3.25,0-5.75-4.61-13.79-11.7-20.41-4.75-4.44-7.3-6.17-7.3-4.98,0,1.01,2.6,4.04,5.77,6.72,8.45,7.16,9.5,10.44,10.42,32.55.65,15.56.52,18.72-.77,18.72-1.87,0-4.24,8.25-4.25,14.82,0,4.88-1.07,11.97-3.96,26.53-.92,4.61-2.14,10.83-2.71,13.81s-1.82,6.61-2.76,8.05c-1.7,2.59-7.54,4.87-12.91,5.03-1.54.05-3.8.52-5.03,1.04-4.26,1.83,6.89,1.22,12.53-.69,9.26-3.13,11.49-5.36,11.49-11.46,0-2.91.45-5.77.99-6.35.98-1.04,4.21-17.8,5.65-29.25.44-3.54,1.65-6.84,3.06-8.38,3.05-3.34,5.94-9.13,5.94-11.92,0-3.23,1.66-3.8,8.52-2.95l6.12.76-.71,4.76c-.62,4.15-.33,5.18,2.28,8.02,2.19,2.38,2.76,2.65,2.14,1.02-.47-1.23-1.06-4.58-1.32-7.43-.42-4.78-.21-5.32,2.63-6.71Z"/>
  <path class="cls-1" d="M156.33,333.57c2.32-1.58,3.92-3.34,3.56-3.92-1.02-1.65-2.38-1.27-5.65,1.54-4.6,3.96-2.97,5.82,2.09,2.39Z"/>
  <path class="cls-1" d="M47.23,292.45c-1.25,1.25-.83,7.66.6,9.09,3.43,3.43,7.16.02,5.27-4.82-.74-1.89-.88-1.75-.94.94-.06,2.38-.56,3.06-2.03,2.78-2.37-.45-3.2-4.88-1.35-7.12,1.31-1.58-.06-2.35-1.54-.87Z"/>
  <path class="cls-1" d="M361.32,484.78c-1.21,2.15-1.87,7.24-1.27,9.66.21.84.7,1.54,1.41,2.11l.79-6.29c.71-5.69.36-7.77-.93-5.47Z"/>
  <path class="cls-1" d="M292.25,460.39c-.86-.53-6.34-2.05-12.18-3.38-5.84-1.32-11.37-2.79-12.29-3.27-1.45-.75-1.72,1.69-1.98,18.3-.39,24.64.26,30.9,3.2,30.9,1.84,0,2.04-.48,1.32-3.07-.82-2.93-.73-27.94.13-33.81.22-1.54.47-3.6.55-4.59.11-1.32.92-1.65,3.05-1.25,2.53.48,2.82.97,2.26,3.78-.58,2.91-.43,3.11,1.49,2.09,1.17-.63,2.33-2.28,2.57-3.66.42-2.4.5-2.38,1.75.63.73,1.73,1.32,4.43,1.32,6.01,0,2.41.26,2.64,1.68,1.47,2.28-1.89,2.24.41-.11,6.84-.98,2.69-2.04,9.54-2.36,15.23-.55,9.85-.46,10.34,1.71,10.34s2.32-.82,2.73-10.34c.24-5.69,1.32-13.1,2.39-16.49,4.21-13.27,4.46-14.69,2.79-15.73Z"/>
  <path class="cls-1" d="M367.71,495.83l-6.22.73c1.85,1.47,5.2,1.96,9.12,1.18,5.87-1.17,3.6-2.67-2.89-1.91Z"/>
  <path class="cls-1" d="M293.05,420.27c-.55.08-1.3-.35-1.68-.96-.45-.73-1.31-.66-2.47.18-6.37,4.67-8.17,21.4-3.29,30.64,3.59,6.79,4.94,5.89,1.68-1.12-3.98-8.54-3.28-21.51,1.45-26.83,1.67-1.88,1.85-1.88,3.93,0,2.09,1.88,2.16,1.87,1.77-.05-.22-1.11-.86-1.94-1.4-1.86Z"/>
  <path class="cls-1" d="M361.45,501.66c-2.08-.76-3.11-2.03-3.35-4.1l-.35-3-3.07,3.02c-4.51,4.43-3.91,5.37,3.35,5.27,5.56-.08,6.02-.24,3.42-1.19Z"/>
  <path class="cls-1" d="M378.37,183.07c-2.43.28-2.85.89-2.85,4.12,0,2.11.47,3.5,1.06,3.13.58-.36,1.69.2,2.46,1.26.94,1.29,1.65,1.51,2.16.68.56-.91,1.17-.9,2.27.01,1.21,1,1.49.53,1.43-2.46-.09-4.5-2.7-7.18-6.54-6.73Z"/>
  <path class="cls-1" d="M356.59,191.23c-3.95-3.47-5.71-4.41-4.46-2.4.36.59.02,2.11-.77,3.39-1.18,1.91-1.16,2.48.13,3.29.86.53,1.25,1.77.87,2.76-.38.98-.23,1.79.33,1.79,1.82,0,2.22-1.85,1.19-5.43-1.3-4.55.53-4.64,3.08-.17,2.03,3.57,3.58,4.35,3.58,1.8,0-.86-1.78-3.12-3.95-5.03Z"/>
  <path class="cls-1" d="M337.6,188.88c-1.56,0-3.13.78-3.49,1.73-.36.95-.39,3.43-.05,5.51.76,4.69-.14,8.41-2.03,8.41s-2.78-2.53-2.78-7.29-.75-5.1-5.03-3.22c-2.95,1.29-3.05,1.48-.84,1.52,2.11.04,2.51.67,2.51,3.88,0,2.11.79,4.62,1.76,5.59,2.09,2.09,1.56,2.04,5.9.53,3.23-1.12,3.7-1.96,3.8-6.6,0-.31-.33-1.98-.74-3.73-.61-2.59-.33-3.27,1.53-3.76,3.21-.84,2.84-2.57-.55-2.57Z"/>
  <path class="cls-1" d="M345.22,192.23c-.7,2.68-2.56,2.99-2.56.42,0-1.49-.3-1.56-1.68-.42-2.1,1.74-2.14,4.16-.12,6.19,1.33,1.33,1.67,1.2,2.33-.92.77-2.46.78-2.46,1.56.31.93,3.29,1.87,2.13,2.95-3.63.84-4.49-1.38-6.22-2.49-1.95Z"/>
  <path class="cls-1" d="M204.63,447.83c-2.46.92-6.73,2.61-9.5,3.75-13.37,5.52-33.61,9.11-51.41,9.13-8.47,0-12.87.36-11.18.9,7.66,2.42,33.16.57,48.06-3.49,8.26-2.25,31.29-10.89,31.29-11.74,0-.79-2.73-.24-7.26,1.45Z"/>
  <path class="cls-1" d="M116.82,456.77c-6.5-1.96-13.14-4.44-14.77-5.52s-3.49-1.96-4.15-1.96c-1.76,0-14.83-5.59-16.77-7.18-.92-.75-5.7-3.02-10.62-5.04-18.36-7.54-22.44-9.35-25.99-11.48-3.5-2.11-4.79-4.24-2.55-4.24.59,0,4.21-3.02,8.04-6.71,3.83-3.69,7.99-6.72,9.26-6.75,1.33-.02,3.26-1.55,4.59-3.63,1.76-2.76,3.01-3.54,5.36-3.37,2.5.18,2.95-.16,2.42-1.82-1.39-4.37,14.82-17.34,29.45-23.57,6.04-2.57,33.59-11.1,44.29-13.71,1.23-.3-.53-.57-3.91-.6-3.61-.03-9.84,1.11-15.09,2.76-17.84,5.62-33.51,11.73-39.6,15.43-3.42,2.08-10.81,8.6-16.41,14.49-5.6,5.89-10.69,10.7-11.31,10.7-2.02,0-15.95,11.78-18.68,15.8l-2.68,3.94,5.78,2.89c3.18,1.59,12.32,5.75,20.31,9.26,7.99,3.5,17.04,7.52,20.12,8.93,17.25,7.91,37.43,15.14,41.91,15.01,1.54-.05-2.52-1.69-9.02-3.64Z"/>
  <path class="cls-1" d="M70.61,464.37c-2.55-2.23-7.02-3.12-7.97-1.58-.47.75,9.55,4.77,10.22,4.1.16-.16-.85-1.29-2.25-2.51Z"/>
  <path class="cls-1" d="M93.82,473.48c-7.48-3.55-10.45-4.46-10.45-3.21,0,1.18,17.62,9.22,20.12,9.19,1.92-.03-1.18-1.95-9.67-5.98Z"/>
  <path class="cls-1" d="M13.17,431.41c2.93,0,2.48-2.12-.7-3.33-1.5-.57-3.28-2.07-3.95-3.32-.67-1.26-2.02-2.29-2.99-2.29-1.57,0-1.55.35.17,3.07,2.49,3.95,4.93,5.87,7.47,5.87Z"/>
  <path class="cls-1" d="M169.99,494.1c-2.46.53-9,.87-14.53.75l-10.06-.22-.35,4.15c-.3,3.56-.02,4.15,1.96,4.15,1.3,0,2.3-.73,2.3-1.68s.38-1.7.84-1.73c.46-.03,4.86-.21,9.78-.41,4.92-.19,9.76-.7,10.76-1.13,1.34-.57,2.01-.02,2.54,2.08,1.26,5.01,4.03,3.52,4.03-2.17s.08-5.39-7.26-3.81Z"/>
  <path class="cls-1" d="M259.86,451.53c-7.94,0-34.4-10.27-41.19-15.98-1.64-1.38-5.97-3.44-9.62-4.57-13.76-4.28-20.15-8.24-24.47-15.16-5.07-8.11-5.53-10.86-6.16-36.37-.53-21.51-.79-24.25-2.12-21.91-.96,1.68-1.33,4.68-1.01,8.05.28,2.95.1,5.79-.4,6.29-.51.51-.34,2.81.37,5.11.92,3.01.95,4.53.07,5.4-.87.87-.87,2.19-.01,4.66.8,2.31.83,3.57.07,3.83-1.25.42.79,14.15,2.93,19.71l1.23,3.2-3.85-.72c-4.08-.76-6.8,1.11-3.25,2.24,5.92,1.89,10.56,4.41,14.45,7.87,5.55,4.93,10.26,7.35,20,10.26,4.31,1.29,8.87,3.31,10.13,4.48,1.26,1.17,3.43,2.74,4.82,3.49,1.39.75,2.28,2.02,1.96,2.83-.41,1.06.58,1.46,3.55,1.41,2.26-.04,9.01,1.83,15,4.15,10.82,4.2,10.87,4.23,8.38,6.19-1.38,1.08-4.3,2.91-6.5,4.06-5.06,2.65-13.6,8.02-18.18,11.43-2.56,1.9-2.88,2.43-1.15,1.92,3.18-.94,35.18-18.43,37.26-20.36,1.4-1.3,1.08-1.52-2.29-1.52Z"/>
  <path class="cls-1" d="M277.84,473.7c0,1.37-.71,3.61-1.57,4.97-2.26,3.57-3.2,10.91-2.3,18.06,1.04,8.34,2.61,7.88,2.63-.78,0-3.84.76-10.51,1.68-14.81,1.03-4.87,1.27-8.22.61-8.89-.66-.67-1.05-.13-1.05,1.44Z"/>
  <path class="cls-1" d="M408.04,196.79c3.15-.95,3.04-1.02-1.82-1.11-2.84-.05-5.67-.72-6.29-1.49-.96-1.21-3.63-13.9-3.63-17.29,0-.65,2.26-1.52,5.03-1.93,4.81-.72,6.26-1.96,3.95-3.39-1-.62-9.99.35-26.31,2.83-3.69.56-11.74,1.59-17.88,2.28-11.65,1.32-20.32,3.5-30.74,7.75-3.38,1.38-9.16,3.62-12.85,4.99-3.69,1.37-7.59,2.86-8.66,3.32-1.64.7-1.96.24-1.96-2.82,0-5.69-2.35-18.04-4.08-21.45-2.19-4.31-3.94-3.85-2.14.56.81,2,1.79,9.67,2.16,17.04.6,11.89,2.76,24.22,4.55,26.01,1.56,1.56,1.99-1.23.81-5.17-.71-2.38-1.3-6.11-1.3-8.28,0-3.32.34-3.87,2.09-3.41,1.48.39,2.66,2.65,4.02,7.67,1.06,3.92,1.72,7.74,1.47,8.5-.25.76-2.89,2.16-5.87,3.12-4.97,1.6-5.53,2.15-6.9,6.78-1.26,4.25-1.24,5.9.12,10.62.88,3.07,2.37,9.97,3.3,15.32,1.54,8.84,5.45,20.22,8.77,25.54,2,3.2-2.63,7.54-8.52,7.98l-4.58.34-3.94,9.63c-2.17,5.29-4.45,10.32-5.07,11.18-3,4.11-4.79,8.79-5.49,14.3-.42,3.33-1.92,8.86-3.33,12.29-3.47,8.44-4.83,14.36-6.18,26.92-1.37,12.71-.51,17.19,3.36,17.62,8.13.9,10.14,1.62,11.23,4.01.63,1.38,2.23,3.19,3.55,4.01,2.37,1.48,2.37,1.46.46-1.18-1.07-1.47-2.27-3.43-2.67-4.35-.4-.92-2.16-3.33-3.9-5.35-1.74-2.02-3.16-4.16-3.16-4.75,0-2.33,2.28-.83,7.05,4.62,4.94,5.64,5.08,5.71,13.78,6.8,12.24,1.53,15.45,2.41,15.68,4.3,1.6,13.09,4.15,29.03,4.98,31.11.85,2.13.74,2.53-.58,2.02-.9-.34-3.56-.94-5.9-1.32-8.38-1.35-9.28-1.75-10.81-4.77-1.97-3.89-3.26-12.63-2.39-16.13.37-1.48,2.03-3.53,3.68-4.56l3.01-1.87-2.94-.03c-4.78-.05-5.84,2.35-5.14,11.6.34,4.52,1.43,9.79,2.42,11.71l1.8,3.48h-6.24c-4.62,0-8.76-1.05-15.96-4.02-11.19-4.63-27.05-10.51-28.37-10.51-.5,0-.9.44-.9.97s3.9,2.39,8.66,4.12c17.32,6.31,27.65,11.28,28,13.48.77,4.8,2.8,6.94,7.9,8.31,6.9,1.86,8.84,3.78,2.94,2.94-2.46-.35-5.73-.98-7.26-1.4l-2.79-.76,2.24,2.29c2.29,2.35,7.95,3.55,10.2,2.16.69-.43,3.96.71,7.26,2.54,3.3,1.82,6.84,3.32,7.86,3.33,1.19.01-.71,2.64-5.33,7.37-3.95,4.04-9.15,10.26-11.56,13.81l-4.38,6.45,3.56,1.16c1.96.64,5.45,1.97,7.75,2.97,2.47,1.07,4.19,1.34,4.19.66,0-.64-1.13-1.59-2.51-2.12-1.38-.53-4.15-1.65-6.15-2.49l-3.64-1.52,3.1-4.66c3.67-5.51,15.82-19.37,16.99-19.37.45,0-.44,2.54-1.98,5.65-4.92,9.94-4.54,27.83.59,27.92,1.09.02,4,1.27,6.45,2.79,2.46,1.51,5.22,2.73,6.15,2.71.92-.02-.21-1.04-2.51-2.26-2.3-1.22-4.19-2.56-4.19-2.99s2.62-3.43,5.83-6.68c3.21-3.25,5.29-5.9,4.63-5.9s-3.88,2.84-7.17,6.32c-3.28,3.47-6.17,5.74-6.4,5.03s-1.13-1.29-1.99-1.29c-2.21,0-3.1-4.64-2.45-12.74.65-8.05,4.38-17.44,6.93-17.44,3.21,0,1.78-3.1-2.45-5.3-14.01-7.29-24.83-12.58-25.72-12.58-1.13,0-4.73-3.65-4.73-4.8,0-.39.63-.47,1.4-.18.77.29,3.96-.13,7.1-.95,3.14-.81,6.66-1.11,7.82-.65,1.17.46,3.63.87,5.47.91,4.04.1,10.46,3.8,11.29,6.51,1.74,5.7,8.72,23.85,10.85,28.21,4.87,9.98,23.86,32.95,32.44,39.23,2.35,1.72,5.8,5.42,7.65,8.22,2.04,3.08,4.21,5.09,5.5,5.09,2.55,0,2.8-2.53.43-4.49-.93-.77-2.52-3.14-3.53-5.26-1-2.12-2.88-4.27-4.17-4.78-5.37-2.13-29.23-29.61-33.48-38.56-1.46-3.07-4.53-10.87-6.83-17.32-2.3-6.45-4.89-13.26-5.75-15.12-.86-1.86-2.78-11.6-4.26-21.64-1.48-10.04-3.11-18.64-3.62-19.11-1.72-1.58-9.71-3.68-14.85-3.91-2.8-.13-6.45-.3-8.13-.4-2.21-.12-4.04-1.54-6.71-5.19-2.02-2.76-4.75-5.32-6.08-5.68-3.52-.97-7.09,1.35-7.09,4.59,0,1.52-.5,2.75-1.12,2.75-2.72,0,.82-27.03,4.9-37.44,1.45-3.69,3-9.21,3.44-12.27.45-3.07,2.94-9.58,5.56-14.53,2.61-4.93,5.1-10.41,5.53-12.16,1.12-4.55,4.12-8.75,5.79-8.11.79.3,3.19.06,5.35-.53,7.34-2.03,7.53-9.39.67-25.05-1.08-2.46-2.55-8.49-3.28-13.41s-1.75-9.95-2.27-11.18c-2.1-4.97-2.35-10.62-.58-13.15.96-1.37,2.12-2.52,2.57-2.54.45-.02,2.01-.7,3.47-1.51,2.93-1.63,2.83-1.25-1.21,4.59-2.98,4.3-1.8,9.79,2.64,12.35,5.35,3.07,7.74,2.41,3.47-.96-4.34-3.42-4.57-6.11-1.19-13.87,2.35-5.39,5.38-7.53,5.38-3.8,0,1.15.61,1.56,1.71,1.14,4.18-1.6,15.06-4.03,21.2-4.73,4.77-.54,8.03-1.71,11.29-4.02,2.77-1.97,6.52-3.47,9.5-3.79,18.37-1.98,26.45-3.45,29.22-5.33,2.16-1.47,4.14-1.88,6.71-1.41,2,.37,5.15.22,6.99-.34ZM392.47,194.09c-.53,1.41-5.69,2.58-24.55,5.57-9.21,1.46-12.83,2.53-14.83,4.39-2.04,1.89-5.53,2.88-15.2,4.33-6.9,1.03-14.18,2.15-16.18,2.49-3.24.55-3.63.34-3.65-2.02,0-1.45-.74-5.39-1.64-8.74-1.86-6.99-2.02-6.77,7.16-9.61,3.43-1.06,6.73-2.31,7.35-2.78,2.05-1.59,15.31-4.55,29.96-6.7,7.98-1.17,14.79-2.41,15.14-2.76.35-.35,3.63-.49,7.29-.31l6.66.33,1.49,7.26c.82,4,1.27,7.85,1,8.57Z"/>
  <path class="cls-1" d="M194.01,489.06c-1.54.85-3.7,1.56-4.82,1.57-1.11,0-1.7.54-1.31,1.17.88,1.42,8.58.16,9.74-1.59,2.07-3.12.72-3.55-3.62-1.14Z"/>
  <path class="cls-1" d="M39.46,456.27c-2.94-1.01-7.88-4.13-10.97-6.92-6.04-5.46-5.62-4.26-8.41-24.31-.34-2.47-.98-3.4-2.04-2.99-2.46.95-7.47-3.03-9.25-7.35-.9-2.18-2.33-4.75-3.18-5.7-.94-1.06-1.79-5.63-2.17-11.74-.08-1.24-.19-2.84-.33-4.68-.38,8.31-.69,16.62-.86,24.95-.02,1.15-.05,2.29-.07,3.44.74-.2,1.41-.46,1.83-.74,2.53-1.64,3.24-1.4,6.88,2.24,1.84,1.84,4.07,3.35,4.94,3.35,1.08,0,1.59,1.28,1.59,3.97,0,3.53-.46,4.16-4.19,5.73-2.29.96-7.4,2.26-11.39,2.89-.02,1.08-.05,2.15-.07,3.23,4.59-.45,6.95-1.23,10.29-2.98,3.07-1.61,5.72-2.77,5.88-2.57.16.19.58,2.24.93,4.54.58,3.76.39,4.19-1.8,4.22-3.27.03-11.94,4.03-11.94,5.51,0,.79-1.43,1.2-3.62,1.29-.04,1.27-.08,2.53-.12,3.8,3.48-.26,6.45-1.17,8.5-2.78,1.42-1.12,4.8-2.63,7.52-3.36,4.1-1.1,5.13-1.06,6.11.28.65.88,2.81,2.45,4.81,3.48,4.28,2.21,4.72,4.05.97,4.05-1.46,0-6,1.26-10.08,2.79-8.77,3.3-10.47,3.5-8.37.98,1.37-1.65,1.05-1.74-3.5-.98-2.01.34-4.42.9-6.18,1.43-.04.97-.08,1.95-.13,2.92,6.73,1.51,16.47.49,25.8-2.76,10.25-3.58,11.76-3.41,11.8,1.34.02,1.78-2.6,3.02-15.07,7.16-6.32,2.1-14.48,3.09-23.01,3.08-.07,1.06-.12,2.12-.2,3.18,5.52.14,10.93-.08,15.44-.74,15-2.18,19.26-3.56,22.72-7.39,2.09-2.31,3.17-4.5,2.81-5.7-.54-1.79-.17-1.77,4.61.28,2.86,1.22,5.91,2.23,6.78,2.23,1.15,0,1.58,1.46,1.55,5.31-.04,6.35-1.75,23.97-2.83,29.06-.66,3.1-.46,3.63,1.36,3.63s2.32-1.42,3.56-10.34c.79-5.69,1.72-14.67,2.08-19.97l.65-9.63-7.14-2.44c-3.93-1.35-9.55-3.27-12.49-4.29Z"/>
  <path class="cls-1" d="M402.51,412.56c-2.25,6.9-2.18,7.23.97,11.38.35.46.68.98,1,1.52-.73-4.28-1.38-8.58-1.97-12.9Z"/>
  <path class="cls-1" d="M320.12,225.32c1.42-.88,2.34-6.18,1.2-6.89-.51-.31-1.99,1.52-3.3,4.08-2.1,4.12-2.18,4.84-.71,6.32,2.08,2.08,4.82.81,3-1.39-.73-.88-.8-1.74-.19-2.12Z"/>
  <path class="cls-1" d="M44.43,151.16c-.2-6.63-2.4-8.15-2.43-1.68-.01,3.12-.3,3.76-1.1,2.51-.94-1.46-1.09-1.45-1.1.13-.03,3.51,2.26,13.74,3.22,14.34.53.34,1.34,5.77,1.78,12.07.45,6.3,1.26,11.17,1.81,10.83,1.34-.83,1.22-10.57-.24-19.48-1.48-9-1.72-11.34-1.94-18.72Z"/>
  <path class="cls-1" d="M67.81,295.56c.61-.37.34-1.67-.63-3.06-.93-1.33-1.69-3.78-1.69-5.45s-.5-3.35-1.12-3.73c-.67-.41-1.12,1.02-1.12,3.6,0,4.51,2.77,9.75,4.56,8.64Z"/>
  <path class="cls-1" d="M76.1,23.62c-5.5-3.7-5.46-3.64,2.29,3.91,4.33,4.22,13.02,13.2,19.31,19.97,7.41,7.96,10.74,10.94,9.46,8.46-3.96-7.63-21.51-25.9-31.05-32.33Z"/>
  <path class="cls-1" d="M69.77,344.27c.43-4.55-3.32-8.45-5.77-6-1.06,1.06-.89,7.35.24,9.14,1.82,2.87,5.13.98,5.53-3.14Z"/>
  <path class="cls-1" d="M36.26,25.71c1.21,0,4.3,1.76,6.88,3.91,2.58,2.15,5.04,3.91,5.47,3.91s4.28,3.32,8.56,7.37c4.27,4.06,9.58,8.3,11.79,9.44s6.57,4.86,9.7,8.27c3.12,3.42,5.97,6.21,6.32,6.21,2.95,0-6.26-10.71-14.35-16.7-3.13-2.31-7.34-5.76-9.37-7.66-3.6-3.38-16.41-12.52-17.54-12.52-.31,0-1.58-1.01-2.81-2.24-2.42-2.42-5.05-2.9-6.15-1.12-.38.61.3,1.12,1.5,1.12Z"/>
  <path class="cls-1" d="M25.68,22.19c-6.08,7.65-9.2,13.75-10.1,19.72-.37,2.46-1.61,6.05-2.76,7.96s-2.06,4.68-2.02,6.15l.07,2.66,1.2-2.79c1.12-2.6,1.3-2.33,2.67,3.91.81,3.69,1.5,10.42,1.52,14.97.05,8.65,2.61,15.93,6.98,19.89,1.99,1.8,2,1.72.33-2.53-.95-2.41-2.28-5.36-2.96-6.55-.67-1.19-1.48-6.47-1.78-11.74-.57-9.8.05-10.66,3.47-4.8.7,1.19,2.57,4.13,4.16,6.52,3.22,4.85,4.53,9.98,3.34,13.17-.64,1.71-1.14,1.18-2.67-2.83-1.04-2.72-1.89-5.49-1.89-6.16s-.79-1.88-1.75-2.67c-1.54-1.28-1.65-1.06-.96,1.82.43,1.8,2.24,6.43,4.02,10.29,3.41,7.39,6.13,8.43,4.9,1.87-.38-2.03-.22-3.99.35-4.34.58-.36.78-1.65.46-2.88-.95-3.62,1.73-2.56,3.54,1.4,3.46,7.59,6.87,12.72,8.18,12.29.75-.25,1.94.97,2.66,2.71,1.05,2.55,1.39,2.77,1.78,1.15.53-2.26,2.51-2.04,3.72.41,1.83,3.72,4.29,13.9,3.54,14.65-1.1,1.09-.32,17.7.83,17.7,1.56,0,2.32-5.27,1.63-11.42-.36-3.25-.82-7.42-1.02-9.26-.2-1.84-.72-4.74-1.15-6.43-.49-1.93-.34-3.07.41-3.07,1.65,0,5.48,4.27,7.1,7.93,1.17,2.65,1.51,2.82,2.64,1.28,1.16-1.59,1.61-1.54,4.52.5,4.73,3.31,6.17,3.58,10.35,1.88,2.07-.84,4.12-1.53,4.55-1.53s1.38,4.4,2.11,9.78c.73,5.38,1.65,10.99,2.05,12.47.76,2.8-.06,2.9-5.5.66-1.53-.63-1.81-.39-1.26,1.05.52,1.36,1.8,1.77,4.76,1.52,3.72-.31,4.04-.61,3.91-3.69-1.01-24.25-.81-28.11,1.59-30.51,3.9-3.9,6.93-10.99,6.93-16.21,0-3.89.8-5.92,3.93-9.93,4.43-5.69,7.89-7.7,14.84-8.65l4.79-.65-7.48-7.26c-4.26-4.14-6.46-5.78-5.12-3.81,1.3,1.9,3.13,4.1,4.08,4.89.95.79,1.73,1.96,1.73,2.61s-1.13.13-2.51-1.14c-1.38-1.28-3.37-2.49-4.43-2.71-1.05-.22-5.7-4.1-10.34-8.64-4.63-4.54-8.43-7.79-8.43-7.24,0,1.81,17.24,18.13,20.4,19.31,4.15,1.55,3.89,3.44-.48,3.44-3.04,0-5.12-1.63-14.53-11.44-6.04-6.29-10.98-11.77-10.98-12.16,0-.84-11.58-10.7-20.18-17.19-3.26-2.46-8.23-6.54-11.03-9.06-2.81-2.52-6.49-4.92-8.18-5.33-4.85-1.17-3.6-2.58,2.79-3.17,11.98-1.11,21.32.78,23.82,4.82.54.87,1.06.79,1.73-.27.71-1.12.96-1.15.98-.12,0,.77.8,1.4,1.75,1.4,1.88,0,15.91,13.71,23.97,23.45,7.33,8.84,12.61,14.33,11.32,11.76-.62-1.23-2.41-3.6-3.99-5.26-1.57-1.66-2.86-3.32-2.86-3.68,0-.96-4.57-7.25-8.1-11.15-1.69-1.86-3.07-3.74-3.07-4.18-.01-1.54-12.93-13.34-17.78-16.24-4.96-2.96-16.18-7.13-18.44-6.84-.67.08-2.48.36-4.02.61-1.54.25-7.48,2.75-13.2,5.55-8.7,4.25-11.23,6.13-15.43,11.4ZM30.49,23.71c4.98-8.02,8.6-9.63,14.91-6.62,7.24,3.46,29.11,21.26,36.79,29.94,11.48,12.99,11.72,13.23,10.88,10.8-1.54-4.41.68-1.53,3.18,4.13,1.48,3.35,4.22,7.21,6.09,8.59,3.84,2.84,4.22,4.49,1.56,6.7-1.58,1.31-2.01,1.23-3.07-.61-3.77-6.51-6.71-8.56-12.41-8.65-3.07-.05-8.85-1.27-12.84-2.71-3.99-1.44-7.66-2.21-8.17-1.7-1.19,1.19,10.21,5.3,18.77,6.77,5.28.9,7.38,1.89,9.89,4.65,2.65,2.92,3.05,4.09,2.37,7-.45,1.92-1.14,6.05-1.55,9.17-.53,4.06-1.82,7.05-4.54,10.48-4.19,5.29-11.75,11.22-14.3,11.22-2.34,0-10.29-4.42-14.23-7.91-1.84-1.63-7.01-5.08-11.48-7.65-9.62-5.54-14.37-11.63-13.8-17.68.07-.78,1.62-1.4,3.48-1.4,2.27,0,3.35-.56,3.35-1.71,0-2.9-3.34-3.19-6.84-.6-3.39,2.5-6.62,2.74-7.35.53-.22-.67,1.15-1.68,3.06-2.24,1.91-.56,3.31-1.51,3.11-2.13-.4-1.23-1.44-1.26-4.95-.15-2,.64-2.86-.22-5.81-5.75-4.14-7.77-4.81-14.11-1.95-18.47,4.08-6.22,9.59-6.92,15.26-1.92,5.9,5.2,8,3.98,2.39-1.38-3.22-3.08-12.12-5.82-13.2-4.07-.34.55-1.33,1-2.2,1-1.22,0-1.34-.63-.52-2.78.58-1.53.83-3.42.54-4.19-.28-.77-.05-2.14.52-3.04.9-1.42,1.58-1.38,5.16.33,2.26,1.08,4.39,1.69,4.73,1.34.34-.34-1.48-1.44-4.05-2.45-5.24-2.06-5.44-2.56-2.79-6.84Z"/>
  <path class="cls-1" d="M35.82,421.35c-.47-1.54-1.23-5.81-1.7-9.5-.98-7.77-2.73-14.94-3.91-16.01-.45-.41-.46,1.01-.02,3.16.44,2.15,1.51,8.15,2.37,13.33.87,5.18,2.14,9.96,2.84,10.62.93.88,1.04.46.41-1.6Z"/>
  <path class="cls-1" d="M37.53,432.31c0-3.5-.49-6.67-1.1-7.05-.69-.42-1.11,1.38-1.1,4.68.01,2.96.51,6.13,1.1,7.05.77,1.19,1.09-.17,1.1-4.68Z"/>
  <path class="cls-1" d="M78.9,220.47c0-1.13-.62-1.4-1.96-.85-2.93,1.2-27.56,6.06-28.08,5.54-.25-.25.3-1.99,1.21-3.88,1.45-2.99,1.84-3.21,3.09-1.71.78.95,1.87,1.72,2.41,1.72,2.08,0,.81-2.5-3.08-6.07-2.23-2.05-3.74-4.24-3.35-4.87.39-.63.35-2.08-.1-3.21-.61-1.56-.99-.99-1.57,2.41-.42,2.46-.31,4.95.24,5.53,1.74,1.82,1.12,3.97-1.94,6.82-3.83,3.55-5.98,3.51-5.98-.12,0-1.57-.48-2.56-1.07-2.2s-.81,1.35-.48,2.19c.8,2.08-1.68,3.44-3.3,1.81-.99-1-.83-1.58.66-2.42,2.85-1.61,2.39-3.23-.92-3.23-2.15,0-2.77-.5-2.47-1.96.22-1.08,1.27-1.89,2.32-1.8,1.05.08,1.91-.51,1.91-1.33s.48-1.78,1.06-2.14c.58-.36.87.34.63,1.56-.49,2.52,3.75,8.54,5.02,7.15.65-.7,2.38-17.25,1.79-17.09-.07.02-1.04.72-2.14,1.56-1.39,1.05-1.59,1.67-.64,1.99.78.26,1.07,1.27.66,2.33-.54,1.41-1.55,1.7-4.11,1.19-2.17-.43-3.4-.23-3.4.58,0,.69-1.01,1.26-2.24,1.26-2.47,0-3.03-1.73-.84-2.61,1.01-.41,1.03-.59.06-.65-.73-.05-2.07.97-2.97,2.25-1.17,1.67-2.31,2.13-3.98,1.6-2.64-.84-3.25,1.06-.66,2.05,2.7,1.04,1.93,2.71-1.6,3.49-3.79.83-7.09,3.93-4.19,3.93s9.7-4.55,9.78-6.54c.14-3.33,1.99,2.28,2.08,6.29.05,2.17.76,3.93,1.75,4.31,1.89.72,1.11,2.83-.92,2.47-.72-.13-3.3.35-5.72,1.06-5.58,1.63-6.53.86-1.59-1.3,3.51-1.53,3.58-1.65.94-1.73-1.55-.05-3.85.63-5.11,1.51-1.25.88-4.26,1.76-6.67,1.96-2.46.2-4.15.85-3.84,1.48.82,1.63,13.39.77,26.14-1.78,6.08-1.22,11.86-2.1,12.85-1.96,7.44,1.05,30.3-3.91,30.3-6.58Z"/>
  <path class="cls-1" d="M81.77,52.26c.72-.72-12.54-13.12-23.56-22.06l-8.93-7.24,5.64,6.24c6.26,6.93,26.02,23.89,26.85,23.06Z"/>
  <path class="cls-1" d="M123.8,76.86c.75.75,2.28,1.37,3.4,1.37s2.99.6,4.16,1.33c1.69,1.05,2.8,1,5.29-.23l3.16-1.57-5.03-.62-5.03-.62,3.35-1.86c2.93-1.62,3.1-1.96,1.32-2.65-1.12-.44-2.6-.22-3.3.47s-1.79,1.26-2.44,1.25c-.64-.01-.42-.51.5-1.1,1.49-.96,1.49-1.08,0-1.08-.92,0-2.82.89-4.22,1.96-2.01,1.55-2.26,2.25-1.17,3.33Z"/>
  <path class="cls-1" d="M138.83,83.67c-3.43,3.78-5.4,16.58-3.37,21.86,1.48,3.85,2.42,1.34,2.89-7.7.35-6.76,1.03-10.06,2.38-11.54,2-2.21,2.5-4.69.93-4.69-.52,0-1.79.94-2.83,2.08Z"/>
  <path class="cls-1" d="M49.1,62.36c1.94-2.28,4.94-4.66,6.67-5.31,1.73-.64,2.83-1.67,2.45-2.29-.74-1.19-2.42-1.32-4.82-.36-2.25.9-6.42,5.09-7.96,8-2.31,4.37-.09,4.35,3.66-.04Z"/>
  <path class="cls-1" d="M55.27,50.27c2.47-.03-7.86-9.1-14.37-12.62-6-3.24-10.8-4.51-11.68-3.1-.35.57,1,1.38,3,1.82,5.43,1.17,9.73,3.64,15.78,9.06,2.99,2.68,6.26,4.86,7.26,4.84Z"/>
  <path class="cls-1" d="M63.41,100.59c.7,0,1.93.88,2.73,1.96,1.38,1.86,1.55,1.86,3.48-.06,1.87-1.86,1.88-1.96.07-1.28-1.11.42-1.96.22-1.96-.46,0-1.36,3.88-3.72,4.73-2.88.31.31,1.39-.72,2.41-2.27,1.02-1.56,1.72-2.79,1.55-2.73-.17.05-1.81.55-3.66,1.09-6.93,2.06-13.37,6.63-9.34,6.63Z"/>
  <path class="cls-1" d="M61.38,60.43c-1.12.04-3.16.62-4.53,1.28-4.22,2.03-4.7,7.59-.66,7.59,1.42,0,1.49-.31.37-1.66-1.48-1.78-.85-2.27,3.89-3.03,2.9-.47,3.75-4.27.93-4.17Z"/>
  <path class="cls-1" d="M41.14,469c-.66-.41-1.43-.36-1.71.11-.28.47-.87,5.89-1.31,12.03s-1.19,13.56-1.64,16.49c-.72,4.61-.58,5.31,1.11,5.31,2.49,0,3.07-2.82,4.01-19.67.51-9.23.37-13.76-.45-14.27Z"/>
  <path class="cls-1" d="M54.54,90.53c-3.74,0-5.29-1.43-6.41-5.88-.74-2.97-2.76-5.37-2.76-3.29,0,1.8,3.28,7.65,5.3,9.46,2.57,2.3,6.07,2.88,6.69,1.12.32-.91-.66-1.4-2.82-1.4Z"/>
  <path class="cls-1" d="M62.04,134.12c-.5-1.75-.85.64-.92,6.4-.13,10.35,3.23,28.5,4.39,23.77.53-2.14,1.14-.72,2.68,6.16,1.1,4.92,2.48,9.7,3.07,10.62.75,1.17.85.67.35-1.65-.39-1.83-1.22-6.07-1.84-9.42-.62-3.35-2.29-8.39-3.72-11.2-2.93-5.78-4.79-14.16-2.88-12.98.65.4,1.19,1.79,1.19,3.09s.24,2.11.53,1.82c.88-.88,1.42-29.24.61-32.25l-.75-2.79-.83,2.5c-.46,1.38-.52,3.01-.14,3.62.38.61.32,4.26-.13,8.11-.64,5.49-.99,6.4-1.62,4.21Z"/>
  <path class="cls-1" d="M60.37,209.37c3.87,1.49,3.98-4.98.13-7.51-3.56-2.34-3.95-2.28-3.95.57,0,1.92.3,2.12,1.58,1.06,2.13-1.76,3.36.32,1.85,3.14-.86,1.61-.76,2.3.4,2.74Z"/>
  <path class="cls-1" d="M50.92,131.88c.58,3.8.98,4.54,1.66,3.02.49-1.11.26-5.11-.52-8.94-1.68-8.22-4.07-11.81-2.76-4.14.47,2.77,1.2,7.29,1.63,10.06Z"/>
  <path class="cls-1" d="M68.17,217.14c2.68-2.13,3.11-3.27,3.08-8.04-.05-5.95-2.63-11.27-5.47-11.27-1.29,0-1.39.36-.43,1.51.69.83,1.77,4.22,2.41,7.54,1.11,5.78,1.03,6.14-1.74,8.55-1.59,1.38-4.12,2.51-5.63,2.51s-2.73.47-2.73,1.05c0,3.06,5.56,2.08,10.51-1.86Z"/>
  <path class="cls-1" d="M56.68,139.4c-.93-.93-1.29-.11-1.37,3.16-.31,11.46.51,21.9,2.32,29.56,1.09,4.61,2.63,11.28,3.42,14.82,2.46,10.99,2.53,6.13.12-8.87-1.26-7.88-2.51-19.52-2.77-25.87-.26-6.4-1.03-12.1-1.73-12.8Z"/>
  <path class="cls-1" d="M46.56,128.72c-.74-6.4-1.47-8.55-3.3-9.84-1.3-.91-2.35-2.34-2.35-3.2s-.5-1.85-1.1-2.23c-.69-.42-.84.7-.4,3.01.38,2.03,1.16,4.59,1.72,5.69,1.54,3.01,4.29,18.4,3.6,20.18-.33.86.18,1.86,1.14,2.23,2.05.78,2.2-2.8.69-15.84Z"/>
  <path class="cls-1" d="M17.43,477.44c-.92.08-7.96.57-15.65,1.1-.52.04-1.05.07-1.59.11-.06.85-.12,1.7-.19,2.55,8.28-.51,15.12-1.57,17.27-2.83,1.48-.86,1.51-1.04.16-.93Z"/>
  <path class="cls-1" d="M81.06,179.38l-.51-5.59c-.83-9.09-2.15-15.35-3.05-14.44-1.18,1.19-1.05,7.63.18,8.91.56.58,1.55,3.33,2.2,6.09l1.18,5.03Z"/>
  <path class="cls-1" d="M144.15,98.46c1.45-1.2,2.14-1.22,3.48-.11,2.28,1.89,2.11,3.35-.39,3.35-1.13,0-3.02,1.05-4.18,2.34-2.09,2.31-2.08,2.37.82,4.87,1.77,1.52,5.19,2.83,8.61,3.28,3.12.41,5.97,1.24,6.34,1.84.92,1.49,6.13,1.37,6.13-.14,0-.67-.94-1.47-2.1-1.77-4.3-1.12-5.5-7.43-3.25-17.16.36-1.56-1.68-2.63-2.83-1.48-1.32,1.32-.85,14.4.57,15.82.74.74.86,1.33.28,1.32-2.29-.04-3.68-1.86-4.92-6.47-2.13-7.94-8.83-12.23-9.95-6.39-.37,1.9-.18,1.99,1.38.69Z"/>
  <path class="cls-1" d="M16.31,235.85c3.49-2.73,1.7-2.92-2.98-.31-1.65.92-3.3,2.24-4.76,3.72.07,1.36.12,2.73.17,4.1.79-1.03,1.96-2.34,3.66-4.13.61-.65,2.38-2.17,3.91-3.37Z"/>
  <path class="cls-1" d="M18.62,321.88c1.37,0,.3-9.07-1.18-10.06-.46-.31-.79-4.15-.75-8.55.05-4.79-.46-8.65-1.29-9.64-.75-.91-1.49-4.41-1.63-7.79-.17-4.15-.68-5.97-1.57-5.64-.72.27-1.86-.53-2.53-1.78-.15-.28-.37-.55-.62-.8-.04,2.1-.08,4.2-.14,6.31,1.47,3.63,2.64,9.23,4.03,17.89,2.56,16.03,3.7,20.06,5.68,20.06Z"/>
  <path class="cls-1" d="M15.18,407.01c3.91-.37,6.7-2.82,5.07-4.45-.32-.32-.59,0-.59.72,0,.82-2.08,1.3-5.59,1.3-3.07,0-5.59.46-5.59,1.02,0,1.49,1.81,1.87,6.7,1.4Z"/>
  <path class="cls-1" d="M13.11,221.76c-1.53.94-.18,5.12,1.65,5.12,1.98,0,1.35-9.19-.67-9.87-.92-.31-1.13.29-.65,1.82.4,1.25.24,2.57-.34,2.93Z"/>
  <path class="cls-1" d="M37.51,96.05c.02-2.19-.7-4.95-1.6-6.15-1.54-2.04-1.64-1.93-1.68,1.81-.02,2.19.7,4.95,1.6,6.15,1.54,2.04,1.64,1.93,1.68-1.81Z"/>
  <path class="cls-1" d="M30.55,97.23c-.59,0-.71.88-.28,1.96.43,1.08,1.04,4.72,1.35,8.1.71,7.68,2.48,11.36,2.53,5.24.02-2.37.5-3.97,1.09-3.61.63.39.79-1.05.41-3.57-.64-4.22-3.1-8.13-5.1-8.13Z"/>
</svg>