<?xml version="1.0" encoding="UTF-8"?>
<svg id="Warstwa_1" data-name="Warstwa 1" xmlns="http://www.w3.org/2000/svg" viewBox="0 0 370.72 497.8">
  <defs>
    <style>
      .cls-1 {
        fill: #010101;
      }
    </style>
  </defs>
  <path class="cls-1" d="M287.92,198.81c.57-.62,1.63-12.76,1.11-12.76-.15,0-.44,1.89-.65,4.2-.21,2.31-.52,5.32-.7,6.69-.2,1.54-.11,2.25.25,1.87Z"/>
  <path class="cls-1" d="M298.05,199.01c2.62-1.96,2.93-2.12,6.32-3.42,1.63-.62,3.11-1.61,3.3-2.19.19-.58,1.65-2.16,3.26-3.52,6.08-5.11,11.95-11.14,11.95-12.29,0-.65.49-1.91,1.09-2.8.6-.89,2-2.98,3.13-4.66,3.07-4.59,4.68-10.61,4.88-18.29.1-3.58-.11-7.64-.46-9.02-.35-1.38-.91-4.04-1.25-5.91-.63-3.51-2.65-8.74-3.38-8.74-.23,0-.21.77.03,1.71,1.28,4.97,2.35,12.4,2.61,18.27.25,5.51.08,7.36-1.03,11.2-1.88,6.49-2.72,8.52-5.25,12.73-1.23,2.03-2.23,4.01-2.23,4.39,0,.38-2.58,3.32-5.72,6.53l-5.72,5.84-.4-1.87-.4-1.87-.5,1.87c-1.24,4.63-5.36,9.33-4.81,5.5.1-.68-.1-1.91-.43-2.74-.51-1.28-.61-1.04-.64,1.63-.04,3.31-.8,4.64-2.65,4.64-1.38,0-3.61,2.14-3.61,3.46,0,.79.38.7,1.93-.47Z"/>
  <path class="cls-1" d="M280.61,230.58c-2.2,1.52-4.37,2.77-4.82,2.77s-.82.28-.82.62c0,.93.92.76,4.02-.74,1.55-.75,2.97-1.84,3.15-2.43.18-.58,1.04-1.24,1.9-1.45.86-.22,1.73-.87,1.94-1.46.63-1.77,4.69-8.23,5.18-8.23.25,0,1.59-1.96,2.97-4.36,3.37-5.82,1.76-5.77-1.82.05-1.49,2.43-3.84,6.22-5.2,8.43-1.83,2.96-3.55,4.76-6.49,6.79Z"/>
  <path class="cls-1" d="M288.65,203.42c0,1.07,3.15-.88,3.48-2.15.18-.7.24-2.8.14-4.67-.15-2.63-.29-3.04-.65-1.83-.25.86-.46,2.31-.47,3.24,0,1.93-1.2,4.85-1.98,4.85-.29,0-.52.25-.52.56Z"/>
  <path class="cls-1" d="M322.16,122.59c-.44,0-.52.98-.23,2.9.24,1.59.75,3.62,1.13,4.51l.7,1.61.24-2.18c.28-2.56-.87-6.84-1.83-6.84Z"/>
  <path class="cls-1" d="M322.31,132.89c-.22-.14-.39,3.76-.38,8.66.02,11.14.7,11.3,1.97.47.36-3.04-.6-8.52-1.59-9.13Z"/>
  <path class="cls-1" d="M322.23,163.84c.26-1.1.95-3,1.53-4.22.58-1.23.95-2.85.82-3.61-.23-1.33-.26-1.33-.73-.13-.27.68-.88,2.13-1.35,3.21-.48,1.08-.84,3.04-.8,4.36l.06,2.4.47-1.99Z"/>
  <path class="cls-1" d="M255.43,186.12c-.15.48-.58,1.82-.95,2.98-.82,2.57-.87,3.99-.12,3.52.71-.44,2.19-6.52,1.7-7.01-.2-.2-.49.02-.64.5Z"/>
  <path class="cls-1" d="M197.15,94.27c1.64,1.92,3.85,6.03,3.46,6.42-.19.19-1.72.28-3.38.19-3.31-.18-4.83.86-2.08,1.41,2.76.56,9.74.69,10.53.2.4-.25,2.31-2.56,4.25-5.13,1.94-2.57,4.13-5.07,4.87-5.55.74-.48,6.53-2.59,12.86-4.7l11.51-3.83,6.22.41c3.42.22,8.53.51,11.34.64,5.57.25,7.64.98,7.64,2.68,0,.6.26,1.36.57,1.69.31.32.66,1.27.78,2.1.11.83.56,1.62.99,1.76,2.05.68.07-9.47-2.1-10.74-.58-.34-1.58-1.11-2.2-1.71-1.09-1.04-1.14-1.03-1.14.16,0,.68-.14,1.24-.32,1.24-.56,0-3.04-1.51-4.86-2.96-.97-.77-2.28-1.4-2.92-1.4-1.89,0-2.02-1.14-.15-1.36,2.8-.32,1.78-1.37-2.43-2.49-5.34-1.42-9.27-1.33-14.92.34-2.62.78-6.36,2.37-8.31,3.54-5.17,3.11-17.07,14.46-19.16,18.26-.95,1.74-2.4,3.83-3.21,4.64l-1.47,1.48-1.53-2.41c-.84-1.33-2.86-4.72-4.48-7.55-3.06-5.33-4.54-7.07-3.78-4.43.73,2.51,2.3,5.77,3.41,7.08ZM224.33,83.25c1.93-1.47,4.17-3.18,4.98-3.81.81-.63,1.82-1.2,2.25-1.27.42-.07,1.33-.43,2.02-.81.68-.37,2.41-.87,3.84-1.11,1.43-.24,2.75-.83,2.94-1.32.46-1.2,3.74-1.13,7.2.17,1.55.58,4.22,2.21,5.93,3.61,1.71,1.41,3.81,2.86,4.67,3.24,1.4.61,1.44.72.42,1.14-1.14.46-3.37-.07-9.73-2.32-3.38-1.2-3.42-1.2-10.22.14-3.76.74-7.41,1.7-8.12,2.15-.71.44-2.76,1.28-4.55,1.86-1.79.58-3.42,1.31-3.61,1.63-.2.32-.62.57-.94.57-1.39,0-.34-1.39,2.92-3.87Z"/>
  <path class="cls-1" d="M262,77.78c2.44,0,10.82,3.25,13.67,5.29,3.53,2.54,3.64,2.57,3.21.95-.43-1.66-5.58-4.99-7.72-4.99-.95,0-1.89-.26-2.08-.58-.2-.32-1.96-1.18-3.93-1.91-1.96-.73-4.06-1.77-4.66-2.31-1.01-.91-1.09-.87-1.09.55,0,1.8,1.05,3.02,2.59,3.02Z"/>
  <path class="cls-1" d="M222.22,75.52c3.95-3.71,6.57-5.33,10.89-6.73,1.79-.58,3.42-1.32,3.61-1.63.55-.89-.96-.59-4.7.93-4.65,1.89-7.9,4.03-11.02,7.25-3.66,3.78-2.75,3.92,1.22.19Z"/>
  <path class="cls-1" d="M319.14,118.58c0,.7.42,1.82.92,2.49.85,1.13.91,1.05.93-1.2.01-1.35-.57-3.46-1.34-4.82-1.27-2.26-2.37-3.13-2.37-1.87,0,.3.42,1.35.93,2.33.51.98.93,2.36.93,3.06Z"/>
  <path class="cls-1" d="M255.77,110.77c-.8-.68-2.54-1.53-3.86-1.88-1.32-.36-2.55-.89-2.74-1.19-.49-.8,1.18-1.27,2.2-.62,1.23.78,2.59.71,2.08-.11-.23-.38-2.11-1.78-4.18-3.11-3.76-2.43-6.87-3.11-7.56-1.65-.2.43-.27.02-.14-.9.23-1.75-.76-2.59-2.34-1.99-.48.19-.97-.03-1.09-.49-.12-.48-.85-.74-1.77-.61-3.23.43-2.97,2.54.31,2.59.68.01,1.66.29,2.18.63.83.55.83.69,0,1.28-.72.51-.57.56.62.22,1.39-.39,1.46-.33.7.58-.75.9-.66,1.02.75,1.02.88,0,1.75.25,1.94.55.19.3,1.34.74,2.56.97,1.22.23,2.37.81,2.56,1.3.31.82,5.15,3.4,8,4.27,1.1.33,1.07.23-.21-.86Z"/>
  <path class="cls-1" d="M271.71,159.61c.93-.94,2.21-10.93,1.5-11.64-.38-.38-.74.28-.99,1.79-.85,5.04-1.13,10.48-.51,9.85Z"/>
  <path class="cls-1" d="M285.54,206.59c-.34,0-.62.87-.62,1.93,0,1.29-.49,2.32-1.46,3.09-.81.63-3.78,4.22-6.62,7.97-4.02,5.31-5.72,7.06-7.71,7.93-3.92,1.7-5.98,3.32-5.98,4.68,0,1.16.12,1.14,2.06-.33,1.13-.86,3.38-2.15,4.99-2.87,1.99-.88,3.44-2.1,4.5-3.78.86-1.36,2.48-3.52,3.61-4.79,1.12-1.27,2.97-3.62,4.1-5.23,1.13-1.61,2.44-3.07,2.91-3.25.99-.38,1.21-5.34.23-5.34Z"/>
  <path class="cls-1" d="M283.95,87.76c1.04,1.53,1.94,2.34,2.1,1.89.29-.86-4.13-7.61-5.21-7.95-.36-.12-.85-.02-1.08.21-.23.23.21,1.04.97,1.79.76.76,2.21,2.58,3.22,4.06Z"/>
  <path class="cls-1" d="M266.18,202.51c.96-1.02,3.89-10.29,3.6-11.38-.16-.61-.3-.69-.35-.2-.04.46-.59,1.58-1.22,2.49-1.7,2.44-3.55,10.71-2.03,9.09Z"/>
  <path class="cls-1" d="M274.45,209.4c.23.23.92-.16,1.54-.88.61-.72,1.58-1.3,2.15-1.3s1.38-.42,1.8-.93c1.48-1.78-1.71-1.05-3.88.88-1.12,1-1.84,2.01-1.61,2.24Z"/>
  <path class="cls-1" d="M277.6,198.28c1.27-.44,2.51-.99,2.74-1.22.87-.87,2.09-.39,2.09.82,0,.68.28,1.24.62,1.24s.62-.92.62-2.05.33-2.38.74-2.79c1.29-1.29.25-1.34-1.99-.1-1.19.66-3.54,1.77-5.22,2.47-3.59,1.5-3.24,2.89.41,1.63Z"/>
  <path class="cls-1" d="M335.4,275.06c-.45,1.3-.46,2.41-.02,3.56.37.96.49,4.05.28,7.29-.35,5.59-.35,5.61.62,3.13,1.26-3.22,1.72-8.97.82-10.06-.42-.51-.54-1.82-.3-3.32.47-2.93-.45-3.32-1.4-.6Z"/>
  <path class="cls-1" d="M327.72,292.31c-2.06,2.37-7.33,10.16-7.33,10.84,0,1.14,3.01-1.94,5.58-5.71,3.05-4.47,4.25-8,1.75-5.13Z"/>
  <path class="cls-1" d="M332.96,307.19c-.42,1.43-1.07,2.7-1.44,2.82-.81.27-1.27,6.1-.48,6.1.3,0,.55-1.1.55-2.45,0-1.77.36-2.7,1.29-3.35,1-.7,1.24-1.43,1.07-3.3l-.21-2.4-.77,2.6Z"/>
  <path class="cls-1" d="M335.54,343.8c.56.56,1.02,1.4,1.02,1.86,0,1,3.13,4.86,3.58,4.41.17-.17-.6-1.91-1.7-3.87l-2.01-3.56.73-4.71c2.36-15.27,2.69-18.71,1.78-18.71-.37,0-1.02-.47-1.44-1.04-.62-.85-.84,0-1.21,4.82-.25,3.22-.7,7.18-1,8.78-1,5.32-.88,10.88.25,12.01Z"/>
  <path class="cls-1" d="M326.98,306.32c-.65,1.98-1.02,3.75-.82,3.95.69.69,2.38-3.6,2.19-5.56-.18-1.83-.28-1.71-1.37,1.61Z"/>
  <path class="cls-1" d="M299.12,207.98c.91-1.11,1.98-2.02,2.37-2.02.39,0,.89-.45,1.1-1.02.5-1.3.17-1.65-.71-.76-.38.38-1.33,1.01-2.12,1.4-1.46.73-3.23,3.49-2.63,4.09.18.18,1.08-.58,1.99-1.7Z"/>
  <path class="cls-1" d="M299.65,227.01c2.47-.93,4.39-4.68,4.88-9.53.56-5.66,1.35-7.71,2.82-7.33,1.73.45,1.51-.56-.58-2.56l-1.79-1.72-1.01,5.49c-.55,3.02-1.01,6.41-1.01,7.54,0,2.7-1.4,5.31-3.76,6.99-2.3,1.64-2.13,2.08.45,1.11Z"/>
  <path class="cls-1" d="M345.29,326.37c1.02-.63-2.23-35.68-3.8-41.06-.4-1.37-.78-6.41-.85-11.2-.1-7.03.08-9.19.94-11.2.59-1.37,1.41-4.79,1.83-7.61.68-4.52.64-5.61-.34-9.33-1.99-7.57-4.21-11.65-9.09-16.67-4.11-4.24-6.28-5.87-5.13-3.88,1.07,1.87,5,7.08,5.97,7.93,2.89,2.53,7.07,15.3,6.56,20.05-.16,1.46-.93,5.14-1.71,8.17-1.07,4.12-1.24,5.62-.69,5.96.55.34.57.91.07,2.2-.5,1.3-.41,3.52.34,8.72,1.07,7.42.87,9.26-1.82,16.18-.53,1.37-.98,3.69-.99,5.16-.02,2.18.17,2.64,1.03,2.49.7-.12,1.27.44,1.69,1.68.86,2.56.98,2.64,1.92,1.36.78-1.07.85-1.05,1.31.31.26.79.51,3.82.54,6.73.04,2.98.41,5.91.85,6.7.43.78.63,1.67.43,1.98-.5.81.35,5.66.93,5.31ZM340.76,303.51c-.52-.17-.81-1.81-.88-4.87-.1-4.36-.05-4.51.75-2.75.47,1.03.86,3.22.88,4.87.02,2.14-.2,2.93-.75,2.75Z"/>
  <path class="cls-1" d="M349.78,262.89l1.21-3.09c1.81-4.61,1.73-10.93-.19-15.26-1.34-3.01-4.52-9.13-6.52-12.53-1.13-1.92-2.89-3.65-3.72-3.65-.43,0-.88-.22-.99-.49-.23-.55-4.48-3.24-5.12-3.24-.23,0-.11.58.27,1.28.38.7,1.07,1.43,1.54,1.61,1.73.66,8.54,9.69,11.08,14.68l2.61,5.15-.08,7.77-.08,7.77Z"/>
  <path class="cls-1" d="M226.89,385.08c1.12,1.49,3.04,4.85,4.27,7.47,2.19,4.66,8.16,21.5,10.78,30.41.73,2.47,1.59,4.65,1.92,4.86.81.5.79.33-.68-5.84-2.05-8.59-6.57-21.45-9.89-28.13-2.6-5.24-8.11-14.47-12.93-21.64-2.15-3.2-3.9-6.06-3.9-6.35s-1-2.65-2.23-5.23c-2.34-4.94-3.92-6.39-2.47-2.27.47,1.33,1.72,4.16,2.77,6.29,1.06,2.13,1.92,4.17,1.92,4.53s1.55,2.71,3.43,5.22c1.89,2.51,3.78,5.33,4.19,6.28.42.94,1.68,2.93,2.8,4.42Z"/>
  <path class="cls-1" d="M318.01,212.51c.18.18,2.01.98,4.08,1.79,2.07.81,5.26,2.6,7.09,3.97,1.84,1.38,5.3,3.54,7.69,4.81,2.4,1.27,5.83,3.28,7.64,4.46,1.81,1.18,3.6,2.05,3.98,1.92,1.1-.37-3.93-4.02-10.22-7.43-3.17-1.72-6.88-4.03-8.25-5.13-3.37-2.71-7.73-4.72-10.26-4.72-1.15,0-1.94.14-1.77.32Z"/>
  <path class="cls-1" d="M347.15,283.99c1.11-1.13,1.36-12.86.42-20.24-1.04-8.22-2.25-11.61-2.28-6.42,0,1.72.3,5.5.68,8.4.38,2.9.68,8.32.67,12.04-.02,3.84.2,6.53.51,6.22Z"/>
  <path class="cls-1" d="M306.7,106.25c0,.34.56,1.33,1.24,2.2.68.87,1.24,2.2,1.24,2.96,0,1.12.16,1.24.89.64.76-.63.71-1.03-.34-2.83-1.35-2.3-3.03-3.94-3.03-2.97Z"/>
  <path class="cls-1" d="M312.29,173.3c-.78,2.05-.82,9.02-.05,9.02.31,0,.73-1.12.93-2.49s.53-3.58.72-4.91c.42-2.89-.69-4.01-1.6-1.62Z"/>
  <path class="cls-1" d="M320.47,109.06c.53-.53,0-1.79-2.1-4.96-3.09-4.69-4.52-6.17-5.09-5.25-.2.33,1.17,2.63,3.06,5.12,1.88,2.49,3.42,4.81,3.42,5.16,0,.4.27.37.71-.07Z"/>
  <path class="cls-1" d="M312.98,106.25c-4.27-5.23-8.77-9.72-8.77-8.75,0,1.51,10.6,13.89,11.88,13.89.97,0,.66-.52-3.11-5.14Z"/>
  <path class="cls-1" d="M347.53,213.88c.53-.53-4.46-2.93-6.08-2.93-.83,0-1.15.22-.8.54.94.86,6.49,2.79,6.89,2.39Z"/>
  <path class="cls-1" d="M319.98,204.72c-1.15,0-4.93-2.22-6.57-3.87-.61-.61-1.73-1.11-2.48-1.11-1.24,0-1.15.23.99,2.42,1.3,1.33,3.67,3.07,5.26,3.86,1.59.79,3.36,1.82,3.92,2.28.73.6,1.15.65,1.45.16.58-.95-1.34-3.75-2.58-3.75Z"/>
  <path class="cls-1" d="M343.29,274.75c-.2.33-.17,2.42.05,4.64l.41,4.04.42-2.85c.42-2.84-.21-6.97-.89-5.83Z"/>
  <path class="cls-1" d="M336.75,211.51l1.23-1.32-1.8.39c-.99.21-3.99-.04-6.68-.55-5.75-1.11-6.01-1.12-6.01-.34,0,1.05,2.07,1.76,7.12,2.47,4.66.65,4.97.62,6.14-.64Z"/>
  <path class="cls-1" d="M301.06,235.84c.36,0,.66-.55.66-1.23,0-1.14.41-1.22,5.44-1.16,4.37.06,5.88-.17,7.62-1.15,3.06-1.73,4.58-4.63,4.63-8.84l.04-3.48,2.18.21c1.2.12,3.09.9,4.2,1.74,1.11.84,2.02,1.34,2.02,1.09,0-1.16-3.26-4.5-4.76-4.88-.93-.23-2.82-.97-4.19-1.63-1.37-.66-2.71-1.2-2.97-1.2s-.07,1.16.43,2.57c.5,1.41.91,4.05.91,5.86,0,2.63-.32,3.68-1.59,5.19-1.78,2.11-3.3,2.52-10.23,2.73l-4.67.14-.19,2.02c-.11,1.14.09,2.02.47,2.02Z"/>
  <path class="cls-1" d="M306.09,199.7c-.86,1.6-1.04,1.23,2.5,5.05,1.73,1.86,3.68,4.42,4.35,5.68.66,1.26,1.51,2.48,1.88,2.71,1.38.85,1.25-.29-.3-2.75-.88-1.39-1.6-2.78-1.6-3.08s-.87-1.64-1.94-2.97c-1.07-1.33-2.21-3.19-2.55-4.13-.72-2.01-1.44-2.17-2.33-.51Z"/>
  <path class="cls-1" d="M219.9,95.87c.71,2.23,2.17.91,2.17-1.95,0-.94-.43-1.19-2.02-1.15-1.11.02-2.72.36-3.58.75-1.53.7-1.51.72.75.93,1.61.15,2.42.58,2.69,1.43Z"/>
  <path class="cls-1" d="M170.91,262.27l-.25-1.85-.8,1.87c-1.06,2.46-1.68,9.02-.85,9.02s2.22-6.66,1.9-9.04Z"/>
  <path class="cls-1" d="M166.7,408.2c.25.96.59-.94.88-4.98.26-3.59.86-9.19,1.34-12.45,2.48-16.99,3.3-22.25,3.7-23.8.42-1.66.11-2.28-.59-1.16-.73,1.18-2.16,9.48-3.13,18.11-.56,4.96-1.28,10.14-1.6,11.51-.77,3.23-1.12,10.76-.59,12.76Z"/>
  <path class="cls-1" d="M164.2,157.36c0,.67,4.83,1.94,7.36,1.94,1,0,2.14-.38,2.53-.84.57-.69,0-.92-3.13-1.24-5.16-.54-6.76-.5-6.76.15Z"/>
  <path class="cls-1" d="M151.08,266.69c.65-.59,1.36-1.75,1.57-2.59.21-.83.65-1.51.99-1.51s.61-.57.61-1.27c0-1.43,1.3-3.68,3.9-6.73.98-1.15,1.62-2.25,1.42-2.44-1.06-1.06-8.08,8.18-9.15,12.04-.71,2.57-1.62,2.75-2.13.42-.21-.94-.65-2.55-.99-3.58-.34-1.03-.84-3.13-1.13-4.67-1.32-7.19-3.76-14.91-3.76-11.88,0,.45.41,2.67.91,4.95.5,2.27,1.4,6.64,1.99,9.7.6,3.08,1.54,6.03,2.11,6.6.88.88.94,1.54.4,4.53-.67,3.7.45,13.5,2.55,22.19.69,2.86,1.03,7.97,1.16,17.42.14,9.85.51,15.24,1.42,20.46.68,3.89,1.43,7.25,1.66,7.47.23.21.18-2.41-.12-5.83-.3-3.42-.57-12.38-.59-19.91-.03-10.57-.27-14.54-1.05-17.42-1.38-5.12-2.96-17.06-2.96-22.44,0-3.58.23-4.65,1.19-5.52Z"/>
  <path class="cls-1" d="M153.13,349.55c-1.49,3.95-1.99,6.07-1.95,8.18l.04,2.24,1.11-2.49c.61-1.37,1.3-3.61,1.54-4.98.24-1.37.58-2.98.76-3.58.52-1.78-.8-1.23-1.5.62Z"/>
  <path class="cls-1" d="M142.12,240.86c-.2-1.52-1.17-5.16-2.16-8.09-.98-2.93-2.53-7.78-3.43-10.78-1.56-5.14-2.19-6.49-2.19-4.63,0,.45.93,3.74,2.06,7.31,1.14,3.57,2.57,8.6,3.19,11.17.62,2.57,1.53,5.37,2.01,6.22.85,1.48.87,1.43.52-1.2Z"/>
  <path class="cls-1" d="M141.13,373.98c1.26,0,6.2-6.5,5.48-7.22-.17-.17-1.34.89-2.61,2.37-2.77,3.22-3.74,4.85-2.87,4.85Z"/>
  <path class="cls-1" d="M71.49,324.51c-4.5-9.48-10.41-19.1-16.85-27.44-1.61-2.08-3.37-4.6-3.91-5.6-.54-.99-2.93-4.33-5.32-7.41-2.39-3.08-5.92-8.33-7.86-11.67-1.94-3.34-3.64-6.07-3.77-6.07s-.25.42-.25.93c0,1.05,7.21,12.81,11.64,18.98,15.3,21.31,23.15,34.79,32.85,56.31,4.61,10.23,6.77,18.88,5.42,21.67-3.55,7.37-5.89,13.73-5.6,15.23.11.58.68-.35,1.25-2.06.58-1.71,2.18-5.89,3.57-9.29,2.83-6.94,3.02-9.16,1.34-15.29-1.17-4.27-2.4-7.04-12.5-28.31Z"/>
  <path class="cls-1" d="M179.5,275.96c-.65,1.36-1.56,2.85-2.02,3.31-.89.89-1.12,2.75-.43,3.44.81.81,4.1-5.97,3.82-7.89-.16-1.1-.4-.91-1.38,1.14Z"/>
  <path class="cls-1" d="M96.77,193.13c-.56,1.33-1.02,2.61-1.02,2.86s-.56.96-1.24,1.58c-.73.66-1.25,1.92-1.25,3.05,0,1.4-.7,2.65-2.54,4.57-1.39,1.45-2.22,2.64-1.84,2.64.95,0,5-4.13,5-5.1,0-.43.74-2.33,1.64-4.22,2.77-5.82,2.87-6.08,2.57-6.95-.17-.48-.73.2-1.32,1.57Z"/>
  <path class="cls-1" d="M182.25,288.9c.44-1.63,1.48-3.89,2.31-5.01.83-1.12,1.41-2.33,1.3-2.68-.12-.35-.84.2-1.6,1.24-1.51,2.04-3.88,7.63-3.88,9.15,0,1.81,1.08.26,1.87-2.69Z"/>
  <path class="cls-1" d="M150.7,149.71c8.59-2.61,9.14-2.67,9.14-.91,0,.73.32,2.4.71,3.71.5,1.67.52,2.63.06,3.18-1.37,1.68-3.76,6.48-4.16,8.37-.67,3.09.21,6.13,2.56,8.88,2.56,2.99,10.86,8.26,15.94,10.11,6.4,2.34,7.29,5.74,4.75,18.15-2.49,12.15-1.82,34.71,1.34,44.9.99,3.18,1.41,6.37,1.56,11.82.15,5.61.41,7.47,1.01,7.47,1.61,0,.56-14.82-1.71-24.22-1.37-5.66-1.52-7.59-1.52-19.71,0-12.05.16-14.17,1.55-20.47,3.02-13.66,2.22-15.69-8.17-20.52-7.2-3.35-12.83-7.46-14.62-10.65-.79-1.42-.89-2.43-.46-4.76.3-1.63.98-3.28,1.5-3.67.52-.39.89-.95.82-1.24-.21-.85,1.47-3.96,2.13-3.96.36,0,.43-1.04.19-2.56-.33-2.05-.24-2.5.46-2.23.48.18,3.78-.07,7.33-.57,5.73-.8,7.67-.94,11.91-.82,1.36.04,6.68-2.56,6.68-3.27,0-.64.25-.67-3.37.43-1.68.51-5.02.93-7.41.93s-6.79.47-9.76,1.04c-2.97.57-5.87.86-6.43.64-1.56-.6-1.32-2.92.3-2.92,3.17,0,17.29-3.33,19.97-4.71,4.4-2.26,6.7-1.79,6.7,1.37,0,1.54.94,2.46,1.54,1.5.21-.34.19-2.02-.04-3.74q-.42-3.13-2.67-3.06c-1.24.04-3.19.58-4.35,1.2-1.15.62-5.35,1.88-9.33,2.8-3.98.92-8.56,2.24-10.17,2.94-2.39,1.03-3.11,1.12-3.88.48-1.12-.93-4.51-.28-12.79,2.44-2.91.96-8.37,2.21-12.13,2.79-3.76.58-8.8,1.42-11.2,1.88-2.4.45-6.46,1.15-9.02,1.54-6.73,1.03-10.92,2.47-14.49,4.98-5.66,3.98-5.75,4.25-5.62,15.72.11,9.14.6,12.12,1.81,10.91.21-.21.35-5.01.3-10.65l-.09-10.26,1.88-2.14c3.37-3.83,7.24-4.88,35.18-9.47,4.79-.79,12.02-2.44,16.06-3.67Z"/>
  <path class="cls-1" d="M69.3,396.81c-2.01,4.22-3.82,9.38-7.51,21.47-.49,1.6-.89,4.03-.89,5.39s-.47,4.25-1.04,6.42c-2.16,8.23-.91,37.94,2.17,51.54,1.29,5.69,2.17,10.31,2.29,11.98.06.94.33,1.92.6,2.18.62.6,0-7.93-.87-11.98-3.88-18.15-5.06-48.98-2.2-57.6.56-1.67.88-3.26.73-3.52-.67-1.14,4.39-17.9,7.92-26.22,2.4-5.66,1.55-5.42-1.2.34Z"/>
  <path class="cls-1" d="M331.5,360.88l2.04.59-2.38-2.31c-1.86-1.81-2.54-3.09-3.13-5.9-1.31-6.26.55-6.9,3.12-1.06.68,1.54,1.82,3.54,2.54,4.43s1.79,2.51,2.37,3.58c.58,1.07,1.36,1.95,1.73,1.95,1.54,0,1.21-2.1-1.16-7.45-1.38-3.12-2.69-6.62-2.91-7.78-.22-1.16-.79-2.26-1.27-2.44-.48-.18-.87-.73-.87-1.21s-.45-1.25-.99-1.7c-.91-.76-.91-.63,0,1.56,1.44,3.45,1.3,4.21-.72,3.98-1.55-.18-1.69-.41-1.53-2.37.22-2.6-.95-7.18-2.08-8.11-.63-.52-.62-.04.08,2.27,1.04,3.45,1.13,5.62.26,6.16-.8.49-1.74-1.97-2.87-7.47-.76-3.7-3.98-12.9-5.23-14.93-.21-.34-.91-2.24-1.57-4.22-.95-2.88-1.03-3.82-.43-4.67.41-.59,1.19-1.9,1.73-2.93l.97-1.87-1.56,1.71c-.86.94-1.79,1.71-2.07,1.71s-1.03-1.75-1.66-3.89c-2.18-7.42-8.35-19.85-15.57-31.35-.89-1.41-1.61-2.99-1.61-3.5s-.41-1.27-.91-1.69c-.5-.42-1.64-2.06-2.53-3.65-1.79-3.2-1.72-5.61.22-7.84.61-.7,1.62-3.37,2.24-5.94,1.03-4.24,2.57-8.68,4.24-12.23,1.08-2.29.28-2.93-1.55-1.23-.93.86-1.7,2.14-1.7,2.83s-.54,2.46-1.2,3.92c-2.49,5.53-5.67,16.92-5.19,18.54.43,1.45,3.82,7.72,11.44,21.23,5.76,10.19,7.26,14.07,19.21,49.38,1.97,5.82,4.19,12.96,4.93,15.87,1.48,5.77,2.44,7.17,5.55,8.06Z"/>
  <path class="cls-1" d="M313.33,468.25c-.19-8.9-.62-18-.96-20.22s-.91-8.24-1.27-13.38c-1.25-17.83-2.57-35.51-3.16-42.31-.33-3.76-.9-11.18-1.27-16.49-.37-5.3-1.07-12.45-1.55-15.87-.48-3.42-.97-7.62-1.09-9.33-.17-2.53-.23-2.3-.32,1.27-.06,2.41.31,9.37.83,15.48,1,11.79,2.05,25.95,4.05,54.19.68,9.58,1.64,21.62,2.15,26.76.5,5.13,1.07,15.63,1.25,23.33.34,14,.58,16.99,1.57,19.91.29.86.7,2.61.91,3.89.21,1.28.68,2.33,1.04,2.33.82,0,.41-4.58-.87-9.64-.67-2.63-1.05-8.51-1.29-19.91Z"/>
  <path class="cls-1" d="M351.2,443.67c-1.26-3.25-3.07-7.87-4.01-10.27-.94-2.4-2.22-6.18-2.83-8.4-.61-2.22-1.76-6.17-2.54-8.76-1.86-6.14-4.53-17.33-7.42-31.06-.54-2.57-1.4-5.93-1.9-7.47-.51-1.54-1.83-6-2.94-9.9-1.11-3.91-2.36-7.22-2.79-7.36-.43-.14-.78-.02-.78.27,0,.69,3.35,14.04,4.6,18.33,1.65,5.64,2.87,11.4,2.87,13.52,0,1.11.38,2.77.85,3.69.47.92,1.34,3.92,1.93,6.66,2.26,10.47,9.75,34.03,12.15,38.27.49.86,1.34,2.82,1.9,4.37,1.67,4.62,3.05,7.22,4.66,8.73,1.92,1.8,1.93,1.21.03-2.1-.82-1.43-2.52-5.26-3.78-8.51Z"/>
  <path class="cls-1" d="M126.89,195.54c-.03,1.31,3.75,12.7,5.59,16.86,2.47,5.56,1.98,2.45-.96-6.23-3.1-9.12-4.58-12.53-4.63-10.64Z"/>
  <path class="cls-1" d="M367.64,466.5c-1.88-1.78-4.74-4.74-6.36-6.57-1.62-1.83-2.95-2.93-2.95-2.43,0,1.06,11.84,13.12,12.36,12.59.2-.2-1.18-1.81-3.06-3.59Z"/>
  <path class="cls-1" d="M293.71,242.99c.36-1.03.9-2.99,1.18-4.36.28-1.37.83-3.3,1.2-4.28.55-1.43.49-2.1-.28-3.27-.79-1.2-1.5-1.47-3.91-1.47-2.7,0-3.27.3-6.95,3.58-3.59,3.2-4.28,3.57-6.63,3.52-1.44-.03-3.7-.57-5-1.19-2.22-1.05-2.56-1.06-5.14-.13-3.17,1.14-5.13.62-9.09-2.41-2.54-1.94-3.41-1.62-1.9.69,2.11,3.22,8.07,5.58,10.41,4.12,1.52-.95,3.61-.86,5.51.22,2.75,1.57,9.25.99,10.58-.95.17-.25,1.53-1.47,3.01-2.71,2.09-1.74,3.25-2.25,5.13-2.25,1.34,0,2.43.16,2.43.35,0,1.76-8.62,28.39-9.46,29.24-.2.2-2.84-1.79-5.87-4.41-3.03-2.63-8.03-6.95-11.11-9.61-3.08-2.66-7.83-7.37-10.56-10.47-2.73-3.1-5.08-5.52-5.21-5.38-.63.63,5.84,9.72,9.36,13.13,6.05,5.87,17.59,15.59,21.37,18.01,1.87,1.2,3.4,2.45,3.4,2.78s.28.6.62.6.63-.91.65-2.02c.01-1.11.45-3.14.96-4.51s1.77-5.29,2.79-8.71c1.02-3.42,2.15-7.06,2.52-8.09Z"/>
  <path class="cls-1" d="M250.11,452.38c-2.9-14.25-3.92-17.83-3.48-12.13.48,6.23,5.84,30.65,8.4,38.27,2.43,7.23,3.93,12.69,4.66,16.96.22,1.28.7,2.33,1.07,2.33,1.54,0-1.04-11.75-4.67-21.3-1.97-5.18-2.86-8.76-5.98-24.12Z"/>
  <path class="cls-1" d="M121.31,184.66c2.37,4.88,4.46,8.87,4.66,8.87,1.62,0-12.33-27.43-16.49-32.42-1.21-1.46-1.24-1.46-1.26-.16-.01.73.37,1.65.86,2.05.48.4,1.35,1.73,1.94,2.97.58,1.23,2.17,3.95,3.53,6.04,1.36,2.09,4.4,7.79,6.77,12.67Z"/>
  <path class="cls-1" d="M132.92,420.59c-.6,1.69-1.37,5.22-1.7,7.84-.33,2.62-.8,5.07-1.04,5.46-.72,1.16-2.62,8.42-4.27,16.31-.86,4.1-1.83,8.3-2.15,9.33-1.99,6.32-3.27,10.62-4.62,15.57-.84,3.08-2.38,8.54-3.41,12.13-2.06,7.15-2.37,9.58-1.15,9.18.43-.14,1.53-3.32,2.44-7.05.92-3.74,2.1-8.05,2.63-9.59,3.6-10.48,10.07-36.44,13.45-53.98,1.52-7.87,1.45-9.77-.17-5.2Z"/>
  <path class="cls-1" d="M223.67,472.57c-2.03-2.72-4.66-6.21-5.84-7.75-1.18-1.54-4.08-5.39-6.45-8.56-3.62-4.84-4.58-5.76-6.03-5.76-1.06,0-2.24-.6-3.08-1.56-.93-1.07-1.99-1.56-3.39-1.56-2.82,0-10.43-2.18-13.31-3.82-7.02-3.98-11.27-7.48-12.22-10.05-.23-.61-1.26-1.59-2.29-2.18-1.97-1.12-2.44-2.45-1.05-2.98.59-.23.77-1.34.62-3.87-.18-3.12-.45-3.76-2.23-5.25-1.11-.93-2.58-1.7-3.27-1.72-2.2-.04-7.63-2.96-10.61-5.71-3.36-3.1-5.41-5.96-8.61-12.01-1.26-2.38-2.67-4.76-3.13-5.29-.47-.53-1.45-2.31-2.2-3.96-1.72-3.82-1.12-5.95,2.77-9.8,2.16-2.14,6.53-9.45,6.53-10.92,0-1.08-1.33.46-3.42,3.95-1.37,2.28-3.75,5.38-5.29,6.89-1.54,1.51-2.84,3.34-2.9,4.08-.05.73-.28,1.9-.5,2.59-.28.88.15,1.87,1.5,3.38,1.05,1.17,1.9,2.65,1.9,3.28,0,2.79,6.36,13.16,11.12,18.12,3.12,3.26,8.19,6.15,12.81,7.32l2.91.73-.42,5.42c-.36,4.63-.27,5.55.61,6.29.57.48,3.19,3,5.83,5.6,6.03,5.94,13.79,10.04,22.06,11.64,6.25,1.22,5.31-.08,9.11,12.58,1.39,4.63,2.8,10.79,3.15,13.69.35,2.9,1.35,8.36,2.23,12.12.88,3.76,1.76,7.61,1.96,8.56.2.94.75,1.71,1.22,1.71,1.3,0,1.03-2.61-1.06-10.58-1.03-3.94-2.13-9.82-2.44-13.07-.31-3.25-1.15-7.59-1.88-9.64-2.18-6.18-3.57-12.14-2.83-12.12.37,0,1.49,1.2,2.49,2.64,6.8,9.83,17.09,22.87,22.2,28.14,3.31,3.42,6.69,7.02,7.49,8.01,3.72,4.52,5.91,6.62,6.93,6.62,1.79,0,.64-1.49-8.7-11.27-4.73-4.95-10.25-11.23-12.28-13.96Z"/>
  <path class="cls-1" d="M138.77,395.75c-.37,0-.82.63-.99,1.4-.17.77-.71,3.46-1.21,5.97-.5,2.51-1.34,5.05-1.88,5.65-1.04,1.15-1.36,4.41-.42,4.41.65,0,1.31-1.52,1.31-3.04,0-.59.69-2.82,1.52-4.96,1.82-4.64,2.67-9.42,1.67-9.42Z"/>
  <path class="cls-1" d="M92.8,38.58c2.21,4.62,4.76,10.82,5.68,13.77,1.87,6.03,4.65,10.63,10.29,17.03,4.24,4.81,5.46,6.73,13.37,20.98,2.99,5.38,5.99,10.42,6.68,11.2l1.25,1.42-.4-1.87c-.22-1.03-.8-2.31-1.29-2.85-.49-.54-.88-1.16-.88-1.39s-.94-1.88-2.09-3.68c-1.15-1.8-2.91-4.96-3.92-7.01-6.15-12.5-9.62-17.9-11.98-18.65-1.33-.42-7.11-8.6-8.68-12.27-.63-1.48-1.5-4.23-1.94-6.11-.44-1.88-1.11-3.84-1.49-4.36-.62-.82-2.28-4.12-8.41-16.7-2.07-4.25-2.93-4.82-1.38-.92.65,1.65,3,6.78,5.2,11.4Z"/>
  <path class="cls-1" d="M157.45,42.62c-.63-1.03-1.5-3.34-1.93-5.13-.84-3.48-1.91-4.36-1.89-1.54.02,1.96,1.79,5.96,3.66,8.24,1.59,1.94,1.68.95.15-1.57Z"/>
  <path class="cls-1" d="M150.94,44.6c2.3,1.99,4.89,4.39,5.75,5.34,1.56,1.71,2.53,2.17,2.53,1.2,0-.28-1.78-2.59-3.96-5.13-3.69-4.3-7.39-6.81-8.17-5.55-.18.29,1.56,2.15,3.86,4.15Z"/>
  <path class="cls-1" d="M198.14,128.92c-1.12,3.79-1.18,4.45-.33,3.93.86-.53,3.1-5.01,3.1-6.19,0-.53-.41-.96-.91-.96-.56,0-1.28,1.25-1.87,3.22Z"/>
  <path class="cls-1" d="M149.89,53.03c0,1.16,4.02,8.29,5.03,8.92,1.27.79,1.09-.11-.77-3.78-2.19-4.32-4.27-6.82-4.27-5.14Z"/>
  <path class="cls-1" d="M172.69,59.12c3.03,3.25,7.87,8.85,10.74,12.45,7.3,9.12,8.18,9.84,3.05,2.49-3.93-5.63-5.9-8.09-11.85-14.81-13.3-15.03-15.12-18.19-18.02-31.28-1.26-5.7-1.41-7.79-1.21-17.22.12-5.9-.02-10.73-.31-10.73-.29,0-.64,3.01-.78,6.69-.69,18.77,1.07,28.55,6.91,38.42,2.73,4.61,2.84,4.75,11.47,14Z"/>
  <path class="cls-1" d="M161.45,112.57l5.09-2.51,4.59.93c2.53.51,5.89.78,7.51.59,3.72-.44,12.24.79,15.68,2.27,2.95,1.26,6.29,5.04,6.94,7.84,1.29,5.54,4.41,6.19,8.72,1.83,3.16-3.2,3.41-4.59,1.22-6.77-1.94-1.94-2.47-1.15-1.48,2.17.7,2.34.66,2.66-.44,3.46-1.53,1.12-3.75,1.69-4.88,1.25-.48-.18-1.08-1.26-1.33-2.38-.89-4.07-4.1-7.97-7.45-9.06-1.61-.52-1.87-.91-1.87-2.83,0-1.22-.21-2.43-.47-2.69-.26-.26-.47.7-.47,2.13,0,2.85-.49,3.11-2.9,1.54-1.24-.81-3.27-1.09-8.84-1.2-3.98-.08-9.23-.34-11.67-.58-4.39-.43-4.47-.41-7.25,1.71-2.09,1.6-4.31,2.51-8.63,3.55-9.76,2.35-10.53,2.59-10.15,3.21.88,1.43,11.43-1.17,18.07-4.45Z"/>
  <path class="cls-1" d="M163.96,75.07c1.17,2.79,3.56,6.11,3.83,5.3.19-.57-3.98-7.56-4.52-7.56-.14,0,.16,1.02.69,2.26Z"/>
  <path class="cls-1" d="M214.8,99.5c-.25.94-.84,1.31-2.1,1.31-.96,0-2.54.33-3.51.74-1.61.68-1.31.78,3.54,1.2,4.56.4,5.5.31,6.84-.65.86-.61,1.65-1.59,1.77-2.18.19-.99.07-1-1.68-.09-2.35,1.21-3.2,1.24-3.2.08,0-1.49-1.3-1.81-1.67-.41Z"/>
  <path class="cls-1" d="M207.51,106.39c.72.29,3.8.72,6.84.95,4.51.34,5.77.24,6.78-.55,1.14-.89.58-.96-6.84-.95-5.07.01-7.6.22-6.78.55Z"/>
  <path class="cls-1" d="M236.51,124.81c.92.49,2.8.89,4.17.89,1.65,0,3.56.63,5.63,1.85,2.28,1.35,3.14,1.61,3.14.96,0-1.33-1.99-2.94-6.53-5.29-2.23-1.16-4.49-2.75-5-3.54-.52-.79-1.4-1.44-1.96-1.44s-2.3-.81-3.87-1.8c-2.96-1.86-5.66-2.93-5.66-2.24,0,.84,8.49,9.78,10.08,10.62Z"/>
  <path class="cls-1" d="M251.63,226.71c-.89-.47-1.78-.46-3.11.03-3.66,1.36-17.73,10.83-17.73,11.92,0,.56,1.17.27,1.99-.49,3.34-3.1,14.85-9.87,17.59-10.36,2.23-.39,2.37-.52,1.26-1.11Z"/>
  <path class="cls-1" d="M196.36,106.16c-1.57-.37-1.74-.27-1.56,1.01.13.94.65,1.45,1.52,1.49.72.04,1.59.23,1.92.44.33.21,1.42.14,2.42-.15l1.81-.52-2.18-.92c-1.2-.51-2.97-1.11-3.94-1.34Z"/>
  <path class="cls-1" d="M60.85,206.28c.83.68,2.79,2.52,4.36,4.09,2.64,2.64,5.03,4.18,5.03,3.26,0-.49-5.23-5.44-8.64-8.17-1.42-1.14-3.13-3.15-3.8-4.47-1.15-2.26-2.49-3.73-2.49-2.74,0,.91,4.08,6.82,5.54,8.03Z"/>
  <path class="cls-1" d="M40.1,231.62c-.12-.12-.36,0-.51.28-.16.28-1.04,2.95-1.96,5.94-.92,2.99-1.91,5.58-2.21,5.76-.3.18-1.43,3.2-2.52,6.71-1.09,3.5-2.37,7.57-2.85,9.03-.84,2.58-1.14,5.87-3.05,33.43-.5,7.19-1.35,15.87-1.9,19.29-1.07,6.71-5.13,26.36-5.61,27.13-.16.26-.56,1.82-.88,3.47-.8,4.05-3.1,14.42-6.12,27.58-1.37,5.99-3.09,15.37-3.82,20.85-1.45,10.94-3.42,17.75-6.67,23.16-2.05,3.41-2.07,3.5-1.96,10.68l.11,7.24.36-5.91c.32-5.28.58-6.27,2.42-9.26,4.69-7.6,6.21-12.77,8.23-28.08.7-5.3,1.7-11.46,2.22-13.69.52-2.22,1.47-6.28,2.12-9.02.64-2.74,1.75-7.5,2.46-10.58s1.69-7.28,2.17-9.33c3.85-16.25,4.87-21.01,6.19-28.93,2.29-13.78,2.84-19.37,3.77-38.27l.86-17.42,3.21-9.64c3.57-10.72,6.29-20.05,5.94-20.39Z"/>
  <path class="cls-1" d="M61.54,7.78c3.74-1.24,3.77-2.49.07-2.49-2.88,0-3.79-.85-3.8-3.58-.01-2-1.59-2.36-2.18-.49-.46,1.46.8,6,1.94,6.94.59.49,1.67.39,3.98-.38Z"/>
  <path class="cls-1" d="M74.03,116.32c-.53-1.32-.61-1.15-.64,1.35-.04,3.1.98,6.78,1.89,6.78.75,0,.72-.29-.35-2.84-.5-1.19-.77-2.53-.6-2.98.17-.44.04-1.48-.3-2.32Z"/>
  <path class="cls-1" d="M48.7,193.27c.29-1.17.93-1.59,2.86-1.92,2.52-.43,4.13-1.6,2.06-1.51-.62.03-1.41.14-1.75.26-.34.11-1.36.37-2.26.57-1.24.27-1.71.82-1.91,2.23-.33,2.23.46,2.52,1,.37Z"/>
  <path class="cls-1" d="M49.17,185.43c.22,0,.75-2.43,1.17-5.39.91-6.42.46-22.94-.79-28.52-.76-3.39-.83-2.03-.81,15.09.01,10.35.21,18.82.43,18.82Z"/>
  <path class="cls-1" d="M93.42,134.11c7.09-.09,10.88-.45,14.99-1.41,5.34-1.26,7.46-2.08,5.03-1.95-.66.04-2.17.34-3.37.69-1.2.34-7.57.69-14.16.77-6.59.08-11.98.33-11.98.56,0,.23,0,.65,0,.95s4.27.48,9.49.41Z"/>
  <path class="cls-1" d="M149.11,122.02c-.6.35-1.35.48-1.67.28-.32-.2-.73-.1-.92.21-.51.83,2.16,1.35,3.43.67.61-.32,2.03-.59,3.17-.6,1.56,0,1.84-.16,1.13-.61-1.21-.78-3.75-.76-5.14.05Z"/>
  <path class="cls-1" d="M166.47,117.68c1.35,1.12,6.89,1.29,8.9.26,2.92-1.49,5.54-1.77,6.61-.7.58.58,2.18,1.02,3.89,1.07,1.6.05,3.33.15,3.84.22s1.28.17,1.71.22c.43.05.78.56.78,1.12,0,.96.08.96,1.14,0,.63-.57,1.52-1.03,1.99-1.03.55,0,.64-.21.25-.61-.33-.33-3.4-.93-6.81-1.32s-6.82-1-7.57-1.35c-1.01-.47-2.15-.37-4.36.4-4.73,1.64-7.05,1.7-9.08.25-.98-.7-2.03-1.87-2.32-2.59-.4-1-.54-1.07-.57-.28-.02.58-.62,1.23-1.33,1.46-.82.26-1.16.75-.93,1.34.2.51.53,1.68.75,2.59.21.91,1.01,2.35,1.77,3.21s2.32,2.96,3.47,4.67c2.74,4.06,7.9,9.49,10.15,10.68,1.01.53,2.43.77,3.29.56,1.79-.45,1.37-1.58-.6-1.61-1.87-.02-5.01-2.53-10.24-8.17-4.06-4.38-5.73-7.41-5.75-10.4,0-.72.15-.72,1.02,0Z"/>
  <path class="cls-1" d="M139.93,117.15c0-.74-2.83-6.2-4.91-9.49-1.2-1.89-1.33-2.72-1-6.32.44-4.82-.61-6.48-1.28-2.02-.88,5.9-.65,7.2,2.18,11.9,2.66,4.43,5.02,7.21,5.02,5.93Z"/>
  <path class="cls-1" d="M218.34,445.83c-2.22.8-4.88,1.65-5.91,1.9-1.03.25-1.5.58-1.04.75,1.53.56,11.31-2.8,11.31-3.89,0-.16-.07-.28-.16-.25-.09.03-1.98.7-4.2,1.49Z"/>
  <path class="cls-1" d="M71.79,12.9c.23,3.34.96,9.14,1.61,12.88.66,3.74,1.19,8.92,1.19,11.51,0,7.44,1.18,20.98,1.99,22.89.47,1.11.79,6.25.87,14.18.07,6.84.45,14.27.83,16.49.79,4.56,3.07,14.76,3.61,16.18.2.51,1.11,3.03,2.04,5.6,3.49,9.66,4.93,13.13,5.84,14.04.51.51.77,1.35.57,1.87-.31.81.55.88,6.4.56,7.42-.42,8.57-.62,8.05-1.45-.68-1.11,4.24-2.38,17.06-4.4,1.88-.3,5.52-1.02,8.09-1.61,2.57-.59,5.58-1.21,6.69-1.37,2.06-.3,2.85-1.4,1.01-1.4-.56,0-4.41.68-8.56,1.5-4.15.83-10.49,1.97-14.08,2.54-3.59.57-7.93,1.42-9.64,1.87-1.71.46-4.51,1-6.22,1.21s-4.12.53-5.35.71c-2.19.33-2.27.26-3.58-2.77-2.37-5.51-9.3-27.03-10.04-31.2-.4-2.22-.96-10.62-1.24-18.67-.28-8.04-.8-16.3-1.14-18.36-.34-2.05-.8-8.54-1.01-14.42-.21-5.88-.81-12.88-1.33-15.56-.52-2.68-1.19-7.87-1.5-11.54C73.16,4.41,72.19,0,70.86,0c-.99,0-1.02.28-.29,3.41.44,1.88.98,6.15,1.22,9.49Z"/>
  <path class="cls-1" d="M81.36,11.51l.78,1.24-.31-1.24C80.8,7.39,77.72,0,77.03,0c-.27,0,.42,2.31,1.53,5.13,1.11,2.82,2.37,5.69,2.8,6.38Z"/>
</svg>