<?xml version="1.0" encoding="UTF-8"?>
<svg id="Warstwa_1" data-name="Warstwa 1" xmlns="http://www.w3.org/2000/svg" viewBox="0 0 727.28 495.16">
  <defs>
    <style>
      .cls-1 {
        fill: #010101;
        fill-rule: evenodd;
      }
    </style>
  </defs>
  <path class="cls-1" d="M292.42,1.64c-1.96.87-4.33,2.62-5.25,3.89-1.6,2.18-1.86,2.17-5.1-.39-6.4-5.04-17.02-2.64-23.87,5.39-5.15,6.03-7.45,13.22-8.48,26.45-.56,7.17-1.95,15.21-3.1,17.87-3.46,8.05-3.01,8.84,5.04,8.84s9.81-1.71,9.82-9.36c0-2.38.62-6.52,1.36-9.21,1.07-3.86,1.99-4.89,4.39-4.89,3.81,0,5.29,1.78,7.48,8.96,2.66,8.72,10.02,10.75,12.77,3.52.86-2.26,2.82-3.65,6.56-4.66,5.89-1.59,6.27-2.15,7.62-11.27.89-6.05,1.1-6.31,4.97-6.14,4.89.21,10.99,4.51,15.38,10.84,2.98,4.31,3.15,5.27,2.02,11.82-2.16,12.5-3.19,14.83-7.52,17.03-3.09,1.57-3.73,2.45-2.6,3.58,2.01,2.01,5.34,1.89,10.81-.4,3.41-1.43,4.74-2.9,5.35-5.96.47-2.36,2.43-5.25,4.67-6.9,3.43-2.52,3.79-3.43,3.25-8.23-.46-4.16-.05-5.87,1.83-7.48,1.34-1.15,2.43-2.89,2.43-3.87,0-3.43-5.38-8.6-10.34-9.94-6.05-1.63-6.78-2.5-10.39-12.28-1.56-4.23-4.07-9.43-5.58-11.55-4.8-6.74-15.36-9.28-23.51-5.67M306.8,7.08c4,2,9.32,10.99,11.4,19.28l.91,3.62-4.39-2.68c-5.3-3.23-13.15-3.52-15.59-.59-.96,1.16-2.06,4.82-2.44,8.14-.63,5.51-1.16,6.26-5.91,8.55-2.87,1.38-5.68,3.28-6.25,4.23-1.51,2.51-4.82,2.12-4.82-.57,0-3.69-6.11-11.64-9.62-12.53-8.21-2.06-13.83,4.73-13.83,16.72,0,6.3-.33,7.23-2.54,7.23s-2.37-.5-1.35-3.58c.65-1.97,1.81-9.43,2.57-16.57.76-7.14,2.25-14.31,3.31-15.91,1.05-1.61,1.92-3.72,1.92-4.68,0-2.59,6.62-8.29,10.75-9.27,2.4-.57,5.29.02,8.74,1.79,6.29,3.21,7.25,3.24,10.16.35,2.71-2.7,7.95-5.32,10.86-5.45,1.14-.05,3.9.82,6.12,1.93M331.21,36.91c5.19,2.17,5.24,2.31,2.42,6.62-1.24,1.89-1.78,4.45-1.33,6.26.45,1.8-.03,4.08-1.18,5.55-1.77,2.26-1.87,1.77-1.14-5.33.71-6.88.47-8.12-1.93-10.3-2.57-2.33-3.6-4.68-2.04-4.68.38,0,2.73.85,5.21,1.89M260.37,77.43c-1.87,4.1-1.91,7.19-.17,11.77,1.84,4.83,3.03,3.12,1.58-2.25-.65-2.4-.71-6.09-.14-8.2,1.34-4.92.69-5.59-1.26-1.31M237.86,78.35c-.85,1.61-5.66,7.18-10.69,12.38-5.03,5.19-8.67,9.45-8.09,9.45,1.76,0,17.43-16.68,19.59-20.84,1.11-2.15,1.74-3.91,1.38-3.91s-1.34,1.32-2.19,2.93M310.74,82.73c-.36,4.43-.86,5.11-3.99,5.47-2.65.3-3.8,1.32-4.41,3.91-1.09,4.58-3.91,7.71-9.25,10.24-2.39,1.13-4.06,2.36-3.7,2.72s2.65-.3,5.1-1.46c4.47-2.12,8.69-7.18,9.26-11.1.17-1.19,1.94-2.4,4.04-2.77,3.02-.53,3.91-1.52,4.68-5.21.52-2.51.44-5.07-.18-5.71-.64-.65-1.31,1.04-1.54,3.91M210.02,106.8c-6.91,5.71-12.39,11.25-12.39,12.52,0,.43,3.66-2.63,8.14-6.81,4.48-4.18,9-8.37,10.05-9.32,4.33-3.92.18-1.34-5.8,3.61M271.77,108.78c-1.74,2.1-2.99,4.08-6.16,9.8-1.27,2.29-.68,1.99,2.28-1.16,2.2-2.34,3.99-5.09,3.99-6.1,0-2.29,4.79-3.95,6.9-2.38.86.64,3.16,1.83,5.1,2.66,2.88,1.23,3.91,1.14,5.54-.49,1.1-1.1,2-2.66,2-3.46s-.82-.33-1.83,1.04c-1.76,2.41-2.01,2.42-6.56.25-5.89-2.81-9.03-2.85-11.27-.16M241.35,119.82c4.27,4.48,15.33,12.92,16.94,12.92.57,0-2.02-2.28-5.76-5.07-3.74-2.79-8.21-6.6-9.94-8.47-1.73-1.87-3.58-3.4-4.11-3.4s.76,1.81,2.87,4.02M262.77,127.06c0,.61,2.33,4.34,5.18,8.28,2.85,3.94,6.51,9.35,8.14,12.03s3.66,5.13,4.52,5.47c1.42.55-.53-2.45-13.36-20.57-2.47-3.48-4.48-5.83-4.48-5.21M183.28,140.88c0,.18-1.77,5.55-3.91,11.93-2.14,6.38-3.85,12.83-3.79,14.33.06,1.5.29,2.14.51,1.42.22-.72,1.43-4.82,2.68-9.12,1.25-4.3,2.7-8.4,3.22-9.12,1.17-1.62,2.77-9.77,1.93-9.77-.34,0-.63.15-.63.33M230.52,160.95c-2.07,4.19-4.81,11.14-6.1,15.44-3.99,13.28-8.72,25.75-12.44,32.78-1.96,3.7-2.89,6.47-2.08,6.16,2.35-.9,10.51-19.61,14.42-33.08,1.98-6.81,5.29-15.83,7.37-20.06,2.08-4.23,3.51-7.95,3.18-8.28-.33-.33-2.28,2.84-4.35,7.03M286.22,162.05c0,.36,2,3.43,4.44,6.84,2.45,3.4,6.95,10.59,10.02,15.96,4.6,8.07,5.58,10.97,5.61,16.66.02,5.27.29,6.19,1.14,3.91,2.41-6.49-2.26-17.5-16.34-38.62-3.28-4.92-4.87-6.47-4.87-4.75M244.09,167.27c8.55,14.69,19.2,22.5,31.96,23.42l8.22.6-7.17-1.28c-13.29-2.38-19.08-6.43-31.65-22.1-3.23-4.03-3.38-4.1-1.36-.63M172.41,180c-1.28,5.57-2.07,10.85-1.75,11.73.32.88.99-.75,1.5-3.62.5-2.87,1.51-6.77,2.23-8.67.72-1.9,1.1-4.83.83-6.51-.29-1.88-1.37.85-2.81,7.08M167.07,209.28c-1.27,8.42-2.82,17.65-3.44,20.52-1.9,8.86-1.36,17.34,1.45,22.86,2.94,5.76,17.79,22.04,23.97,26.29,2.2,1.51-1.31-2.48-7.81-8.87-12.46-12.25-17.51-20.35-17.47-27.99.01-2.46,1.23-11.51,2.69-20.11,3.16-18.51,4.36-28.01,3.52-28.01-.33,0-1.65,6.89-2.92,15.31M202.82,221l-2.82,3.58,4.32,3.26c5.52,4.16,11.64,10.19,14.47,14.26,1.22,1.75,2.59,2.81,3.04,2.36.45-.45-3.66-5.34-9.13-10.87l-9.95-10.05,2.88-3.06c1.58-1.68,2.23-3.06,1.44-3.06s-2.7,1.61-4.25,3.58M307.09,217.61c-.01.46,2.07,5.06,4.62,10.22,2.55,5.16,5.21,10.88,5.9,12.7.69,1.82,1.54,3.03,1.88,2.69.35-.34-1.7-5.56-4.53-11.58-5.06-10.75-7.83-15.69-7.87-14.03M224.89,249.52c1.49,1.89,2.7,4.16,2.7,5.05s.92,2.38,2.04,3.31c1.12.93,4.05,4.67,6.5,8.3,2.46,3.64,5.68,8.08,7.17,9.87l2.7,3.26-.91-3.26-.91-3.26,2.96,2.61c1.63,1.43.12-1.33-3.35-6.13-3.47-4.81-6.53-8.53-6.79-8.27-.26.26,1.33,2.97,3.54,6.02,2.21,3.05,3.68,5.88,3.26,6.29-.96.95-4.03-3.05-12.6-16.44-3.77-5.9-7.34-10.73-7.93-10.75-.59-.02.14,1.51,1.63,3.4M646.39,269.75c-1.47,1.68-4.22,5.16-6.11,7.75-5.75,7.86-7.79,8.2-40.09,6.67-22.57-1.07-31.58-.99-42.66.38-15.11,1.87-21.07,3.04-23.12,4.56-.72.53-2.77,1.41-4.56,1.95-1.79.54-7.94,3.25-13.67,6.02-14.06,6.8-22.19,6.68-48.21-.69-3.58-1.01-11.2-3.16-16.94-4.76-21.52-6.02-28.74-8.36-37.78-12.24-25.5-10.94-38.84-12.74-55.62-7.5-10.24,3.2-16.82,7.12-23.47,13.97-6.91,7.12-14.51,23.06-13.82,28.99.36,3.12,1.11,3.63,6.44,4.38,3.32.47,7.27,1.52,8.79,2.34,10.86,5.81-13.14,7.62-27.82,2.1-4.67-1.76-8.5-2.67-8.5-2.02s1.9,1.75,4.23,2.43c2.33.69,9.22,3.34,15.31,5.9,6.09,2.56,11.66,4.67,12.38,4.7s2.71,1.14,4.44,2.46c2.33,1.8,2.86,3.04,2.07,4.86-.58,1.35-.94,3.19-.79,4.09.15.91-.67,2.01-1.82,2.45-2.01.77-13.2-1-17.91-2.83-4.08-1.59-2.35,1.29,1.98,3.3,5.84,2.71,6.4,6.51.96,6.51-2.25,0-5.1-.54-6.34-1.21-2.05-1.1-2.17-.6-1.29,5.54.53,3.71,1.6,9.97,2.39,13.91.8,3.98,1.07,11.19.62,16.24-.76,8.52-1.9,12.04-13.28,41.09-12.32,31.45-14.95,47.74-8.72,53.98,1.67,1.67,5.5,2.05,20.8,2.05,10.31,0,29.18.65,41.92,1.44,24.6,1.53,42.62.27,50.4-3.51,2.08-1.01,5.94-1.84,8.58-1.84s8.05-.65,12.03-1.45c6.59-1.32,8.08-1.15,16.72,1.95,15.47,5.55,34.32,4.51,48.06-2.66,3.92-2.05,11.79-2.19,23.52-.43,17.96,2.7,40.03,3.93,48.61,2.71,11.44-1.62,17.64-6.13,15.64-11.35-1-2.6-12.91-8.29-17.39-8.3-2.44,0-3.67-1-4.73-3.82-1.99-5.27-12.52-10.52-21.09-10.52h-6.41l-.89-6.19c-.49-3.4-2.02-8.4-3.41-11.11-1.38-2.71-2.52-6.95-2.52-9.42s-.99-7-2.2-10.06c-5.28-13.37-13.78-19.24-27.86-19.24-4.88,0-9.24.59-9.68,1.3-1.14,1.85-8.92,1.62-10.94-.33-1.36-1.31-2.08-1.06-3.68,1.3-1.44,2.12-3.3,2.94-6.72,2.97-2.6.02-5.89.92-7.31,1.99-1.6,1.21-3.92,1.66-6.1,1.18-4.47-.98-6.51,2.35-5.44,8.92.69,4.25.44,4.76-2.72,5.55-1.91.48-3.79.56-4.18.17-.38-.38-1.23-4.95-1.88-10.13-1.41-11.24-3.47-17.79-6.78-21.58-3.52-4.04-13.27-7.42-19.12-6.63l-4.91.66-4.29-8.87c-2.36-4.88-6.25-11.07-8.64-13.76-2.39-2.69-4.12-5.11-3.84-5.39.28-.28,8.63.08,18.56.81,29.19,2.12,67.96,2.94,80.59,1.71,10.53-1.03,13.59-2.02,30.02-9.7,10.06-4.7,20.91-9.23,24.1-10.06,3.2-.83,7.57-2.06,9.72-2.72,6.64-2.05,40.87-9.84,57.33-13.05,19.6-3.82,39.38-4.05,56.32-.65,10.09,2.03,13.21,2.17,19.43.93,11.16-2.24,19.78-1.83,27.35,1.31,7.19,2.98,10.9,2.61,10.9-1.07,0-1.25,1.5-3.47,3.34-4.93,3.92-3.12,3.33-6.12-1.64-8.39-1.85-.84-4.47-2.93-5.81-4.64-4.21-5.35-10.38-8.16-19.99-9.1-16.87-1.64-18.69-2.48-28.72-13.22-7.77-8.31-9.97-9.92-14.33-10.5-4.27-.57-5.61-.16-7.83,2.37M659.93,276.25c1.91,2.26,5.37,6.29,7.7,8.95,2.33,2.66,4.23,5.48,4.23,6.25s1.9,1.72,4.23,2.11,7.87,1.31,12.3,2.06c4.44.75,9.57.99,11.4.53,4.7-1.18,4.48,2.72-.25,4.45-2.14.78-2.69,1.35-1.36,1.41,1.22.06,3.68-.56,5.46-1.37,2.63-1.2,3.64-1.08,5.37.65,1.17,1.17,1.65,2.13,1.06,2.13-.59,0,1.51,1.28,4.65,2.83,5.68,2.81,5.7,2.85,2.99,5.05-1.5,1.22-2.42,2.53-2.04,2.91.38.38-1.82.13-4.9-.56-7.32-1.64-7.42-1.91-1.1-2.92,3.15-.5,4.98-1.4,4.49-2.19-.56-.91-1.39-.88-2.56.1-.95.79-10.53,2.11-21.29,2.92-17.28,1.31-21.31,1.21-34.62-.88-15.28-2.4-26.95-2.22-41.79.62-43.73,8.37-76.81,16.64-89.31,22.33-4.92,2.24-8.62,3.08-11.58,2.65-2.94-.43-4.07-.18-3.48.78.48.78,1.83,1.05,3,.6,1.42-.54,1.81-.31,1.18.71-.52.84-2.41,1.52-4.2,1.52s-2.93.53-2.53,1.18c.4.65-2.94,2.42-7.41,3.94-11.06,3.75-36.59,4.82-68.2,2.86-43.56-2.7-46.22-2.74-47.01-.7-.55,1.43-4.12,1.88-15.88,2.02l-15.17.17,10.42,1.17c5.73.64,12.37.89,14.74.55,2.82-.41,4.15-.12,3.84.82-.26.79.94,2.96,2.68,4.82,1.74,1.86,4.3,5.72,5.69,8.58,7.71,15.92,9.24,17.59,16.14,17.59,3.1,0,7.28.66,9.29,1.47,10.89,4.38,11.23,4.96,13.39,22.64,1.02,8.38,2.04,12.1,3.58,13.03,1.18.72,3.43,2.62,4.99,4.23,4.28,4.42,7.1,3.83,7.1-1.47,0-2.42.91-5.16,2.03-6.08,1.24-1.03,1.87-3.24,1.63-5.67-.38-3.73-.06-4.05,4.81-4.88,4.05-.7,5.61-.41,7,1.28,1.61,1.95,1.72,1.86,1.06-.89-.64-2.68-.33-2.99,2.44-2.46,1.74.33,4.2-.17,5.45-1.13,1.25-.95,3.1-1.75,4.11-1.77,1.45-.03,1.38.46-.33,2.34-1.19,1.31-2.16,3.04-2.16,3.83,0,1.85,5.17,5.51,7.78,5.5,1.09,0,.08-1.17-2.24-2.59-5.07-3.09-5.32-4.78-1.02-6.75,1.77-.81,2.94-1.9,2.61-2.44-.68-1.09,8.18-2.65,14.74-2.58,5.57.05,16.57,5.66,19.32,9.86,2.02,3.08,2,3.63-.25,8.62-2.82,6.25-8.27,10.1-20.1,14.19-15.1,5.23-17.68,8.7-10.42,14.06,2.51,1.85,3.91,4.04,3.91,6.11,0,2.92-.52,3.22-5.54,3.21-6.09,0-11.21-2.61-17.51-8.91-4.6-4.6-7.1-4.99-13.8-2.19-4.75,1.98-12.66,10.38-12.66,13.43,0,1.35-.64,1.28-2.9-.3-4.04-2.83-13.91-2.57-17.88.48-3.11,2.39-3.15,2.65-1.65,10.68.84,4.53,1.1,8.6.58,9.05-.52.45-5.35,2.23-10.72,3.95-9.52,3.05-10.74,3.12-47.55,2.76-46.95-.46-56.26-.92-58.67-2.92-1.15-.95-1.91-3.87-1.91-7.31,0-6.08,7.29-29.35,15.13-48.29,11.31-27.31,13.13-42.08,7.56-61.29-.77-2.66-.41-2.93,3.89-2.93,3.82,0,5.03-.65,6.26-3.33,1.49-3.26,1.55-3.27,2.95-.65,1.36,2.55,1.75,2.36,7.85-3.84,4.97-5.05,5.86-6.52,3.93-6.52s-2.14-.35-.93-1.56c3.62-3.62.24-12.62-4.83-12.87-1.77-.09-1.79-.21-.12-.85,1.07-.41,4.27-3.05,7.1-5.87,5.27-5.24,13.42-10.12,16.9-10.12,1.08,0,5.57-3.22,9.99-7.17,4.42-3.94,8.84-7.17,9.82-7.17s1.79-.59,1.79-1.3-.9-1.3-1.99-1.3-2.32-.83-2.71-1.85c-1.03-2.69-7.03.11-11.43,5.34-1.92,2.28-6.25,5.16-9.63,6.41-7.65,2.82-12.36,6.87-11.56,9.94,1,3.81-1.56,4.01-5.79.45-2.19-1.84-6.31-3.72-9.16-4.18-4.12-.66-5-1.26-4.28-2.93.49-1.16,1.73-4.4,2.75-7.2,2.29-6.33,13.86-20.38,18.48-22.42,1.89-.84,6.36-2.9,9.94-4.59,5.15-2.43,8.47-3.02,15.89-2.86,10.65.23,11.88.57,39.48,10.88,11.11,4.15,22.25,8.15,24.75,8.88,18.25,5.33,24.91,6.96,41.04,10.05,19.53,3.73,29.58,3.74,35.23.04,1.71-1.12,4.11-2.04,5.33-2.04s3.15-.82,4.28-1.83c1.13-1.01,5.87-3.4,10.53-5.31,13.55-5.56,31.81-7.15,64.49-5.62,37.73,1.77,41.39.79,49.74-13.35,3.06-5.18,7.44-5.09,11.94.24M254.95,285.61c6.36,6.83,14.98,12.11,16.29,9.98.44-.71-.14-1.29-1.28-1.29-2.83,0-8.01-3.34-15.01-9.68l-5.86-5.31,5.86,6.3M204.14,289.46c2.41,2.53,33.32,18.83,32.17,16.96-.46-.74-5.68-3.8-11.61-6.81-5.93-3-13.42-6.98-16.64-8.83-3.22-1.85-4.98-2.45-3.91-1.32M367.41,291.62c-2.28,1.39-4.75,3.65-5.48,5.02-.73,1.37-4.44,3.81-8.23,5.42-7.5,3.19-12.75,7.32-12.75,10.04,0,2.58,1.8,2.1,5.03-1.34,1.58-1.69,5.35-3.8,8.37-4.7,3.29-.98,8.2-4.19,12.25-8.01,3.72-3.51,7.38-6.38,8.14-6.38s1.38-.59,1.38-1.3c0-2.1-4.23-1.5-8.71,1.24M292.08,293.73c-.72.29-5.41,1.05-10.42,1.69-7.27.92-7.93,1.16-3.26,1.2,3.22.03,8.79-.36,12.38-.86,6.18-.87,14.67.7,20.38,3.75,1.21.65,3.76.66,5.86.03l3.72-1.12-4.56-.16c-2.51-.08-7.78-1.29-11.73-2.67-7.08-2.49-9.84-2.91-12.38-1.87M379.88,304.41c-1.87,1.24-5.49,4.42-8.04,7.06-2.75,2.84-6.94,5.46-10.28,6.42-6.86,1.97-12.81,5.88-12.81,8.4,0,1.03.57,1.87,1.26,1.87s.92.88.51,1.95c-1.17,3.05,1.66,2.32,7.55-1.95,2.97-2.15,6.46-3.91,7.75-3.91s4.69-2.2,7.54-4.89c2.85-2.69,6.25-5.64,7.55-6.55,1.79-1.26,1.95-1.85.66-2.42-1.34-.59-1.24-1.26.46-3.14,3.26-3.6,1.83-5.5-2.15-2.85M236.69,312.6c-.94,2.84-1.32,5.55-.85,6.02.47.47,1.23-1.01,1.68-3.29.46-2.28,1.21-4.38,1.67-4.66.46-.29,5.81,3.55,11.88,8.52,18.68,15.3,23.83,18.9,30.58,21.34,3.58,1.3,11.12,4.65,16.75,7.46,5.63,2.81,10.48,4.86,10.77,4.56.59-.59-12.76-7.37-28.34-14.38-6.4-2.88-13.64-7.66-20.33-13.42-5.72-4.92-13.03-10.83-16.25-13.13l-5.86-4.18-1.7,5.16M377.28,319.62c-2.46,2.46-8.43,6.25-13.25,8.41-5.33,2.39-8.76,4.72-8.76,5.94,0,2.48,1.25,2.54,4.6.24,1.41-.97,4.88-2.52,7.71-3.44,4.86-1.58,17.66-12.1,17.66-14.51s-3.71-.89-7.96,3.36M302.51,333.51c2.15.77,8.5,3.11,14.12,5.2,10.04,3.73,15.27,4.9,11.15,2.49-3.45-2.02-19.72-7.52-24.61-8.33l-4.56-.75,3.91,1.4M346.51,345.9c.44.44-1.22,3.73-3.69,7.31-3.67,5.33-4.48,7.72-4.48,13.14s-.65,7.3-3.42,10.19c-3.6,3.76-5.66,11.27-5.49,20.03.07,3.75.53,2.43,1.63-4.71,1.15-7.44,2.41-10.96,5.06-14.1,1.94-2.3,3.56-4.88,3.6-5.72.51-10.89,1.07-12.99,4.9-18.32,4.37-6.09,5.14-8.61,2.63-8.61-.84,0-1.16.36-.73.79M238.06,358.3c-.03,1.17.83,4.23,1.91,6.8,2.61,6.25,2.47,9.78-.78,19.17-1.5,4.35-2.4,8.25-1.98,8.66.41.41.98-.07,1.25-1.06s1.46-4.75,2.64-8.33c1.18-3.58,2.14-8,2.14-9.82,0-3.65-5.1-18.82-5.17-15.42M388.44,386.62c-9.51,5.8-14.55,16.42-13.02,27.45,1,7.17,7.35,20.81,11.32,24.29,3.23,2.83,2.43.9-2.26-5.44-1.64-2.23-4.25-7.79-5.8-12.38-2.5-7.41-2.64-9.1-1.27-15.25,1.56-7,6.79-14.47,12.25-17.51,1.51-.84,5.68-1.91,9.27-2.37l6.51-.84-6.51-.18c-4.31-.12-7.85.64-10.48,2.24M404.96,399.54c-.1,1.64,1.26,5.81,3.02,9.28,3.1,6.12,6.21,8.72,8.65,7.21,1.51-.93,1.56-12.3.06-12.3-.62,0-1.06,2.2-.98,4.89.11,3.52-.39,4.89-1.79,4.89-2.05,0-7.23-8.79-8.21-13.91l-.58-3.03-.18,2.97M480.93,408.81c1.07,2.07,2.34,6.33,2.81,9.45,1.27,8.34,3.35,10.98,2.42,3.07-.79-6.74-4.4-16.24-6.17-16.27-.56,0-.13,1.68.94,3.76M82.3,410.37c-2.86,1.5-6.36,3.95-7.8,5.44l-2.61,2.72,3.26-2.18c6.74-4.52,13.03-7.4,16.15-7.4,5.43,0,9.86,2.37,11.51,6.16,5.03,11.58,15.17,21.64,26.57,26.39,8.52,3.55,10.8,3.93,23.58,3.93,7.78,0,21.16-.87,29.73-1.94,19.61-2.45,31.62-2.48,37.25-.12,4.69,1.97,10.24,7.29,12.81,12.27.86,1.67,1.86,2.75,2.22,2.39,1.01-1-2.08-6.31-6.2-10.68-4.12-4.36-4.11-4.77.73-25.94,1.13-4.97,1.87-9.61,1.63-10.33-.24-.71-1.51,3.27-2.82,8.86l-2.39,10.15-6-.72c-3.95-.47-5.11-.33-3.4.41,1.43.62,4,1.17,5.7,1.22,2.9.09,3.04.44,2.22,5.58-1.07,6.68-1.18,6.8-4.47,5.04-3.8-2.04-23.62-1.73-44.23.68-32.59,3.81-47.36.78-60.19-12.35-3.94-4.03-8.02-9.09-9.06-11.24-1.04-2.15-3.35-5.52-5.13-7.49-4.06-4.49-11.5-4.83-19.06-.85M521.84,436.91c1.54,2.84,2.8,7.05,2.8,9.35,0,5.77,2.95,8.29,9.7,8.29,7.35,0,17.24,4.39,18.39,8.17,1.61,5.27,4.6,7.46,10.22,7.51,4.69.04,9.9,2.23,9.9,4.18,0,.37-1.9,1.48-4.23,2.46-5.44,2.29-23.63,2.01-45.49-.72-22.78-2.84-27.19-2.66-37.35,1.53-11.88,4.9-29.5,5.12-41.26.53-6.56-2.56-9.2-2.92-16.43-2.22l-8.61.83-.87-7.39c-.73-6.2-.5-7.67,1.44-9.14,3.05-2.32,7.08-2.28,10.2.08,4.62,3.5,8.1,2.47,11.02-3.27,2.82-5.53,9.21-10.36,13.72-10.37,1.47,0,4.69,2.07,7.15,4.61,5.09,5.25,15.98,9.11,21.99,7.79,7.2-1.58,8.15-12.4,1.46-16.58-3.86-2.41-3.31-3.36,2.88-4.99,11.57-3.04,21.59-8.77,25.38-14.51l3.61-5.47.78,7.09c.43,3.9,2.04,9.41,3.58,12.25M56.92,422.16c-3.22.66-9.71.84-14.41.4-8.38-.79-8.65-.71-14.13,3.86-3.07,2.57-5.07,4.67-4.44,4.67s3.01-1.61,5.29-3.58c3.94-3.41,4.8-3.58,17.54-3.58,8.25,0,14.4-.61,16-1.59,2.99-1.82,2.25-1.84-5.86-.18M157.34,421.71c-.18,2.85,3.68,9.22,6.49,10.73,1.95,1.04,6.04.98,15.3-.24,6.95-.92,11.3-1.88,9.66-2.13s-7.01.16-11.95.93c-11.07,1.72-13.95.73-17-5.83-1.32-2.83-2.44-4.38-2.5-3.45M332.57,426.08c.54,2.44.14,3.81-1.38,4.66-3.79,2.12-7.53,27.42-4.58,30.98,2.3,2.77,30.64,2.85,31.7.09.39-1.02,2.36-2.11,4.37-2.41l3.66-.55-3.69-.2c-2.33-.12-3.49-.8-3.13-1.82.31-.9-1.75-4.27-4.58-7.49-2.83-3.22-6.05-7.62-7.16-9.77-5.43-10.51-8.17-13.79-10.46-12.51-1.72.96-2.62.6-3.88-1.59-1.58-2.73-1.61-2.71-.87.61M338.36,432.07c.03,3.22,7.97,16.03,14.14,22.8l3.26,3.58h-25.95l.79-8.14c.44-4.48,1.24-9.32,1.78-10.75s1.59-4.22,2.32-6.19c1.5-4.02,3.62-4.78,3.65-1.3M551.35,446.93c2.15.71,5.08,1.79,6.51,2.4,5.78,2.45,10.96,3.1,22.15,2.75,18.17-.56,53.28,6.05,48.75,9.18-1.36.94-1.11,1.07.98.48,1.55-.44,3.2-.17,3.67.58.47.76,2.82,2.2,5.22,3.2,8.69,3.63,9.18,12.19.88,15.45-6.89,2.71-16.31,4.54-28.22,5.49-15.84,1.26-18.88,1.39-46.25,1.87-25.29.44-25.35.45-12.38,1.64,25.08,2.29,74.58-1.58,86.25-6.75,9.88-4.37,12.18-10.08,6.3-15.61-11.45-10.76-34.32-17.16-63.24-17.7-12.13-.23-19.36-.98-23.29-2.41-3.13-1.14-6.95-2.03-8.47-1.98-2.16.08-1.91.39,1.14,1.4M.39,454.9c-1.29,4.26.69,9.87,4.86,13.79,6.26,5.88,22.46,10.95,48.54,15.18,12.19,1.98,17.09,2.62,45.47,5.92,30.57,3.56,138.98,5.88,165.76,3.56,13.87-1.21,19.34-1.15,28.01.26,12.05,1.97,56.08,2.1,63.54.19,3.03-.78-6.12-1.15-27.36-1.13-20.93.02-34.74-.54-40.1-1.63-7.88-1.61-8.1-1.76-5.98-4.1,3.53-3.9,1.38-3.97-2.8-.1-3.79,3.52-3.93,3.54-23.06,3.54-10.73,0-19.25.53-19.25,1.19,0,.71-19.02.84-47.23.32-49.88-.92-74.6-2.08-71-3.35,1.2-.42-3.81-.83-11.13-.91-21.65-.23-85.06-9.97-88.81-13.63-.68-.66-2.21-1.21-3.4-1.21s-4.85-2.05-8.14-4.57c-5.43-4.14-6.02-5.14-6.41-10.75-.39-5.59-.53-5.84-1.52-2.58M11.62,457.13c7.31,3.92,13.82,4.49,22.68,2.01,5.92-1.66,10.6-2,19.44-1.41,6.41.43,14.58.79,18.16.8s8.86.85,11.73,1.87c2.87,1.02,10.45,2.5,16.85,3.29,6.4.79,12.66,2,13.92,2.67,1.26.67,5.15,1.22,8.65,1.22s9.27.86,12.82,1.92c3.55,1.06,10.26,2.51,14.89,3.24,8.18,1.28,14.9,2.65,25.05,5.11,2.69.65,5.15.77,5.46.27.31-.5-3.06-1.68-7.5-2.61-29.35-6.17-49.18-10.03-63.44-12.35-13.18-2.15-23.57-3.97-35.18-6.16-6.71-1.27-29.63-.82-49.04.95-5.9.54-9.04.19-11.99-1.33-2.19-1.13-4.74-2.06-5.66-2.06s.5,1.16,3.15,2.58M184.05,479.2c.66.63,5.01,1.49,9.67,1.92,5.13.48,7.44.35,5.86-.33-3.75-1.6-16.98-2.96-15.53-1.6M498.59,485.88c3.22.57,9.67,1,14.33.96l8.47-.09-7.17-.99c-3.94-.54-10.39-.97-14.33-.96l-7.17.03,5.86,1.04"/>
</svg>